<?xml version="1.0" encoding="UTF-8"?>
<svg width="189px" height="50px" viewBox="0 0 189 50" version="1.1" xmlns="http://www.w3.org/2000/svg" xmlns:xlink="http://www.w3.org/1999/xlink">
    <!-- Generator: Sketch 47.1 (45422) - http://www.bohemiancoding.com/sketch -->
    <title>aah-logo</title>
    <desc>Created with Sketch.</desc>
    <defs></defs>
    <g id="Client-Logos" stroke="none" stroke-width="1" fill="none" fill-rule="evenodd">
        <g id="aah-logo" fill="#818181">
            <g id="Page-1" transform="translate(50.996203, 0.014648)">
                <path d="M14.3893516,39.9431781 C14.3893516,39.9431781 14.8218873,38.5307793 14.4655734,35.4255835 C14.4655734,35.4255835 16.0686797,35.7693468 18.0026926,36.990732 C18.0026926,36.990732 17.7268861,32.2576349 11.8483195,30.6796298 L11.8461767,30.6796298 L11.8464828,24.3369981 L10.1628692,24.3369981 L10.1647059,30.7558516 C10.1647059,30.7558516 4.05686176,32.0540707 3.75166853,38.2889512 C3.75166853,38.2889512 6.3600452,36.571053 7.09838631,35.4001763 C7.09838631,35.4001763 6.25841616,37.487245 6.51279488,40.0576638 C6.51279488,40.0576638 7.79815735,39.3578927 8.99413525,36.9145102 C8.99413525,36.9145102 9.27392123,41.97882 9.91032718,42.5132908 C9.91032718,42.5132908 10.5338764,41.4443492 10.8901903,37.2711302 C10.8901903,37.2711302 11.2590547,38.1490582 11.8697473,38.7340374 C11.8697473,38.7340374 12.1495333,38.3780296 12.3534036,36.8511451 C12.3534036,36.8511451 12.8367538,38.5179226 14.3893516,39.9431781 Z M19.9103799,24.3360797 L19.9177266,44.116091 L1.65051872,44.1148665 L1.65021261,24.3360797 L19.9103799,24.3360797 Z" id="Fill-2"></path>
                <path d="M11.8479522,17.9190017 L11.8479522,24.3369369 L10.162808,24.3369369 L10.162808,17.7659459 L10.1658691,17.7659459 L9.82333027,17.6750308 C9.82333027,17.6750308 0.791202323,15.7557112 0.339687759,6.53501858 C0.339687759,6.53501858 4.19699964,9.07513237 5.28828738,10.8064994 C5.28828738,10.8064994 4.04639274,7.72028257 4.42290997,3.91929522 C4.42290997,3.91929522 6.3235567,4.95425843 8.09226935,8.56729328 C8.09226935,8.56729328 8.5064383,1.07766153 9.44742526,0.287281459 C9.44742526,0.287281459 10.3694333,1.8680416 10.8962513,8.04047527 C10.8962513,8.04047527 11.4417421,6.74164388 12.3450774,5.87626648 C12.3450774,5.87626648 12.7592463,6.40308449 13.060154,8.66126953 C13.060154,8.66126953 13.7752306,6.19615307 16.0710674,4.08857492 C16.0710674,4.08857492 16.7108406,6.17717415 16.1840226,10.7688477 C16.1840226,10.7688477 18.5548567,10.2607025 21.4151632,8.45433811 C21.4151632,8.45433811 21.0071164,15.4544975 12.3135479,17.787986 L11.8479522,17.9190017" id="Fill-4"></path>
                <path d="M65.7204353,46.8288823 C65.294328,46.8288823 64.9450547,47.1754006 64.9450547,47.5537545 C64.9450547,48.0273091 65.294328,48.3738274 65.7204353,48.3738274 C66.1471548,48.3738274 66.4964281,48.0273091 66.4964281,47.5537545 C66.4964281,47.1754006 66.1471548,46.8288823 65.7204353,46.8288823" id="Fill-6"></path>
                <polygon id="Fill-8" points="52.8993196 47.0767102 52.6042281 47.9506588 53.1980845 47.9506588 52.9063602 47.0767102"></polygon>
                <path d="M42.2154749,46.7744863 L42.1462936,46.7744863 L42.1462936,47.4592579 L42.2154749,47.4592579 C42.4487319,47.4592579 42.7107634,47.4154839 42.7107634,47.116719 C42.7107634,46.8182602 42.4487319,46.7744863 42.2154749,46.7744863" id="Fill-10"></path>
                <polygon id="Fill-12" points="7.45895512 47.0767102 7.16386357 47.9506588 7.75772001 47.9506588 7.4663018 47.0767102"></polygon>
                <path d="M82.0794661,48.9746632 L80.5094199,48.9746632 L80.5094199,46.2279241 L81.2232721,46.2279241 L81.2232721,48.3697867 L82.0794661,48.3697867 L82.0794661,48.9746632 Z M77.2315772,48.9746632 L77.0531142,48.4971291 L76.0692716,48.4971291 L75.8800946,48.9746632 L75.1224685,48.9746632 L76.1788595,46.2279241 L76.9585257,46.2279241 L77.9928767,48.9746632 L77.2315772,48.9746632 Z M72.6089864,48.9746632 L71.8951342,48.9746632 L70.5871195,47.2916618 L70.5800789,47.2916618 L70.5800789,48.9746632 L69.8659206,48.9746632 L69.8659206,46.2279241 L70.5800789,46.2279241 L71.8877875,47.9072521 L71.8951342,47.9072521 L71.8951342,46.2279241 L72.6089864,46.2279241 L72.6089864,48.9746632 Z M65.7205578,49.0658844 C64.8392626,49.0658844 64.2016322,48.439274 64.2016322,47.5503261 C64.2016322,46.7198454 64.9304838,46.1367028 65.7205578,46.1367028 C66.5112439,46.1367028 67.2397895,46.7198454 67.2397895,47.5503261 C67.2397895,48.439274 66.6021591,49.0658844 65.7205578,49.0658844 L65.7205578,49.0658844 Z M60.8653222,48.9746632 L61.5791744,48.9746632 L61.5791744,46.227618 L60.8653222,46.227618 L60.8653222,48.9746632 Z M58.3117395,46.8328005 L57.7218625,46.8328005 L57.7218625,48.9746632 L57.0077042,48.9746632 L57.0077042,46.8328005 L56.4175211,46.8328005 L56.4175211,46.2279241 L58.3117395,46.2279241 L58.3117395,46.8328005 Z M53.569459,48.9746632 L53.390996,48.4971291 L52.4074595,48.4971291 L52.2179765,48.9746632 L51.4603503,48.9746632 L52.5167414,46.2279241 L53.2964075,46.2279241 L54.3307585,48.9746632 L53.569459,48.9746632 Z M48.9468682,48.9746632 L48.2330161,48.9746632 L46.9253075,47.2916618 L46.9179608,47.2916618 L46.9179608,48.9746632 L46.2041086,48.9746632 L46.2041086,46.2279241 L46.9179608,46.2279241 L48.2256694,47.9072521 L48.2330161,47.9072521 L48.2330161,46.2279241 L48.9468682,46.2279241 L48.9468682,48.9746632 Z M42.8273919,48.9746632 L42.1536403,47.9182722 L42.1462936,47.9182722 L42.1462936,48.9746632 L41.4321354,48.9746632 L41.4321354,46.2279241 L42.4995464,46.2279241 C43.0422822,46.2279241 43.4540023,46.4865884 43.4540023,47.0730981 C43.4540023,47.4517581 43.2427853,47.7799097 42.8527991,47.8487848 L43.7163399,48.9746632 L42.8273919,48.9746632 Z M38.6970285,46.8328005 L37.8481811,46.8328005 L37.8481811,47.2916618 L38.6532545,47.2916618 L38.6532545,47.8965382 L37.8481811,47.8965382 L37.8481811,48.3697867 L38.6970285,48.3697867 L38.6970285,48.9746632 L37.1343289,48.9746632 L37.1343289,46.2279241 L38.6970285,46.2279241 L38.6970285,46.8328005 Z M34.5810523,46.8328005 L33.9908692,46.8328005 L33.9908692,48.9746632 L33.277017,48.9746632 L33.277017,46.8328005 L32.6868339,46.8328005 L32.6868339,46.2279241 L34.5810523,46.2279241 L34.5810523,46.8328005 Z M30.1369246,48.9746632 L29.4230724,48.9746632 L28.1153638,47.2916618 L28.1080171,47.2916618 L28.1080171,48.9746632 L27.3938588,48.9746632 L27.3938588,46.2279241 L28.1080171,46.2279241 L29.4157257,47.9072521 L29.4230724,47.9072521 L29.4230724,46.2279241 L30.1369246,46.2279241 L30.1369246,48.9746632 Z M23.9191864,48.9746632 L24.6330386,48.9746632 L24.6330386,46.227618 L23.9191864,46.227618 L23.9191864,48.9746632 Z M17.6833876,46.8328005 L16.8198469,46.8328005 L16.8198469,47.2916618 L17.6031864,47.2916618 L17.6031864,47.8965382 L16.8198469,47.8965382 L16.8198469,48.9746632 L16.1059947,48.9746632 L16.1059947,46.2279241 L17.6833876,46.2279241 L17.6833876,46.8328005 Z M13.3705817,47.149626 C13.2248726,46.9531024 12.9882484,46.8474939 12.7439714,46.8474939 C12.306844,46.8474939 12.0117525,47.1823799 12.0117525,47.6087934 C12.0117525,48.0422473 12.3105174,48.3553995 12.7549914,48.3553995 C12.9882484,48.3553995 13.2211993,48.2421382 13.3705817,48.0636752 L13.3705817,48.9198692 C13.1336514,48.9930299 12.962535,49.0472116 12.740298,49.0472116 C12.3579647,49.0472116 11.9936919,48.9018086 11.7096204,48.6431444 C11.4071821,48.3697867 11.2688197,48.0125545 11.2688197,47.6048139 C11.2688197,47.2298272 11.4108555,46.8692278 11.6731931,46.5992374 C11.9425713,46.3228187 12.3325574,46.1553756 12.7185641,46.1553756 C12.9481478,46.1553756 13.1593648,46.2061902 13.3705817,46.2937381 L13.3705817,47.149626 Z M8.12933946,48.9746632 L7.95087641,48.4971291 L6.96703383,48.4971291 L6.77785688,48.9746632 L6.02023075,48.9746632 L7.07662177,46.2279241 L7.85598183,46.2279241 L8.89063893,48.9746632 L8.12933946,48.9746632 Z M1.64681477,49.8574889 L86.4296176,49.8574889 L86.4296176,45.3891784 L1.64681477,45.3891784 L1.64681477,49.8574889 Z" id="Fill-14"></path>
                <polygon id="Fill-16" points="76.561101 47.0767102 76.2660095 47.9506588 76.860172 47.9506588 76.5684477 47.0767102"></polygon>
                <path d="M41.0216703,23.4650087 C41.0568732,23.4650087 41.0902393,23.4628659 41.1248299,23.4625598 L41.1248299,20.7519418 L43.8207545,20.7519418 L43.9612597,18.2825398 C43.2425098,18.936088 42.6110016,19.3279108 41.6094046,19.3279108 C39.3885651,19.3279108 38.8225648,16.8891199 38.8225648,14.9731676 C38.8225648,13.1658849 39.3885651,10.6184245 41.6966464,10.6184245 C42.6110016,10.6184245 43.1335341,10.9664733 43.7650422,11.5762476 L43.7650422,6.87314941 C43.0465984,6.58999621 42.2846867,6.48132661 41.5004288,6.48132661 C39.3450973,6.48132661 34.2936442,7.72230291 34.2936442,15.0818372 C34.2936442,20.6995967 37.385371,23.4650087 41.0216703,23.4650087" id="Fill-18"></path>
                <polygon id="Fill-20" points="46.7262737 20.75185 51.1679526 20.75185 51.1679526 10.7710823 53.7157192 10.7710823 53.7157192 6.76438797 44.2874828 6.76438797 44.2874828 10.7710823 46.7262737 10.7710823"></polygon>
                <polygon id="Fill-22" points="54.1912635 20.7516357 58.6332485 20.7516357 58.6332485 6.7641737 54.1912635 6.7641737"></polygon>
                <path d="M47.8245714,26.7232908 L49.4576766,31.7171949 C49.5599179,32.057591 49.6756281,32.4478833 49.8054194,32.8877656 C49.9345984,33.3276479 50.0772464,33.8345687 50.2336695,34.4091401 L50.622125,35.8561295 C50.4834565,34.4305679 50.3781541,33.2104072 50.3059118,32.1962595 C50.2336695,31.1818058 50.1975483,30.3308156 50.1975483,29.6426768 L50.1975483,26.7232908 L47.8245714,26.7232908 Z" id="Fill-24"></path>
                <path d="M28.3480698,13.7754143 C28.5222473,12.7520833 28.631223,11.7070184 28.7616265,10.6836874 L28.8050944,10.6836874 C28.9140701,11.7070184 29.0013119,12.7520833 29.1320215,13.7754143 L29.61078,17.5861972 L27.7382955,17.5861972 L28.3480698,13.7754143 Z M27.1505613,21.070053 L30.1336186,21.070053 L30.4599335,23.1819167 L35.054362,23.1819167 L31.5705063,6.76423492 L26.1486582,6.76423492 L22.2077778,23.1819167 L26.7801663,23.1819167 L27.1505613,21.070053 Z" id="Fill-25"></path>
                <path d="M76.2041749,18.3697816 C76.2041749,16.8239182 76.0085696,15.2997887 75.8995939,13.7536191 L75.9430618,13.7101513 L79.2527401,23.1818555 L83.5205475,23.1818555 L83.5205475,6.7641737 L79.2527401,6.7641737 L79.2527401,10.9447394 C79.2527401,12.8392639 79.5793611,14.7117484 79.7538447,16.6062729 L79.7100707,16.6497407 L76.1610132,6.7641737 L71.9369797,6.7641737 L71.9369797,23.1818555 L76.2041749,23.1818555 L76.2041749,18.3697816 Z" id="Fill-26"></path>
                <path d="M79.5498826,42.3684388 L77.6905609,36.5171162 C77.6721942,36.417936 77.6406647,36.286308 77.5953602,36.1234567 C77.5503618,35.9599931 77.4946495,35.7653062 77.4285294,35.5381714 L77.4557733,36.6230308 L77.4557733,42.3684388 L73.7095799,42.3684388 L73.7095799,25.9510632 L77.5641368,25.9510632 C79.2612193,25.9510632 80.530664,26.3441104 81.3733892,27.1314294 C82.4447797,28.1379242 82.9801688,29.569608 82.9801688,31.4267869 C82.9801688,33.4122265 82.2608066,34.7836064 80.8223883,35.5421508 L83.6211664,42.3684388 L79.5498826,42.3684388 Z M72.9366482,29.879699 L69.7056406,29.879699 L69.7056406,32.195433 L72.6029866,32.195433 L72.6029866,36.1240689 L69.7056406,36.1240689 L69.7056406,38.4398029 L72.9366482,38.4398029 L72.9366482,42.3684388 L65.9413867,42.3684388 L65.9413867,25.9510632 L72.9366482,25.9510632 L72.9366482,29.879699 Z M32.2985008,42.3684388 L28.534553,42.3684388 L28.534553,35.7634695 L26.7382903,35.7634695 L26.7382903,42.3684388 L22.9740363,42.3684388 L22.9740363,25.9510632 L26.7382903,25.9510632 L26.7382903,31.8348336 L28.534553,31.8348336 L28.534553,25.9510632 L32.2985008,25.9510632 L32.2985008,42.3684388 Z M62.1498888,24.3360185 L62.1498888,26.4402294 C63.3146433,27.0496976 64.2228763,28.2291454 64.8715267,29.9862259 L61.2248196,31.5602515 C61.1706379,31.042923 61.0457443,30.6333457 60.850139,30.3321319 C60.6539215,30.0303059 60.4093384,29.879699 60.1145529,29.879699 C59.0795897,29.879699 58.5619551,31.4564797 58.5619551,34.6094289 C58.5619551,35.9498914 58.6761347,36.9230201 58.9048,37.5294271 C59.1334654,38.1367525 59.4977381,38.4398029 59.9973122,38.4398029 C60.1956725,38.4398029 60.3759722,38.3896006 60.5388236,38.2895022 C60.7013688,38.1890976 60.8378946,38.0479801 60.9490131,37.8661499 C61.0607438,37.6843196 61.1479856,37.4636131 61.2113507,37.2031122 C61.2744097,36.9423051 61.3059392,36.6527236 61.3059392,36.332837 L59.9155804,36.332837 L59.9155804,32.8596951 L65.1693733,32.8596951 L65.1693733,33.5212022 C65.1693733,36.5945624 64.7692855,38.8059124 63.9691098,40.1564766 C63.0963857,41.6313221 61.8052071,42.3684388 60.0964924,42.3684388 C58.4174704,42.3684388 57.099354,41.6496888 56.1427553,40.2121889 C55.1919728,38.7615262 54.7165815,36.7693521 54.7165815,34.2368911 C54.7165815,31.6701456 55.1947278,29.6473603 56.1513265,28.1685354 C56.5465165,27.558455 57.0047655,27.0818393 57.5193391,26.7233826 L53.8230419,26.7233826 L53.8230419,42.3684388 L50.1974565,42.3684388 L48.3059931,36.3254903 C48.1076328,35.679901 47.9288636,35.0756368 47.7699917,34.5114732 C47.6108137,33.9476157 47.4709207,33.4100837 47.3506189,32.8994897 C47.5021441,34.0559792 47.6123443,35.0630862 47.6821377,35.9211169 C47.7525434,36.7794538 47.787134,37.5312638 47.787134,38.176547 L47.787134,42.3684388 L44.1618547,42.3684388 L44.1618547,26.7233826 L42.8642477,26.7233826 L42.8642477,37.3625963 C42.8642477,38.3173583 42.7350686,39.0905961 42.4764044,39.682922 C42.2232501,40.3031041 41.8020406,40.8639004 41.2124697,41.3653112 C40.4184163,42.0344711 39.4523282,42.3684388 38.3151237,42.3684388 C37.0270062,42.3684388 35.9470446,41.9992683 35.0746266,41.2609271 C33.967115,40.3202463 33.4133591,38.8154018 33.4133591,36.7463937 L33.4133591,25.9510632 L37.1776131,25.9510632 L37.1776131,36.4831378 C37.1776131,37.1957655 37.251386,37.6999313 37.3986257,37.995635 C37.5461714,38.2916449 37.7944279,38.4398029 38.1437012,38.4398029 C38.5046068,38.4398029 38.7540877,38.3023588 38.8927562,38.0268584 C39.0308125,37.7381952 39.1002999,37.2269889 39.1002999,36.4938517 L39.1002999,25.9510632 L41.1249218,25.9510632 L41.1249218,24.3360185 L21.1860386,24.3360185 L21.1860386,44.1151114 L86.4312706,44.1151114 L86.4312706,24.3360185 L62.1498888,24.3360185 Z" id="Fill-27"></path>
                <path d="M77.6088597,29.4241744 L77.4741706,29.4241744 L77.4741706,33.3393414 L77.7267127,33.3393414 C78.1595544,33.3393414 78.5207661,33.1446544 78.8097354,32.7543622 C79.0983986,32.3640699 79.2428833,31.8672508 79.2428833,31.2648233 C79.2428833,30.0379281 78.6983108,29.4241744 77.6088597,29.4241744" id="Fill-28"></path>
                <path d="M65.2747369,10.6184857 C66.9516161,10.6184857 67.0168178,13.9498979 67.0168178,14.9732289 C67.0168178,15.9965598 66.9516161,19.327972 65.2747369,19.327972 C63.5981638,19.327972 63.5332682,15.9965598 63.5332682,14.9732289 C63.5332682,13.9498979 63.5981638,10.6184857 65.2747369,10.6184857 L65.2747369,10.6184857 Z M62.14995,20.752003 L62.14995,22.5427557 C62.9966546,23.1219188 64.0306995,23.4650699 65.2747369,23.4650699 C69.7822297,23.4650699 71.5457385,18.9796171 71.5457385,14.9732289 C71.5457385,10.9665345 69.7822297,6.48138783 65.2747369,6.48138783 C60.7675501,6.48138783 59.0043475,10.9665345 59.0043475,14.9732289 C59.0043475,16.9892796 59.4515765,19.1256323 60.4690914,20.752003 L62.14995,20.752003 Z" id="Fill-29"></path>
                <polygon id="Fill-30" points="43.6173434 23.0717777 43.2686823 24.2178595 43.9693717 24.2178595 43.6256084 23.0717777"></polygon>
                <polygon id="Fill-31" points="50.1628658 23.0717777 49.8142048 24.2178595 50.5148941 24.2178595 50.1711309 23.0717777"></polygon>
                <path d="M61.0665905,22.7518911 L60.3701867,22.7518911 L60.3701867,25.5598526 L59.5277677,25.5598526 L59.5277677,22.7518911 L58.8313639,22.7518911 L58.8313639,21.9590622 L61.0665905,21.9590622 L61.0665905,22.7518911 Z M58.5604551,25.3161878 C58.3069947,25.5546487 57.9678231,25.6550533 57.640896,25.6550533 C57.2325431,25.6550533 56.8330675,25.5023036 56.5021609,25.2445577 L56.8630665,24.4899926 C57.0736712,24.6953935 57.322846,24.8625304 57.610897,24.8625304 C57.808339,24.8625304 58.0192499,24.7526364 58.0192499,24.4994821 C58.0192499,24.2368384 57.6883433,24.1462293 57.5077374,24.0889865 C56.9787766,23.9218496 56.6310339,23.7690999 56.6310339,23.0717777 C56.6310339,22.3410894 57.0993846,21.8635554 57.7483411,21.8635554 C58.0749622,21.8635554 58.4744378,21.9780411 58.7627949,22.1595653 L58.4276027,22.8856619 C58.2724041,22.7420956 58.0749622,22.6465888 57.868643,22.6465888 C57.7140566,22.6465888 57.5077374,22.7469934 57.5077374,22.9474964 C57.5077374,23.157489 57.7354844,23.2389147 57.8818058,23.2912597 L58.0966961,23.3628898 C58.5475984,23.5110478 58.8956473,23.7642021 58.8956473,24.3467324 C58.8956473,24.704883 58.8185072,25.072523 58.5604551,25.3161878 L58.5604551,25.3161878 Z M56.312984,25.5598526 L55.4705649,25.5598526 L53.9277626,23.3534004 L53.9188854,23.3534004 L53.9188854,25.5598526 L53.0764664,25.5598526 L53.0764664,21.9590622 L53.9188854,21.9590622 L55.4616877,24.1606166 L55.4705649,24.1606166 L55.4705649,21.9590622 L56.312984,21.9590622 L56.312984,25.5598526 Z M51.8991613,25.5598526 L52.7415803,25.5598526 L52.7415803,21.9590622 L51.8991613,21.9590622 L51.8991613,25.5598526 Z M50.9535826,25.5598526 L50.7426718,24.9341605 L49.5822028,24.9341605 L49.3590475,25.5598526 L48.4652017,25.5598526 L49.7113819,21.9590622 L50.630941,21.9590622 L51.851714,25.5598526 L50.9535826,25.5598526 Z M46.9178077,25.6792361 C45.8990684,25.6792361 45.190114,24.9102838 45.190114,23.7785894 C45.190114,22.6086309 45.9036601,21.8396787 46.9481128,21.8396787 C47.6142115,21.8396787 48.1297034,22.1739525 48.4088772,22.847398 L47.609926,23.2199357 C47.4936036,22.8758663 47.2487143,22.6465888 46.9095427,22.6465888 C46.3545624,22.6465888 46.0671237,23.2340169 46.0671237,23.783181 C46.0671237,24.3418346 46.3674191,24.9102838 46.9223994,24.9102838 C47.2872844,24.9102838 47.5667642,24.7002913 47.6013548,24.2845918 L46.9135222,24.2845918 L46.9135222,23.5490057 L48.5855035,23.5490057 C48.5766263,24.0745992 48.5426479,24.5233588 48.2545969,24.9724245 C47.9362409,25.4640396 47.4593191,25.6792361 46.9178077,25.6792361 L46.9178077,25.6792361 Z M44.4076929,25.5598526 L44.1973942,24.9341605 L43.0369252,24.9341605 L42.8134638,25.5598526 L41.919618,25.5598526 L43.1657982,21.9590622 L44.0853574,21.9590622 L45.3064364,25.5598526 L44.4076929,25.5598526 Z M41.5645286,26.2831942 L61.7100371,26.2831942 L61.7100371,21.1916405 L41.5645286,21.1916405 L41.5645286,26.2831942 Z" id="Fill-32"></path>
            </g>
        </g>
    </g>
</svg>