<?xml version="1.0" encoding="UTF-8"?>
<svg width="189px" height="50px" viewBox="0 0 189 50" version="1.1" xmlns="http://www.w3.org/2000/svg" xmlns:xlink="http://www.w3.org/1999/xlink">
    <!-- Generator: Sketch 47.1 (45422) - http://www.bohemiancoding.com/sketch -->
    <title>catalyst-logo</title>
    <desc>Created with Sketch.</desc>
    <defs></defs>
    <g id="Client-Logos" stroke="none" stroke-width="1" fill="none" fill-rule="evenodd">
        <g id="catalyst-logo" fill="#818181">
            <g id="Page-1" transform="translate(25.512928, 8.178663)">
                <path d="M12.9179427,21.8172133 C11.5426516,23.7063957 9.65241619,24.4667021 7.51681871,24.4667021 C3.08134703,24.4667021 0.000105305595,21.2622528 0.000105305595,16.8267811 C0.000105305595,12.3913094 3.08134703,9.18686015 7.51681871,9.18686015 C9.48813946,9.18686015 11.2551673,9.84396706 12.528312,11.4667263 L11.4194441,12.3913094 C10.514869,11.0360264 8.97530121,10.4189356 7.51681871,10.4189356 C3.71739283,10.4189356 1.35538832,13.2126931 1.35538832,16.8267811 C1.35538832,20.4398161 3.71739283,23.2346266 7.51681871,23.2346266 C8.97530121,23.2346266 10.7823452,22.5364505 11.8090748,20.9747685 L12.9179427,21.8172133 Z" id="Fill-1"></path>
                <path d="M21.6318754,9.55690401 L23.0282276,9.55690401 L29.1475358,24.0975006 L27.627976,24.0975006 L26.046286,20.2359444 L18.3452878,20.2359444 L16.7025205,24.0975006 L15.2851072,24.0975006 L21.6318754,9.55690401 Z M22.2679212,11.0353946 L18.8791872,19.003869 L25.5545089,19.003869 L22.2679212,11.0353946 Z" id="Fill-3"></path>
                <polygon id="Fill-5" points="34.2253716 10.7888742 29.2560005 10.7888742 29.2560005 9.55679871 40.5510787 9.55679871 40.5510787 10.7888742 35.5817077 10.7888742 35.5817077 24.0973953 34.2253716 24.0973953"></polygon>
                <path d="M46.9957811,9.55690401 L48.3910803,9.55690401 L54.5124946,24.0975006 L52.9918818,24.0975006 L51.4101917,20.2359444 L43.7091935,20.2359444 L42.0664262,24.0975006 L40.650066,24.0975006 L46.9957811,9.55690401 Z M47.6318269,11.0353946 L44.2430929,19.003869 L50.9173615,19.003869 L47.6318269,11.0353946 Z" id="Fill-7"></path>
                <polygon id="Fill-9" points="58.0297014 9.55690401 59.3849845 9.55690401 59.3849845 22.8654252 67.223933 22.8654252 67.223933 24.0975006 58.0297014 24.0975006"></polygon>
                <polygon id="Fill-11" points="71.7785053 17.8327655 66.4395116 9.55679871 68.0622708 9.55679871 72.4566733 16.4564213 76.9532223 9.55679871 78.472782 9.55679871 73.1337883 17.8327655 73.1337883 24.0963423 71.7785053 24.0963423"></polygon>
                <path d="M81.8483529,21.4057843 C82.5696962,22.6178517 83.7385883,23.2338894 85.1760097,23.2338894 C87.0041148,23.2338894 88.4415362,22.1260746 88.4415362,20.3790548 C88.4415362,16.3142588 80.9458839,18.6962713 80.9458839,13.1708867 C80.9458839,10.5824752 83.1636197,9.18612301 85.6067096,9.18612301 C87.1883996,9.18612301 88.5858049,9.72107544 89.5704122,11.0142281 L88.4015201,11.857726 C87.723352,10.9110287 86.818777,10.4181985 85.5645873,10.4181985 C83.8207267,10.4181985 82.3011669,11.3227735 82.3011669,13.1708867 C82.3011669,17.5442281 89.7957662,14.9158005 89.7957662,20.3790548 C89.7957662,23.0074824 87.6401606,24.4659649 85.2781561,24.4659649 C83.3700187,24.4659649 81.6851292,23.8499272 80.5552001,22.2692902 L81.8483529,21.4057843 Z" id="Fill-13"></path>
                <polygon id="Fill-15" points="97.7882502 10.7888742 92.8199322 10.7888742 92.8199322 9.55679871 104.113957 9.55679871 104.113957 10.7888742 99.1445863 10.7888742 99.1445863 24.0973953 97.7882502 24.0973953"></polygon>
                <polygon id="Fill-17" points="115.501283 17.1763957 118.264502 17.1763957 118.264502 16.428726 115.501283 16.428726"></polygon>
                <polygon id="Fill-19" points="118.472902 24.3541304 120.425268 22.4017646 120.953902 22.9303987 119.002589 24.8827645"></polygon>
                <polygon id="Fill-20" points="118.472902 9.2499382 119.002589 8.72130411 120.953902 10.675776 120.425268 11.2044101"></polygon>
                <polygon id="Fill-21" points="121.97863 6.73292386 122.668382 6.44754569 123.726703 8.99804722 123.035899 9.28658455"></polygon>
                <polygon id="Fill-22" points="116.198196 20.6869683 118.751856 19.6297001 119.034075 20.3183987 116.481468 21.37672"></polygon>
                <polygon id="Fill-23" points="121.977683 26.8747251 123.037057 24.3189583 123.726809 24.6053895 122.667434 27.1590502"></polygon>
                <polygon id="Fill-24" points="116.198196 12.9176268 116.481468 12.2268221 119.034075 13.2861964 118.751856 13.975948"></polygon>
                <polygon id="Fill-25" points="124.029246 6.03264165 124.762173 5.88731993 125.303444 8.5968329 124.57157 8.74320768"></polygon>
                <polygon id="Fill-26" points="115.637759 18.5931772 118.350431 18.0550656 118.493647 18.7858864 115.78624 19.3261041"></polygon>
                <polygon id="Fill-27" points="120.101874 25.7877607 121.63723 23.4889396 122.258533 23.9027906 120.723177 26.2026648"></polygon>
                <polygon id="Fill-28" points="117.155634 10.9709475 117.571591 10.3496445 119.869359 11.8850001 119.453402 12.5073562"></polygon>
                <polygon id="Fill-29" points="120.101874 7.81894046 120.723177 7.40403642 122.258533 9.70180451 121.63723 10.1146024"></polygon>
                <polygon id="Fill-30" points="117.155634 22.6336476 119.453402 21.098292 119.869359 21.719595 117.571591 23.2549506"></polygon>
                <polygon id="Fill-31" points="124.029246 27.5719535 124.57157 24.8613874 125.303444 25.0077622 124.762173 27.7193813"></polygon>
                <polygon id="Fill-32" points="115.637759 15.0134187 115.78624 14.2794387 118.493647 14.8196565 118.350431 15.5515303"></polygon>
                <polygon id="Fill-33" points="126.180324 27.8575422 126.925887 27.8575422 126.925887 25.0932703 126.180324 25.0932703"></polygon>
                <polygon id="Fill-34" points="126.180324 8.51079823 126.925887 8.51079823 126.925887 5.74863246 126.180324 5.74863246"></polygon>
                <polygon id="Fill-35" points="132.154415 10.675776 134.10994 8.72235717 134.635415 9.24888514 132.680943 11.2023039"></polygon>
                <polygon id="Fill-36" points="132.151362 22.9309252 132.681049 22.4022912 134.636574 24.356763 134.10794 24.884344"></polygon>
                <polygon id="Fill-37" points="129.382983 24.6061267 130.072734 24.3207485 131.130003 26.8723031 130.44341 27.1618935"></polygon>
                <polygon id="Fill-38" points="129.382983 8.99952149 130.44341 6.44691386 131.130003 6.73334508 130.072734 9.28489966"></polygon>
                <polygon id="Fill-39" points="127.803399 25.0092365 128.538432 24.8618086 129.07865 27.5723747 128.345723 27.7176964"></polygon>
                <polygon id="Fill-40" points="130.850416 9.70190982 132.385772 7.40308867 133.007075 7.81904577 131.471719 10.1178669"></polygon>
                <polygon id="Fill-41" points="130.850416 23.9047914 131.471719 23.4909404 133.007075 25.7887085 132.385772 26.2046656"></polygon>
                <polygon id="Fill-42" points="127.803399 8.59641168 128.345723 5.8868987 129.07865 6.03222043 128.538432 8.74278645"></polygon>
                <polygon id="Fill-43" points="125.947598 3.53826801 127.159666 3.53826801 127.159666 0 125.947598 0"></polygon>
                <polygon id="Fill-44" points="125.947598 33.6072277 127.159666 33.6072277 127.159666 30.0700128 125.947598 30.0700128"></polygon>
                <polygon id="Fill-45" points="109.750545 17.4101741 113.288813 17.4101741 113.288813 16.1960006 109.750545 16.1960006"></polygon>
                <polygon id="Fill-46" points="135.505871 6.99313398 138.007932 4.49212609 138.867226 5.34931364 136.363059 7.84926848"></polygon>
                <polygon id="Fill-47" points="114.24425 28.256861 116.746311 25.7548001 117.602446 26.6119876 115.099332 29.1151016"></polygon>
                <polygon id="Fill-48" points="114.24425 5.35078792 115.099332 4.49149426 117.602446 6.99250215 116.746311 7.85074275"></polygon>
                <polygon id="Fill-49" points="135.505871 26.6134619 136.363059 25.7552213 138.867226 28.2572823 138.007932 29.1155229"></polygon>
                <polygon id="Fill-50" points="119.561972 1.51039816 120.681371 1.04600048 122.036654 4.31468616 120.917255 4.77908384"></polygon>
                <polygon id="Fill-51" points="131.070505 29.2934893 132.19201 28.8280386 133.547293 32.0967243 132.425788 32.562175"></polygon>
                <polygon id="Fill-52" points="110.797177 22.6728212 114.06481 21.3206974 114.529207 22.4411489 111.260522 23.7943258"></polygon>
                <polygon id="Fill-53" points="131.070505 4.31373841 132.425788 1.04505273 133.547293 1.51050346 132.19201 4.77918915"></polygon>
                <polygon id="Fill-54" points="119.561972 32.0947235 120.917255 28.8260378 122.036654 29.2925416 120.681371 32.5591211"></polygon>
                <polygon id="Fill-55" points="110.797177 10.9333535 111.260522 9.81184886 114.529207 11.1650258 114.06481 12.2875834"></polygon>
                <polygon id="Fill-56" points="122.680071 0.439861472 123.871077 0.202923882 124.561882 3.67379631 123.370876 3.9107339"></polygon>
                <polygon id="Fill-57" points="128.545909 29.9331155 129.737968 29.6961779 130.429826 33.1649442 129.237766 33.4018818"></polygon>
                <polygon id="Fill-58" points="109.95389 19.4869057 113.423709 18.7982072 113.6617 19.9871073 110.193987 20.6758059"></polygon>
                <polygon id="Fill-59" points="133.420399 5.43619076 135.387508 2.49289936 136.396335 3.16685517 134.429227 6.10909351"></polygon>
                <polygon id="Fill-60" points="116.714404 30.4380558 118.681512 27.4968706 119.69034 28.1729325 117.722178 31.1130647"></polygon>
                <polygon id="Fill-61" points="112.245129 7.97216011 112.918032 6.9633325 115.86027 8.92728186 115.187367 9.93821557"></polygon>
                <polygon id="Fill-62" points="116.714404 3.16706578 117.722178 2.49310997 119.69034 5.43640137 118.681512 6.11035718"></polygon>
                <polygon id="Fill-63" points="133.419346 28.1714582 134.428174 27.4964493 136.392123 30.4386877 135.385402 31.1126435"></polygon>
                <polygon id="Fill-64" points="112.245129 25.6354889 115.187367 23.6694334 115.86027 24.678261 112.918032 26.6432634"></polygon>
                <polygon id="Fill-65" points="128.545909 3.67411223 129.237766 0.204292855 130.429826 0.441230445 129.737968 3.91104982"></polygon>
                <polygon id="Fill-66" points="122.680071 33.1652602 123.370876 29.6964938 124.561882 29.9334314 123.871077 33.4043039"></polygon>
                <polygon id="Fill-67" points="109.95389 14.1192689 110.193987 12.9303688 113.6617 13.6201204 113.423709 14.8090206"></polygon>
            </g>
        </g>
    </g>
</svg>