<?xml version="1.0" encoding="UTF-8"?>
<svg width="189px" height="50px" viewBox="0 0 189 50" version="1.1" xmlns="http://www.w3.org/2000/svg" xmlns:xlink="http://www.w3.org/1999/xlink">
    <!-- Generator: Sketch 47.1 (45422) - http://www.bohemiancoding.com/sketch -->
    <title>cil-logo</title>
    <desc>Created with Sketch.</desc>
    <defs></defs>
    <g id="Client-Logos" stroke="none" stroke-width="1" fill="none" fill-rule="evenodd">
        <g id="cil-logo">
            <g id="Page-1" transform="translate(28.111747, 3.502603)">
                <path d="M62.2566813,19.0802991 C61.3459262,19.3168644 60.2713292,19.499101 59.2703113,19.499101 C55.9010734,19.499101 54.3524902,18.3697475 54.3524902,13.0155852 C54.3524902,7.69821249 56.1740005,6.44137893 59.4337254,6.44137893 C60.417204,6.44137893 61.4006827,6.58682597 62.2566813,6.82381909 L62.0017212,8.38994151 C61.2368409,8.17134316 60.399237,8.0438631 59.5796002,8.0438631 C57.430834,8.0438631 56.4105658,8.73601991 56.4105658,12.9428617 C56.4105658,17.20446 57.3760775,17.8966168 59.597995,17.8966168 C60.3624475,17.8966168 61.2004791,17.750742 62.0017212,17.5141767 L62.2566813,19.0802991 Z" id="Fill-1" fill="#818181"></path>
                <polygon id="Fill-3" fill="#818181" points="63.5210011 19.2986836 65.542715 19.2986836 65.542715 5.8585213 63.5210011 5.8585213"></polygon>
                <path d="M67.4596215,19.2991113 L69.4813354,19.2991113 L69.4813354,10.3023562 L67.4596215,10.3023562 L67.4596215,19.2991113 Z M68.4610671,8.51763545 C67.532345,8.51763545 67.2594179,8.26224756 67.2594179,7.37031496 C67.2594179,6.47795458 67.532345,6.22256669 68.4610671,6.22256669 C69.408184,6.22256669 69.6631442,6.47795458 69.6631442,7.37031496 C69.6631442,8.26224756 69.408184,8.51763545 68.4610671,8.51763545 L68.4610671,8.51763545 Z" id="Fill-5" fill="#818181"></path>
                <path d="M71.3981135,10.3021423 L73.073749,10.3021423 L73.1828342,11.2308645 C74.2942208,10.5754972 75.2588769,10.1383005 76.3518686,10.1383005 C77.6630309,10.1383005 78.2824642,10.6482207 78.6281148,11.3219828 C79.8485866,10.5571024 80.8320653,10.1383005 81.9246293,10.1383005 C83.70935,10.1383005 84.5469539,11.0306609 84.5469539,13.1067035 L84.5469539,19.2988974 L82.5256678,19.2988974 L82.5256678,13.4891437 C82.5256678,12.1779814 82.0884711,11.7591795 81.2688342,11.7591795 C80.6498287,11.7591795 79.9213101,12.0868631 78.9194367,12.7242634 C78.9562262,12.9244669 78.974621,13.1250983 78.974621,13.4348149 L78.974621,19.2988974 L76.9524793,19.2988974 L76.9524793,13.4891437 C76.9524793,12.1779814 76.5341052,11.7591795 75.7144683,11.7591795 C75.0770681,11.7591795 74.3665165,12.0868631 73.4198274,12.6879016 L73.4198274,19.2988974 L71.3981135,19.2988974 L71.3981135,10.3021423 Z" id="Fill-6" fill="#818181"></path>
                <path d="M89.5710369,15.1830456 C87.5309283,15.1830456 86.9119228,15.6929658 86.9119228,16.6944115 C86.9119228,17.5867719 87.4043038,17.969212 88.0960328,17.969212 C88.8245514,17.969212 89.4071951,17.6415284 90.244799,17.0952464 L90.244799,15.1830456 L89.5710369,15.1830456 Z M90.244799,13.0706412 C90.244799,12.1414913 89.7896353,11.6863276 88.6423148,11.6863276 C87.7683492,11.6863276 86.9666793,11.8138077 86.1106807,11.9960442 L85.9104771,10.5026454 C86.9119228,10.284047 87.8954014,10.1202052 88.9883932,10.1202052 C91.4105142,10.1202052 92.2665128,11.0125656 92.2665128,12.9611281 L92.2665128,19.2987691 L90.5908774,19.2987691 L90.4817921,18.4611653 C89.5890039,19.0074472 88.7697948,19.4810057 87.6404413,19.4810057 C86.1654372,19.4810057 85.0908402,18.6250071 85.0908402,16.8402863 C85.0908402,14.9644473 86.2745225,13.8534885 89.4619516,13.8534885 L90.244799,13.8534885 L90.244799,13.0706412 Z" id="Fill-7" fill="#818181"></path>
                <path d="M94.5854093,10.3021423 L94.5854093,7.71617947 L96.6071231,7.44282459 L96.6071231,10.3021423 L98.6100145,10.3021423 L98.6100145,11.831903 L96.6071231,11.831903 L96.6071231,16.6761451 C96.6071231,17.605295 96.8980172,17.9145838 97.5538123,17.9145838 C97.9362524,17.9145838 98.2643639,17.8418603 98.6100145,17.732775 L98.7922511,19.1893844 C98.2643639,19.353654 97.6812923,19.4627393 96.9707407,19.4627393 C95.2044148,19.4627393 94.5854093,18.7705825 94.5854093,17.1680983 L94.5854093,11.831903 L93.25628,11.831903 L93.25628,10.3021423 L94.5854093,10.3021423 Z" id="Fill-8" fill="#818181"></path>
                <path d="M105.041512,14.0175015 C105.023117,12.0321493 104.531591,11.5953804 103.329514,11.5953804 C102.145832,11.5953804 101.508432,12.0869059 101.453675,14.0175015 L105.041512,14.0175015 Z M106.443792,19.1167036 C105.47828,19.335302 104.549986,19.480749 103.4386,19.480749 C100.889426,19.480749 99.4139944,18.7158687 99.4139944,14.8551053 C99.4139944,11.121822 100.980545,10.047225 103.402666,10.047225 C105.824787,10.047225 106.862594,10.9032236 106.862594,14.1813433 C106.862594,14.5637834 106.844199,14.9278288 106.808265,15.3466308 L101.43528,15.3466308 C101.490037,17.586943 102.145832,17.9330214 103.802645,17.9330214 C104.695005,17.9330214 105.405557,17.8055413 106.261983,17.6233047 L106.443792,19.1167036 Z" id="Fill-9" fill="#818181"></path>
                <polygon id="Fill-10" fill="#818181" points="55.1539461 36.83318 57.1940548 36.83318 57.1940548 24.1762929 55.1539461 24.1762929"></polygon>
                <path d="M59.2112342,27.8367672 L60.8864419,27.8367672 L60.9959549,28.7654893 C62.1064859,28.110122 63.0715698,27.6729253 64.1645615,27.6729253 C65.4761516,27.6729253 66.0951571,28.1828456 66.4408077,28.8566076 C67.6612795,28.0917273 68.6447582,27.6729253 69.7368944,27.6729253 C71.5216151,27.6729253 72.3596468,28.5652857 72.3596468,30.6413284 L72.3596468,36.8330945 L70.3383607,36.8330945 L70.3383607,31.0237685 C70.3383607,29.7126062 69.901164,29.2938043 69.0815271,29.2938043 C68.4625216,29.2938043 67.734003,29.6214879 66.7325574,30.2588882 C66.7684913,30.4590918 66.7868861,30.6597231 66.7868861,30.9694398 L66.7868861,36.8330945 L64.7656,36.8330945 L64.7656,31.0237685 C64.7656,29.7126062 64.3467981,29.2938043 63.5271612,29.2938043 C62.889761,29.2938043 62.1792094,29.6214879 61.2325203,30.2225264 L61.2325203,36.8330945 L59.2112342,36.8330945 L59.2112342,27.8367672 Z" id="Fill-11" fill="#818181"></path>
                <path d="M75.9086401,34.9031406 C76.5096787,35.249219 77.0016319,35.4310278 77.6026704,35.4310278 C78.6772674,35.4310278 79.6962522,34.7936275 79.6962522,32.298783 C79.6962522,29.8039384 79.0772467,29.2935904 78.0210445,29.2935904 C77.4204338,29.2935904 76.7830335,29.6217018 75.9086401,30.2043455 L75.9086401,34.9031406 Z M73.8869263,27.8365533 L75.5625617,27.8365533 L75.671647,28.7473084 C76.6371587,28.1283029 77.5115521,27.6731392 78.5861491,27.6731392 C80.5163169,27.6731392 81.7183939,28.7109467 81.7183939,32.2260594 C81.7183939,35.7407444 80.0063967,37.0151172 77.930354,37.0151172 C77.1475067,37.0151172 76.4728891,36.7973744 75.8359166,36.4688352 L75.8175218,36.48723 C75.8722784,37.1973538 75.9086401,37.7988201 75.9086401,38.4541873 L75.9086401,40.6940718 L73.8869263,40.6940718 L73.8869263,27.8365533 Z" id="Fill-12" fill="#818181"></path>
                <path d="M87.2111159,32.7174565 C85.171435,32.7174565 84.5524295,33.2273768 84.5524295,34.2288224 C84.5524295,35.1211828 85.043955,35.5040508 85.7361118,35.5040508 C86.4646303,35.5040508 87.0472741,35.1763671 87.8848779,34.6300851 L87.8848779,32.7174565 L87.2111159,32.7174565 Z M87.8848779,30.6050521 C87.8848779,29.67633 87.4297142,29.2211663 86.2823937,29.2211663 C85.4080004,29.2211663 84.6067583,29.3486464 83.7511874,29.5304552 L83.5505561,28.0370563 C84.5524295,27.8184579 85.5359082,27.6550439 86.6284721,27.6550439 C89.0505932,27.6550439 89.9065918,28.5469765 89.9065918,30.4959669 L89.9065918,36.83318 L88.2313841,36.83318 L88.121871,35.9955762 C87.2295107,36.5418582 86.4098738,37.0154166 85.2805203,37.0154166 C83.8055162,37.0154166 82.7309192,36.1598458 82.7309192,34.375125 C82.7309192,32.4988582 83.9150292,31.3883272 87.1016028,31.3883272 L87.8848779,31.3883272 L87.8848779,30.6050521 Z" id="Fill-13" fill="#818181"></path>
                <path d="M97.559844,36.6878186 C96.8676872,36.8700552 96.0116886,37.0155022 95.2468083,37.0155022 C92.6424507,37.0155022 91.3860449,36.0688131 91.3860449,32.3898585 C91.3860449,28.6929369 92.9885291,27.6547017 95.3926831,27.6547017 C96.1575634,27.6547017 96.9408385,27.7821817 97.6141728,27.9644183 L97.4319362,29.4578172 C96.8313255,29.3119424 96.230287,29.2208241 95.5560971,29.2208241 C94.2269679,29.2208241 93.407331,29.7127773 93.407331,32.3351019 C93.407331,34.9210648 94.0447313,35.4673468 95.5744919,35.4673468 C96.1028069,35.4673468 96.7945359,35.3586893 97.3955744,35.1944197 L97.559844,36.6878186 Z" id="Fill-14" fill="#818181"></path>
                <path d="M99.6344322,27.8367672 L99.6344322,25.2508043 L101.656146,24.9774494 L101.656146,27.8367672 L103.659037,27.8367672 L103.659037,29.3665278 L101.656146,29.3665278 L101.656146,34.2107699 C101.656146,35.139492 101.94704,35.4496364 102.602835,35.4496364 C102.985275,35.4496364 103.313387,35.3764851 103.659037,35.2673999 L103.841274,36.7240092 C103.313387,36.8882788 102.730315,36.9973641 102.019764,36.9973641 C100.253438,36.9973641 99.6344322,36.3052073 99.6344322,34.7027231 L99.6344322,29.3665278 L98.3053029,29.3665278 L98.3053029,27.8367672 L99.6344322,27.8367672 Z" id="Fill-15" fill="#818181"></path>
                <polygon id="Fill-16" fill="#818181" points="109.394143 24.1763357 111.433823 24.1763357 111.433823 35.1764099 116.186947 35.1764099 116.186947 36.8332228 109.394143 36.8332228"></polygon>
                <path d="M121.084705,32.7174565 C119.045024,32.7174565 118.426019,33.2273768 118.426019,34.2288224 C118.426019,35.1211828 118.917544,35.5040508 119.609701,35.5040508 C120.33822,35.5040508 120.920863,35.1763671 121.758467,34.6300851 L121.758467,32.7174565 L121.084705,32.7174565 Z M121.758467,30.6050521 C121.758467,29.67633 121.303304,29.2211663 120.155983,29.2211663 C119.28159,29.2211663 118.480348,29.3486464 117.624777,29.5304552 L117.424145,28.0370563 C118.426019,27.8184579 119.409498,27.6550439 120.502062,27.6550439 C122.924183,27.6550439 123.780181,28.5469765 123.780181,30.4959669 L123.780181,36.83318 L122.104974,36.83318 L121.99546,35.9955762 C121.1031,36.5418582 120.283463,37.0154166 119.15411,37.0154166 C117.679106,37.0154166 116.604509,36.1598458 116.604509,34.375125 C116.604509,32.4988582 117.788619,31.3883272 120.975192,31.3883272 L121.758467,31.3883272 L121.758467,30.6050521 Z" id="Fill-17" fill="#818181"></path>
                <path d="M127.311849,34.9031406 C127.912888,35.249219 128.404841,35.4310278 129.005452,35.4310278 C130.080049,35.4310278 131.099889,34.7936275 131.099889,32.298783 C131.099889,29.8039384 130.480884,29.2935904 129.424254,29.2935904 C128.823215,29.2935904 128.185815,29.6217018 127.311849,30.2043455 L127.311849,34.9031406 Z M125.290563,23.3931461 L127.311849,23.3931461 L127.311849,26.6165092 C127.311849,27.2723043 127.293455,27.854948 127.239126,28.6198284 L127.257521,28.6382231 C128.058763,28.1283029 128.914333,27.6731392 129.98893,27.6731392 C131.919526,27.6731392 133.121175,28.7109467 133.121175,32.2260594 C133.121175,35.7407444 131.409606,37.0151172 129.333563,37.0151172 C128.441203,37.0151172 127.785408,36.7605849 127.038494,36.3777169 L126.965771,36.8333084 L125.290563,36.8333084 L125.290563,23.3931461 Z" id="Fill-18" fill="#818181"></path>
                <path d="M37.7417535,23.3550304 C37.5783395,24.7842615 37.2305499,26.1454747 36.7219131,27.4245531 L38.4813945,28.1218434 C39.0533436,26.6926123 39.4383505,25.1658461 39.6205871,23.5693509 L37.7417535,23.3550304 Z" id="Fill-19" fill-opacity="0.3" fill="#B3B3B3"></path>
                <path d="M30.5876413,32.626766 L31.7666179,34.1098981 C32.8638875,33.242777 33.8439439,32.2276422 34.6853978,31.097861 L33.1569205,29.9659407 C32.4181351,30.9613974 31.5505863,31.8610301 30.5876413,32.626766" id="Fill-20" fill-opacity="0.3" fill="#B3B3B3"></path>
                <path d="M16.5638514,34.7206045 C17.6927771,35.1646458 18.8952819,35.4717957 20.1572489,35.6159594 L20.372425,33.7311369 C19.2777221,33.6062235 18.2394869,33.3414244 17.2619972,32.9555619 L16.5638514,34.7206045 Z" id="Fill-21" fill-opacity="0.3" fill="#B3B3B3"></path>
                <path d="M19.3503173,27.6533755 C18.8074576,27.4454718 18.3030986,27.160139 17.8453682,26.8217607 L16.7198647,28.3455324 C17.311492,28.7865791 17.9595869,29.1467744 18.6581604,29.4192737 L19.3503173,27.6533755 Z" id="Fill-22" fill-opacity="0.3" fill="#B3B3B3"></path>
                <path d="M18.0987027,24.4512306 L16.6100094,25.6297794 C16.9667825,26.0793819 17.3825899,26.4767945 17.8454537,26.8220174 L18.9769461,25.2986735 C18.6484069,25.0569747 18.3549461,24.7665084 18.0987027,24.4512306" id="Fill-23" fill-opacity="0.3" fill="#B3B3B3"></path>
                <path d="M16.474872,17.6100006 L17.9977881,18.741493 C18.2394869,18.4129538 18.5308087,18.1135041 18.85122,17.8636774 L17.6666822,16.3741285 C17.2170797,16.7313294 16.8136781,17.146709 16.474872,17.6100006" id="Fill-24" fill-opacity="0.3" fill="#B3B3B3"></path>
                <path d="M15.126364,26.8090555 L13.6428042,27.9880321 C14.2040587,28.7002948 14.8560037,29.3295671 15.5883723,29.8685768 L16.7198647,28.3456607 C16.1213929,27.9093196 15.58495,27.3925548 15.126364,26.8090555" id="Fill-25" fill-opacity="0.3" fill="#B3B3B3"></path>
                <path d="M16.4874061,14.8908254 C17.0661998,14.4253949 17.7053112,14.0433825 18.3867734,13.747355 L17.6283098,12.0084072 C16.7932727,12.3686026 16.0095698,12.8395943 15.3028683,13.4008488 L16.4818449,14.8899698 L16.4874061,14.8908254 Z" id="Fill-26" fill-opacity="0.3" fill="#B3B3B3"></path>
                <path d="M29.6860835,39.7516605 L30.4385581,41.4957417 C32.1899116,40.7321447 33.8261908,39.7456715 35.3097506,38.5662671 L34.1303462,37.0831351 C32.7755498,38.1602987 31.2830065,39.0582203 29.6860835,39.7516605" id="Fill-27" fill="#818181"></path>
                <path d="M30.5876413,32.626766 C29.6242685,33.3925019 28.5526661,34.0346078 27.4160402,34.5295556 L28.174076,36.2740645 C29.4647046,35.7093878 30.6744817,34.9838637 31.7666179,34.1098981 L30.5876413,32.626766 Z" id="Fill-28" fill="#818181"></path>
                <path d="M13.3734277,22.7845786 C13.4812297,23.5267863 13.6857111,24.239049 13.983022,24.9093888 C14.2786217,25.5912787 14.6661953,26.2368069 15.1264924,26.8091838 L16.6096244,25.6297794 L18.0987455,24.4512306 L18.099601,24.4452416 C17.8442131,24.1244025 17.6333149,23.7731907 17.471612,23.3988784 C17.3094814,23.0296996 17.1918404,22.6310036 17.1332338,22.221613 C17.0733438,21.8233448 17.0677826,21.4139541 17.1152668,20.99943 L15.218894,20.7825428 L13.3344993,20.5673668 C13.4204841,19.8123255 13.6022929,19.0919349 13.8722255,18.4160339 L12.1063273,17.7238771 C12.4374332,16.868734 12.884469,16.0730532 13.4221953,15.3522347 L11.8988514,14.2267313 C11.2640178,15.0763131 10.7369862,16.0144466 10.3408569,17.0261591 C9.95499446,18.0036488 9.6897675,19.047873 9.56570973,20.1370146 C9.44122417,21.2261563 9.4638968,22.30332 9.62003848,23.3428386 L11.4967331,23.060928 L13.3734277,22.7845786 Z" id="Fill-29" fill="#818181"></path>
                <path d="M9.40178236,5.97791621 L8.22237796,4.49435638 C6.73924592,5.67376078 5.40883327,7.04566861 4.27049627,8.57970712 L5.79982914,9.70563834 C6.83549763,8.30592445 8.04698594,7.05507989 9.40178236,5.97791621" id="Fill-30" fill="#818181"></path>
                <path d="M40.2524689,28.8203742 C39.610363,30.4579367 38.7594978,31.9774305 37.7319572,33.3548996 L39.2617179,34.4812586 C40.3803767,32.9686094 41.3180824,31.300674 42.0183671,29.512531 L40.2524689,28.8203742 Z" id="Fill-31" fill="#818181"></path>
                <path d="M39.6204159,23.5695648 C39.4381793,25.16606 39.0536003,26.6923984 38.4816512,28.1220572 L40.2526828,28.8202031 C40.8772495,27.2395359 41.302896,25.5540614 41.5048107,23.7847409 L39.6204159,23.5695648 Z" id="Fill-32" fill="#818181"></path>
                <path d="M33.1568349,29.9658552 L34.6853122,31.0977754 C35.5135048,29.9838222 36.2030949,28.7492334 36.7219986,27.4248098 L34.9561004,26.732653 C34.4962311,27.9000794 33.8939092,28.9815209 33.1568349,29.9658552" id="Fill-33" fill="#B3B3B3"></path>
                <path d="M33.9610288,22.9232666 L35.8514125,23.1388705 C35.9955762,21.8769035 35.9677701,20.635898 35.7893836,19.4363877 L33.9067,19.7174427 C34.0624139,20.7573891 34.0855143,21.8341249 33.9610288,22.9232666" id="Fill-34" fill="#818181"></path>
                <path d="M29.4032746,31.1368322 L28.2238702,29.6537002 C27.5175965,30.2149546 26.7394548,30.6868019 25.9044176,31.0469973 L26.6568922,32.7910784 C27.6455043,32.3667153 28.5678097,31.8063164 29.402419,31.1428212 L29.4032746,31.1368322 Z" id="Fill-35" fill="#818181"></path>
                <path d="M24.7001589,41.1845705 L24.4186761,39.3018869 C22.8974712,39.5363133 21.3232208,39.5671139 19.7271534,39.3848773 L19.5115496,41.2692721 C21.2812979,41.4716146 23.0189622,41.4365362 24.7001589,41.1845705" id="Fill-36" fill="#818181"></path>
                <path d="M24.3926668,27.5696152 C23.8703408,27.7959136 23.3142197,27.9601832 22.7392761,28.0406069 C22.1801606,28.1283029 21.6069281,28.1389976 21.0187232,28.0718352 C20.430946,28.0046729 19.874825,27.8652149 19.35036,27.6534611 L18.6582032,29.4193593 L17.9604852,31.1844019 C17.1049144,30.853296 16.3092335,30.4062603 15.5884151,29.868534 L14.4620561,31.3982946 C13.594935,30.7617499 12.8167933,30.0075643 12.1532982,29.1725271 L13.642847,27.9884171 C13.0811647,27.2877046 12.6037562,26.5035739 12.2444165,25.668109 L10.5050409,26.4274281 C10.0789667,25.4559274 9.77737795,24.4172644 9.61995292,23.3426674 L7.74240272,23.624578 C7.9220726,24.8651557 8.27028993,26.0552548 8.7669488,27.1803304 C9.25590753,28.3161007 9.89844123,29.3877032 10.6697383,30.3519315 L9.18660629,31.5309081 C8.31306847,30.438772 7.58711661,29.2289948 7.02243986,27.9383662 C6.4667466,26.6665601 6.07318402,25.3079137 5.86570809,23.9004996 C5.66550452,22.5405698 5.63299283,21.1357225 5.79597907,19.7064914 L3.9115843,19.4913153 C3.72934772,21.0878105 3.76014827,22.6616331 3.99457467,24.1832658 C4.22386766,25.7566606 4.66363107,27.2723043 5.28306435,28.6972575 L3.5449722,29.4505876 C4.23841236,31.0475106 5.13633396,32.5400539 6.21349764,33.8948503 L7.69705747,32.715446 C8.67198043,33.9419067 9.80732293,35.0404597 11.0722844,35.9794487 L9.94164755,37.4968036 C11.3186888,38.5239164 12.8386104,39.3743538 14.4757452,40.0168875 L15.1747466,38.2462836 C16.6039777,38.8178049 18.130316,39.202384 19.727239,39.3850484 L19.9424151,37.5002258 L20.1575911,35.6158311 C18.8951963,35.4716674 17.6926915,35.1645175 16.5637658,34.7204762 L17.2619116,32.9554336 C18.2394013,33.3417238 19.2776365,33.6060952 20.3727672,33.7310085 L20.588371,31.8410526 L20.8035471,29.95623 C21.5585884,30.0426427 22.2960904,30.0276702 23.0151977,29.9168737 L23.2962527,31.7995574 C24.2052967,31.6643772 25.0809735,31.4081337 25.9044604,31.046655 L25.1455691,29.3077073 L24.3926668,27.5696152 Z" id="Fill-37" fill="#818181"></path>
                <path d="M13.7841017,41.7828284 C15.5162049,42.465574 17.35996,42.9327156 19.2965446,43.1538807 L19.5117207,41.2694859 C17.7424002,41.0671434 16.0569257,40.6410692 14.4758308,40.0169302 L13.7841017,41.7828284 Z" id="Fill-38" fill="#818181"></path>
                <path d="M18.9768606,25.2986735 L17.8453682,26.8220174 C18.3030986,27.1603956 18.8074576,27.4457285 19.3503173,27.6532044 L20.0476075,25.8941508 C19.6626006,25.7388647 19.3058276,25.5403723 18.9768606,25.2986735" id="Fill-39" fill="#818181"></path>
                <path d="M15.6372682,19.1139658 C15.8511609,18.5719617 16.1364937,18.0676027 16.474872,17.6098723 L14.9455391,16.4835133 C14.5049202,17.0695793 14.1447248,17.7172464 13.8722255,18.4162478 L15.6372682,19.1139658 Z" id="Fill-40" fill="#818181"></path>
                <path d="M16.4819733,14.8899698 L15.3029966,13.4008488 C14.5967229,13.962531 13.9610338,14.6196094 13.4224519,15.3524059 L14.945368,16.4834705 C15.3868426,15.8858543 15.9036074,15.3494114 16.4819733,14.8899698" id="Fill-41" fill="#818181"></path>
                <path d="M6.21345486,33.8946792 L4.72989503,35.0740836 C5.90929943,36.5576435 7.28120726,37.8876283 8.81524577,39.0259653 L9.94160478,37.4966325 C8.5414631,36.460964 7.29061854,35.2494757 6.21345486,33.8946792" id="Fill-42" fill="#818181"></path>
                <path d="M8.57589983,16.3283127 L6.81000162,15.6361559 C6.30820933,16.9101009 5.95956421,18.2773031 5.79615018,19.7065342 L7.68097273,19.9217102 C7.82513642,18.6597433 8.13185856,17.4568107 8.57589983,16.3283127" id="Fill-43" fill="#818181"></path>
                <path d="M7.31803959,10.8308423 C6.39872872,12.0804035 5.62828719,13.4578726 5.05034909,14.9392935 L6.8102583,15.6361559 C7.32873422,14.3117323 8.01917989,13.0767158 8.84651688,11.9627625 L7.31803959,10.8308423 Z" id="Fill-44" fill="#818181"></path>
                <path d="M0.235324758,24.7405419 C0.519802061,26.6471815 1.05153934,28.4828087 1.80016382,30.2089229 L3.54467275,29.4504593 C2.85465487,27.8770645 2.36826285,26.2044236 2.11201939,24.4641925 L0.235324758,24.7405419 Z" id="Fill-45" fill="#818181"></path>
                <path d="M41.504939,23.784912 C41.3025965,25.5542325 40.87695,27.2392793 40.2523833,28.8203742 L42.0182815,29.512531 C42.7010271,27.7804278 43.1685965,25.9366727 43.3893338,24.0000881 L41.504939,23.784912 Z" id="Fill-46" fill-opacity="0.6" fill="#818181"></path>
                <path d="M41.7313659,12.8579891 L39.9872847,13.6104636 C40.6773026,15.1838584 41.1636946,16.8564994 41.4199381,18.5967305 L43.2966327,18.3203811 C43.0177166,16.4201583 42.4799903,14.5841032 41.7313659,12.8579891" id="Fill-47" fill-opacity="0.6" fill="#818181"></path>
                <path d="M41.4201092,18.5965593 L39.5374256,18.8776144 C39.7722798,20.3992471 39.8026525,21.9730697 39.6204159,23.5695648 L41.5048107,23.7847409 C41.7071532,22.0154204 41.6720748,20.277756 41.4201092,18.5965593" id="Fill-48" fill-opacity="0.6" fill="#818181"></path>
                <path d="M36.2144312,32.2299095 L37.7322139,33.3549852 C38.7593267,31.9775161 39.6101919,30.4575945 40.2522978,28.8204597 L38.4816939,28.1218861 C37.9037558,29.6028793 37.1333143,30.9807761 36.2144312,32.2299095" id="Fill-49" fill-opacity="0.6" fill="#818181"></path>
                <path d="M31.7665323,34.1098125 L32.9510702,35.5993613 C34.1719697,34.6240106 35.2696671,33.4942293 36.2142173,32.2296956 L34.6853122,31.0977754 C33.8438583,32.2279845 32.8638019,33.2431193 31.7665323,34.1098125" id="Fill-50" fill-opacity="0.6" fill="#818181"></path>
                <path d="M37.666121,19.1603378 C37.4590729,17.7529237 37.0655103,16.3942772 36.5102448,15.1224712 L34.7653081,15.880507 C35.2615392,17.0055826 35.6046231,18.1952538 35.7894264,19.4366871 L37.666121,19.1603378 Z" id="Fill-51" fill-opacity="0.6" fill="#818181"></path>
                <path d="M33.0206708,16.6389277 C32.5963077,15.6503156 32.0418978,14.7288658 31.3724136,13.8934009 L29.8892816,15.0728053 C30.4565251,15.7795068 30.9223834,16.5567929 31.2825787,17.3918301 L33.0206708,16.6389277 Z" id="Fill-52" fill-opacity="0.6" fill="#818181"></path>
                <path d="M27.8889142,23.9461871 C27.6814383,24.4890468 27.3961054,24.9934058 27.0577271,25.4511362 L28.581071,26.5766396 C29.02169,25.9905736 29.3823131,25.3369175 29.6548124,24.6383439 L27.8889142,23.9461871 Z" id="Fill-53" fill-opacity="0.6" fill="#818181"></path>
                <path d="M22.4563388,26.1690457 L22.739105,28.0406069 C23.3144764,27.9601832 23.8705974,27.7959136 24.3924956,27.5696152 L25.145398,29.3077073 L25.9047171,31.046655 C26.7397542,30.6868875 27.5174681,30.2150402 28.2237418,29.6537857 C28.9304434,29.0921035 29.5657047,28.4345973 30.1042865,27.7082176 L28.5809427,26.5767252 C28.1390403,27.1743414 27.6222755,27.7107843 27.0447652,28.1702259 L25.8653608,26.6866661 L24.680823,25.1971172 C24.3599839,25.4525051 24.0087721,25.6634033 23.6336043,25.8306674 C23.2648533,25.9927981 22.8665851,26.1048779 22.4563388,26.1690457" id="Fill-54" fill-opacity="0.6" fill="#818181"></path>
                <path d="M28.1742471,36.2742356 L28.9267216,38.0183168 C30.3704974,37.3890444 31.724866,36.574541 32.950899,35.599618 L34.1303034,37.0831778 C32.775507,38.1603415 31.2833915,39.0582631 29.6860407,39.7517033 L30.4385153,41.4957844 C28.7128289,42.2444089 26.8763461,42.7817074 24.9761233,43.0610513 C23.1349348,43.3356895 21.2325731,43.3750458 19.2964163,43.1538807 L19.5115924,41.2694859 C21.2813406,41.4714007 23.019005,41.4363223 24.7002017,41.1847844 L24.4187189,39.301673 C22.8975139,39.5365272 21.3232636,39.5669 19.7271962,39.3846634 L19.9423723,37.5002686 L20.1631095,35.6163016 L20.3727244,33.7310513 L20.588756,31.8410953 L20.8039321,29.9562728 C21.5585456,30.0426854 22.2960476,30.0272852 23.0151549,29.9169165 L23.2966377,31.7996002 C24.205254,31.66442 25.0813585,31.4081765 25.9044176,31.0466978 L26.6568922,32.790779 C27.6455043,32.3664158 28.5678097,31.8064447 29.402419,31.1425217 L29.4032746,31.1369605 C30.2438729,30.4738931 30.9916418,29.7008849 31.6277587,28.8337638 C32.2621645,27.9837542 32.7896239,27.0456208 33.1853255,26.0343361 C33.5711879,25.0564186 33.8364149,24.0121944 33.9609004,22.9234805 L35.8512842,23.1390844 C35.7071205,24.4014791 35.4008261,25.6039839 34.9563571,26.7324819 C34.49606,27.9003361 33.8937381,28.9817776 33.1566638,29.9656841 C32.4183062,30.9615685 31.5507574,31.8612013 30.5878124,32.6269371 C29.6244396,33.392673 28.5528372,34.034779 27.4162113,34.5297267 L28.1742471,36.2742356 Z" id="Fill-55" fill-opacity="0.6" fill="#818181"></path>
                <path d="M23.5901413,5.56056875 L23.5957025,5.56142432 L23.8113064,3.67660177 L23.8053174,3.67617399 C22.2088222,3.49350961 20.6349996,3.52431016 19.1133669,3.75916436 L19.3957053,5.63072556 C20.7556351,5.42966642 22.1604824,5.39758251 23.5901413,5.56056875" id="Fill-56" fill-opacity="0.6" fill="#818181"></path>
                <path d="M22.9443137,11.2143092 L23.1654787,9.33034219 L23.1594897,9.32991441 C22.0643591,9.20457328 20.9931844,9.22810148 19.9540936,9.38424315 L19.672183,7.50669296 C18.4307497,7.69192404 17.2415063,8.03500795 16.1164306,8.53123903 L16.8748942,10.2701868 L17.6282243,12.0082789 C18.4517112,11.647228 19.3278157,11.3909845 20.236432,11.2553766 C21.1151032,11.1278965 22.0224361,11.109074 22.9443137,11.2143092" id="Fill-57" fill-opacity="0.6" fill="#818181"></path>
                <path d="M8.81528855,39.0260081 C10.3279378,40.144667 11.9958731,41.0823726 13.7840162,41.7826573 L14.4757452,40.0167591 C12.8386104,39.3742254 11.3191166,38.523788 9.94164755,37.4966752 L8.81528855,39.0260081 Z" id="Fill-58" fill="#B3B3B3"></path>
                <path d="M13.6428898,27.9882032 L12.1533409,29.172741 C12.8168361,30.0073504 13.5949778,30.7615361 14.4620988,31.3980808 L15.5884578,29.8687479 C14.8560892,29.3293105 14.2041442,28.7004659 13.6428898,27.9882032" id="Fill-59" fill="#B3B3B3"></path>
                <path d="M13.9829364,24.9093032 L12.2444165,25.6681945 C12.6037562,26.5036595 13.0811647,27.2877901 13.642847,27.9880749 L15.1264068,26.8090982 C14.6665375,26.2367214 14.2785361,25.5911932 13.9829364,24.9093032" id="Fill-60" fill="#B3B3B3"></path>
                <path d="M14.1237206,11.9176312 L12.944744,10.4344991 C11.97581,11.1993795 11.1082612,12.0985844 10.3754647,13.0948966 L11.8988086,14.2263891 C12.5344977,13.359268 13.2891112,12.5811264 14.1237206,11.9176312" id="Fill-61" fill-opacity="0.6" fill="#818181"></path>
                <path d="M7.69692913,32.7153604 L6.2133693,33.8947648 C7.29053298,35.2495612 8.54180533,36.4610495 9.94151922,37.496718 L11.0725839,35.9793631 C9.80762238,35.0408019 8.6718521,33.9418212 7.69692913,32.7153604" id="Fill-62" fill-opacity="0.6" fill="#818181"></path>
                <path d="M9.18664907,31.5309937 L10.6697811,30.3520171 C9.89848401,29.3877887 9.25595031,28.3161863 8.76699157,27.180416 C8.2703327,26.0553403 7.92211537,24.8652413 7.7424455,23.6246636 L9.6199957,23.342753 C9.46385402,22.3032344 9.44118139,21.2264985 9.56566695,20.1369291 C9.68972472,19.0477874 9.95495168,18.0035632 10.3408141,17.0260735 L8.57577149,16.3283555 C8.13173023,17.4568534 7.82500808,18.659786 7.6808444,19.921753 L5.79602185,19.706577 C5.6330356,21.135808 5.6655473,22.5406553 5.86575087,23.9005852 C6.0732268,25.3079992 6.46678938,26.6666457 7.02205486,27.9384517 C7.58715939,29.2290804 8.31311125,30.4388575 9.18664907,31.5309937" id="Fill-63" fill-opacity="0.6" fill="#818181"></path>
                <path d="M10.3755931,13.0950678 L8.846688,11.9631475 C8.01892321,13.0771008 7.32890534,14.3116895 6.81000162,15.6361131 L8.57589983,16.3282699 C9.03020794,15.159988 9.63809102,14.079402 10.3755931,13.0950678" id="Fill-64" fill-opacity="0.6" fill="#818181"></path>
                <path d="M5.05043464,14.9390796 C5.62837274,13.4580865 6.39838649,12.0801896 7.31812514,10.8306284 C8.26224756,9.56652252 9.36037273,8.43674123 10.5812723,7.46139048 C11.8077331,6.48603973 13.161674,5.67153629 14.6054497,5.04269173 C16.0299752,4.42881965 17.5400577,3.98820067 19.1134525,3.75933547 L18.8323975,1.87622406 L18.5560481,-4.27785418e-05 C16.6558252,0.278873314 14.8197702,0.816599584 13.0936561,1.56522407 C11.3423026,2.32839325 9.70602335,3.31529421 8.22246352,4.49427082 L9.40186791,5.97783065 C8.0470715,7.05499433 6.83558319,8.30626668 5.7999147,9.70598057 L4.27058183,8.57962156 C3.15235074,10.0922708 2.21421732,11.7602061 1.51350481,13.5483492 C0.831614852,15.2804523 0.363617605,17.1242075 0.142452544,19.0607921 C-0.0782847315,20.9973767 -0.0385006876,22.8993106 0.23528198,24.7404991 L2.11197661,24.4645775 C2.36822007,26.2043808 2.85461209,27.8770218 3.54462997,29.4504165 L5.28314991,28.6975142 C4.66371663,27.2721332 4.22352543,25.7564894 3.99466023,24.1830947 C3.75980604,22.6618897 3.72943327,21.0876394 3.91166986,19.491572 L5.79606463,19.7067481 C5.95947866,18.2770892 6.30812377,16.909887 6.80991607,15.6363698 L5.05043464,14.9390796 Z" id="Fill-65" fill-opacity="0.6" fill="#818181"></path>
            </g>
        </g>
    </g>
</svg>