<?xml version="1.0" encoding="UTF-8"?>
<svg width="189px" height="50px" viewBox="0 0 189 50" version="1.1" xmlns="http://www.w3.org/2000/svg" xmlns:xlink="http://www.w3.org/1999/xlink">
    <!-- Generator: Sketch 47.1 (45422) - http://www.bohemiancoding.com/sketch -->
    <title>cil-logo</title>
    <desc>Created with Sketch.</desc>
    <defs></defs>
    <g id="Client-Logos" stroke="none" stroke-width="1" fill="none" fill-rule="evenodd">
        <g id="cil-logo">
            <g id="Page-1" transform="translate(21.184570, 1.240668)">
                <path d="M68.7347461,21.065683 C67.7292231,21.3268639 66.5428099,21.528063 65.4376319,21.528063 C61.7178109,21.528063 60.0080912,20.2811956 60.0080912,14.3699106 C60.0080912,8.49924328 62.0191372,7.111631 65.6180499,7.111631 C66.7038636,7.111631 67.7896773,7.27221241 68.7347461,7.53386565 L68.4532563,9.26294956 C67.608787,9.02160515 66.684027,8.88086027 65.7791036,8.88086027 C63.4067494,8.88086027 62.2803181,9.64503885 62.2803181,14.2896199 C62.2803181,18.9946551 63.3462953,19.7588337 65.7994124,19.7588337 C66.6434094,19.7588337 67.5686417,19.59778 68.4532563,19.3365991 L68.7347461,21.065683 Z" id="Fill-1" fill="#818181"></path>
                <polygon id="Fill-3" fill="#818181" points="70.1306236 21.3067913 72.3627051 21.3067913 72.3627051 6.46812463 70.1306236 6.46812463"></polygon>
                <path d="M74.4790736,21.3072636 L76.7111552,21.3072636 L76.7111552,11.3743589 L74.4790736,11.3743589 L74.4790736,21.3072636 Z M75.5847238,9.40393059 C74.5593643,9.40393059 74.258038,9.12196853 74.258038,8.13722667 C74.258038,7.1520125 74.5593643,6.87005045 75.5847238,6.87005045 C76.6303922,6.87005045 76.9118819,7.1520125 76.9118819,8.13722667 C76.9118819,9.12196853 76.6303922,9.40393059 75.5847238,9.40393059 L75.5847238,9.40393059 Z" id="Fill-5" fill="#818181"></path>
                <path d="M78.827382,11.3741228 L80.6773743,11.3741228 L80.7978103,12.3994823 C82.0248412,11.6759214 83.0898738,11.1932325 84.2965958,11.1932325 C85.74419,11.1932325 86.4280778,11.7562121 86.8096948,12.5000818 C88.1571618,11.6556125 89.2429755,11.1932325 90.4492252,11.1932325 C92.4196535,11.1932325 93.3444135,12.1784467 93.3444135,14.4705101 L93.3444135,21.3070274 L91.1128042,21.3070274 L91.1128042,14.8927448 C91.1128042,13.4451506 90.6301154,12.9827706 89.725192,12.9827706 C89.0417764,12.9827706 88.2374525,13.3445511 87.1313299,14.0482755 C87.1719476,14.2693111 87.1922564,14.490819 87.1922564,14.8327629 L87.1922564,21.3070274 L84.9597026,21.3070274 L84.9597026,14.8927448 C84.9597026,13.4451506 84.4977949,12.9827706 83.5928714,12.9827706 C82.889147,12.9827706 82.1046596,13.3445511 81.0594636,14.0081302 L81.0594636,21.3070274 L78.827382,21.3070274 L78.827382,11.3741228 Z" id="Fill-6" fill="#818181"></path>
                <path d="M98.8912732,16.7629042 C96.6388828,16.7629042 95.9554672,17.3258837 95.9554672,18.4315339 C95.9554672,19.4167481 96.4990825,19.8389827 97.2627888,19.8389827 C98.0671127,19.8389827 98.7103829,19.4772023 99.6351429,18.8740774 L99.6351429,16.7629042 L98.8912732,16.7629042 Z M99.6351429,14.4306954 C99.6351429,13.4048636 99.1326176,12.9023382 97.8659136,12.9023382 C96.9010083,12.9023382 96.0159214,13.0430831 95.0708526,13.2442822 L94.849817,11.595489 C95.9554672,11.3541446 97.0412809,11.1732543 98.2480029,11.1732543 C100.922156,11.1732543 101.867224,12.1584685 101.867224,14.309787 L101.867224,21.3068857 L100.017232,21.3068857 L99.8967962,20.3821257 C98.9111097,20.9852506 98.0066585,21.5080848 96.7597911,21.5080848 C95.1313067,21.5080848 93.9448935,20.563016 93.9448935,18.5925876 C93.9448935,16.5215598 95.2517428,15.2950012 98.7708371,15.2950012 L99.6351429,15.2950012 L99.6351429,14.4306954 Z" id="Fill-7" fill="#818181"></path>
                <path d="M104.427412,11.3741228 L104.427412,8.51907981 L106.659493,8.21728122 L106.659493,11.3741228 L108.870794,11.3741228 L108.870794,13.0630613 L106.659493,13.0630613 L106.659493,18.4113668 C106.659493,19.4371986 106.980656,19.7786703 107.704689,19.7786703 C108.126924,19.7786703 108.489177,19.6983796 108.870794,19.5779435 L109.071993,21.1861191 C108.489177,21.3674816 107.845434,21.4879176 107.060947,21.4879176 C105.110827,21.4879176 104.427412,20.7237391 104.427412,18.9545098 L104.427412,13.0630613 L102.959981,13.0630613 L102.959981,11.3741228 L104.427412,11.3741228 Z" id="Fill-8" fill="#818181"></path>
                <path d="M115.971515,15.4760804 C115.951206,13.2841442 115.408535,12.8019276 114.081377,12.8019276 C112.774528,12.8019276 112.070803,13.3445983 112.010349,15.4760804 L115.971515,15.4760804 Z M117.519708,21.1058756 C116.453731,21.34722 115.428844,21.5078014 114.201813,21.5078014 C111.387388,21.5078014 109.758431,20.6633321 109.758431,16.4008404 C109.758431,12.2790935 111.487987,11.0926802 114.16214,11.0926802 C116.836293,11.0926802 117.982088,12.0377491 117.982088,15.6569706 C117.982088,16.0792052 117.961779,16.4811311 117.922106,16.943511 L111.99004,16.943511 C112.050494,19.416937 112.774528,19.7990263 114.603739,19.7990263 C115.588953,19.7990263 116.37344,19.6582814 117.318981,19.4570824 L117.519708,21.1058756 Z" id="Fill-9" fill="#818181"></path>
                <polygon id="Fill-10" fill="#818181" points="60.892942 40.6658245 63.1453324 40.6658245 63.1453324 26.691936 60.892942 26.691936"></polygon>
                <path d="M65.3724076,30.7332977 L67.2219275,30.7332977 L67.3428359,31.7586572 C68.5689222,31.0350963 69.634427,30.5524075 70.8411491,30.5524075 C72.2892155,30.5524075 72.9726311,31.115387 73.3542481,31.8592568 C74.701715,31.0147875 75.7875287,30.5524075 76.9933062,30.5524075 C78.9637345,30.5524075 79.8889668,31.5376216 79.8889668,33.8296851 L79.8889668,40.6657301 L77.6573575,40.6657301 L77.6573575,34.2519197 C77.6573575,32.8043256 77.1746687,32.3419456 76.2697452,32.3419456 C75.5863297,32.3419456 74.7820057,32.703726 73.6763555,33.4074504 C73.7160286,33.628486 73.7363374,33.8499939 73.7363374,34.1919379 L73.7363374,40.6657301 L71.5047281,40.6657301 L71.5047281,34.2519197 C71.5047281,32.8043256 71.0423481,32.3419456 70.1374247,32.3419456 C69.4337003,32.3419456 68.6492129,32.703726 67.6040168,33.3673051 L67.6040168,40.6657301 L65.3724076,40.6657301 L65.3724076,30.7332977 Z" id="Fill-11" fill="#818181"></path>
                <path d="M83.8072476,38.5349565 C84.4708266,38.9170458 85.0139696,39.1177725 85.6775487,39.1177725 C86.8639619,39.1177725 87.9889763,38.4140481 87.9889763,35.6596047 C87.9889763,32.9051613 87.3055608,32.3417094 86.1394564,32.3417094 C85.4763496,32.3417094 84.7726252,32.7039622 83.8072476,33.3472324 L83.8072476,38.5349565 Z M81.575166,30.7330616 L83.4251583,30.7330616 L83.5455943,31.7385846 C84.6115715,31.055169 85.5769492,30.5526436 86.7633624,30.5526436 C88.8943721,30.5526436 90.2215302,31.6984392 90.2215302,35.579314 C90.2215302,39.4597165 88.3313926,40.866693 86.0393291,40.866693 C85.1750233,40.866693 84.430209,40.6262932 83.7269569,40.2635681 L83.7066481,40.2838769 C83.7671022,41.067892 83.8072476,41.7319434 83.8072476,42.4555043 L83.8072476,44.928458 L81.575166,44.928458 L81.575166,30.7330616 Z" id="Fill-12" fill="#818181"></path>
                <path d="M96.2857926,36.121843 C94.0338745,36.121843 93.3504589,36.6848225 93.3504589,37.7904727 C93.3504589,38.7756869 93.8931296,39.1983938 94.6573082,39.1983938 C95.4616321,39.1983938 96.1049024,38.8366134 97.0296624,38.2334885 L97.0296624,36.121843 L96.2857926,36.121843 Z M97.0296624,33.7896342 C97.0296624,32.7642747 96.527137,32.2617493 95.2604331,32.2617493 C94.2950554,32.2617493 93.4104408,32.4024942 92.4658443,32.603221 L92.2443364,30.9544278 C93.3504589,30.7130834 94.4362726,30.5326654 95.6425224,30.5326654 C98.3166751,30.5326654 99.2617439,31.5174073 99.2617439,33.6691981 L99.2617439,40.6658245 L97.4122239,40.6658245 L97.2913156,39.7410645 C96.3061014,40.3441894 95.401178,40.8670236 94.1543106,40.8670236 C92.5258262,40.8670236 91.339413,39.9224271 91.339413,37.9519987 C91.339413,35.8804986 92.6467345,34.6544123 96.1648842,34.6544123 L97.0296624,34.6544123 L97.0296624,33.7896342 Z" id="Fill-13" fill="#818181"></path>
                <path d="M107.711349,40.5053376 C106.94717,40.7065366 106.002101,40.867118 105.157632,40.867118 C102.28228,40.867118 100.89514,39.821922 100.89514,35.760157 C100.89514,31.6785554 102.664369,30.5322876 105.318686,30.5322876 C106.163155,30.5322876 107.027933,30.6730325 107.771331,30.8742315 L107.570131,32.5230247 C106.907025,32.361971 106.243446,32.2613715 105.499104,32.2613715 C104.031673,32.2613715 103.126749,32.8045145 103.126749,35.6997028 C103.126749,38.5547458 103.830474,39.1578706 105.519412,39.1578706 C106.102701,39.1578706 106.866407,39.0379069 107.529986,38.8565444 L107.711349,40.5053376 Z" id="Fill-14" fill="#818181"></path>
                <path d="M110.001806,30.7332977 L110.001806,27.8782548 L112.233888,27.5764562 L112.233888,30.7332977 L114.445188,30.7332977 L114.445188,32.4222363 L112.233888,32.4222363 L112.233888,37.7705417 C112.233888,38.7959013 112.555051,39.1383175 113.279084,39.1383175 C113.701319,39.1383175 114.063571,39.0575545 114.445188,38.9371184 L114.646387,40.545294 C114.063571,40.7266565 113.419829,40.8470926 112.635341,40.8470926 C110.685222,40.8470926 110.001806,40.082914 110.001806,38.3136847 L110.001806,32.4222363 L108.534376,32.4222363 L108.534376,30.7332977 L110.001806,30.7332977 Z" id="Fill-15" fill="#818181"></path>
                <polygon id="Fill-16" fill="#818181" points="120.777055 26.6919832 123.028973 26.6919832 123.028973 38.8366606 128.276679 38.8366606 128.276679 40.6658717 120.777055 40.6658717"></polygon>
                <path d="M133.684069,36.121843 C131.432151,36.121843 130.748735,36.6848225 130.748735,37.7904727 C130.748735,38.7756869 131.291406,39.1983938 132.055584,39.1983938 C132.859908,39.1983938 133.503179,38.8366134 134.427939,38.2334885 L134.427939,36.121843 L133.684069,36.121843 Z M134.427939,33.7896342 C134.427939,32.7642747 133.925413,32.2617493 132.658709,32.2617493 C131.693332,32.2617493 130.808717,32.4024942 129.864121,32.603221 L129.642613,30.9544278 C130.748735,30.7130834 131.834549,30.5326654 133.040799,30.5326654 C135.714951,30.5326654 136.66002,31.5174073 136.66002,33.6691981 L136.66002,40.6658245 L134.8105,40.6658245 L134.689592,39.7410645 C133.704378,40.3441894 132.799454,40.8670236 131.552587,40.8670236 C129.924102,40.8670236 128.737689,39.9224271 128.737689,37.9519987 C128.737689,35.8804986 130.045011,34.6544123 133.563161,34.6544123 L134.427939,34.6544123 L134.427939,33.7896342 Z" id="Fill-17" fill="#818181"></path>
                <path d="M140.559173,38.5349565 C141.222752,38.9170458 141.765895,39.1177725 142.429002,39.1177725 C143.615415,39.1177725 144.741374,38.4140481 144.741374,35.6596047 C144.741374,32.9051613 144.057958,32.3417094 142.891382,32.3417094 C142.227803,32.3417094 141.524078,32.7039622 140.559173,33.3472324 L140.559173,38.5349565 Z M138.327564,25.8272996 L140.559173,25.8272996 L140.559173,29.3860669 C140.559173,30.1101002 140.538864,30.7533704 140.478882,31.5978397 L140.499191,31.6181485 C141.383806,31.055169 142.328402,30.5526436 143.514815,30.5526436 C145.646297,30.5526436 146.972983,31.6984392 146.972983,35.579314 C146.972983,39.4597165 145.083318,40.866693 142.791254,40.866693 C141.80604,40.866693 141.082007,40.5856755 140.257374,40.1629686 L140.177084,40.6659662 L138.327564,40.6659662 L138.327564,25.8272996 Z" id="Fill-18" fill="#818181"></path>
                <path d="M41.6689388,25.7852178 C41.4885209,27.3631663 41.1045424,28.8660193 40.5429797,30.2781911 L42.4855425,31.0480373 C43.1170052,29.4700888 43.5420737,27.7844563 43.7432727,26.0218392 L41.6689388,25.7852178 Z" id="Fill-19" fill-opacity="0.3" fill="#B3B3B3"></path>
                <path d="M33.7704117,36.0217158 L35.0720657,37.6591738 C36.2835107,36.7018252 37.365546,35.5810615 38.2945567,34.3337218 L36.607035,33.0840206 C35.7913759,34.1830586 34.833555,35.1763019 33.7704117,36.0217158" id="Fill-20" fill-opacity="0.3" fill="#B3B3B3"></path>
                <path d="M18.2873885,38.3334268 C19.5337836,38.8236724 20.861414,39.1627825 22.2546939,39.3219471 L22.4922599,37.2410009 C21.2836487,37.1030898 20.1373808,36.8107372 19.0581793,36.3847242 L18.2873885,38.3334268 Z" id="Fill-21" fill-opacity="0.3" fill="#B3B3B3"></path>
                <path d="M21.3637977,30.5308235 C20.7644512,30.3012865 20.2076115,29.9862636 19.7022524,29.6126756 L18.4596357,31.295002 C19.1128242,31.7819415 19.828356,32.1796167 20.5996191,32.4804707 L21.3637977,30.5308235 Z" id="Fill-22" fill-opacity="0.3" fill="#B3B3B3"></path>
                <path d="M19.9819474,26.9954821 L18.3383495,28.2966638 C18.7322462,28.7930492 19.1913201,29.2318143 19.7023469,29.612959 L20.9515757,27.9311049 C20.5888507,27.6642564 20.2648541,27.3435659 19.9819474,26.9954821" id="Fill-23" fill-opacity="0.3" fill="#B3B3B3"></path>
                <path d="M18.1891505,19.4423939 L19.8705323,20.6916228 C20.1373808,20.3288977 20.4590159,19.9982889 20.8127673,19.7224668 L19.5049734,18.0779242 C19.0085879,18.4722933 18.5632107,18.9308949 18.1891505,19.4423939" id="Fill-24" fill-opacity="0.3" fill="#B3B3B3"></path>
                <path d="M16.7003247,29.5986484 L15.0623943,30.9003024 C15.6820496,31.686679 16.4018322,32.3814297 17.2104068,32.9765255 L18.4596357,31.2951437 C17.7988904,30.8133995 17.2066284,30.2428632 16.7003247,29.5986484" id="Fill-25" fill-opacity="0.3" fill="#B3B3B3"></path>
                <path d="M18.2029888,16.4402773 C18.8420084,15.9264168 19.5476219,15.5046544 20.2999931,15.177824 L19.4626083,13.2579316 C18.5406821,13.6556067 17.6754317,14.1756071 16.8951949,14.7952624 L18.1968489,16.4393327 L18.2029888,16.4402773 Z" id="Fill-26" fill-opacity="0.3" fill="#B3B3B3"></path>
                <path d="M32.7750431,43.8879849 L33.6058157,45.8135449 C35.5394048,44.9704925 37.3459456,43.8813727 38.983876,42.5792464 L37.6817497,40.9417884 C36.1859811,42.1310354 34.5381325,43.1223894 32.7750431,43.8879849" id="Fill-27" fill="#818181"></path>
                <path d="M33.7704117,36.0217158 C32.706796,36.8671296 31.5236888,37.5760493 30.2687924,38.1224984 L31.1057049,40.0485307 C32.5306287,39.425097 33.8662882,38.6240792 35.0720657,37.6591738 L33.7704117,36.0217158 Z" id="Fill-28" fill="#818181"></path>
                <path d="M14.7649881,25.1554081 C14.8840073,25.9748455 15.1097658,26.7612221 15.4380131,27.5013135 C15.7643712,28.2541569 16.1922734,28.966855 16.7004664,29.5987901 L18.3379244,28.2966638 L19.9819947,26.9954821 L19.9829393,26.9888699 C19.7009772,26.6346462 19.4681342,26.2468893 19.2896054,25.8336284 C19.1106044,25.426035 18.9807223,24.985853 18.9160175,24.5338636 C18.8498957,24.0941539 18.8437559,23.6421645 18.896181,23.1845074 L16.8024828,22.9450522 L14.722009,22.7074862 C14.8169409,21.8738798 15.0176677,21.0785295 15.3156879,20.3322983 L13.3660407,19.5681197 C13.7315995,18.6239955 14.2251512,17.7455207 14.8188301,16.9496982 L13.136976,15.7070814 C12.4360854,16.6450658 11.854214,17.6808159 11.4168658,18.7978012 C10.9908527,19.8770028 10.6980278,21.0298828 10.5610613,22.2323542 C10.4236225,23.4348255 10.4486543,24.6240725 10.6210432,25.7717573 L12.6930157,25.4605127 L14.7649881,25.1554081 Z" id="Fill-29" fill="#818181"></path>
                <path d="M10.3800766,6.59994307 L9.07795034,4.96201272 C7.44049228,6.26413901 5.9716447,7.77879952 4.71485904,9.47246107 L6.40332531,10.7155501 C7.54675939,9.17019019 8.88430805,7.78919008 10.3800766,6.59994307" id="Fill-30" fill="#818181"></path>
                <path d="M44.4409045,31.8192531 C43.7319848,33.6272108 42.7925836,35.3048142 41.6581232,36.8256146 L43.3470617,38.0691759 C44.5821217,36.3991293 45.6173994,34.5576384 46.3905517,32.5834317 L44.4409045,31.8192531 Z" id="Fill-31" fill="#818181"></path>
                <path d="M43.7430838,26.0220754 C43.5418848,27.7846925 43.1172886,29.4698526 42.4858259,31.0482734 L44.4411406,31.8190642 C45.1306961,30.0739221 45.6006329,28.213067 45.8235576,26.2596414 L43.7430838,26.0220754 Z" id="Fill-32" fill="#818181"></path>
                <path d="M36.6069405,33.0839261 L38.2944622,34.3336273 C39.2088316,33.1037627 39.9701764,31.7407099 40.5430742,30.2784745 L38.593427,29.5142959 C38.0857064,30.8031979 37.4207104,31.9971679 36.6069405,33.0839261" id="Fill-33" fill="#B3B3B3"></path>
                <path d="M37.494814,25.3085272 L39.5819,25.5465655 C39.7410645,24.1532856 39.7103651,22.7831484 39.5134168,21.4588241 L37.4348321,21.769124 C37.6067487,22.9172811 37.6322528,24.1060558 37.494814,25.3085272" id="Fill-34" fill="#818181"></path>
                <path d="M32.4628067,34.3767482 L31.1606804,32.7392901 C30.380916,33.3589454 29.5218055,33.8798904 28.5998793,34.2775655 L29.4306519,36.2031255 C30.5221332,35.7346056 31.5404082,35.1158949 32.4618621,34.3833603 L32.4628067,34.3767482 Z" id="Fill-35" fill="#818181"></path>
                <path d="M27.2703124,45.4699952 L26.9595402,43.3914105 C25.2800476,43.65023 23.54199,43.6842354 21.7798452,43.4830364 L21.5418069,45.5635102 C23.4957048,45.7869073 25.4141803,45.7481788 27.2703124,45.4699952" id="Fill-36" fill="#818181"></path>
                <path d="M26.9308244,30.4383475 C26.3541483,30.6881932 25.7401605,30.8695558 25.1053917,30.9583478 C24.4880979,31.055169 23.8552182,31.0669764 23.2058081,30.9928256 C22.5568703,30.9186748 21.9428826,30.7647056 21.3638449,30.5309179 L20.5996663,32.4805651 L19.8293479,34.4292677 C18.8847513,34.0637089 18.0062766,33.5701572 17.210454,32.9764783 L15.9668927,34.6654169 C15.0095441,33.962637 14.1504336,33.1299752 13.417899,32.208049 L15.0624416,30.9007274 C14.4423139,30.1271029 13.9152291,29.2613802 13.5184985,28.3389817 L11.5981338,29.1773111 C11.1277248,28.1047218 10.7947545,26.9579816 10.6209487,25.7715684 L8.54803169,26.0828129 C8.74639696,27.4524779 9.13084774,28.7664116 9.67918602,30.008556 C10.2190229,31.2625079 10.9284149,32.445615 11.7799687,33.5101753 L10.1425106,34.8118293 C9.17807757,33.6060519 8.37658743,32.2703924 7.75315373,30.8454686 C7.13963829,29.4413258 6.70512389,27.9413066 6.47605924,26.3874453 C6.25502366,24.8860091 6.21912899,23.3349817 6.39907462,21.7570332 L4.3186008,21.5194672 C4.11740174,23.2820843 4.15140722,25.0196696 4.41022666,26.6996345 C4.66337853,28.4367474 5.14890114,30.1101002 5.83278901,31.6833257 L3.9138412,32.5150429 C4.67943667,34.2781323 5.67079071,35.9259809 6.86003772,37.4217495 L8.49796808,36.1196232 C9.57433581,37.4737023 10.8278154,38.6865642 12.2244013,39.7232589 L10.976117,41.3985008 C12.4964451,42.5324889 14.1745208,43.4714179 15.9820063,44.1808098 L16.7537416,42.2259674 C18.3316901,42.8569578 20.0168503,43.281554 21.7799397,43.4832253 L22.0175057,41.4022792 L22.2550717,39.3218054 C20.8613195,39.1626409 19.5336891,38.8235307 18.287294,38.3332851 L19.0580848,36.3845825 C20.1372863,36.8110678 21.2835542,37.1029482 22.4926377,37.2408592 L22.7306761,35.1542456 L22.9682421,33.0732994 C23.8018485,33.1687037 24.6160907,33.1521732 25.4100241,33.029848 L25.720324,35.1084326 C26.7239578,34.9591864 27.6907523,34.6762797 28.5999265,34.2771877 L27.7620694,32.3572953 L26.9308244,30.4383475 Z" id="Fill-37" fill="#818181"></path>
                <path d="M15.2183944,46.1305043 C17.1307301,46.8842923 19.1663356,47.400042 21.3044298,47.6442202 L21.5419958,45.5637464 C19.5885702,45.3403493 17.7277151,44.8699402 15.9821007,44.1808571 L15.2183944,46.1305043 Z" id="Fill-38" fill="#818181"></path>
                <path d="M20.9514813,27.9311049 L19.7022524,29.612959 C20.2076115,29.9865469 20.7644512,30.3015699 21.3637977,30.5306345 L22.1336438,28.5885441 C21.7085754,28.4170998 21.3146786,28.1979534 20.9514813,27.9311049" id="Fill-39" fill="#818181"></path>
                <path d="M17.2643905,21.1028529 C17.5005396,20.504451 17.8155626,19.9476113 18.1891505,19.4422522 L16.5006842,18.1986909 C16.014217,18.8457395 15.6165419,19.5607991 15.3156879,20.3325344 L17.2643905,21.1028529 Z" id="Fill-40" fill="#818181"></path>
                <path d="M18.1969906,16.4393327 L16.8953366,14.7952624 C16.1155722,15.41539 15.413737,16.1408402 14.8191135,16.9498871 L16.5004953,18.1986437 C16.9879071,17.538843 17.5584434,16.946581 18.1969906,16.4393327" id="Fill-41" fill="#818181"></path>
                <path d="M6.85999049,37.4215606 L5.22206014,38.7236869 C6.52418643,40.3616172 8.03884694,41.8299925 9.73250849,43.0867782 L10.9760698,41.3983119 C9.43023761,40.2548778 8.0492375,38.9173291 6.85999049,37.4215606" id="Fill-42" fill="#818181"></path>
                <path d="M9.46825762,18.0273411 L7.51861041,17.2631625 C6.96460456,18.6696667 6.57968148,20.1791319 6.39926354,21.7570804 L8.48020966,21.9946464 C8.63937418,20.6013666 8.97801203,19.2732639 9.46825762,18.0273411" id="Fill-43" fill="#818181"></path>
                <path d="M8.07951182,11.9578362 C7.06454287,13.3374194 6.21393371,14.8582198 5.57585876,16.4937886 L7.51889379,17.2631625 C8.09131928,15.8009271 8.85360866,14.437402 9.76703349,13.2075374 L8.07951182,11.9578362 Z" id="Fill-44" fill="#818181"></path>
                <path d="M0.259811271,27.3148974 C0.573889612,29.4199307 1.16095635,31.4465625 1.9874783,33.352286 L3.91351059,32.5149012 C3.1516935,30.7777882 2.61469038,28.931102 2.33178372,27.0097927 L0.259811271,27.3148974 Z" id="Fill-45" fill="#818181"></path>
                <path d="M45.8236993,26.2598303 C45.6003022,28.2132559 45.1303655,30.0736387 44.44081,31.8192531 L46.3904572,32.5834317 C47.1442452,30.671096 47.6604672,28.6354905 47.9041731,26.4973963 L45.8236993,26.2598303 Z" id="Fill-46" fill-opacity="0.6" fill="#818181"></path>
                <path d="M46.0736868,14.1959159 L44.1481268,15.0266886 C44.9099439,16.7638016 45.446947,18.6104877 45.7298537,20.5317971 L47.8018261,20.2266924 C47.4938876,18.1287435 46.9002087,16.1016394 46.0736868,14.1959159" id="Fill-47" fill-opacity="0.6" fill="#818181"></path>
                <path d="M45.7300426,20.5316081 L43.651458,20.8419081 C43.9107497,22.521873 43.9442829,24.2594583 43.7430838,26.0220754 L45.8235576,26.2596414 C46.0469547,24.3062158 46.0082263,22.3877403 45.7300426,20.5316081" id="Fill-48" fill-opacity="0.6" fill="#818181"></path>
                <path d="M39.9826923,35.5835647 L41.6584065,36.8257091 C42.7923947,35.3049087 43.7317959,33.626833 44.4407156,31.8193476 L42.4858731,31.0480845 C41.8477981,32.6831811 40.997189,34.2044538 39.9826923,35.5835647" id="Fill-49" fill-opacity="0.6" fill="#818181"></path>
                <path d="M35.0719712,37.6590794 L36.3797651,39.3036219 C37.7277043,38.2267819 38.9396216,36.9794422 39.9824562,35.5833285 L38.2944622,34.3336273 C37.3654515,35.5814393 36.2834162,36.7022031 35.0719712,37.6590794" id="Fill-50" fill-opacity="0.6" fill="#818181"></path>
                <path d="M41.5854365,21.15405 C41.3568441,19.6001887 40.9223297,18.1001695 40.3092866,16.6960268 L38.382782,17.5329393 C38.930648,18.7750837 39.3094312,20.0885451 39.513464,21.4591547 L41.5854365,21.15405 Z" id="Fill-51" fill-opacity="0.6" fill="#818181"></path>
                <path d="M36.456608,18.3702769 C35.9880881,17.2787956 35.3759896,16.2614651 34.6368428,15.3390666 L32.9993848,16.6411929 C33.6256522,17.4214297 34.139985,18.2795956 34.5376602,19.2015218 L36.456608,18.3702769 Z" id="Fill-52" fill-opacity="0.6" fill="#818181"></path>
                <path d="M30.7908709,26.4378868 C30.5618062,27.0372332 30.2467833,27.5940729 29.8731954,28.099432 L31.5550495,29.3420487 C32.0415167,28.6950001 32.4396641,27.9733284 32.7405181,27.2020653 L30.7908709,26.4378868 Z" id="Fill-53" fill-opacity="0.6" fill="#818181"></path>
                <path d="M24.7930136,28.892043 L25.1052028,30.9583478 C25.7404439,30.8695558 26.3544317,30.6881932 26.9306355,30.4383475 L27.7618805,32.3572953 L28.6002099,34.2771877 C29.5221361,33.8799849 30.3807743,33.3590399 31.1605387,32.7393846 C31.9407754,32.119257 32.6421384,31.3933345 33.2367619,30.5913721 L31.5549078,29.3421432 C31.0670237,30.0019439 30.4964874,30.5942059 29.8588847,31.1014542 L28.5567584,29.4635239 L27.2489646,27.8189813 C26.8947409,28.1009434 26.506984,28.3337864 26.0927784,28.518455 C25.6856573,28.6974561 25.2459476,28.8211982 24.7930136,28.892043" id="Fill-54" fill-opacity="0.6" fill="#818181"></path>
                <path d="M31.1058938,40.0487196 L31.9366664,41.9742796 C33.5306731,41.2795289 35.0259693,40.380273 36.3795761,39.3039053 L37.6817024,40.9418356 C36.1859339,42.1310826 34.5385575,43.1224367 32.7749959,43.8880321 L33.6057685,45.8135921 C31.7005173,46.6401141 29.6729409,47.2333207 27.574992,47.5417315 C25.5422203,47.8449469 23.44191,47.8883984 21.3042881,47.6442202 L21.5418541,45.5637464 C23.495752,45.7866711 25.4142275,45.7479427 27.2703597,45.4702313 L26.9595874,43.3911744 C25.2800948,43.6504661 23.5420372,43.6839993 21.7798924,43.4828002 L22.0174585,41.4023264 L22.2611644,39.3223249 L22.4925905,37.2409065 L22.7311011,35.1542928 L22.9686671,33.0733467 C23.8018013,33.1687509 24.6160435,33.1517482 25.4099768,33.0298952 L25.7207491,35.1084798 C26.7239106,34.9592336 27.6911774,34.6763269 28.5998793,34.2772349 L29.4306519,36.2027949 C30.5221332,35.734275 31.5404082,35.1160366 32.4618621,34.3830297 L32.4628067,34.3768898 C33.3908728,33.6448276 34.2164501,32.7913846 34.9187576,31.834036 C35.619176,30.8955794 36.2015197,29.8598293 36.6383956,28.7433162 C37.0644086,27.6636424 37.3572335,26.5107624 37.4946723,25.3087633 L39.5817583,25.5468016 C39.4225938,26.9405538 39.0844283,28.2681842 38.5937104,29.514107 C38.0855175,30.8034812 37.4205215,31.9974512 36.6067516,33.0837372 C35.7915648,34.1832476 34.833744,35.1764908 33.7706006,36.0219047 C32.7069849,36.8673186 31.5238778,37.5762382 30.2689813,38.1226873 L31.1058938,40.0487196 Z" id="Fill-55" fill-opacity="0.6" fill="#818181"></path>
                <path d="M26.0447929,6.13916889 L26.0509328,6.14011349 L26.2889711,4.05916737 L26.2823589,4.05869507 C24.5197418,3.85702372 22.7821566,3.89102919 21.1021917,4.15032093 L21.4139085,6.21662581 C22.9153447,5.99464563 24.4663721,5.95922326 26.0447929,6.13916889" id="Fill-56" fill-opacity="0.6" fill="#818181"></path>
                <path d="M25.3317642,12.3812043 L25.5759424,10.3012028 L25.5693303,10.3007305 C24.3602467,10.1623471 23.1776119,10.1883235 22.0303994,10.3607124 L21.7191549,8.28779535 C20.3485453,8.4923005 19.0355562,8.8710837 17.7934118,9.41894968 L18.6307966,11.3388421 L19.4625138,13.2577899 C20.3716879,12.8591702 21.3389548,12.5762635 22.3421163,12.426545 C23.3122169,12.2858001 24.3139615,12.265019 25.3317642,12.3812043" id="Fill-57" fill-opacity="0.6" fill="#818181"></path>
                <path d="M9.73255572,43.0868254 C11.4026024,44.3218853 13.2440933,45.3571631 15.2183,46.1303154 L15.9820063,44.1806681 C14.1745208,43.4712762 12.4969174,42.5323472 10.976117,41.3983591 L9.73255572,43.0868254 Z" id="Fill-58" fill="#B3B3B3"></path>
                <path d="M15.0624888,30.9004913 L13.4179462,32.2082852 C14.1504808,33.1297391 15.0095914,33.9624009 15.9669399,34.6651807 L17.2105013,32.9767144 C16.4019266,32.3811463 15.6821441,31.6868679 15.0624888,30.9004913" id="Fill-59" fill="#B3B3B3"></path>
                <path d="M15.4379187,27.5012191 L13.5184985,28.3390762 C13.9152291,29.2614747 14.4423139,30.1271974 15.0624416,30.9003496 L16.7003719,29.5986956 C16.1926513,28.9667605 15.7642768,28.2540625 15.4379187,27.5012191" id="Fill-60" fill="#B3B3B3"></path>
                <path d="M15.593352,13.1577099 L14.291698,11.5202519 C13.2219425,12.3647211 12.2641216,13.3574921 11.4550747,14.4574747 L13.1369288,15.7067036 C13.838764,14.749355 14.6718981,13.8902445 15.593352,13.1577099" id="Fill-61" fill-opacity="0.6" fill="#818181"></path>
                <path d="M8.49782639,36.1195287 L6.85989603,37.421655 C8.04914304,38.9174236 9.43061545,40.2549723 10.9759753,41.3984063 L12.2247319,39.7231644 C10.828146,38.6869421 9.57419412,37.4736078 8.49782639,36.1195287" id="Fill-62" fill-opacity="0.6" fill="#818181"></path>
                <path d="M10.1425578,34.8119238 L11.7800159,33.5102698 C10.9284621,32.4457095 10.2190702,31.2626024 9.67923325,30.0086505 C9.13089497,28.7665061 8.74644419,27.4525723 8.54807892,26.0829074 L10.620996,25.7716628 C10.4486071,24.6239781 10.4235753,23.4352034 10.5610141,22.2322597 C10.6979806,21.0297883 10.9908055,19.8769083 11.4168185,18.7977068 L9.46811593,18.0273883 C8.97787034,19.2733111 8.63923249,20.6014138 8.48006797,21.9946937 L6.39912185,21.7571277 C6.21917622,23.3350761 6.25507089,24.8861036 6.47610647,26.3875398 C6.70517112,27.941401 7.13968552,29.4414203 7.75272866,30.845563 C8.37663466,32.2704869 9.1781248,33.6061463 10.1425578,34.8119238" id="Fill-63" fill-opacity="0.6" fill="#818181"></path>
                <path d="M11.4552164,14.4576636 L9.76722241,13.2079624 C8.85332529,14.4378271 8.0915082,15.8008799 7.51861041,17.2631153 L9.46825762,18.0272939 C9.96983837,16.7374473 10.6409742,15.5444219 11.4552164,14.4576636" id="Fill-64" fill-opacity="0.6" fill="#818181"></path>
                <path d="M5.57595322,16.4935525 C6.21402817,14.8584559 7.06416503,13.3371832 8.07960628,11.9576 C9.12196853,10.5619587 10.3343582,9.31461899 11.6822974,8.23777897 C13.0363765,7.16093894 14.5312005,6.26168306 16.1252071,5.56740462 C17.6979603,4.88965662 19.3651731,4.40318942 21.1022861,4.15050985 L20.7919862,2.07145293 L20.4868815,-4.72298257e-05 C18.3889326,0.307891234 16.3618285,0.901570143 14.456105,1.72809209 C12.522516,2.57067218 10.7159752,3.66026426 9.0780448,4.96191826 L10.3801711,6.59984861 C8.88440251,7.78909562 7.54685385,9.17056803 6.40341977,10.7159279 L4.7149535,9.47236661 C3.48036586,11.1424132 2.44461578,12.9839042 1.67099123,14.9581109 C0.918147811,16.8704465 0.401453518,18.906052 0.15727532,21.0441462 C-0.086430581,23.1822404 -0.0425068431,25.2820785 0.259764041,27.3148502 L2.33173649,27.0102178 C2.61464315,28.9310548 3.15164627,30.777741 3.91346336,32.514854 L5.83288347,31.683609 C5.1489956,30.1099112 4.66300069,28.4365585 4.41032112,26.6994455 C4.15102938,25.0199529 4.1174962,23.2818953 4.31869526,21.5197505 L6.39916908,21.7573166 C6.57958702,20.1788958 6.9645101,18.6694306 7.51851595,17.2633987 L5.57595322,16.4935525 Z" id="Fill-65" fill-opacity="0.6" fill="#818181"></path>
            </g>
        </g>
    </g>
</svg>