<?xml version="1.0" encoding="UTF-8"?>
<svg width="188px" height="50px" viewBox="0 0 188 50" version="1.1" xmlns="http://www.w3.org/2000/svg" xmlns:xlink="http://www.w3.org/1999/xlink">
    <!-- Generator: Sketch 47.1 (45422) - http://www.bohemiancoding.com/sketch -->
    <title>columbia-logo</title>
    <desc>Created with Sketch.</desc>
    <defs></defs>
    <g id="Client-Logos" stroke="none" stroke-width="1" fill="none" fill-rule="evenodd">
        <g id="columbia-logo" fill="#818181">
            <g id="Page-1" transform="translate(0.266823, 8.867831)">
                <path d="M24.5779735,14.0284789 C23.2420602,12.859069 22.8864573,11.3365155 22.8864573,10.0172719 C22.8864573,9.09254007 23.1732664,7.48775458 24.4828763,6.29160669 C25.4636927,5.39361292 26.7591392,4.84926726 28.7905773,4.84926726 C29.6363355,4.84926726 30.1406541,4.90425677 30.7673852,4.9854798 C31.2863731,5.05308158 31.7224039,5.17567286 32.1316254,5.21653662 C32.2813529,5.23015788 32.3354774,5.29876864 32.3354774,5.37948718 C32.3354774,5.4889617 32.2950105,5.65191225 32.2676953,6.12764716 C32.2403802,6.57664404 32.2540377,7.32429953 32.2272284,7.59672461 C32.2135709,7.80104341 32.1857499,7.90900446 32.0633375,7.90900446 C31.9545827,7.90900446 31.9267617,7.80104341 31.9267617,7.60984137 C31.9131042,7.18808699 31.7355557,6.71285658 31.3956337,6.35870398 C30.9449337,5.88296908 29.881666,5.51569972 28.6271923,5.51569972 C27.4415122,5.51569972 26.6645478,5.81486281 26.0641203,6.35870398 C25.0691405,7.27031901 24.8096465,8.56181566 24.8096465,9.88105932 C24.8096465,13.1173683 27.2776213,14.7216493 29.1047016,14.7216493 C30.3182026,14.7216493 31.0541943,14.5864458 31.5999916,13.9603726 C31.8316645,13.7025778 32.009213,13.3085704 32.0633375,13.0628833 C32.1043102,12.8454477 32.1316254,12.7914672 32.2403802,12.7914672 C32.3354774,12.7914672 32.3638042,12.886816 32.3638042,12.9952815 C32.3638042,13.1577276 32.1999133,14.3407587 32.0633375,14.8038814 C31.9955555,15.0349382 31.9404193,15.10254 31.7087463,15.1978887 C31.1634549,15.4158288 30.1269966,15.5111776 29.254935,15.5111776 C27.3868819,15.5111776 25.8182839,15.10254 24.5779735,14.0284789" id="Fill-1"></path>
                <path d="M41.8050344,11.2294121 C41.8050344,8.68072417 40.3335569,7.09864076 38.4624688,7.09864076 C37.1503297,7.09864076 35.6560896,7.82712559 35.6560896,10.6603464 C35.6560896,13.0264086 36.9677229,14.9041237 39.1579936,14.9041237 C39.9567089,14.9041237 41.8050344,14.5176837 41.8050344,11.2294121 M34.0809157,11.012481 C34.0809157,9.06716418 35.370798,6.55227713 38.7932857,6.55227713 C41.6340617,6.55227713 43.4014534,8.2029713 43.4014534,10.8081622 C43.4014534,13.4138576 41.5769023,15.4731894 38.6789667,15.4731894 C35.404689,15.4731894 34.0809157,13.0264086 34.0809157,11.012481" id="Fill-3"></path>
                <path d="M47.4883063,12.0141981 C47.4883063,13.4711678 47.4883063,14.2556511 47.7280727,14.4609789 C47.9213021,14.6309923 48.218228,14.7107019 49.1084996,14.7107019 C49.7134797,14.7107019 50.1581097,14.6996031 50.4434014,14.3923681 C50.5799771,14.2440478 50.7165529,13.9262186 50.7393155,13.7092875 C50.7509498,13.6073803 50.7737124,13.5387696 50.8652687,13.5387696 C50.944685,13.5387696 50.9558134,13.5952725 50.9558134,13.7319896 C50.9558134,13.8565988 50.876903,14.7107019 50.7853466,15.0411434 C50.7165529,15.2913709 50.6604051,15.3478739 50.0665534,15.3478739 C48.4235974,15.3478739 47.671419,15.2797676 46.7467505,15.2797676 C46.4842215,15.2797676 45.7659341,15.3145775 45.309164,15.3145775 C45.1604482,15.3145775 45.0805261,15.2797676 45.0805261,15.2005625 C45.0805261,15.1435551 45.1265571,15.1092497 45.2636388,15.1092497 C45.4346114,15.1092497 45.571693,15.0860431 45.6743777,15.063341 C45.902004,15.0179368 45.9596694,14.7682138 46.0057004,14.4377723 C46.0623541,13.9600195 46.0623541,13.0610167 46.0623541,12.0141981 L46.0623541,10.0113693 C46.0623541,8.28247906 46.0623541,7.96364083 46.0395915,7.5999029 C46.0168288,7.2124539 45.9252725,7.03083718 45.5489304,6.95062313 C45.457374,6.92792104 45.3207982,6.91682224 45.1720824,6.91682224 C45.0471409,6.91682224 44.9783471,6.89512914 44.9783471,6.81491509 C44.9783471,6.73520553 45.0582693,6.71199895 45.2292419,6.71199895 C45.7659341,6.71199895 46.4842215,6.74630433 46.7927816,6.74630433 C47.0664389,6.74630433 47.8990453,6.71199895 48.3441812,6.71199895 C48.5035196,6.71199895 48.5834417,6.73520553 48.5834417,6.81491509 C48.5834417,6.89512914 48.5151538,6.91682224 48.3780722,6.91682224 C48.2526248,6.91682224 48.0700179,6.92792104 47.933948,6.95062313 C47.6253879,7.00813509 47.5338316,7.2013551 47.511069,7.5999029 C47.4883063,7.96364083 47.4883063,8.28247906 47.4883063,10.0113693 L47.4883063,12.0141981 Z" id="Fill-5"></path>
                <path d="M53.1549868,10.0115207 C53.1549868,8.28263041 53.1549868,7.96379217 53.1327301,7.59904526 C53.1094616,7.21260525 53.0184111,7.03098853 52.6415631,6.95077448 C52.5505126,6.92807239 52.3567773,6.91697359 52.1964273,6.91697359 C52.0714857,6.91697359 52.0031978,6.8942715 52.0031978,6.81506643 C52.0031978,6.73485238 52.0826141,6.71215029 52.2535868,6.71215029 C52.8585668,6.71215029 53.5768542,6.74645567 53.9198112,6.74645567 C54.1934685,6.74645567 54.9117559,6.71215029 55.3224949,6.71215029 C55.4939734,6.71215029 55.5744013,6.73485238 55.5744013,6.81506643 C55.5744013,6.8942715 55.5051018,6.91697359 55.3912886,6.91697359 C55.2653354,6.91697359 55.1975534,6.92807239 55.0609776,6.95077448 C54.7529234,7.00778195 54.661367,7.20150645 54.6380986,7.59904526 C54.6153359,7.96379217 54.6153359,8.28263041 54.6153359,10.0115207 L54.6153359,11.6041984 C54.6153359,13.2543881 54.9466586,13.949072 55.5051018,14.4031138 C56.0190314,14.8248682 56.5435835,14.8697679 56.931054,14.8697679 C57.4333494,14.8697679 58.0494578,14.7103487 58.5052162,14.2558025 C59.132959,13.6302338 59.1678617,12.6056128 59.1678617,11.4336805 L59.1678617,10.0115207 C59.1678617,8.28263041 59.1678617,7.96379217 59.1445932,7.59904526 C59.1218306,7.21260525 59.03078,7.03098853 58.6539321,6.95077448 C58.5618699,6.92807239 58.3691463,6.91697359 58.2431931,6.91697359 C58.1177457,6.91697359 58.0494578,6.8942715 58.0494578,6.81506643 C58.0494578,6.73485238 58.1288741,6.71215029 58.2882125,6.71215029 C58.87043,6.71215029 59.589729,6.74645567 59.6013633,6.74645567 C59.7374332,6.74645567 60.4567323,6.71215029 60.9018681,6.71215029 C61.0612065,6.71215029 61.1416345,6.73485238 61.1416345,6.81506643 C61.1416345,6.8942715 61.0728407,6.91697359 60.9352533,6.91697359 C60.8103118,6.91697359 60.7420239,6.92807239 60.6044364,6.95077448 C60.296888,7.00778195 60.2053317,7.20150645 60.1825691,7.59904526 C60.1598064,7.96379217 60.1598064,8.28263041 60.1598064,10.0115207 L60.1598064,11.2298661 C60.1598064,12.4921023 60.034359,13.8350571 59.0763053,14.6543503 C58.2664616,15.3480252 57.4444777,15.4736434 56.7034277,15.4736434 C56.0984476,15.4736434 55.0028065,15.4393381 54.1707059,14.6876467 C53.5884885,14.1649941 53.1549868,13.3224943 53.1549868,11.6723046 L53.1549868,10.0115207 Z" id="Fill-7"></path>
                <path d="M63.8800799,6.75770582 C63.9144767,6.56448581 63.9832704,6.46156967 64.0738151,6.46156967 C64.1653715,6.46156967 64.2336594,6.51857714 64.3818694,6.81471329 L67.4963028,13.2318373 L70.6001137,6.73500373 C70.6790241,6.55288252 70.7478178,6.46156967 70.8499967,6.46156967 C70.9526815,6.46156967 71.0209694,6.5760891 71.0558721,6.81471329 L72.0943538,13.8458027 C72.1965327,14.5626843 72.3108517,14.8931258 72.6527969,14.9960419 C72.9836138,15.0974446 73.2117459,15.1090479 73.3604618,15.1090479 C73.4626407,15.1090479 73.5425628,15.1206512 73.5425628,15.1887574 C73.5425628,15.2795658 73.4064929,15.3143757 73.2461428,15.3143757 C72.9608512,15.3143757 71.3861831,15.2795658 70.9304247,15.2452604 C70.6673899,15.2230628 70.6001137,15.1887574 70.6001137,15.1206512 C70.6001137,15.0631392 70.6451331,15.0293383 70.7250552,14.9960419 C70.7928373,14.9728353 70.82774,14.824515 70.7822147,14.5056768 L70.0973125,9.50011826 L70.0522931,9.50011826 L67.5650965,14.6656004 C67.3025675,15.2003607 67.2459139,15.3027724 67.1427233,15.3027724 C67.0405444,15.3027724 66.9257196,15.0747425 66.7436185,14.7342112 C66.4694553,14.2105496 65.5685611,12.4690471 65.4314795,12.1502089 C65.3287947,11.9120892 64.6443983,10.4788306 64.2452936,9.625232 L64.1997683,9.625232 L63.6059166,14.1535422 C63.5836599,14.3573565 63.5720256,14.5056768 63.5720256,14.6883025 C63.5720256,14.9047291 63.7207415,15.0071407 63.9144767,15.0530494 C64.1198462,15.0974446 64.2786788,15.1090479 64.3935036,15.1090479 C64.4845541,15.1090479 64.5644762,15.1322545 64.5644762,15.1887574 C64.5644762,15.2911691 64.4622973,15.3143757 64.2908188,15.3143757 C63.8112861,15.3143757 63.2983682,15.2795658 63.0929987,15.2795658 C62.875995,15.2795658 62.3281744,15.3143757 61.9629607,15.3143757 C61.8491476,15.3143757 61.7575912,15.2911691 61.7575912,15.1887574 C61.7575912,15.1322545 61.8263849,15.1090479 61.9407039,15.1090479 C62.0327661,15.1090479 62.1116765,15.1090479 62.2826492,15.0747425 C62.6023376,15.0071407 62.693894,14.5626843 62.7505476,14.1762442 L63.8800799,6.75770582 Z" id="Fill-9"></path>
                <path d="M78.6626873,11.1153467 C78.422921,10.9443243 78.1608978,10.8646147 77.7162678,10.8424171 C77.5108983,10.8313183 77.3965793,10.8313183 77.2256067,10.8313183 C77.1800814,10.8313183 77.156813,10.8540204 77.156813,10.9110279 L77.156813,13.6070272 C77.156813,14.3582141 77.1912098,14.5514341 77.5559177,14.6997544 C77.863972,14.8248682 78.1265009,14.8354625 78.3890299,14.8354625 C78.9024537,14.8354625 79.7699627,14.5625329 79.7699627,13.3800063 C79.7699627,12.6742235 79.5296905,11.7187178 78.6626873,11.1153467 L78.6626873,11.1153467 Z M77.156813,10.2057497 C77.156813,10.2960535 77.1912098,10.3192601 77.2372409,10.3303589 C77.3394198,10.3525565 77.5108983,10.3646643 77.7734273,10.3646643 C78.1492636,10.3646643 78.4006642,10.3192601 78.5949053,10.1482377 C78.8913253,9.90860452 79.0628037,9.49996691 79.0628037,8.94250448 C79.0628037,8.18072325 78.617162,7.17930885 77.6358398,7.17930885 C77.4765014,7.17930885 77.3738167,7.17930885 77.2600035,7.20150645 C77.1800814,7.22370405 77.156813,7.26961272 77.156813,7.39523095 L77.156813,10.2057497 Z M75.7875144,10.0115207 C75.7875144,8.28263041 75.7875144,7.96328768 75.7647518,7.60005425 C75.742495,7.21260525 75.6509386,7.03098853 75.2745965,6.95077448 C75.183546,6.92807239 74.9898107,6.91697359 74.8294606,6.91697359 C74.7045191,6.91697359 74.6357254,6.89376701 74.6357254,6.81506643 C74.6357254,6.73485238 74.7156475,6.71215029 74.887126,6.71215029 C75.4916002,6.71215029 76.2103934,6.74595118 76.4385256,6.74595118 C76.9974746,6.74595118 77.4421046,6.71215029 77.8305868,6.71215029 C79.8949043,6.71215029 80.2606238,7.81597634 80.2606238,8.41934744 C80.2606238,9.35215108 79.7239316,9.90860452 79.0956831,10.410573 C80.03148,10.7289067 81.1726465,11.5360921 81.1726465,12.8669391 C81.1726465,14.08478 80.2257211,15.3485297 78.1265009,15.3485297 C77.8528436,15.3485297 76.8143619,15.2794145 76.4724166,15.2794145 C76.2103934,15.2794145 75.4916002,15.3142243 75.0348301,15.3142243 C74.887126,15.3142243 74.806698,15.2794145 74.806698,15.2002094 C74.806698,15.1432019 74.8527291,15.1088965 74.9898107,15.1088965 C75.1607834,15.1088965 75.2973591,15.0861945 75.4000439,15.0634924 C75.628176,15.0175837 75.6858413,14.7678607 75.7308607,14.4379237 C75.7875144,13.9601708 75.7875144,13.0606636 75.7875144,12.0143495 L75.7875144,10.0115207 Z" id="Fill-11"></path>
                <path d="M83.9687572,10.0115207 C83.9687572,8.28263041 83.9687572,7.96379217 83.9459946,7.59904526 C83.9232319,7.21260525 83.8094188,7.01938524 83.5580182,6.96237777 C83.4325708,6.92807239 83.2843608,6.91697359 83.1477851,6.91697359 C83.0334661,6.91697359 82.9646724,6.8942715 82.9646724,6.80245416 C82.9646724,6.73485238 83.0567345,6.71215029 83.2388356,6.71215029 C83.6723372,6.71215029 84.3906246,6.74645567 84.7214415,6.74645567 C85.0067331,6.74645567 85.6805069,6.71215029 86.1140085,6.71215029 C86.2617127,6.71215029 86.353269,6.73485238 86.353269,6.80245416 C86.353269,6.8942715 86.2844753,6.91697359 86.171168,6.91697359 C86.0563432,6.91697359 85.9652927,6.92807239 85.8287169,6.95077448 C85.5201568,7.00778195 85.4296121,7.20150645 85.4063437,7.59904526 C85.3830752,7.96379217 85.3830752,8.28263041 85.3830752,10.0115207 L85.3830752,12.0143495 C85.3830752,13.117671 85.3830752,14.0171783 85.4296121,14.5060299 C85.4629973,14.8132649 85.5439311,15.0180882 85.8858764,15.0634924 C86.0452148,15.0861945 86.2961095,15.109401 86.467588,15.109401 C86.5925295,15.109401 86.6501949,15.1426974 86.6501949,15.2007139 C86.6501949,15.2794145 86.5586385,15.3142243 86.4331911,15.3142243 C85.6805069,15.3142243 84.9612078,15.2794145 84.6536594,15.2794145 C84.3906246,15.2794145 83.6723372,15.3142243 83.2155671,15.3142243 C83.0678629,15.3142243 82.9879408,15.2794145 82.9879408,15.2007139 C82.9879408,15.1426974 83.0334661,15.109401 83.1700419,15.109401 C83.3420262,15.109401 83.4780961,15.0861945 83.5812867,15.0634924 C83.8094188,15.0180882 83.8782125,14.8248682 83.9115977,14.4944266 C83.9687572,14.0171783 83.9687572,13.117671 83.9687572,12.0143495 L83.9687572,10.0115207 Z" id="Fill-13"></path>
                <path d="M93.2385595,11.7755235 C93.295719,11.7755235 93.3073532,11.7417226 93.295719,11.7069127 L92.2688715,8.89639402 C92.2577431,8.85098984 92.2466147,8.79398237 92.211712,8.79398237 C92.177821,8.79398237 92.1550584,8.85098984 92.14393,8.89639402 L91.0943199,11.6953094 C91.0821798,11.7417226 91.0943199,11.7755235 91.1393393,11.7755235 L93.2385595,11.7755235 Z M90.9112072,12.3435802 C90.8540477,12.3435802 90.8312851,12.3667868 90.8090283,12.4353976 L90.1929198,14.0628851 C90.078095,14.346409 90.0209355,14.6193386 90.0209355,14.7565601 C90.0209355,14.9608789 90.1241261,15.1091992 90.4777056,15.1091992 L90.6486782,15.1091992 C90.7857598,15.1091992 90.8196508,15.1313968 90.8196508,15.2000076 C90.8196508,15.2913204 90.7518688,15.3140225 90.6259156,15.3140225 C90.2607018,15.3140225 89.7710524,15.2797172 89.4169671,15.2797172 C89.2915197,15.2797172 88.6642828,15.3140225 88.0704311,15.3140225 C87.9222211,15.3140225 87.8539332,15.2913204 87.8539332,15.2000076 C87.8539332,15.1313968 87.8989527,15.1091992 87.9910148,15.1091992 C88.0942054,15.1091992 88.253038,15.0981004 88.3445943,15.0864971 C88.8691465,15.0178864 89.0861502,14.6314464 89.3147882,14.0628851 L92.177821,6.91727629 C92.3149026,6.58683476 92.3831905,6.46222551 92.4975095,6.46222551 C92.5991826,6.46222551 92.6684821,6.56413267 92.7828011,6.82596344 C93.0564585,7.45203662 94.8815154,12.0933527 95.6119429,13.8237565 C96.0454445,14.847873 96.3762614,15.0067876 96.6160277,15.0637951 C96.7864945,15.0981004 96.9574672,15.1091992 97.0940429,15.1091992 C97.1855993,15.1091992 97.2427588,15.120298 97.2427588,15.2000076 C97.2427588,15.2913204 97.1395682,15.3140225 96.7182067,15.3140225 C96.3074677,15.3140225 95.4743555,15.3140225 94.5613211,15.2913204 C94.3559516,15.2797172 94.2193759,15.2797172 94.2193759,15.2000076 C94.2193759,15.1313968 94.265407,15.1091992 94.3792201,15.0981004 C94.4601539,15.0753983 94.5395702,14.9724822 94.4819049,14.8357652 L93.5688705,12.4237943 C93.5471196,12.3667868 93.5127227,12.3435802 93.4555632,12.3435802 L90.9112072,12.3435802 Z" id="Fill-15"></path>
                <path d="M103.134233,8.98407453 C103.134233,6.9166709 103.134233,6.53578028 103.106918,6.10090914 C103.079097,5.638291 102.970848,5.42135992 102.520654,5.32601114 C102.410887,5.29876864 102.17972,5.28514738 101.988514,5.28514738 C101.838281,5.28514738 101.756841,5.25790488 101.756841,5.1625561 C101.756841,5.06720732 101.85295,5.03946032 102.056802,5.03946032 C102.77863,5.03946032 103.639057,5.08133307 104.047773,5.08133307 C104.374543,5.08133307 105.233453,5.03946032 105.72462,5.03946032 C105.928978,5.03946032 106.025087,5.06720732 106.025087,5.1625561 C106.025087,5.25790488 105.94213,5.28514738 105.80606,5.28514738 C105.656332,5.28514738 105.575398,5.29876864 105.411002,5.32601114 C105.042247,5.39361292 104.933998,5.62517424 104.906683,6.10090914 C104.878356,6.53578028 104.878356,6.9166709 104.878356,8.98407453 L104.878356,10.8870141 C104.878356,12.859069 105.27392,13.688452 105.94213,14.2322932 C106.556721,14.7357751 107.183957,14.7902601 107.647303,14.7902601 C108.247225,14.7902601 108.983217,14.600067 109.528508,14.0562259 C110.278663,13.3085704 110.31913,12.084171 110.31913,10.6831998 L110.31913,8.98407453 C110.31913,6.9166709 110.31913,6.53578028 110.292321,6.10090914 C110.265512,5.638291 110.156251,5.42135992 109.705551,5.32601114 C109.59629,5.29876864 109.364617,5.28514738 109.21489,5.28514738 C109.065162,5.28514738 108.983217,5.25790488 108.983217,5.1625561 C108.983217,5.06720732 109.07882,5.03946032 109.269014,5.03946032 C109.965045,5.03946032 110.823955,5.08133307 110.837612,5.08133307 C111.000997,5.08133307 111.859401,5.03946032 112.391541,5.03946032 C112.583253,5.03946032 112.67835,5.06720732 112.67835,5.1625561 C112.67835,5.25790488 112.596405,5.28514738 112.432514,5.28514738 C112.282786,5.28514738 112.200841,5.29876864 112.037962,5.32601114 C111.669207,5.39361292 111.559946,5.62517424 111.533137,6.10090914 C111.505822,6.53578028 111.505822,6.9166709 111.505822,8.98407453 L111.505822,10.4390262 C111.505822,11.948463 111.355589,13.552744 110.20987,14.5319608 C109.242205,15.3613438 108.260377,15.5111776 107.374658,15.5111776 C106.651312,15.5111776 105.342714,15.4698093 104.347228,14.57232 C103.651703,13.9467513 103.134233,12.941301 103.134233,10.9687417 L103.134233,8.98407453 Z" id="Fill-17"></path>
                <path d="M115.46055,13.7666481 C115.484325,14.6540476 115.631523,14.9496792 115.859655,15.0288843 C116.054402,15.0979995 116.2709,15.1096028 116.454013,15.1096028 C116.578954,15.1096028 116.647242,15.1318004 116.647242,15.2004112 C116.647242,15.2912195 116.545569,15.3139216 116.384207,15.3139216 C115.643157,15.3139216 115.186893,15.2801207 114.969889,15.2801207 C114.86771,15.2801207 114.331524,15.3139216 113.738178,15.3139216 C113.589968,15.3139216 113.488295,15.3023183 113.488295,15.2004112 C113.488295,15.1318004 113.555571,15.1096028 113.669384,15.1096028 C113.817594,15.1096028 114.02347,15.0979995 114.18382,15.0520909 C114.479734,14.9612825 114.525259,14.6313455 114.536894,13.6410299 L114.639578,6.9055721 C114.639578,6.6785512 114.673975,6.51862759 114.787788,6.51862759 C114.913741,6.51862759 115.01592,6.66694791 115.210161,6.8722757 C115.346737,7.01908255 117.080744,8.87409552 118.746968,10.5232762 C119.521909,11.2976697 121.06218,12.9357516 121.255916,13.1173683 L121.313075,13.1173683 L121.199262,8.00889366 C121.188134,7.31572318 121.085955,7.09879211 120.811791,6.98578615 C120.640819,6.91717539 120.36615,6.91717539 120.207317,6.91717539 C120.069224,6.91717539 120.024205,6.88287001 120.024205,6.81425925 C120.024205,6.72395538 120.150158,6.71235209 120.320119,6.71235209 C120.91397,6.71235209 121.461791,6.74615298 121.701557,6.74615298 C121.827005,6.74615298 122.260506,6.71235209 122.819961,6.71235209 C122.967159,6.71235209 123.081984,6.72395538 123.081984,6.81425925 C123.081984,6.88287001 123.013696,6.91717539 122.876109,6.91717539 C122.762802,6.91717539 122.670739,6.91717539 122.533658,6.95148077 C122.214981,7.04228913 122.123425,7.28091331 122.112296,7.9180853 L121.986343,15.0979995 C121.986343,15.348227 121.941324,15.4506387 121.837627,15.4506387 C121.712686,15.4506387 121.575098,15.3255249 121.449651,15.2004112 C120.731869,14.5173305 119.27152,13.0270645 118.084323,11.8546277 C116.840977,10.6256879 115.575375,9.20403256 115.368994,8.98811046 L115.335609,8.98811046 L115.46055,13.7666481 Z" id="Fill-19"></path>
                <path d="M125.996157,10.0115207 C125.996157,8.28263041 125.996157,7.96379217 125.973395,7.59904526 C125.950126,7.21260525 125.836313,7.01938524 125.585418,6.96237777 C125.459971,6.92807239 125.310749,6.91697359 125.174679,6.91697359 C125.060866,6.91697359 124.991566,6.8942715 124.991566,6.80245416 C124.991566,6.73485238 125.083629,6.71215029 125.266236,6.71215029 C125.698725,6.71215029 126.418025,6.74645567 126.749853,6.74645567 C127.034639,6.74645567 127.707907,6.71215029 128.141408,6.71215029 C128.289113,6.71215029 128.381175,6.73485238 128.381175,6.80245416 C128.381175,6.8942715 128.311369,6.91697359 128.198568,6.91697359 C128.084249,6.91697359 127.992693,6.92807239 127.856117,6.95077448 C127.547051,7.00778195 127.456506,7.20150645 127.434249,7.59904526 C127.410475,7.96379217 127.410475,8.28263041 127.410475,10.0115207 L127.410475,12.0143495 C127.410475,13.117671 127.410475,14.0171783 127.456506,14.5060299 C127.490397,14.8132649 127.570319,15.0180882 127.912265,15.0634924 C128.072615,15.0861945 128.324015,15.109401 128.493976,15.109401 C128.620435,15.109401 128.677089,15.1426974 128.677089,15.2007139 C128.677089,15.2794145 128.586038,15.3142243 128.460085,15.3142243 C127.707907,15.3142243 126.988608,15.2794145 126.680554,15.2794145 C126.418025,15.2794145 125.698725,15.3142243 125.242461,15.3142243 C125.095263,15.3142243 125.015341,15.2794145 125.015341,15.2007139 C125.015341,15.1426974 125.060866,15.109401 125.197442,15.109401 C125.368414,15.109401 125.505496,15.0861945 125.608687,15.0634924 C125.836313,15.0180882 125.904601,14.8248682 125.939504,14.4944266 C125.996157,14.0171783 125.996157,13.117671 125.996157,12.0143495 L125.996157,10.0115207 Z" id="Fill-21"></path>
                <path d="M131.010056,7.82727694 C130.747021,7.20120375 130.554298,7.07659451 130.143559,6.96257957 C129.971574,6.9166709 129.789473,6.9166709 129.697917,6.9166709 C129.595738,6.9166709 129.561341,6.88236552 129.561341,6.81476374 C129.561341,6.72345089 129.686283,6.71235209 129.858267,6.71235209 C130.462741,6.71235209 131.112741,6.74615298 131.512857,6.74615298 C131.797643,6.74615298 132.344958,6.71235209 132.915035,6.71235209 C133.052117,6.71235209 133.177058,6.73505418 133.177058,6.81476374 C133.177058,6.89346432 133.109276,6.9166709 133.006086,6.9166709 C132.823985,6.9166709 132.652,6.92827419 132.561456,6.99688495 C132.482039,7.05338793 132.448148,7.13360198 132.448148,7.23601363 C132.448148,7.38433394 132.550833,7.70165871 132.710172,8.1118098 L134.672816,13.2772919 L134.717835,13.2772919 C135.207991,12.0256501 136.691608,8.36203728 136.965266,7.61135484 C137.022931,7.46303452 137.06795,7.2925166 137.06795,7.18960046 C137.06795,7.0992966 137.022931,7.00798375 136.920752,6.97418286 C136.782659,6.92827419 136.61118,6.9166709 136.463982,6.9166709 C136.35978,6.9166709 136.269235,6.90506761 136.269235,6.82636703 C136.269235,6.73505418 136.37192,6.71235209 136.589429,6.71235209 C137.159001,6.71235209 137.638534,6.74615298 137.786238,6.74615298 C137.980479,6.74615298 138.517171,6.71235209 138.859116,6.71235209 C139.007832,6.71235209 139.098377,6.73505418 139.098377,6.81476374 C139.098377,6.89346432 139.030089,6.9166709 138.916276,6.9166709 C138.801957,6.9166709 138.562696,6.9166709 138.356315,7.05338793 C138.208611,7.15579958 138.038144,7.34952407 137.729078,8.07750442 C137.284954,9.14752958 136.9769,9.76149498 136.35978,11.1604482 C135.630364,12.8222412 135.094177,14.0622798 134.842777,14.6313455 C134.547369,15.2912195 134.478575,15.4733408 134.318225,15.4733408 C134.170015,15.4733408 134.101727,15.3144261 133.885229,14.7786568 L131.010056,7.82727694 Z" id="Fill-23"></path>
                <path d="M140.906488,10.0115207 C140.906488,8.28263041 140.906488,7.96379217 140.884231,7.59904526 C140.860457,7.21260525 140.769407,7.03098853 140.392559,6.95077448 C140.302014,6.92807239 140.107773,6.91697359 139.947423,6.91697359 C139.821975,6.91697359 139.753688,6.8942715 139.753688,6.81506643 C139.753688,6.73485238 139.834621,6.71215029 140.004582,6.71215029 C140.609562,6.71215029 141.328861,6.74645567 141.647538,6.74645567 C142.013258,6.74645567 144.283957,6.74645567 144.499949,6.73485238 C144.716446,6.71215029 144.899559,6.6894482 144.99061,6.66674611 C145.048275,6.65514282 145.115551,6.62083744 145.173217,6.62083744 C145.230376,6.62083744 145.241504,6.66674611 145.241504,6.72324909 C145.241504,6.80245416 145.184345,6.93967568 145.150454,7.46333722 C145.138314,7.57634317 145.115551,8.07780711 145.092789,8.21401965 C145.08166,8.27001814 145.058898,8.33963788 144.979987,8.33963788 C144.899559,8.33963788 144.876797,8.28263041 144.876797,8.17971427 C144.876797,8.1005092 144.865162,7.9067847 144.807497,7.77057216 C144.728081,7.56574887 144.613762,7.42903184 144.043178,7.36143006 C143.848937,7.33872797 142.651623,7.31552139 142.423997,7.31552139 C142.366837,7.31552139 142.343569,7.34982677 142.343569,7.42903184 L142.343569,10.3076568 C142.343569,10.3878709 142.354697,10.4322661 142.423997,10.4322661 C142.674386,10.4322661 143.987031,10.4322661 144.249054,10.410573 C144.5217,10.3878709 144.693178,10.353061 144.795863,10.2395505 C144.876797,10.1487422 144.922322,10.0912302 144.979987,10.0912302 C145.024501,10.0912302 145.058898,10.1149413 145.058898,10.1820386 C145.058898,10.2506493 145.002244,10.4322661 144.968353,11.0124306 C144.94559,11.2404605 144.922322,11.6960157 144.922322,11.7752208 C144.922322,11.8655247 144.922322,11.9916474 144.819131,11.9916474 C144.739715,11.9916474 144.716446,11.9457387 144.716446,11.8897402 C144.704812,11.7752208 144.704812,11.6279095 144.670415,11.4795891 C144.613762,11.2515593 144.454423,11.0815458 144.031544,11.0361416 C143.816058,11.0124306 142.68602,11.0023408 142.412363,11.0023408 C142.354697,11.0023408 142.343569,11.0472404 142.343569,11.1158512 L142.343569,12.0143495 C142.343569,12.4007895 142.33244,13.4476081 142.343569,13.7775451 C142.366837,14.5630374 142.548938,14.7340598 143.712362,14.7340598 C144.009793,14.7340598 144.488314,14.7340598 144.78524,14.5968383 C145.08166,14.4611302 145.218236,14.2214971 145.298664,13.754843 C145.321932,13.6302338 145.343683,13.5848296 145.424111,13.5848296 C145.515162,13.5848296 145.515162,13.6751335 145.515162,13.7891484 C145.515162,14.0504747 145.424111,14.8248682 145.366446,15.0523936 C145.28703,15.3480252 145.184345,15.3480252 144.751349,15.3480252 C143.028471,15.3480252 142.264658,15.2794145 141.590885,15.2794145 C141.328861,15.2794145 140.609562,15.3142243 140.153298,15.3142243 C140.004582,15.3142243 139.925672,15.2794145 139.925672,15.2007139 C139.925672,15.1426974 139.970691,15.109401 140.107773,15.109401 C140.278746,15.109401 140.415827,15.0861945 140.518006,15.0634924 C140.74715,15.0180882 140.803298,14.7678607 140.849329,14.4379237 C140.906488,13.9601708 140.906488,13.061168 140.906488,12.0143495 L140.906488,10.0115207 Z" id="Fill-25"></path>
                <path d="M150.090045,10.9106243 C150.090045,11.0362425 150.11382,11.0806377 150.19273,11.1159521 C150.432497,11.1951572 150.774442,11.2294626 151.059733,11.2294626 C151.515492,11.2294626 151.663702,11.1835539 151.870589,11.0362425 C152.212028,10.7850061 152.543351,10.2623535 152.543351,9.32854091 C152.543351,7.71366559 151.470472,7.24650704 150.79771,7.24650704 C150.511913,7.24650704 150.306543,7.25811033 150.19273,7.2929202 C150.11382,7.3151178 150.090045,7.36052198 150.090045,7.45183482 L150.090045,10.9106243 Z M148.744015,10.0121261 C148.744015,8.28222682 148.744015,7.96338858 148.721253,7.59965065 C148.69849,7.21220166 148.60744,7.03159392 148.230592,6.95137987 C148.139035,6.92867778 147.944794,6.91707449 147.785456,6.91707449 C147.660008,6.91707449 147.591721,6.8943724 147.591721,6.81516733 C147.591721,6.73444879 147.671137,6.71225119 147.843121,6.71225119 C148.447595,6.71225119 149.165377,6.74655657 149.405649,6.74655657 C149.794131,6.74655657 150.659617,6.71225119 151.013197,6.71225119 C151.733507,6.71225119 152.497826,6.78035746 153.11444,7.20160735 C153.433117,7.41803394 153.889381,7.99819845 153.889381,8.76048417 C153.889381,9.60298395 153.535296,10.375864 152.383001,11.3086676 C153.398214,12.5835161 154.185295,13.5955248 154.859069,14.3013075 C155.49794,14.9611816 155.965839,15.0413957 156.136811,15.0751965 C156.262765,15.0978986 156.364438,15.1095019 156.455994,15.1095019 C156.54755,15.1095019 156.59257,15.1433028 156.59257,15.2003103 C156.59257,15.2911186 156.512648,15.3143252 156.376072,15.3143252 L155.292065,15.3143252 C154.6537,15.3143252 154.368408,15.2568133 154.071482,15.0978986 C153.581327,14.8355634 153.147825,14.3013075 152.508448,13.4250069 C152.052184,12.7989337 151.527632,12.0250447 151.379928,11.8545268 C151.321757,11.786925 151.253469,11.7753217 151.174558,11.7753217 L150.182614,11.7526196 C150.124948,11.7526196 150.090045,11.7753217 150.090045,11.8439324 L150.090045,12.0033516 C150.090045,13.0612689 150.090045,13.9602717 150.147205,14.4385291 C150.182614,14.7679616 150.24989,15.0171801 150.592847,15.0630888 C150.763313,15.0867998 151.013197,15.1095019 151.150784,15.1095019 C151.241329,15.1095019 151.288371,15.1433028 151.288371,15.2003103 C151.288371,15.2800198 151.207943,15.3143252 151.059733,15.3143252 C150.398606,15.3143252 149.553353,15.2800198 149.382886,15.2800198 C149.165377,15.2800198 148.447595,15.3143252 147.991331,15.3143252 C147.843121,15.3143252 147.763199,15.2800198 147.763199,15.2003103 C147.763199,15.1433028 147.808724,15.1095019 147.944794,15.1095019 C148.116778,15.1095019 148.253354,15.0867998 148.355533,15.0630888 C148.584171,15.0171801 148.641331,14.7679616 148.686856,14.4385291 C148.744015,13.9602717 148.744015,13.0612689 148.744015,12.0144504 L148.744015,10.0121261 Z" id="Fill-27"></path>
                <path d="M157.425176,15.1776082 C157.243075,15.0978986 157.208172,15.0408912 157.208172,14.7901592 C157.208172,14.165095 157.254203,13.4820143 157.265332,13.2998931 C157.27646,13.1288707 157.311363,13.003757 157.402919,13.003757 C157.505604,13.003757 157.517744,13.1066731 157.517744,13.197986 C157.517744,13.3458018 157.562764,13.584426 157.618911,13.777646 C157.870818,14.6196413 158.544592,14.9268762 159.250233,14.9268762 C160.278092,14.9268762 160.779376,14.2321923 160.779376,13.6303347 C160.779376,13.0723677 160.608909,12.5376074 159.661984,11.8096271 L159.136926,11.400485 C157.881946,10.4212682 157.448445,9.62518155 157.448445,8.70297221 C157.448445,7.45183482 158.497549,6.55333656 160.083851,6.55333656 C160.825407,6.55333656 161.303928,6.66634252 161.600854,6.74605208 C161.703033,6.76925866 161.760192,6.80305955 161.760192,6.88276911 C161.760192,7.03108943 161.714667,7.36102647 161.714667,8.24842593 C161.714667,8.49814892 161.68027,8.58996626 161.589725,8.58996626 C161.509298,8.58996626 161.475912,8.5213555 161.475912,8.38463847 C161.475912,8.28273131 161.418753,7.9290832 161.178986,7.63395603 C161.007508,7.41752944 160.677197,7.07649361 159.934629,7.07649361 C159.091401,7.07649361 158.577977,7.56584976 158.577977,8.24842593 C158.577977,8.77158297 158.841012,9.16962628 159.786925,9.88600333 L160.106614,10.1256365 C161.475912,11.1835539 161.978208,11.9463441 161.978208,13.0264591 C161.978208,13.6873421 161.725795,14.4723299 160.904823,15.0075948 C160.334746,15.3708282 159.695875,15.4732399 159.091401,15.4732399 C158.428755,15.4732399 157.916343,15.3940348 157.425176,15.1776082" id="Fill-29"></path>
                <path d="M165.199929,10.0115207 C165.199929,8.28263041 165.199929,7.96379217 165.17666,7.59904526 C165.154404,7.21260525 165.040591,7.01938524 164.78919,6.96237777 C164.663237,6.92807239 164.515027,6.91697359 164.378451,6.91697359 C164.263626,6.91697359 164.19635,6.8942715 164.19635,6.80245416 C164.19635,6.73485238 164.286895,6.71215029 164.470513,6.71215029 C164.903003,6.71215029 165.62129,6.74645567 165.952107,6.74645567 C166.237399,6.74645567 166.911173,6.71215029 167.344169,6.71215029 C167.492884,6.71215029 167.583429,6.73485238 167.583429,6.80245416 C167.583429,6.8942715 167.515647,6.91697359 167.401834,6.91697359 C167.287515,6.91697359 167.195959,6.92807239 167.059889,6.95077448 C166.751329,7.00778195 166.659772,7.20150645 166.637515,7.59904526 C166.614247,7.96379217 166.614247,8.28263041 166.614247,10.0115207 L166.614247,12.0143495 C166.614247,13.117671 166.614247,14.0171783 166.659772,14.5060299 C166.694169,14.8132649 166.773585,15.0180882 167.116542,15.0634924 C167.276387,15.0861945 167.527281,15.109401 167.697748,15.109401 C167.823701,15.109401 167.880355,15.1426974 167.880355,15.2007139 C167.880355,15.2794145 167.78981,15.3142243 167.663857,15.3142243 C166.911173,15.3142243 166.192885,15.2794145 165.884325,15.2794145 C165.62129,15.2794145 164.903003,15.3142243 164.447245,15.3142243 C164.298529,15.3142243 164.219113,15.2794145 164.219113,15.2007139 C164.219113,15.1426974 164.263626,15.109401 164.401719,15.109401 C164.572186,15.109401 164.709268,15.0861945 164.811447,15.0634924 C165.040591,15.0180882 165.108373,14.8248682 165.142769,14.4944266 C165.199929,14.0171783 165.199929,13.117671 165.199929,12.0143495 L165.199929,10.0115207 Z" id="Fill-31"></path>
                <path d="M172.727227,7.34917093 L171.027617,7.3950796 C170.366489,7.41778169 170.092326,7.47428467 169.921353,7.72552113 C169.807034,7.89553456 169.749369,8.03174709 169.728124,8.12356443 C169.703844,8.2138683 169.669953,8.26028146 169.600653,8.26028146 C169.521743,8.26028146 169.49898,8.2027695 169.49898,8.07765576 C169.49898,7.89553456 169.715478,6.86031927 169.738747,6.76900642 C169.772638,6.62169508 169.807034,6.55308432 169.874311,6.55308432 C169.966373,6.55308432 170.080186,6.66709926 170.366489,6.68980135 C170.696294,6.72309775 171.130808,6.74630433 171.50715,6.74630433 L176.024773,6.74630433 C176.754189,6.74630433 177.028352,6.63279388 177.119908,6.63279388 C177.199324,6.63279388 177.210959,6.70140464 177.210959,6.87141806 C177.210959,7.11054674 177.177068,7.89553456 177.177068,8.1916707 C177.164928,8.30518115 177.142671,8.37379191 177.074383,8.37379191 C176.982827,8.37379191 176.960064,8.31627995 176.94843,8.14626652 L176.937301,8.02064829 C176.914539,7.72552113 176.606484,7.4061784 175.589754,7.38347631 L174.153685,7.34917093 L174.153685,12.0136936 C174.153685,13.0610167 174.153685,13.9600195 174.209833,14.4493756 C174.244229,14.7682138 174.313023,15.0179368 174.65598,15.063341 C174.815824,15.0865476 175.065707,15.1097542 175.23668,15.1097542 C175.363139,15.1097542 175.420299,15.1430506 175.420299,15.2005625 C175.420299,15.2792631 175.329248,15.3145775 175.203295,15.3145775 C174.449599,15.3145775 173.731817,15.2792631 173.411623,15.2792631 C173.1496,15.2792631 172.430807,15.3145775 171.974542,15.3145775 C171.826332,15.3145775 171.74641,15.2792631 171.74641,15.2005625 C171.74641,15.1430506 171.791936,15.1097542 171.929017,15.1097542 C172.09999,15.1097542 172.236566,15.0865476 172.33925,15.063341 C172.567888,15.0179368 172.63567,14.7682138 172.670067,14.4377723 C172.727227,13.9600195 172.727227,13.0610167 172.727227,12.0136936 L172.727227,7.34917093 Z" id="Fill-33"></path>
                <path d="M182.185959,12.3669886 C182.185959,11.7525187 182.07164,11.5027957 181.922924,11.1723542 C181.843508,10.990233 180.314365,8.48745371 179.91526,7.8956859 C179.630474,7.47443602 179.345183,7.19040765 179.128179,7.06478942 C178.979969,6.98507986 178.785222,6.91747808 178.649152,6.91747808 C178.557596,6.91747808 178.47818,6.8942715 178.47818,6.81506643 C178.47818,6.74595118 178.557596,6.71215029 178.694677,6.71215029 C178.899541,6.71215029 179.755922,6.74595118 180.131758,6.74595118 C180.371524,6.74595118 180.838917,6.71215029 181.353352,6.71215029 C181.46666,6.71215029 181.524325,6.74595118 181.524325,6.81506643 C181.524325,6.8831727 181.443391,6.8942715 181.272925,6.93967568 C181.169734,6.96338675 181.11308,7.05369062 181.11308,7.14500347 C181.11308,7.23631632 181.169734,7.37252886 181.249656,7.53144349 C181.4095,7.87298381 183.006931,10.6148918 183.189538,10.93373 C183.303857,10.6608004 184.739926,8.15751667 184.901288,7.80437305 C185.015101,7.55414558 185.060626,7.36092557 185.060626,7.21260525 C185.060626,7.0990948 185.015101,6.97448555 184.82086,6.92857688 C184.718681,6.90587479 184.615996,6.8831727 184.615996,6.81506643 C184.615996,6.73434789 184.673155,6.71215029 184.809731,6.71215029 C185.186579,6.71215029 185.551287,6.74595118 185.881598,6.74595118 C186.132999,6.74595118 186.885683,6.71215029 187.103192,6.71215029 C187.22864,6.71215029 187.30755,6.73434789 187.30755,6.80346314 C187.30755,6.8831727 187.2165,6.91747808 187.091558,6.91747808 C186.976733,6.91747808 186.760741,6.96338675 186.588757,7.05369062 C186.349497,7.16770556 186.224555,7.3039181 185.97366,7.61115305 C185.596812,8.06620382 183.999382,10.74051 183.794518,11.2298661 C183.623545,11.6390083 183.623545,11.9911429 183.623545,12.3669886 L183.623545,13.3002967 C183.623545,13.4819134 183.623545,13.9601708 183.657436,14.4379237 C183.680199,14.7678607 183.782378,15.0175837 184.125335,15.0634924 C184.284673,15.0866989 184.535568,15.1099055 184.695918,15.1099055 C184.82086,15.1099055 184.877513,15.1432019 184.877513,15.2002094 C184.877513,15.2794145 184.78798,15.3142243 184.638759,15.3142243 C183.920471,15.3142243 183.201172,15.2794145 182.893118,15.2794145 C182.608332,15.2794145 181.889033,15.3142243 181.46666,15.3142243 C181.307321,15.3142243 181.215765,15.2905133 181.215765,15.2002094 C181.215765,15.1432019 181.272925,15.1099055 181.397866,15.1099055 C181.558722,15.1099055 181.694792,15.0866989 181.797982,15.0634924 C182.026115,15.0175837 182.129305,14.7678607 182.151056,14.4379237 C182.185959,13.9601708 182.185959,13.4819134 182.185959,13.3002967 L182.185959,12.3669886 Z" id="Fill-35"></path>
                <path d="M24.4221254,24.1224838 C24.4221254,22.9868748 24.4221254,22.7770066 24.4069503,22.5383824 C24.3922811,22.284119 24.3169115,22.1569873 24.1525147,22.120664 C24.0700634,22.0974574 23.972437,22.0903945 23.8834099,22.0903945 C23.8080403,22.0903945 23.7630209,22.0752598 23.7630209,22.0157299 C23.7630209,21.9713347 23.8232154,21.9556955 23.9425927,21.9556955 C24.2278843,21.9556955 24.6998295,21.9783975 24.9168332,21.9783975 C25.1044984,21.9783975 25.5460934,21.9556955 25.8308792,21.9556955 C25.9279998,21.9556955 25.9881943,21.9713347 25.9881943,22.0157299 C25.9881943,22.0752598 25.9431748,22.0903945 25.8678052,22.0903945 C25.7934473,22.0903945 25.7337587,22.0974574 25.6437198,22.1125921 C25.4408795,22.1504289 25.3811908,22.2770561 25.3660157,22.5383824 C25.3508407,22.7770066 25.3508407,22.9868748 25.3508407,24.1224838 L25.3508407,25.4376915 C25.3508407,26.1621404 25.3508407,26.7534037 25.3811908,27.0742599 C25.4039535,27.2760563 25.4560546,27.4112599 25.6806459,27.4405203 C25.7858598,27.4551506 25.9502565,27.4702853 26.0625522,27.4702853 C26.1455093,27.4702853 26.1824354,27.4919784 26.1824354,27.5298152 C26.1824354,27.5817778 26.1222408,27.6049844 26.0402954,27.6049844 C25.5460934,27.6049844 25.0736424,27.5817778 24.8718138,27.5817778 C24.6998295,27.5817778 24.2278843,27.6049844 23.9274176,27.6049844 C23.8302971,27.6049844 23.7781959,27.5817778 23.7781959,27.5298152 C23.7781959,27.4919784 23.8080403,27.4702853 23.8980791,27.4702853 C24.0103748,27.4702853 24.0994019,27.4551506 24.1676898,27.4405203 C24.3169115,27.4112599 24.3619309,27.2831192 24.3841877,27.0666926 C24.4221254,26.7534037 24.4221254,26.1621404 24.4221254,25.4376915 L24.4221254,24.1224838 Z" id="Fill-37"></path>
                <path d="M28.6103479,26.5882839 C28.625523,27.1709708 28.7226435,27.3651998 28.8728769,27.4186759 C29.0003476,27.4625666 29.1419817,27.4701339 29.2613591,27.4701339 C29.3438104,27.4701339 29.3898415,27.4847642 29.3898415,27.5306728 C29.3898415,27.5896983 29.3215536,27.604833 29.2173513,27.604833 C28.7302311,27.604833 28.4297644,27.5816264 28.2876244,27.5816264 C28.2203482,27.5816264 27.8687921,27.604833 27.4792982,27.604833 C27.381166,27.604833 27.3138897,27.5972656 27.3138897,27.5306728 C27.3138897,27.4847642 27.3589092,27.4701339 27.4342788,27.4701339 C27.5313993,27.4701339 27.6664576,27.4625666 27.7706598,27.4328016 C27.9659126,27.3727672 27.9957569,27.1558361 28.0033445,26.5055474 L28.0711265,22.0826758 C28.0711265,21.932842 28.0933833,21.8289169 28.1682471,21.8289169 C28.2506984,21.8289169 28.3184804,21.9247702 28.4449395,22.0599737 C28.5354842,22.1578449 29.6741214,23.3756859 30.7672334,24.4588279 C31.2771163,24.9668502 32.2882829,26.0429292 32.4162594,26.1624936 L32.4536913,26.1624936 L32.3788275,22.8071247 C32.37124,22.3515694 32.3039638,22.2098075 32.1238861,22.1346384 C32.0115905,22.0897387 31.8315128,22.0897387 31.7273105,22.0897387 C31.6367658,22.0897387 31.6069215,22.0685501 31.6069215,22.0231459 C31.6069215,21.9631115 31.688867,21.9555441 31.8021743,21.9555441 C32.1911623,21.9555441 32.5508118,21.9777417 32.7081269,21.9777417 C32.791084,21.9777417 33.075364,21.9555441 33.442601,21.9555441 C33.5397216,21.9555441 33.6145854,21.9631115 33.6145854,22.0231459 C33.6145854,22.0685501 33.5695659,22.0897387 33.4795271,22.0897387 C33.4051692,22.0897387 33.3449747,22.0897387 33.2549358,22.1124408 C33.0455196,22.1729797 32.9853251,22.3288674 32.9777376,22.7480993 L32.8952863,27.4625666 C32.8952863,27.6275351 32.865442,27.6946324 32.7981657,27.6946324 C32.7157144,27.6946324 32.6256756,27.6124004 32.5437301,27.5306728 C32.071785,27.0821805 31.1117079,26.1029636 30.333226,25.3331106 C29.5168064,24.5264296 28.6852117,23.592617 28.5501534,23.4498461 L28.5278966,23.4498461 L28.6103479,26.5882839 Z" id="Fill-39"></path>
                <path d="M39.2934059,22.3742715 L38.1770255,22.404541 C37.7425122,22.4191712 37.5629403,22.4565035 37.4506447,22.6209676 C37.3757809,22.7329646 37.3378432,22.8227639 37.323174,22.8827983 C37.3085047,22.9418238 37.2857421,22.9720932 37.2412285,22.9720932 C37.1881157,22.9720932 37.1724348,22.9347609 37.1724348,22.8525289 C37.1724348,22.7329646 37.3155864,22.0529108 37.3307615,21.9928764 C37.3525125,21.8960142 37.3757809,21.851619 37.4197887,21.851619 C37.4799832,21.851619 37.5548469,21.9257791 37.7425122,21.9409139 C37.9600217,21.9631115 38.2443017,21.9787507 38.4921614,21.9787507 L41.4583848,21.9787507 C41.698657,21.9787507 41.8630538,21.9555441 41.9753494,21.9409139 C42.0881509,21.9182118 42.1478396,21.9035815 42.1776839,21.9035815 C42.2307967,21.9035815 42.2378784,21.9489857 42.2378784,22.0599737 C42.2378784,22.2168704 42.2156216,22.7329646 42.2156216,22.9271935 C42.2075282,23.0018582 42.1923532,23.0467579 42.1478396,23.0467579 C42.0881509,23.0467579 42.0734816,23.00993 42.0653883,22.8974286 L42.0572949,22.8151966 C42.0431315,22.6209676 41.840797,22.4116039 41.1741049,22.3964691 L40.2297087,22.3742715 L40.2297087,25.4375402 C40.2297087,26.1256657 40.2297087,26.7149111 40.2671406,27.0367763 C40.2899032,27.2456355 40.3349227,27.4100995 40.5595139,27.440369 C40.6647279,27.4549992 40.8296305,27.4696294 40.9414203,27.4696294 C41.0243774,27.4696294 41.0618093,27.492836 41.0618093,27.5301684 C41.0618093,27.5816264 41.0011089,27.6043285 40.9191635,27.6043285 C40.4244557,27.6043285 39.9525105,27.5816264 39.7430943,27.5816264 C39.5706042,27.5816264 39.098659,27.6043285 38.7981923,27.6043285 C38.7015776,27.6043285 38.6489706,27.5816264 38.6489706,27.5301684 C38.6489706,27.492836 38.678815,27.4696294 38.7688538,27.4696294 C38.8816553,27.4696294 38.9716941,27.4549992 39.0384645,27.440369 C39.188192,27.4100995 39.2332114,27.2456355 39.2554682,27.0292089 C39.2934059,26.7149111 39.2934059,26.1256657 39.2934059,25.4375402 L39.2934059,22.3742715 Z" id="Fill-41"></path>
                <path d="M47.8417341,24.3316457 C47.863485,24.3316457 47.8867535,24.31752 47.8867535,24.2796831 L47.8867535,24.122282 C47.8867535,22.986673 47.8867535,22.7773093 47.8715784,22.5381806 C47.8564033,22.2844217 47.7967147,22.1663708 47.5498666,22.1123903 C47.4896721,22.0972556 47.3622014,22.0906972 47.2569874,22.0906972 C47.175042,22.0906972 47.1300226,22.0755625 47.1300226,22.0230954 C47.1300226,21.9711329 47.1821237,21.9559981 47.2873376,21.9559981 C47.6925124,21.9559981 48.1639517,21.9781957 48.3662862,21.9781957 C48.5458581,21.9781957 49.0172974,21.9559981 49.3091649,21.9559981 C49.4143788,21.9559981 49.4674916,21.9711329 49.4674916,22.0230954 C49.4674916,22.0755625 49.4224722,22.0906972 49.3324333,22.0906972 C49.2732505,22.0906972 49.2049626,22.0972556 49.1159354,22.1123903 C48.9125893,22.1492182 48.8534065,22.2773588 48.8382314,22.5381806 C48.8230563,22.7773093 48.8230563,22.986673 48.8230563,24.122282 L48.8230563,25.4374897 C48.8230563,26.1251108 48.8230563,26.7148606 48.8604882,27.0367258 C48.8832508,27.2460895 48.9282702,27.4110581 49.1528615,27.4403185 C49.2575696,27.4549488 49.4224722,27.4700835 49.5347678,27.4700835 C49.6167133,27.4700835 49.654651,27.4922811 49.654651,27.5301179 C49.654651,27.5820805 49.5944565,27.6042781 49.5054293,27.6042781 C49.0172974,27.6042781 48.5458581,27.5820805 48.3364419,27.5820805 C48.1639517,27.5820805 47.6925124,27.6042781 47.3996332,27.6042781 C47.2944193,27.6042781 47.2423182,27.5820805 47.2423182,27.5301179 C47.2423182,27.4922811 47.2721625,27.4700835 47.3622014,27.4700835 C47.474497,27.4700835 47.5650417,27.4549488 47.6318121,27.4403185 C47.7815396,27.4110581 47.8194773,27.2460895 47.8493216,27.0296629 C47.8867535,26.7148606 47.8867535,26.1251108 47.8867535,25.4374897 L47.8867535,24.7806426 C47.8867535,24.7503731 47.863485,24.7352384 47.8417341,24.7352384 L44.9797129,24.7352384 C44.9569503,24.7352384 44.9346935,24.7428058 44.9346935,24.7806426 L44.9346935,25.4374897 C44.9346935,26.1251108 44.9346935,26.7148606 44.9721254,27.0367258 C44.994888,27.2460895 45.0388957,27.4110581 45.2644987,27.4403185 C45.3697126,27.4549488 45.5341094,27.4700835 45.646405,27.4700835 C45.7293621,27.4700835 45.7662882,27.4922811 45.7662882,27.5301179 C45.7662882,27.5820805 45.7060937,27.6042781 45.6165607,27.6042781 C45.1294404,27.6042781 44.6574952,27.5820805 44.4480791,27.5820805 C44.2755889,27.5820805 43.8036438,27.6042781 43.5031771,27.6042781 C43.4060565,27.6042781 43.3539554,27.5820805 43.3539554,27.5301179 C43.3539554,27.4922811 43.3837997,27.4700835 43.4738386,27.4700835 C43.5861342,27.4700835 43.6756672,27.4549488 43.7434492,27.4403185 C43.8926709,27.4110581 43.9311145,27.2460895 43.9609588,27.0296629 C43.9983907,26.7148606 43.9983907,26.1251108 43.9983907,25.4374897 L43.9983907,24.122282 C43.9983907,22.986673 43.9983907,22.7773093 43.9832156,22.5381806 C43.9685464,22.2844217 43.9083518,22.1663708 43.6604921,22.1123903 C43.6013093,22.0972556 43.4738386,22.0906972 43.3691305,22.0906972 C43.2866792,22.0906972 43.2416597,22.0755625 43.2416597,22.0230954 C43.2416597,21.9711329 43.2937609,21.9559981 43.3989748,21.9559981 C43.8036438,21.9559981 44.2755889,21.9781957 44.4774176,21.9781957 C44.6574952,21.9781957 45.1294404,21.9559981 45.4218137,21.9559981 C45.5270277,21.9559981 45.5791288,21.9711329 45.5791288,22.0230954 C45.5791288,22.0755625 45.5341094,22.0906972 45.4440705,22.0906972 C45.3843819,22.0906972 45.3165998,22.0972556 45.226561,22.1123903 C45.0247323,22.1492182 44.9650437,22.2773588 44.9498686,22.5381806 C44.9346935,22.7773093 44.9346935,22.986673 44.9346935,24.122282 L44.9346935,24.2796831 C44.9346935,24.31752 44.9569503,24.3316457 44.9797129,24.3316457 L47.8417341,24.3316457 Z" id="Fill-43"></path>
                <path d="M51.6622137,24.1224838 C51.6622137,22.9868748 51.6622137,22.7770066 51.6470386,22.5383824 C51.6318635,22.284119 51.5721748,22.1660681 51.3248209,22.1125921 C51.2656381,22.0974574 51.1381674,22.0903945 51.0329534,22.0903945 C50.951008,22.0903945 50.9059886,22.0752598 50.9059886,22.0232972 C50.9059886,21.9713347 50.9580897,21.9556955 51.0703853,21.9556955 C51.4669609,21.9556955 51.9399177,21.9783975 52.1493339,21.9783975 C52.3891003,21.9783975 53.8803054,21.9783975 54.0219395,21.9713347 C54.1640795,21.9556955 54.2844685,21.9405607 54.3441571,21.9259305 C54.3820949,21.9183631 54.4266084,21.89667 54.465052,21.89667 C54.5014722,21.89667 54.5095656,21.9259305 54.5095656,21.9632628 C54.5095656,22.0157299 54.4716279,22.1055292 54.4498769,22.4490875 C54.4417835,22.5242567 54.4266084,22.8526802 54.4119392,22.9424796 C54.4043517,22.9803164 54.3891766,23.0247116 54.3365696,23.0247116 C54.2844685,23.0247116 54.2692934,22.9868748 54.2692934,22.9197775 C54.2692934,22.866806 54.2622117,22.7406833 54.224274,22.6508839 C54.1726787,22.5156803 54.0968032,22.4268899 53.7229903,22.3809813 C53.5950137,22.3668555 52.8084385,22.3522253 52.6582051,22.3522253 C52.6212791,22.3522253 52.6071157,22.3744229 52.6071157,22.4268899 L52.6071157,24.3172173 C52.6071157,24.3696843 52.6136915,24.3984403 52.6582051,24.3984403 C52.8231077,24.3984403 53.6850526,24.3984403 53.8575427,24.3843146 C54.0371146,24.3696843 54.149916,24.3469822 54.2171923,24.2718131 C54.2692934,24.2127877 54.2991377,24.1749508 54.3365696,24.1749508 C54.3674256,24.1749508 54.3891766,24.1905901 54.3891766,24.2349853 C54.3891766,24.2798849 54.3522505,24.3984403 54.3289821,24.7803399 C54.3143128,24.9301737 54.2991377,25.2278233 54.2991377,25.2807949 C54.2991377,25.3398203 54.2991377,25.4230613 54.2323673,25.4230613 C54.1797604,25.4230613 54.1640795,25.3927918 54.1640795,25.3554595 C54.1569978,25.2807949 54.1569978,25.1839326 54.1342351,25.0860614 C54.0968032,24.9372366 53.992601,24.8252396 53.7154028,24.7949701 C53.572757,24.7803399 52.8306953,24.773277 52.6516293,24.773277 C52.6136915,24.773277 52.6071157,24.8025375 52.6071157,24.8474372 L52.6071157,25.4376915 C52.6071157,25.6914504 52.5990223,26.379576 52.6071157,26.5960026 C52.6212791,27.1115923 52.7411623,27.2230848 53.5049749,27.2230848 C53.7002277,27.2230848 54.0148578,27.2230848 54.2090989,27.1332854 C54.4043517,27.044495 54.4938847,26.8875983 54.5469975,26.5808679 C54.5611609,26.4986358 54.5768418,26.4688709 54.6289429,26.4688709 C54.6891374,26.4688709 54.6891374,26.5278963 54.6891374,26.60357 C54.6891374,26.7756013 54.6289429,27.2831192 54.5920169,27.432953 C54.5389041,27.6266775 54.4716279,27.6266775 54.1873479,27.6266775 C53.0557924,27.6266775 52.5540029,27.5817778 52.1124079,27.5817778 C51.9399177,27.5817778 51.4669609,27.6049844 51.1675059,27.6049844 C51.0703853,27.6049844 51.0182842,27.5817778 51.0182842,27.5298152 C51.0182842,27.4919784 51.0476227,27.4702853 51.1381674,27.4702853 C51.250463,27.4702853 51.3405018,27.4551506 51.4077781,27.4405203 C51.5569997,27.4112599 51.5954433,27.2462913 51.6242759,27.0293603 C51.6622137,26.7150624 51.6622137,26.1253126 51.6622137,25.4376915 L51.6622137,24.1224838 Z" id="Fill-45"></path>
                <path d="M59.5211882,26.8947116 C58.7867141,26.2514858 58.592473,25.4155444 58.592473,24.690591 C58.592473,24.1830731 58.749788,23.3012231 59.4685813,22.6428625 C60.0083085,22.1504794 60.72002,21.8513163 61.8369063,21.8513163 C62.3007581,21.8513163 62.5779563,21.8810812 62.9229366,21.9254764 C63.2072166,21.9633133 63.4469829,22.0304106 63.67208,22.0526081 C63.7540255,22.0601755 63.7838698,22.0975078 63.7838698,22.142912 C63.7838698,22.2024419 63.761613,22.2917368 63.7464379,22.5530631 C63.7322745,22.8007681 63.7388504,23.2104147 63.7241811,23.3602485 C63.7160878,23.4732545 63.7019244,23.5322799 63.6341423,23.5322799 C63.5739478,23.5322799 63.5597844,23.4732545 63.5597844,23.3683204 C63.551691,23.1357501 63.4545705,22.8749283 63.2674111,22.6801948 C63.0200572,22.4188685 62.4358164,22.2170722 61.7463616,22.2170722 C61.0943388,22.2170722 60.667413,22.3820407 60.3376078,22.6801948 C59.7907989,23.1806498 59.648659,23.8909729 59.648659,24.6164308 C59.648659,26.3937522 61.0042999,27.2756023 62.0088906,27.2756023 C62.6750769,27.2756023 63.0797458,27.2004331 63.3792009,26.8578838 C63.5066716,26.7151129 63.6048038,26.4991908 63.6341423,26.3639872 C63.6563991,26.2439184 63.67208,26.2146579 63.7322745,26.2146579 C63.7838698,26.2146579 63.7990449,26.267125 63.7990449,26.3271594 C63.7990449,26.4159498 63.7090061,27.066743 63.6341423,27.3210064 C63.5972163,27.4471292 63.5668661,27.484966 63.4393954,27.5369285 C63.1399403,27.6569974 62.5703688,27.7089599 62.0913419,27.7089599 C61.0644945,27.7089599 60.2025496,27.484966 59.5211882,26.8947116" id="Fill-47"></path>
                <path d="M65.7843508,24.1224838 C65.7843508,22.9868748 65.7843508,22.7770066 65.7691757,22.5383824 C65.7540006,22.284119 65.6791369,22.1569873 65.5147401,22.120664 C65.431783,22.0974574 65.3346624,22.0903945 65.2446236,22.0903945 C65.169254,22.0903945 65.1252462,22.0752598 65.1252462,22.0157299 C65.1252462,21.9713347 65.1849349,21.9556955 65.3043122,21.9556955 C65.589098,21.9556955 66.0610432,21.9783975 66.2795644,21.9783975 C66.4657121,21.9783975 66.907813,21.9556955 67.1920929,21.9556955 C67.290731,21.9556955 67.3499138,21.9713347 67.3499138,22.0157299 C67.3499138,22.0752598 67.3054002,22.0903945 67.2305365,22.0903945 C67.154661,22.0903945 67.0949724,22.0974574 67.0054394,22.1125921 C66.802599,22.1504289 66.7434162,22.2770561 66.7282411,22.5383824 C66.713066,22.7770066 66.713066,22.9868748 66.713066,24.1224838 L66.713066,25.4376915 C66.713066,26.1621404 66.713066,26.7534037 66.7434162,27.0742599 C66.7651672,27.2760563 66.81828,27.4112599 67.0428712,27.4405203 C67.1480852,27.4551506 67.3124819,27.4702853 67.4247776,27.4702853 C67.506723,27.4702853 67.5446607,27.4919784 67.5446607,27.5298152 C67.5446607,27.5817778 67.4849721,27.6049844 67.4025208,27.6049844 C66.907813,27.6049844 66.4358678,27.5817778 66.2335333,27.5817778 C66.0610432,27.5817778 65.589098,27.6049844 65.289643,27.6049844 C65.1925224,27.6049844 65.1394096,27.5817778 65.1394096,27.5298152 C65.1394096,27.4919784 65.169254,27.4702853 65.2592928,27.4702853 C65.3720943,27.4702853 65.4621331,27.4551506 65.5299152,27.4405203 C65.6791369,27.4112599 65.7241563,27.2831192 65.7464131,27.0666926 C65.7843508,26.7534037 65.7843508,26.1621404 65.7843508,25.4376915 L65.7843508,24.1224838 Z" id="Fill-49"></path>
                <path d="M70.5492771,22.3742715 L69.4328967,22.404541 C68.9978775,22.4191712 68.8188115,22.4565035 68.7065159,22.6209676 C68.6306405,22.7329646 68.5932086,22.8227639 68.5785393,22.8827983 C68.5638701,22.9418238 68.5411074,22.9720932 68.496088,22.9720932 C68.4439869,22.9720932 68.4288118,22.9347609 68.4288118,22.8525289 C68.4288118,22.7329646 68.5704459,22.0529108 68.5866327,21.9928764 C68.6083837,21.8960142 68.6306405,21.851619 68.6756599,21.851619 C68.7358544,21.851619 68.8107181,21.9257791 68.9978775,21.9409139 C69.2153871,21.9631115 69.5001729,21.9787507 69.7475268,21.9787507 L72.714256,21.9787507 C72.9535165,21.9787507 73.118925,21.9555441 73.2312206,21.9409139 C73.3430104,21.9182118 73.4032049,21.9035815 73.4335551,21.9035815 C73.4856562,21.9035815 73.4932438,21.9489857 73.4932438,22.0599737 C73.4932438,22.2168704 73.4704811,22.7329646 73.4704811,22.9271935 C73.4633994,23.0018582 73.4477185,23.0467579 73.4032049,23.0467579 C73.3430104,23.0467579 73.3283412,23.00993 73.3212595,22.8974286 L73.3131661,22.8151966 C73.2984968,22.6209676 73.0956565,22.4116039 72.4294703,22.3964691 L71.4855799,22.3742715 L71.4855799,25.4375402 C71.4855799,26.1256657 71.4855799,26.7149111 71.5230118,27.0367763 C71.5457744,27.2456355 71.590288,27.4100995 71.8153851,27.440369 C71.9195874,27.4549992 72.0849958,27.4696294 72.1972914,27.4696294 C72.2802486,27.4696294 72.3171746,27.492836 72.3171746,27.5301684 C72.3171746,27.5816264 72.2569801,27.6043285 72.1750346,27.6043285 C71.679821,27.6043285 71.2083817,27.5816264 70.9989655,27.5816264 C70.8264754,27.5816264 70.3545302,27.6043285 70.0540635,27.6043285 C69.9569429,27.6043285 69.9048418,27.5816264 69.9048418,27.5301684 C69.9048418,27.492836 69.9341803,27.4696294 70.024725,27.4696294 C70.1375265,27.4696294 70.2265536,27.4549992 70.2943357,27.440369 C70.4440632,27.4100995 70.4885768,27.2456355 70.5113394,27.0292089 C70.5492771,26.7149111 70.5492771,26.1256657 70.5492771,25.4375402 L70.5492771,22.3742715 Z" id="Fill-51"></path>
                <path d="M76.1298137,25.6697069 C76.1298137,25.2656097 76.0544442,25.1016501 75.9573236,24.8842146 C75.9042108,24.7656592 74.9006318,23.1215234 74.6386087,22.7330655 C74.4514493,22.4561 74.2642899,22.2699428 74.1221499,22.1872063 C74.0245235,22.1347393 73.8975586,22.0903441 73.8075198,22.0903441 C73.7473253,22.0903441 73.6952242,22.0752093 73.6952242,22.0232468 C73.6952242,21.9783471 73.7473253,21.955645 73.8373641,21.955645 C73.9719166,21.955645 74.5333947,21.9783471 74.7807486,21.9783471 C74.9385695,21.9783471 75.2451062,21.955645 75.582499,21.955645 C75.6578686,21.955645 75.6947946,21.9783471 75.6947946,22.0232468 C75.6947946,22.0681465 75.6426935,22.0752093 75.5303979,22.1049743 C75.4626158,22.1206135 75.4251839,22.179639 75.4251839,22.2396734 C75.4251839,22.2992033 75.4626158,22.3884982 75.5152228,22.4939368 C75.6204367,22.7179307 76.6685293,24.5184587 76.7889183,24.7273179 C76.8642879,24.5482236 77.8076724,22.9050968 77.9118746,22.67404 C77.9872442,22.5080625 78.0170886,22.3809308 78.0170886,22.2845731 C78.0170886,22.2104129 77.9872442,22.1276764 77.8607852,22.0974069 C77.7930031,22.0822722 77.7257269,22.0681465 77.7257269,22.0232468 C77.7257269,21.9707797 77.762653,21.955645 77.8526918,21.955645 C78.1005515,21.955645 78.3398121,21.9783471 78.5568158,21.9783471 C78.7217184,21.9783471 79.2164262,21.955645 79.3585662,21.955645 C79.4410175,21.955645 79.4936244,21.9707797 79.4936244,22.0146704 C79.4936244,22.0681465 79.4334299,22.0903441 79.3509786,22.0903441 C79.2766207,22.0903441 79.1339749,22.1206135 79.0211734,22.179639 C78.8638584,22.2543036 78.7819129,22.344103 78.6165045,22.5458993 C78.3696564,22.8445579 77.321058,24.6006907 77.1854939,24.9220514 C77.0737041,25.190945 77.0737041,25.4230108 77.0737041,25.6697069 L77.0737041,26.2811498 C77.0737041,26.4017231 77.0737041,26.715012 77.0964667,27.0288053 C77.1106301,27.2462409 77.1784122,27.4112094 77.4030034,27.4404699 C77.5082174,27.4561091 77.6726141,27.4692259 77.7778281,27.4692259 C77.8607852,27.4692259 77.8977112,27.4919279 77.8977112,27.5302693 C77.8977112,27.5822318 77.8375167,27.6049339 77.740902,27.6049339 C77.2679452,27.6049339 76.796,27.5822318 76.5936655,27.5822318 C76.4060003,27.5822318 75.9340551,27.6049339 75.6578686,27.6049339 C75.5526546,27.6049339 75.4924601,27.5892947 75.4924601,27.5302693 C75.4924601,27.4919279 75.5303979,27.4692259 75.6128492,27.4692259 C75.7180631,27.4692259 75.8070903,27.4561091 75.8748723,27.4404699 C76.0245998,27.4112094 76.091876,27.2462409 76.107557,27.0288053 C76.1298137,26.715012 76.1298137,26.4017231 76.1298137,26.2811498 L76.1298137,25.6697069 Z" id="Fill-53"></path>
                <path d="M87.5775443,24.9221018 C87.5775443,23.2482011 86.6108914,22.2099589 85.3817094,22.2099589 C84.5207762,22.2099589 83.5389482,22.6877117 83.5389482,24.5482741 C83.5389482,26.1026105 84.4003872,27.3350817 85.8389854,27.3350817 C86.3630316,27.3350817 87.5775443,27.0813228 87.5775443,24.9221018 M82.505019,24.7798354 C82.505019,23.502969 83.3517888,21.8512658 85.5987132,21.8512658 C87.464237,21.8512658 88.6261428,22.9344078 88.6261428,24.6451363 C88.6261428,26.3568739 87.4283227,27.7089095 85.5243552,27.7089095 C83.3735398,27.7089095 82.505019,26.1026105 82.505019,24.7798354" id="Fill-55"></path>
                <path d="M91.5192729,25.4381456 C91.5192729,26.1555316 91.5192729,26.7155165 91.5572106,27.0288053 C91.5794674,27.2457364 91.6244868,27.4107049 91.8485722,27.4404699 C91.9537862,27.4556046 92.1186888,27.4697303 92.2239027,27.4697303 C92.3205174,27.4697303 92.3518792,27.4924324 92.3518792,27.5302693 C92.3518792,27.5817273 92.2987664,27.6044294 92.1864708,27.6044294 C91.7145256,27.6044294 91.2425805,27.5817273 91.0473277,27.5817273 C90.8530866,27.5817273 90.3811414,27.6044294 90.0958498,27.6044294 C89.9906359,27.6044294 89.9390406,27.5897992 89.9390406,27.5302693 C89.9390406,27.4924324 89.9693908,27.4697303 90.0513362,27.4697303 C90.1636319,27.4697303 90.2531649,27.4556046 90.3209469,27.4404699 C90.4711803,27.4107049 90.5076005,27.2457364 90.5384565,27.0288053 C90.5753825,26.7155165 90.5753825,26.1555316 90.5753825,25.4381456 L90.5753825,24.1229378 C90.5753825,22.9863199 90.5753825,22.7774606 90.5602074,22.538332 C90.5455382,22.2840686 90.4853437,22.1655132 90.2384956,22.1125417 C90.178807,22.0979114 90.0513362,22.0898396 89.9466281,22.0898396 C89.8712586,22.0898396 89.8191574,22.0757138 89.8191574,22.0303097 C89.8191574,21.9707797 89.8788461,21.955645 89.9906359,21.955645 C90.3811414,21.955645 90.8530866,21.9788516 91.0700903,21.9788516 C91.3538644,21.9788516 92.8754197,21.9788516 93.047404,21.9707797 C93.1900498,21.9632124 93.2795828,21.9632124 93.3544466,21.9410148 C93.3999718,21.9248711 93.4368979,21.8961151 93.4748356,21.8961151 C93.5051858,21.8961151 93.5269367,21.9248711 93.5269367,21.9632124 C93.5269367,22.0146704 93.4900107,22.1049743 93.467248,22.2992033 C93.4601663,22.3743724 93.4449912,22.8152975 93.4298162,22.9040879 C93.4227345,22.9641223 93.4075594,23.0100309 93.3544466,23.0100309 C93.3023454,23.0100309 93.2876762,22.9721941 93.2795828,22.8899621 C93.2795828,22.8299277 93.2795828,22.7103634 93.2350692,22.6054293 C93.1834739,22.5015041 93.0251472,22.3890027 92.7403614,22.3814353 L91.5865491,22.3587332 C91.5415297,22.3587332 91.5192729,22.3814353 91.5192729,22.4641718 L91.5192729,24.3317971 C91.5192729,24.3772012 91.5263546,24.3988943 91.5718798,24.3988943 L92.5309452,24.3918315 C92.658416,24.3918315 92.7626182,24.3918315 92.8678322,24.3842641 C93.0099721,24.3772012 93.1151861,24.3469318 93.1900498,24.249565 C93.2274817,24.2046654 93.2426568,24.1754049 93.2876762,24.1754049 C93.3170147,24.1754049 93.3326956,24.197098 93.3326956,24.2419977 C93.3326956,24.2874019 93.2947579,24.4740635 93.2725011,24.7056248 C93.2578319,24.8549541 93.2426568,25.1985124 93.2426568,25.250475 C93.2426568,25.3185812 93.2426568,25.3932459 93.1672872,25.3932459 C93.1232794,25.3932459 93.1075985,25.3402743 93.1075985,25.2893208 C93.1075985,25.2363492 93.0929293,25.1460453 93.0630849,25.056246 C93.0251472,24.9518164 92.9133574,24.8176218 92.6801669,24.7873523 C92.4940192,24.7656592 91.6993506,24.7656592 91.5718798,24.7656592 C91.5339421,24.7656592 91.5192729,24.779785 91.5192729,24.8327565 L91.5192729,25.4381456 Z" id="Fill-57"></path>
                <path d="M98.6666877,26.5882839 C98.6818628,27.1709708 98.7794891,27.3651998 98.928205,27.4186759 C99.0561815,27.4625666 99.1978157,27.4701339 99.3187105,27.4701339 C99.400656,27.4701339 99.4451696,27.4847642 99.4451696,27.5306728 C99.4451696,27.5896983 99.378905,27.604833 99.2736911,27.604833 C98.7865708,27.604833 98.48661,27.5816264 98.3439642,27.5816264 C98.276688,27.5816264 97.924626,27.604833 97.5356379,27.604833 C97.4375057,27.604833 97.3702295,27.5972656 97.3702295,27.5306728 C97.3702295,27.4847642 97.4152489,27.4701339 97.4906185,27.4701339 C97.5872332,27.4701339 97.7227973,27.4625666 97.8280113,27.4328016 C98.0217465,27.3727672 98.0515909,27.1558361 98.0601901,26.5055474 L98.1274663,22.0826758 C98.1274663,21.932842 98.1497231,21.8289169 98.2245868,21.8289169 C98.3070381,21.8289169 98.3738085,21.9247702 98.5022909,22.0599737 C98.5918239,22.1578449 99.7304612,23.3756859 100.824079,24.4588279 C101.333456,24.9668502 102.344623,26.0429292 102.471588,26.1624936 L102.509019,26.1624936 L102.435673,22.8071247 C102.42758,22.3515694 102.360304,22.2098075 102.180226,22.1346384 C102.067424,22.0897387 101.887853,22.0897387 101.783144,22.0897387 C101.6926,22.0897387 101.663261,22.0685501 101.663261,22.0231459 C101.663261,21.9631115 101.746218,21.9555441 101.858008,21.9555441 C102.247502,21.9555441 102.607657,21.9777417 102.764467,21.9777417 C102.846412,21.9777417 103.131198,21.9555441 103.498435,21.9555441 C103.596061,21.9555441 103.671431,21.9631115 103.671431,22.0231459 C103.671431,22.0685501 103.625906,22.0897387 103.536373,22.0897387 C103.461509,22.0897387 103.401314,22.0897387 103.311781,22.1124408 C103.102365,22.1729797 103.041665,22.3288674 103.034583,22.7480993 L102.952132,27.4625666 C102.952132,27.6275351 102.921782,27.6946324 102.854505,27.6946324 C102.772054,27.6946324 102.682015,27.6124004 102.60007,27.5306728 C102.128125,27.0821805 101.169059,26.1029636 100.390072,25.3331106 C99.5731461,24.5264296 98.7415514,23.592617 98.6064932,23.4498461 L98.5842364,23.4498461 L98.6666877,26.5882839 Z" id="Fill-59"></path>
                <path d="M105.724165,24.1224838 C105.724165,22.9868748 105.724165,22.7770066 105.708484,22.5383824 C105.693815,22.284119 105.634632,22.1660681 105.387278,22.1125921 C105.326578,22.0974574 105.200119,22.0903945 105.094905,22.0903945 C105.012453,22.0903945 104.967434,22.0752598 104.967434,22.0232972 C104.967434,21.9713347 105.019535,21.9556955 105.131831,21.9556955 C105.529418,21.9556955 106.001363,21.9783975 106.209768,21.9783975 C106.451051,21.9783975 107.941245,21.9783975 108.083891,21.9713347 C108.225525,21.9556955 108.34642,21.9405607 108.406108,21.9259305 C108.44354,21.9183631 108.489065,21.89667 108.525991,21.89667 C108.562918,21.89667 108.571011,21.9259305 108.571011,21.9632628 C108.571011,22.0157299 108.534085,22.1055292 108.511322,22.4490875 C108.503229,22.5242567 108.489065,22.8526802 108.473384,22.9424796 C108.465291,22.9803164 108.451128,23.0247116 108.398521,23.0247116 C108.34642,23.0247116 108.330739,22.9868748 108.330739,22.9197775 C108.330739,22.866806 108.323657,22.7406833 108.286225,22.6508839 C108.232606,22.5156803 108.158249,22.4268899 107.78393,22.3809813 C107.657471,22.3668555 106.870895,22.3522253 106.720156,22.3522253 C106.682724,22.3522253 106.667043,22.3744229 106.667043,22.4268899 L106.667043,24.3172173 C106.667043,24.3696843 106.675643,24.3984403 106.720156,24.3984403 C106.884553,24.3984403 107.747004,24.3984403 107.919494,24.3843146 C108.098054,24.3696843 108.211361,24.3469822 108.278638,24.2718131 C108.330739,24.2127877 108.361089,24.1749508 108.398521,24.1749508 C108.428871,24.1749508 108.451128,24.1905901 108.451128,24.2349853 C108.451128,24.2798849 108.412684,24.3984403 108.390933,24.7803399 C108.375758,24.9301737 108.361089,25.2278233 108.361089,25.2807949 C108.361089,25.3398203 108.361089,25.4230613 108.293813,25.4230613 C108.241206,25.4230613 108.225525,25.3927918 108.225525,25.3554595 C108.218949,25.2807949 108.218949,25.1839326 108.196692,25.0860614 C108.158249,24.9372366 108.054046,24.8252396 107.776848,24.7949701 C107.634202,24.7803399 106.893152,24.773277 106.712569,24.773277 C106.675643,24.773277 106.667043,24.8025375 106.667043,24.8474372 L106.667043,25.4376915 C106.667043,25.6914504 106.659962,26.379576 106.667043,26.5960026 C106.682724,27.1115923 106.803113,27.2230848 107.567432,27.2230848 C107.761167,27.2230848 108.076303,27.2230848 108.27105,27.1332854 C108.465291,27.044495 108.555836,26.8875983 108.607937,26.5808679 C108.6221,26.4986358 108.637781,26.4688709 108.690388,26.4688709 C108.750583,26.4688709 108.750583,26.5278963 108.750583,26.60357 C108.750583,26.7756013 108.690388,27.2831192 108.652451,27.432953 C108.600855,27.6266775 108.534085,27.6266775 108.248287,27.6266775 C107.116732,27.6266775 106.614942,27.5817778 106.173347,27.5817778 C106.001363,27.5817778 105.529418,27.6049844 105.228951,27.6049844 C105.131831,27.6049844 105.080235,27.5817778 105.080235,27.5298152 C105.080235,27.4919784 105.109574,27.4702853 105.200119,27.4702853 C105.311402,27.4702853 105.401441,27.4551506 105.469223,27.4405203 C105.618951,27.4112599 105.656383,27.2462913 105.686227,27.0293603 C105.724165,26.7150624 105.724165,26.1253126 105.724165,25.4376915 L105.724165,24.1224838 Z" id="Fill-61"></path>
                <path d="M110.173955,22.6880649 C110.084422,22.4110994 110.001465,22.2320051 109.896251,22.1573405 C109.814811,22.1048734 109.664072,22.0897387 109.596796,22.0897387 C109.521932,22.0897387 109.476913,22.0821713 109.476913,22.0231459 C109.476913,21.9706788 109.536602,21.9555441 109.641816,21.9555441 C110.031815,21.9555441 110.443566,21.9782462 110.511348,21.9782462 C110.578624,21.9782462 110.907924,21.9555441 111.342437,21.9555441 C111.447651,21.9555441 111.500258,21.9782462 111.500258,22.0231459 C111.500258,22.0821713 111.440569,22.0897387 111.364694,22.0897387 C111.304499,22.0897387 111.231153,22.0897387 111.177534,22.1205126 C111.110764,22.1502776 111.095083,22.2022401 111.095083,22.2844722 C111.095083,22.3813344 111.169947,22.6361023 111.25948,22.9715887 C111.387962,23.4654853 112.085004,25.7296404 112.219557,26.1473588 L112.241814,26.1473588 L113.695587,22.2547072 C113.777532,22.045848 113.823057,21.9853091 113.882746,21.9853091 C113.964692,21.9853091 114.002629,22.097306 114.099244,22.3374437 L115.658231,26.0948918 L115.680488,26.0948918 C115.81504,25.5949413 116.415468,23.621373 116.676479,22.7480993 C116.729592,22.5760679 116.751343,22.4191712 116.751343,22.3142371 C116.751343,22.1951773 116.684067,22.0897387 116.392199,22.0897387 C116.317842,22.0897387 116.265235,22.0680456 116.265235,22.0231459 C116.265235,21.9706788 116.324417,21.9555441 116.437725,21.9555441 C116.8343,21.9555441 117.14893,21.9782462 117.216207,21.9782462 C117.268308,21.9782462 117.590525,21.9555441 117.837879,21.9555441 C117.921342,21.9555441 117.973443,21.9706788 117.973443,22.0155785 C117.973443,22.0680456 117.935506,22.0897387 117.868229,22.0897387 C117.793366,22.0897387 117.687646,22.097306 117.606712,22.1275755 C117.425623,22.1951773 117.344183,22.4938359 117.185856,22.9196262 C116.841382,23.8610062 116.054807,26.2371582 115.688076,27.358137 C115.605118,27.6189587 115.568192,27.7092626 115.471072,27.7092626 C115.395702,27.7092626 115.351189,27.6189587 115.238893,27.3430022 L113.680412,23.5991754 L113.665237,23.5991754 C113.523097,23.980066 112.526093,26.6256162 112.204887,27.3132373 C112.061736,27.6189587 112.025316,27.7092626 111.934265,27.7092626 C111.859907,27.7092626 111.82197,27.6275351 111.762787,27.4322971 L110.173955,22.6880649 Z" id="Fill-63"></path>
                <path d="M122.820366,25.6697069 C122.820366,25.2656097 122.745502,25.1016501 122.647876,24.8842146 C122.594763,24.7656592 121.591184,23.1215234 121.329161,22.7330655 C121.142507,22.4561 120.954336,22.2699428 120.812702,22.1872063 C120.71457,22.1347393 120.587099,22.0903441 120.49706,22.0903441 C120.436866,22.0903441 120.38527,22.0752093 120.38527,22.0232468 C120.38527,21.9783471 120.436866,21.955645 120.527916,21.955645 C120.661457,21.955645 121.225464,21.9783471 121.471301,21.9783471 C121.629122,21.9783471 121.936164,21.955645 122.273557,21.955645 C122.348421,21.955645 122.385347,21.9783471 122.385347,22.0232468 C122.385347,22.0681465 122.33274,22.0752093 122.220444,22.1049743 C122.152662,22.1206135 122.11523,22.179639 122.11523,22.2396734 C122.11523,22.2992033 122.152662,22.3884982 122.205269,22.4939368 C122.310483,22.7179307 123.359587,24.5184587 123.47947,24.7273179 C123.554334,24.5482236 124.498224,22.9050968 124.601921,22.67404 C124.678302,22.5080625 124.708652,22.3809308 124.708652,22.2845731 C124.708652,22.2104129 124.678302,22.1276764 124.550831,22.0974069 C124.483049,22.0822722 124.415267,22.0681465 124.415267,22.0232468 C124.415267,21.9707797 124.453711,21.955645 124.542738,21.955645 C124.790598,21.955645 125.029858,21.9783471 125.247368,21.9783471 C125.41227,21.9783471 125.906472,21.955645 126.048612,21.955645 C126.132075,21.955645 126.183671,21.9707797 126.183671,22.0146704 C126.183671,22.0681465 126.123476,22.0903441 126.041531,22.0903441 C125.966667,22.0903441 125.824021,22.1206135 125.711725,22.179639 C125.55441,22.2543036 125.471453,22.344103 125.307057,22.5458993 C125.060208,22.8445579 124.011104,24.6006907 123.876552,24.9220514 C123.76375,25.190945 123.76375,25.4230108 123.76375,25.6697069 L123.76375,26.2811498 C123.76375,26.4017231 123.76375,26.715012 123.785501,27.0288053 C123.801182,27.2462409 123.86947,27.4112094 124.094061,27.4404699 C124.198769,27.4561091 124.363672,27.4692259 124.468886,27.4692259 C124.550831,27.4692259 124.587757,27.4919279 124.587757,27.5302693 C124.587757,27.5822318 124.528069,27.6049339 124.431454,27.6049339 C123.957991,27.6049339 123.486552,27.5822318 123.284218,27.5822318 C123.097058,27.5822318 122.625619,27.6049339 122.348421,27.6049339 C122.243207,27.6049339 122.183518,27.5892947 122.183518,27.5302693 C122.183518,27.4919279 122.220444,27.4692259 122.303907,27.4692259 C122.408109,27.4692259 122.498148,27.4561091 122.564919,27.4404699 C122.715152,27.4112094 122.781922,27.2462409 122.797603,27.0288053 C122.820366,26.715012 122.820366,26.4017231 122.820366,26.2811498 L122.820366,25.6697069 Z" id="Fill-66"></path>
                <path d="M131.490196,24.9221018 C131.490196,23.2482011 130.523037,22.2099589 129.294867,22.2099589 C128.433428,22.2099589 127.4516,22.6877117 127.4516,24.5482741 C127.4516,26.1026105 128.313545,27.3350817 129.751131,27.3350817 C130.275683,27.3350817 131.490196,27.0813228 131.490196,24.9221018 M126.41767,24.7798354 C126.41767,23.502969 127.26444,21.8512658 129.511365,21.8512658 C131.377394,21.8512658 132.537783,22.9344078 132.537783,24.6451363 C132.537783,26.3568739 131.340468,27.7089095 129.437007,27.7089095 C127.286191,27.7089095 126.41767,26.1026105 126.41767,24.7798354" id="Fill-68"></path>
                <path d="M135.372893,24.7126877 C135.372893,24.7949197 135.387562,24.8246846 135.439664,24.8478912 C135.596979,24.8998538 135.822582,24.9220514 136.008729,24.9220514 C136.309196,24.9220514 136.407328,24.8927909 136.541881,24.7949197 C136.76546,24.6299512 136.98297,24.2874019 136.98297,23.6749499 C136.98297,22.6135011 136.278846,22.3067707 135.836745,22.3067707 C135.64908,22.3067707 135.514527,22.314338 135.439664,22.3370401 C135.387562,22.3521748 135.372893,22.3819398 135.372893,22.4419742 L135.372893,24.7126877 Z M134.488186,24.1224333 C134.488186,22.9863199 134.488186,22.7774606 134.474022,22.538332 C134.457836,22.2840686 134.397641,22.1655132 134.151299,22.1130462 C134.09161,22.0979114 133.964139,22.0898396 133.858926,22.0898396 C133.776474,22.0898396 133.731961,22.0757138 133.731961,22.0232468 C133.731961,21.9707797 133.783556,21.9561495 133.896357,21.9561495 C134.293439,21.9561495 134.765384,21.9778426 134.922193,21.9778426 C135.177135,21.9778426 135.747212,21.9561495 135.978379,21.9561495 C136.45083,21.9561495 136.95262,22.0010492 137.357794,22.2770057 C137.567716,22.4197766 137.866666,22.8001627 137.866666,23.3011222 C137.866666,23.8535397 137.633981,24.3620665 136.878768,24.9745184 C137.544448,25.8109643 138.061413,26.4763878 138.503513,26.9395104 C138.923357,27.3728681 139.230906,27.4248307 139.343707,27.4470283 C139.425653,27.463172 139.492929,27.4697303 139.552618,27.4697303 C139.612812,27.4697303 139.642151,27.4929369 139.642151,27.5302693 C139.642151,27.5897992 139.590555,27.6044294 139.500517,27.6044294 L138.788299,27.6044294 C138.369467,27.6044294 138.181802,27.5670971 137.986549,27.463172 C137.664837,27.2906361 137.380557,26.9395104 136.960713,26.3638863 C136.661258,25.9527263 136.315772,25.4457129 136.219157,25.3332115 C136.182231,25.2883118 136.1362,25.2807444 136.083593,25.2807444 L135.432582,25.2666187 C135.395656,25.2666187 135.372893,25.2807444 135.372893,25.3256441 L135.372893,25.4305782 C135.372893,26.1252621 135.372893,26.7155165 135.409313,27.0283008 C135.432582,27.2457364 135.477095,27.4107049 135.701181,27.4399654 C135.814488,27.4556046 135.978379,27.4697303 136.068924,27.4697303 C136.128613,27.4697303 136.158963,27.4929369 136.158963,27.5302693 C136.158963,27.5817273 136.10585,27.6044294 136.008729,27.6044294 C135.574722,27.6044294 135.020325,27.5817273 134.907524,27.5817273 C134.765384,27.5817273 134.293439,27.6044294 133.993478,27.6044294 C133.896357,27.6044294 133.844256,27.5817273 133.844256,27.5302693 C133.844256,27.4929369 133.873595,27.4697303 133.964139,27.4697303 C134.075423,27.4697303 134.165462,27.4556046 134.233244,27.4399654 C134.383478,27.4107049 134.42091,27.2457364 134.45126,27.0283008 C134.488186,26.7155165 134.488186,26.1252621 134.488186,25.4381456 L134.488186,24.1224333 Z" id="Fill-70"></path>
                <path d="M141.440449,24.4516136 L141.478892,24.4516136 C141.731811,24.1751526 142.825934,23.0612368 143.044456,22.8074779 C143.253872,22.5612863 143.417763,22.3741202 143.417763,22.247493 C143.417763,22.165261 143.38893,22.1127939 143.31356,22.0976592 C143.245272,22.0830289 143.215428,22.0683987 143.215428,22.023499 C143.215428,21.971032 143.253872,21.9558972 143.335817,21.9558972 C143.494144,21.9558972 143.905895,21.9785993 144.107723,21.9785993 C144.340408,21.9785993 144.752664,21.9558972 144.983831,21.9558972 C145.059707,21.9558972 145.111302,21.971032 145.111302,22.023499 C145.111302,22.0754616 145.074376,22.0895873 144.999007,22.0895873 C144.894298,22.0895873 144.707645,22.1198568 144.564999,22.1728283 C144.33282,22.2626277 144.077879,22.4190199 143.755661,22.7328132 C143.522977,22.9573116 142.391927,24.0772814 142.137491,24.3466795 C142.40609,24.6983097 143.875039,26.2743392 144.168424,26.5513047 C144.496711,26.865098 144.83461,27.2005845 145.239279,27.3584901 C145.463364,27.4472805 145.613598,27.4694781 145.703131,27.4694781 C145.755232,27.4694781 145.800757,27.4851173 145.800757,27.530017 C145.800757,27.5819796 145.763831,27.6046817 145.621185,27.6046817 L144.969162,27.6046817 C144.744571,27.6046817 144.610019,27.6046817 144.451692,27.5895469 C144.048035,27.5522146 143.8457,27.3877506 143.522977,27.1037222 C143.193677,26.8121265 141.717647,25.0862632 141.560332,24.8698366 L141.478892,24.7578396 L141.440449,24.7578396 L141.440449,25.4383978 C141.440449,26.1255144 141.440449,26.7147597 141.463212,27.0366249 C141.478892,27.2459886 141.545157,27.4104527 141.731811,27.4402176 C141.837025,27.4553524 142.002939,27.4694781 142.100565,27.4694781 C142.16076,27.4694781 142.196674,27.4926847 142.196674,27.530017 C142.196674,27.5819796 142.137491,27.6046817 142.054534,27.6046817 C141.635702,27.6046817 141.163757,27.5819796 140.976091,27.5819796 C140.804107,27.5819796 140.332162,27.6046817 140.032707,27.6046817 C139.934069,27.6046817 139.882473,27.5819796 139.882473,27.530017 C139.882473,27.4926847 139.911812,27.4694781 140.001851,27.4694781 C140.114652,27.4694781 140.204185,27.4553524 140.270956,27.4402176 C140.421189,27.4104527 140.458621,27.2459886 140.488465,27.0290576 C140.526403,26.7147597 140.526403,26.1255144 140.526403,25.4383978 L140.526403,24.1231901 C140.526403,22.9865721 140.526403,22.7777129 140.511734,22.5385842 C140.49757,22.2838163 140.43687,22.165261 140.18901,22.1127939 C140.129322,22.0976592 140.001851,22.0895873 139.897143,22.0895873 C139.814186,22.0895873 139.769672,22.0754616 139.769672,22.023499 C139.769672,21.971032 139.822279,21.9558972 139.934069,21.9558972 C140.332162,21.9558972 140.804107,21.9785993 140.983679,21.9785993 C141.163757,21.9785993 141.635702,21.9558972 141.890643,21.9558972 C141.995351,21.9558972 142.047452,21.971032 142.047452,22.023499 C142.047452,22.0754616 142.002939,22.0895873 141.942238,22.0895873 C141.867881,22.0895873 141.822861,22.0976592 141.731811,22.1127939 C141.530488,22.1496217 141.470293,22.2772579 141.455624,22.5385842 C141.440449,22.7777129 141.440449,22.9865721 141.440449,24.1231901 L141.440449,24.4516136 Z" id="Fill-72"></path>
                <path d="M13.5068886,12.1844133 C13.0136983,12.3221394 12.7051382,12.1173161 12.7061499,11.7207862 C12.7071615,11.4085064 12.758251,11.1032894 12.9565388,10.9529511 C12.9565388,10.9529511 13.9059933,10.9474017 14.0031139,10.8631517 C14.1012461,10.7789017 14.1776274,10.208827 14.1599231,10.0953166 C14.141713,9.98079717 13.1244764,10.1876384 13.0703519,10.0776594 C13.0167333,9.96717592 13.3318692,9.3204186 13.2762273,9.21043959 C13.2195736,9.10197405 12.4517143,9.21649348 12.4517143,9.21649348 C12.3520645,9.26341113 12.2625315,10.0388136 12.1649052,10.1175142 C12.0672788,10.1967193 11.3403922,10.0892627 11.2503533,10.1699813 C11.158797,10.2512043 11.0045169,10.875764 11.0611706,10.955978 C11.1183301,11.0356876 11.9226096,10.9130963 11.98938,10.9983553 C12.0672788,11.2516097 11.8234657,11.6809314 11.5250224,11.9412487 C11.3085245,12.1314418 11.0697698,12.2434388 10.7723381,12.2414208 C10.3180972,12.2383939 9.77331164,11.6173656 9.6008215,10.6386533 C9.48093832,9.95506813 9.76977079,8.60000562 10.0565799,7.96333813 C10.6752176,6.59616784 10.3008988,6.6814268 10.4718714,6.57497922 C11.1689137,6.14363952 12.3515587,5.78393752 13.2489121,5.51857531 C14.1042811,5.2648164 14.9394167,5.09379399 15.735097,5.39598403 C17.0401544,5.89240306 16.7396877,7.54915112 16.2429565,8.56166432 C15.5666535,9.93892443 14.4264988,11.9276275 13.5068886,12.1844133 M8.0145192,10.6386533 C7.84101739,11.6173656 7.29673765,12.2383939 6.84300258,12.2414208 C6.5455709,12.2434388 6.30681622,12.1314418 6.09031833,11.9412487 C5.79136914,11.6809314 5.54806193,11.2516097 5.62596071,10.9983553 C5.69171941,10.9130963 6.49650479,11.0356876 6.55417012,10.955978 C6.61132961,10.875764 6.45654373,10.2512043 6.36448154,10.1699813 C6.2744427,10.0892627 5.54806193,10.1967193 5.45043555,10.1175142 C5.35382083,10.0388136 5.26277032,9.26341113 5.16312059,9.21649348 C5.16312059,9.21649348 4.39475542,9.10197405 4.33911343,9.21043959 C4.28347145,9.3204186 4.5986074,9.96717592 4.54498876,10.0776594 C4.49035846,10.1876384 3.47312187,9.98079717 3.45541761,10.0953166 C3.4372075,10.208827 3.51409461,10.7789017 3.61172099,10.8631517 C3.70934738,10.9474017 4.65829607,10.9529511 4.65829607,10.9529511 C4.85607802,11.1032894 4.90817915,11.4085064 4.90868499,11.7207862 C4.91070833,12.1173161 4.60164242,12.3221394 4.10794629,12.1844133 C3.18884193,11.9276275 2.04868716,9.93892443 1.37238417,8.56166432 C0.874641359,7.54915112 0.575186333,5.89240306 1.88074954,5.39598403 C2.67592404,5.09379399 3.51105959,5.2648164 4.36693442,5.51857531 C5.26378199,5.78393752 6.44592117,6.14363952 7.14296344,6.57497922 C7.31444191,6.6814268 6.93961729,6.59616784 7.55825496,7.96333813 C7.84607575,8.60000562 8.13440238,9.95506813 8.0145192,10.6386533 M17.5642007,6.32273378 C17.3775471,5.23959186 16.4999213,4.48537799 15.4265369,4.39911005 C13.5094177,4.24624931 11.8548276,5.26935682 9.99436206,5.5967714 C9.84463454,5.62199595 9.64533508,5.30719363 9.46424573,5.1265859 C10.3272023,4.47781062 10.2098483,3.2064936 9.21132763,2.65710303 C9.14152224,2.57890694 9.16681405,1.84638618 9.20728094,1.81359427 C9.28821473,1.7459925 9.92556833,1.8675748 10.0156072,1.78937871 C10.1061519,1.71067813 10.0879418,0.948896901 10.0297706,0.875241232 C9.97210526,0.802090054 9.25432371,0.87978165 9.21335098,0.831855016 C9.17338992,0.78241491 9.23358442,0.0963073095 9.16580237,0.042326785 C9.11774794,0.00348098709 8.91794264,-0.000554939971 8.80716451,-5.04490882e-05 C8.69638639,-0.000554939971 8.49708693,0.00348098709 8.44903249,0.042326785 C8.3807446,0.0963073095 8.44144495,0.78241491 8.40097805,0.831855016 C8.36101699,0.87978165 7.64323544,0.802090054 7.58455844,0.875241232 C7.52739895,0.948896901 7.50868301,1.71067813 7.59973352,1.78937871 C7.68977237,1.8675748 8.32662013,1.7459925 8.40805976,1.81359427 C8.44751498,1.84638618 8.47280679,2.57890694 8.40401307,2.65710303 C7.40498659,3.2064936 7.28813843,4.47781062 8.15109497,5.1265859 C7.97000562,5.30719363 7.76969448,5.62199595 7.62097864,5.5967714 C5.76051313,5.26935682 4.10592295,4.24624931 2.18829795,4.39911005 C1.11491355,4.48537799 0.237793594,5.23959186 0.051140039,6.32273378 C-0.284735192,8.27158206 1.11946608,9.76991998 1.80133326,11.4251546 C2.01681948,11.9467981 2.20600221,12.6495539 2.17211119,13.252925 C2.17211119,13.252925 7.74035599,13.252925 8.73230076,13.2534295 L8.80767035,13.2534295 L8.88303994,13.2534295 C9.87498471,13.252925 15.4432295,13.252925 15.4432295,13.252925 C15.4098443,12.6495539 15.5985212,11.9467981 15.8145133,11.4251546 C16.4958746,9.76991998 17.9000759,8.27158206 17.5642007,6.32273378" id="Fill-74"></path>
                <polygon id="Fill-77" points="8.88324228 14.1587889 8.73250309 14.1587889 2.02258601 14.1587889 2.02258601 15.3085236 8.73250309 15.3085236 8.88324228 15.3085236 15.5931594 15.3085236 15.5931594 14.1587889"></polygon>
            </g>
        </g>
    </g>
</svg>