<?xml version="1.0" encoding="UTF-8"?>
<svg width="189px" height="50px" viewBox="0 0 189 50" version="1.1" xmlns="http://www.w3.org/2000/svg" xmlns:xlink="http://www.w3.org/1999/xlink">
    <!-- Generator: Sketch 47.1 (45422) - http://www.bohemiancoding.com/sketch -->
    <title>commonwealth-fund-logo</title>
    <desc>Created with Sketch.</desc>
    <defs></defs>
    <g id="Client-Logos" stroke="none" stroke-width="1" fill="none" fill-rule="evenodd">
        <g id="commonwealth-fund-logo" fill="#818181">
            <g id="Page-1" transform="translate(22.007654, 4.684082)">
                <path d="M20.1779628,39.2164425 C9.91177908,39.2164425 1.56054425,30.8643645 1.56054425,20.5990239 C1.56054425,10.3336834 9.91177908,1.98160535 20.1779628,1.98160535 C30.4424602,1.98160535 38.7928518,10.3336834 38.7928518,20.5990239 C38.7928518,30.8643645 30.4424602,39.2164425 20.1779628,39.2164425 M20.1779628,0.42165135 C9.05127472,0.42165135 0.000168643676,9.47317904 0.000168643676,20.5986023 C0.000168643676,31.7248688 9.05127472,40.7763965 20.1779628,40.7763965 C31.3029645,40.7763965 40.353649,31.7248688 40.353649,20.5986023 C40.353649,9.47317904 31.3029645,0.42165135 20.1779628,0.42165135" id="Fill-1" fill-opacity="0.599999964"></path>
                <path d="M49.0145558,13.1855744 L49.0145558,13.1337165 C49.8931893,12.8622002 50.0744813,12.4486016 50.0744813,11.4143942 L50.0744813,4.73146697 L49.4665208,4.73146697 C48.3682289,4.73146697 48.3294408,4.79597317 47.0490137,6.4120012 L46.997999,6.4120012 L47.2303057,4.26601042 L54.5595598,4.26601042 L54.7927097,6.4120012 L54.7277819,6.4120012 C53.4612679,4.79597317 53.4094099,4.73146697 52.3241879,4.73146697 L51.7153842,4.73146697 L51.7153842,11.4143942 C51.7153842,12.4486016 51.8966762,12.8622002 52.7630831,13.1337165 L52.7630831,13.1855744 L49.0145558,13.1855744 Z" id="Fill-4"></path>
                <path d="M59.794386,13.1855744 L59.794386,13.1337165 C60.5313589,12.8752701 60.6869326,12.4616715 60.6869326,11.4274641 L60.6869326,8.60942829 C60.6869326,7.74344302 60.1822664,7.29063475 59.4971515,7.29063475 C59.0574131,7.29063475 58.437226,7.48499658 58.0628371,7.69158509 L58.0628371,11.4274641 C58.0628371,12.4616715 58.2175676,12.8752701 58.9545405,13.1337165 L58.9545405,13.1855744 L55.5930504,13.1855744 L55.5930504,13.1337165 C56.3169534,12.8752701 56.4725272,12.4616715 56.4725272,11.4274641 L56.4725272,5.83018051 C56.4725272,4.69267892 56.3430932,4.40809272 55.4383198,4.07207019 L55.4383198,4.02021226 C56.2781654,3.96877594 57.3899488,3.67154146 58.0109791,3.43881319 L58.0628371,3.43881319 L58.0628371,7.48499658 C58.5025754,7.1097644 59.4583635,6.43814097 60.298209,6.43814097 C61.3459078,6.43814097 62.2253846,7.0452582 62.2253846,8.68700438 L62.2253846,11.4274641 C62.2253846,12.4616715 62.3801152,12.8752701 63.117088,13.1337165 L63.117088,13.1855744 L59.794386,13.1855744 Z" id="Fill-6"></path>
                <path d="M67.692138,9.11337775 C67.692138,7.56227755 67.3308189,6.78651664 66.4897086,6.78651664 C65.6886511,6.78651664 65.1329702,7.78193593 65.0553941,9.28159982 L67.692138,9.11337775 Z M69.2048717,11.6986853 C68.8810759,12.2417179 67.9640759,13.3404315 66.5284966,13.3404315 C64.7324415,13.3404315 63.4267178,12.0220596 63.4267178,10.0442908 C63.4267178,7.91136996 64.9394516,6.43784584 66.593846,6.43784584 C68.0159338,6.43784584 69.1146474,7.13603066 69.1146474,9.13951752 L69.1146474,9.56576441 L65.0553941,9.56576441 C65.0553941,11.4018724 66.1153196,12.3062241 67.3042575,12.3062241 C68.1188065,12.3062241 68.7782032,11.9314136 69.1277173,11.647249 L69.2048717,11.6986853 Z" id="Fill-8"></path>
                <path d="M55.3222087,24.5712992 C54.7665278,24.8554638 53.6028864,25.1139103 52.5168211,25.1139103 C49.6608405,25.1139103 47.3204879,23.3688698 47.3204879,20.5900437 C47.3204879,17.5907159 50.0609476,15.8199573 52.5429609,15.8199573 C53.5253103,15.8199573 54.6636551,16.1041219 55.2062662,16.3368502 L55.2062662,18.2243945 L55.1544082,18.2243945 C54.4305052,16.7635187 53.3962979,16.2592741 52.3882303,16.2592741 C50.5651922,16.2592741 49.1043164,17.8753021 49.1043164,20.4344699 C49.1043164,23.0589871 50.6431899,24.6872418 52.5817489,24.6872418 C53.6416745,24.6872418 54.6889517,24.1834188 55.4381512,22.5935305 L55.4908524,22.5935305 L55.3222087,24.5712992 Z" id="Fill-10"></path>
                <path d="M61.5788047,21.6241667 C61.5788047,19.9562807 61.0096323,18.5215447 59.8337643,18.5215447 C58.657053,18.5215447 58.1013721,19.9562807 58.1013721,21.6241667 C58.1013721,23.0972692 58.5411105,24.739437 59.8337643,24.739437 C61.1390663,24.739437 61.5788047,23.0972692 61.5788047,21.6241667 M56.3820499,21.6110968 C56.3820499,19.6076099 58.0364443,18.1724522 59.8337643,18.1724522 C61.6428893,18.1724522 63.298127,19.6076099 63.298127,21.6110968 C63.298127,23.5500775 61.7082387,25.0754595 59.8337643,25.0754595 C57.9588682,25.0754595 56.3820499,23.5500775 56.3820499,21.6110968" id="Fill-12"></path>
                <path d="M71.8936422,24.9204338 L71.8936422,24.8685759 C72.6175452,24.6101294 72.773119,24.1961092 72.773119,23.1623235 L72.773119,20.3442877 C72.773119,19.4783024 72.3464505,19.0254941 71.6613355,19.0254941 C71.2603852,19.0254941 70.5234123,19.2712923 70.1486018,19.4652325 C70.2392477,19.7493971 70.2911057,20.0984895 70.2911057,20.48637 L70.2911057,23.1623235 C70.2911057,24.1961092 70.4458362,24.6101294 71.1697392,24.8685759 L71.1697392,24.9204338 L67.8601071,24.9204338 L67.8601071,24.8685759 C68.5840101,24.6101294 68.7395838,24.1961092 68.7395838,23.1623235 L68.7395838,20.3442877 C68.7395838,19.4783024 68.3517034,19.0254941 67.6535186,19.0254941 C67.188062,19.0254941 66.645451,19.219856 66.2567273,19.4264445 L66.2567273,23.1623235 C66.2567273,24.1961092 66.4127227,24.6101294 67.1496956,24.8685759 L67.1496956,24.9204338 L63.8278368,24.9204338 L63.8278368,24.8685759 C64.5648096,24.6101294 64.7195402,24.1961092 64.7195402,23.1623235 L64.7195402,20.5639461 C64.7195402,19.4264445 64.5901062,19.1418583 63.6853329,18.8062573 L63.6853329,18.7543994 C64.5129517,18.7025415 65.5463158,18.405307 66.1795728,18.1725787 L66.2314308,18.1725787 L66.2314308,19.2455741 C66.6323811,18.8572721 67.5759425,18.185227 68.4292795,18.185227 C69.1789006,18.185227 69.8121576,18.5086013 70.1102353,19.3231502 C70.5111857,18.947918 71.584181,18.1725787 72.4758845,18.1725787 C73.53581,18.1725787 74.3237976,18.8319755 74.3237976,20.48637 L74.3237976,23.1623235 C74.3237976,24.1961092 74.4785281,24.6101294 75.2032743,24.8685759 L75.2032743,24.9204338 L71.8936422,24.9204338 Z" id="Fill-14"></path>
                <path d="M83.9407875,24.9204338 L83.9407875,24.8685759 C84.6646905,24.6101294 84.8202643,24.1961092 84.8202643,23.1623235 L84.8202643,20.3442877 C84.8202643,19.4783024 84.3935958,19.0254941 83.7084808,19.0254941 C83.3075305,19.0254941 82.5705576,19.2712923 82.1957471,19.4652325 C82.286393,19.7493971 82.338251,20.0984895 82.338251,20.48637 L82.338251,23.1623235 C82.338251,24.1961092 82.4929815,24.6101294 83.2177277,24.8685759 L83.2177277,24.9204338 L79.9085172,24.9204338 L79.9085172,24.8685759 C80.6311554,24.6101294 80.7871508,24.1961092 80.7871508,23.1623235 L80.7871508,20.3442877 C80.7871508,19.4783024 80.3992703,19.0254941 79.7006639,19.0254941 C79.2364722,19.0254941 78.6930179,19.219856 78.3051375,19.4264445 L78.3051375,23.1623235 C78.3051375,24.1961092 78.459868,24.6101294 79.1968409,24.8685759 L79.1968409,24.9204338 L75.8741389,24.9204338 L75.8741389,24.8685759 C76.6111117,24.6101294 76.7666855,24.1961092 76.7666855,23.1623235 L76.7666855,20.5639461 C76.7666855,19.4264445 76.6376731,19.1418583 75.7324782,18.8062573 L75.7324782,18.7543994 C76.560097,18.7025415 77.5943044,18.405307 78.2267181,18.1725787 L78.2785761,18.1725787 L78.2785761,19.2455741 C78.6795264,18.8572721 79.6235094,18.185227 80.477268,18.185227 C81.2268891,18.185227 81.8597245,18.5086013 82.1578022,19.3231502 C82.558331,18.947918 83.6313263,18.1725787 84.5230298,18.1725787 C85.5829553,18.1725787 86.3709429,18.8319755 86.3709429,20.48637 L86.3709429,23.1623235 C86.3709429,24.1961092 86.5265166,24.6101294 87.2504196,24.8685759 L87.2504196,24.9204338 L83.9407875,24.9204338 Z" id="Fill-16"></path>
                <path d="M92.9501964,21.6241667 C92.9501964,19.9562807 92.381024,18.5215447 91.205156,18.5215447 C90.029288,18.5215447 89.4727638,19.9562807 89.4727638,21.6241667 C89.4727638,23.0972692 89.9125022,24.739437 91.205156,24.739437 C92.510458,24.739437 92.9501964,23.0972692 92.9501964,21.6241667 M87.7542848,21.6110968 C87.7542848,19.6076099 89.4086792,18.1724522 91.205156,18.1724522 C93.014281,18.1724522 94.6695187,19.6076099 94.6695187,21.6110968 C94.6695187,23.5500775 93.0804737,25.0754595 91.205156,25.0754595 C89.3311031,25.0754595 87.7542848,23.5500775 87.7542848,21.6110968" id="Fill-18"></path>
                <path d="M99.4785617,24.9204338 L99.4785617,24.8685759 C100.202465,24.6101294 100.357195,24.1961092 100.357195,23.1623235 L100.357195,20.3442877 C100.357195,19.4783024 99.8145843,19.0254941 99.1163995,19.0254941 C98.6248031,19.0254941 98.0817705,19.219856 97.6943117,19.4264445 L97.6943117,23.1623235 C97.6943117,24.1961092 97.8490422,24.6101294 98.5860151,24.8685759 L98.5860151,24.9204338 L95.2641563,24.9204338 L95.2641563,24.8685759 C96.0011292,24.6101294 96.1558597,24.1961092 96.1558597,23.1623235 L96.1558597,20.5639461 C96.1558597,19.4264445 96.0264257,19.1418583 95.1216524,18.8062573 L95.1216524,18.7543994 C95.948428,18.7025415 96.9826353,18.405307 97.6167356,18.1725787 L97.6685935,18.1725787 L97.6685935,19.2455741 C98.1601898,18.7931875 99.1163995,18.185227 99.9823847,18.185227 C100.977382,18.185227 101.908717,18.7543994 101.908717,20.4218638 L101.908717,23.1623235 C101.908717,24.1961092 102.063448,24.6101294 102.787351,24.8685759 L102.787351,24.9204338 L99.4785617,24.9204338 Z" id="Fill-20"></path>
                <path d="M109.341097,24.9204338 L107.983937,20.7705346 L106.561849,24.9204338 L105.372068,24.9204338 L104.041469,20.7836044 C103.472297,19.0254941 103.200781,18.6249654 102.57975,18.3791672 L102.57975,18.3277309 L106.044956,18.3277309 L106.044956,18.3791672 C105.578656,18.495953 105.358998,18.6637534 105.358998,19.1675764 C105.358998,19.5685268 105.514572,20.2148536 105.759948,21.0939088 L106.509991,23.8217203 L108.268101,18.3277309 L108.785416,18.3277309 L110.438967,23.8217203 L111.21515,21.5462955 C111.551172,20.5639461 111.758604,19.8143249 111.758604,19.3231502 C111.758604,18.7282596 111.473175,18.495953 110.944477,18.3791672 L110.944477,18.3277309 L113.70939,18.3277309 L113.70939,18.3791672 C113.063906,18.586599 112.675182,19.0124242 112.030542,20.7836044 L110.503895,24.9204338 L109.341097,24.9204338 Z" id="Fill-22"></path>
                <path d="M117.536125,20.8482371 C117.536125,19.2971369 117.174806,18.521376 116.333696,18.521376 C115.532639,18.521376 114.976114,19.5167953 114.899382,21.0164592 L117.536125,20.8482371 Z M119.048016,23.4339663 C118.725063,23.9765773 117.808063,25.0752909 116.372484,25.0752909 C114.576007,25.0752909 113.269862,23.7569189 113.269862,21.7791502 C113.269862,19.6462293 114.782596,18.1727052 116.437834,18.1727052 C117.859921,18.1727052 118.958213,18.8704684 118.958213,20.8743769 L118.958213,21.3010454 L114.899382,21.3010454 C114.899382,23.1363102 115.958464,24.0410835 117.148245,24.0410835 C117.961951,24.0410835 118.622191,23.6662729 118.97044,23.3821084 L119.048016,23.4339663 Z" id="Fill-24"></path>
                <path d="M123.585205,21.6241667 C123.455771,21.5980269 123.326759,21.584957 123.197325,21.584957 C122.382776,21.584957 121.504143,22.0508352 121.504143,23.0972692 C121.504143,23.8603818 122.11126,24.2609105 122.757587,24.2609105 C122.990737,24.2609105 123.352056,24.1833345 123.585205,24.0408306 L123.585205,21.6241667 Z M126.299947,24.5712149 C126.040657,24.7263671 125.149797,25.0366715 124.619413,25.0366715 C124.114747,25.0366715 123.663625,24.7651551 123.597432,24.1964043 C123.184255,24.558145 122.460352,25.0754595 121.620507,25.0754595 C120.676102,25.0754595 119.939972,24.4552724 119.939972,23.511711 C119.939972,22.490152 120.947618,21.494311 123.585205,21.2362862 L123.585205,20.4474554 C123.585205,19.4005998 123.029525,18.6248389 122.033684,18.6248389 C121.568649,18.6248389 121.11584,18.831849 120.923165,18.9739313 C121.36206,19.0645773 121.696818,19.3618118 121.696818,19.7754104 C121.696818,20.2408669 121.336342,20.5381014 120.923165,20.5381014 C120.495653,20.5381014 120.133913,20.189009 120.133913,19.7754104 C120.133913,18.922495 121.594789,18.1724522 122.926652,18.1724522 C124.27032,18.1724522 125.136727,18.831849 125.136727,20.227797 L125.136727,23.291631 C125.136727,24.3384866 125.601762,24.4552724 126.299947,24.519357 L126.299947,24.5712149 Z" id="Fill-26"></path>
                <path d="M126.416269,24.9204338 L126.416269,24.8685759 C127.153242,24.6101294 127.307972,24.1961092 127.307972,23.1623235 L127.307972,17.5650399 C127.307972,16.4275383 127.178117,16.1433737 126.273765,15.8069296 L126.273765,15.7550716 C127.100541,15.7036353 128.213167,15.4064008 128.846424,15.173251 L128.897439,15.173251 L128.897439,23.1623235 C128.897439,24.1961092 129.053013,24.6101294 129.776916,24.8685759 L129.776916,24.9204338 L126.416269,24.9204338 Z" id="Fill-28"></path>
                <path d="M134.534691,23.9895207 C134.24884,24.3512614 133.564569,25.0237281 132.672022,25.0237281 C131.689672,25.0237281 130.940473,24.5068352 130.940473,23.0590292 L130.940473,18.999776 L129.99649,18.999776 L129.99649,18.9352698 L130.565662,18.6249654 C131.405508,18.1595088 131.897104,17.4482541 132.426645,16.7247728 L132.49073,16.7247728 L132.49073,18.3277309 L134.197826,18.3277309 L134.197826,19.0254941 L132.49073,19.0254941 L132.49073,22.9810315 C132.49073,23.7049345 132.892102,24.1703911 133.564569,24.1703911 C133.875294,24.1703911 134.210895,24.092815 134.48199,23.9250145 L134.534691,23.9895207 Z" id="Fill-30"></path>
                <path d="M138.903153,24.9204338 L138.903153,24.8685759 C139.639282,24.6101294 139.794856,24.1961092 139.794856,23.1623235 L139.794856,20.3442877 C139.794856,19.4783024 139.291033,19.0254941 138.605075,19.0254941 C138.165337,19.0254941 137.54515,19.219856 137.170761,19.4264445 L137.170761,23.1623235 C137.170761,24.1961092 137.325491,24.6101294 138.062464,24.8685759 L138.062464,24.9204338 L134.701817,24.9204338 L134.701817,24.8685759 C135.424877,24.6101294 135.580451,24.1961092 135.580451,23.1623235 L135.580451,17.5650399 C135.580451,16.4275383 135.451017,16.1433737 134.546243,15.8069296 L134.546243,15.7550716 C135.386089,15.7036353 136.498716,15.4064008 137.119746,15.173251 L137.170761,15.173251 L137.170761,19.219856 C137.610499,18.8446238 138.566287,18.1725787 139.406976,18.1725787 C140.454675,18.1725787 141.332465,18.7801176 141.332465,20.4218638 L141.332465,23.1623235 C141.332465,24.1961092 141.488039,24.6101294 142.225012,24.8685759 L142.225012,24.9204338 L138.903153,24.9204338 Z" id="Fill-32"></path>
                <path d="M47.385753,37.0384094 L47.385753,36.9873947 C48.2643865,36.7154568 48.4456785,36.3018582 48.4456785,35.2676509 L48.4456785,29.877799 C48.4456785,28.8562399 48.2643865,28.4422197 47.385753,28.171125 L47.385753,28.119267 L53.7187446,28.119267 L53.7187446,30.109684 L53.65466,30.109684 C52.8148145,28.6622997 52.6723106,28.5847236 51.2767842,28.5847236 L50.0865814,28.5847236 L50.0865814,32.3463208 L51.754889,32.3463208 C52.4400039,32.3463208 52.7372384,32.1650288 53.1761336,31.4799139 L53.2279915,31.4799139 L53.2279915,33.6908325 L53.1761336,33.6908325 C52.7372384,33.0183658 52.4400039,32.8248472 51.754889,32.8248472 L50.0865814,32.8248472 L50.0865814,35.2676509 C50.0865814,36.3018582 50.3328012,36.7154568 51.3408688,36.9873947 L51.3408688,37.0384094 L47.385753,37.0384094 Z" id="Fill-35"></path>
                <path d="M62.0053889,36.612289 C60.8805356,36.7155833 60.1444059,36.9609598 59.5103057,37.1941097 L59.4584478,37.1941097 L59.4584478,36.0823263 C58.9929912,36.5216431 58.2176519,37.1941097 57.3255269,37.1941097 C56.3828088,37.1941097 55.412686,36.7417231 55.412686,35.086907 L55.412686,32.6824698 C55.412686,31.5445466 55.2836736,31.2608036 54.3784787,30.9243595 L54.3784787,30.8729231 C55.2191674,30.8210652 56.2790929,30.5238307 56.9123499,30.2911025 L56.9642078,30.2911025 L56.9642078,34.9836127 C56.9642078,35.8369497 57.6227614,36.1986904 58.2956496,36.1986904 C58.7345448,36.1986904 59.0326225,36.1337626 59.4196597,35.9145258 L59.4196597,32.6824698 C59.4196597,31.5445466 59.2914906,31.2608036 58.3862956,30.9243595 L58.3862956,30.8729231 C59.2261411,30.8210652 60.2860666,30.5238307 60.9193236,30.2911025 L60.9711816,30.2911025 L60.9711816,34.8027424 C60.9711816,35.9398224 61.1006156,36.2244086 62.0053889,36.5604311 L62.0053889,36.612289 Z" id="Fill-37"></path>
                <path d="M66.7879971,37.0384094 L66.7879971,36.9873947 C67.5119,36.7285267 67.6666306,36.3145065 67.6666306,35.2807207 L67.6666306,32.4622633 C67.6666306,31.5966996 67.1240196,31.144313 66.4258348,31.144313 C65.9350817,31.144313 65.392049,31.3382532 65.003747,31.5448417 L65.003747,35.2807207 C65.003747,36.3145065 65.1593208,36.7285267 65.8962936,36.9873947 L65.8962936,37.0384094 L62.5735916,37.0384094 L62.5735916,36.9873947 C63.3105645,36.7285267 63.465295,36.3145065 63.465295,35.2807207 L63.465295,32.6823433 C63.465295,31.5448417 63.335861,31.2606771 62.4310877,30.924233 L62.4310877,30.8727967 C63.2587065,30.8209387 64.2929139,30.5237043 64.9261709,30.290976 L64.9780288,30.290976 L64.9780288,31.3639714 C65.4696251,30.9111631 66.4258348,30.3036243 67.29182,30.3036243 C68.287661,30.3036243 69.2181524,30.8727967 69.2181524,32.540261 L69.2181524,35.2807207 C69.2181524,36.3145065 69.372883,36.7285267 70.096786,36.9873947 L70.096786,37.0384094 L66.7879971,37.0384094 Z" id="Fill-39"></path>
                <path d="M75.4229749,30.9761331 C75.228613,30.8083326 74.7500866,30.6396889 74.3369096,30.6396889 C73.0054678,30.6396889 72.0484149,31.9196944 72.0484149,33.5871588 C72.0484149,35.3326208 73.2381961,36.1986061 74.2981216,36.1986061 C74.6729321,36.1986061 75.0861091,36.1079601 75.4229749,35.9266682 L75.4229749,30.9761331 Z M78.0466489,36.6122047 C76.9217955,36.715499 76.1072466,36.9608755 75.4748328,37.1940254 L75.4229749,37.1940254 L75.4229749,36.082242 C75.0220245,36.5729951 74.2719818,37.1940254 73.2769841,37.1940254 C71.9333156,37.1940254 70.4846664,36.0691721 70.4846664,34.1171215 C70.4846664,31.6738963 72.4759266,30.2910181 74.3756976,30.2910181 C74.7247901,30.2910181 75.099179,30.3428761 75.4229749,30.4069607 L75.4229749,29.6834793 C75.4229749,28.5459777 75.2935409,28.2613915 74.2981216,27.925369 L74.2981216,27.8739327 C75.1257404,27.8220747 76.3412397,27.5248402 76.960162,27.292112 L77.0124415,27.292112 L77.0124415,34.8026581 C77.0124415,35.9397381 77.1422971,36.2243243 78.0466489,36.5603468 L78.0466489,36.6122047 Z" id="Fill-41"></path>
                <polygon id="Fill-45" points="19.8938404 22.0235149 20.178005 24.3326684 20.4613264 22.0235149 21.6059953 24.0476606 20.9841218 21.807651 22.8181217 23.2390142 21.3859153 21.4075439 23.6250817 22.027731 21.6026224 20.883062 23.9096679 20.5988975 21.6026224 20.3155761 23.6250817 19.1704855 21.3859153 19.7919375 22.8181217 17.9600455 20.9841218 19.3909871 21.6059953 17.1501343 20.4613264 19.17428 20.178005 16.8663913 19.8938404 19.1734368 18.7491715 17.1501343 19.3693586 19.3909871 17.537045 17.9600455 18.9692515 19.7919375 16.7275554 19.1704855 18.7508579 20.3155761 16.444234 20.5988975 18.7508579 20.883062 16.7275554 22.027731 18.9692515 21.4075439 17.537045 23.2390142 19.3693586 21.807651 18.7491715 24.0476606"></polygon>
                <path d="M35.7157371,20.7663185 C35.7157371,21.3831327 35.2161302,21.8827396 34.6001592,21.8827396 C33.9841882,21.8827396 33.48163,21.3831327 33.48163,20.7663185 C33.48163,20.1499258 33.9841882,19.6503189 34.6001592,19.6503189 C35.2161302,19.6503189 35.7157371,20.1499258 35.7157371,20.7663185 L35.7157371,20.7663185 Z M4.63765892,20.4446306 C4.63765892,19.82613 5.13768742,19.3277879 5.75492327,19.3277879 C6.3708943,19.3277879 6.87176602,19.82613 6.87176602,20.4446306 C6.87176602,21.0601801 6.3708943,21.5589437 5.75492327,21.5589437 C5.13768742,21.5589437 4.63765892,21.0601801 4.63765892,20.4446306 L4.63765892,20.4446306 Z M23.6471741,21.2895355 L28.5724126,24.0763722 L23.1184761,22.5644817 L24.0106012,23.7066209 L25.2931363,24.645123 L26.5052627,25.4744283 L27.6301161,26.2598862 L28.8152595,26.9568062 L34.4597633,29.5079634 C34.4597633,29.5079634 29.5134443,27.7595501 27.9256641,28.2540977 C27.7818954,28.2992098 27.5474807,28.5407919 27.5032117,28.6854039 C27.0099289,30.2866756 28.6875119,35.2785284 28.6875119,35.2785284 L26.37878,29.684196 L25.5781441,28.3080636 L24.8310527,27.307585 L23.9056205,26.0330605 L22.8144959,24.7450444 L22.3220564,24.1897851 L23.654763,28.9940218 L20.8679263,24.0683616 L20.7667401,24.8909212 L20.8325111,25.4508182 L21.0821037,27.050825 L21.351512,28.4944149 L21.590986,29.8456724 L21.9375488,31.176271 L24.1248573,36.9700244 C24.1248573,36.9700244 21.8641888,32.2374613 20.3902431,31.46423 C20.2574362,31.3933997 19.9201488,31.3993022 19.7877635,31.4701326 C18.3062288,32.253904 15.9616601,36.9700244 15.9616601,36.9700244 L18.28557,31.3794866 L18.6936877,29.8427211 L18.8711852,28.6061413 L19.1199346,27.050825 L19.2582224,25.3681828 L19.3176693,24.3672825 L19.4871562,24.0683616 L16.6990546,28.9940218 L18.2113668,23.5413501 L18.1540279,23.7479386 L17.256422,24.8833322 L16.2993691,26.1915855 L15.470907,27.4032903 L14.6846059,28.5285652 L13.9881075,29.7137087 L11.4386368,35.3577909 C11.4386368,35.3577909 13.1857852,30.4118935 12.6912377,28.8236917 C12.6465471,28.6790797 12.4037002,28.444665 12.2595098,28.4003961 C10.6586598,27.9079565 5.66638534,29.5859611 5.66638534,29.5859611 L11.2624041,27.2755427 L12.6360069,26.4765933 L13.6390151,25.728237 L14.9126965,24.8044913 L16.2015558,23.7125235 L16.6509912,23.3136812 L13.7532712,27.0246853 L17.2357631,22.5644817 L11.7826699,24.0763722 L16.7079084,21.2895355 L16.6952601,21.2967028 L15.1268739,21.3903001 L13.4438101,21.5290095 L11.8889154,21.7764941 L10.6523356,21.9552564 L9.1147269,22.3629525 L3.52503227,24.6855975 C3.52503227,24.6855975 8.24157427,22.3427152 9.02408093,20.8607589 C9.09491127,20.7283736 9.1008138,20.3915079 9.02998346,20.2578578 C8.25759542,18.7847553 3.52503227,16.5236652 3.52503227,16.5236652 L9.31836414,18.7105521 L10.6489627,19.0566932 L12.0002202,19.2965888 L13.4438101,19.5664187 L15.0446602,19.8155897 L16.2846128,19.9610449 L11.0912308,20.5989396 L16.7079084,19.9087654 L11.7826699,17.1219286 L17.2357631,18.6342408 L13.7532712,14.1744588 L16.6497263,17.8837764 L16.2015558,17.4857774 L14.9126965,16.3942312 L13.6390151,15.4696422 L12.6360069,14.7229723 L11.2624041,13.9231797 L5.66638534,11.6136046 C5.66638534,11.6136046 10.6586598,13.2903443 12.2595098,12.7974832 C12.4037002,12.7536358 12.6465471,12.5196427 12.6912377,12.3741875 C13.1857852,10.7872506 11.4386368,5.84135316 11.4386368,5.84135316 L13.9881075,11.4837489 L14.6846059,12.6697356 L15.470907,13.7958537 L16.2993691,15.0067153 L17.256422,16.3141254 L18.1540279,17.4499406 L16.6990546,12.2051223 L19.3176693,16.8310183 L19.2582224,15.8301181 L19.1199346,14.1478974 L18.8711852,12.5930027 L18.6936877,11.3560014 L18.28557,9.81881425 L15.9616601,4.2282764 C15.9616601,4.2282764 18.3062288,8.9448184 19.7877635,9.72816827 C19.9201488,9.7981554 20.2574362,9.80405793 20.3902431,9.73364919 C21.8641888,8.96126116 24.1248573,4.2282764 24.1248573,4.2282764 L21.9375488,10.0216083 L21.590986,11.3522069 L21.351512,12.7043075 L21.0821037,14.1478974 L20.8325111,15.7479043 L20.7667401,16.3073797 L20.177752,11.5132616 L20.8679263,17.1299392 L23.6539198,12.2051223 L22.1420292,17.6577939 L22.3216348,17.0097806 L22.8144959,16.4540997 L23.9056205,15.1660836 L24.8310527,13.891559 L25.5781441,12.889394 L26.37878,11.514948 L28.6875119,5.91935086 C28.6875119,5.91935086 27.0099289,10.9124685 27.5032117,12.5124754 C27.5474807,12.6570873 27.7818954,12.8995126 27.9256641,12.9429383 C29.5134443,13.439594 34.4597633,11.6920239 34.4597633,11.6920239 L28.8152595,14.241073 L27.6301161,14.9384146 L26.5052627,15.7238726 L25.2931363,16.5531778 L24.0110228,17.4916799 L23.1184761,18.6342408 L28.5724126,17.1219286 L23.6471741,19.9087654 L23.6758435,19.9125599 L25.2286301,19.8198058 L26.9108508,19.6810964 L28.4644806,19.4327686 L29.7010604,19.2540063 L31.2386691,18.8467318 L36.829207,16.5236652 C36.829207,16.5236652 32.1122434,18.8678123 31.3301583,20.3489254 C31.2584847,20.4813106 31.2525822,20.8181764 31.3234126,20.9522481 C32.0949574,22.4257722 36.829207,24.6855975 36.829207,24.6855975 L31.0350319,22.4987106 L29.7052765,22.1529911 L28.3531758,21.9130955 L26.9108508,21.6424224 L25.3087359,21.3945162 L24.0219846,21.2431585 L29.2638517,20.5989396 L23.6471741,21.2895355 Z M30.9001169,31.4924778 C30.4645946,31.9284217 29.7579776,31.9284217 29.3216121,31.4916346 C28.8869331,31.0565339 28.8860898,30.3486521 29.3216121,29.9131298 C29.7571344,29.4759211 30.4645946,29.4776075 30.8992737,29.9131298 C31.3356392,30.3494953 31.3364824,31.0565339 30.9001169,31.4924778 L30.9001169,31.4924778 Z M20.2034702,35.8565546 C19.5874992,35.8565546 19.0883139,35.3577909 19.0883139,34.7392902 C19.0883139,34.1233192 19.5874992,33.6245555 20.2034702,33.6245555 C20.8219709,33.6245555 21.3207345,34.1233192 21.3207345,34.7392902 C21.3207345,35.3577909 20.8219709,35.8565546 20.2034702,35.8565546 L20.2034702,35.8565546 Z M11.0326271,31.7973013 C10.5962616,32.2336668 9.88880138,32.2353532 9.45243586,31.7985661 C9.01775679,31.3630438 9.01775679,30.6560052 9.4541223,30.2192181 C9.88880138,29.7828526 10.5962616,29.7828526 11.0326271,30.2183749 C11.4681494,30.655162 11.4673062,31.3613574 11.0326271,31.7973013 L11.0326271,31.7973013 Z M9.45243586,9.39973472 C9.88880138,8.9629476 10.5962616,8.96505564 11.0326271,9.40099954 C11.4673062,9.83610023 11.4681494,10.5422956 11.0326271,10.9795043 C10.5962616,11.4150266 9.88880138,11.4141834 9.4541223,10.9795043 C9.01775679,10.5422956 9.01775679,9.83525701 9.45243586,9.39973472 L9.45243586,9.39973472 Z M20.2034702,5.34216788 C20.8219709,5.34216788 21.3207345,5.84135316 21.3207345,6.4581674 C21.3207345,7.07456004 20.8219709,7.57501014 20.2034702,7.57501014 C19.5874992,7.57501014 19.0883139,7.07456004 19.0883139,6.4581674 C19.0883139,5.84135316 19.5874992,5.34216788 20.2034702,5.34216788 L20.2034702,5.34216788 Z M29.3216121,9.70708781 C29.7579776,9.2707223 30.4645946,9.2707223 30.9001169,9.7062446 C31.3364824,10.1421885 31.3356392,10.8492271 30.8992737,11.285171 C30.4645946,11.7206933 29.7571344,11.7223797 29.3216121,11.285171 C28.8860898,10.8496487 28.8869331,10.1421885 29.3216121,9.70708781 L29.3216121,9.70708781 Z M20.177752,1.95748931 C9.88332046,1.95748931 1.53588012,10.3032432 1.53588012,20.5989396 C1.53588012,30.894636 9.88332046,39.2408115 20.177752,39.2408115 C30.471762,39.2408115 38.8179375,30.894636 38.8179375,20.5989396 C38.8179375,10.3032432 30.471762,1.95748931 20.177752,1.95748931 L20.177752,1.95748931 Z" id="Fill-43"></path>
                <g id="Group" transform="translate(2.914132, 3.885510)" fill-opacity="0.599999964">
                    <path d="M8.11853701,7.09403684 C8.55405931,6.65682811 8.55321609,5.95063272 8.11853701,5.51553203 C7.6821715,5.07958813 6.97471128,5.07748008 6.53834577,5.5142672 C6.1036667,5.9497895 6.1036667,6.65682811 6.54003221,7.09403684 C6.97471128,7.52871591 7.6821715,7.52955913 8.11853701,7.09403684" id="Fill-47"></path>
                    <path d="M6.20067897,18.4772741 L7.73786608,18.0695781 L8.97486744,17.8908158 L10.5297621,17.6433312 L12.212826,17.5046217 L13.7807906,17.4110245 L13.7938605,17.4038571 L8.17676124,16.7132613 L13.3701432,16.0753666 L12.1301906,15.9299114 L10.5297621,15.681162 L9.08617226,15.4113321 L7.73491481,15.1710149 L6.4038946,14.8248737 L0.610984339,12.6384085 C0.610984339,12.6384085 5.34354749,14.899077 6.11593552,16.3721795 C6.18676587,16.5058296 6.18086334,16.8426953 6.110033,16.9750806 C5.32752634,18.4570369 0.610984339,20.8003408 0.610984339,20.8003408 L6.20067897,18.4772741 Z" id="Fill-49"></path>
                    <path d="M3.9575916,16.5590367 C3.9575916,15.940536 3.45714149,15.4426155 2.84117047,15.4426155 C2.22351301,15.4426155 1.72348451,15.940536 1.72348451,16.5590367 C1.72348451,17.1745861 2.22351301,17.6737714 2.84117047,17.6737714 C3.45714149,17.6737714 3.9575916,17.1745861 3.9575916,16.5590367" id="Fill-51"></path>
                    <path d="M9.72179028,10.8374627 L10.7247985,11.5841325 L11.9984799,12.5087215 L13.2873392,13.6002677 L13.7359314,13.9982668 L10.8390546,10.2889491 L15.2975718,13.7722842 L15.2398113,13.5644309 L14.3422054,12.4286157 L13.3851525,11.1212057 L12.5571121,9.91034406 L11.7703893,8.78422592 L11.0738909,7.59823927 L8.52442018,1.95584349 C8.52442018,1.95584349 10.2719903,6.90174089 9.77702108,8.48867787 C9.73233051,8.63413304 9.48948361,8.86812614 9.34529327,8.9119735 C7.74486479,9.40483464 2.75216877,7.7280949 2.75216877,7.7280949 L8.34818754,10.03767 L9.72179028,10.8374627 Z" id="Fill-53"></path>
                    <path d="M27.9852258,7.39974566 C28.4215913,6.96338015 28.4224345,6.25676315 27.986069,5.82081925 C27.5505467,5.38529695 26.8439297,5.38529695 26.4075642,5.82166246 C25.9728851,6.25676315 25.9720419,6.96422337 26.4075642,7.39974566 C26.8430865,7.83695439 27.5505467,7.83526795 27.9852258,7.39974566" id="Fill-55"></path>
                    <path d="M17.2893379,3.68945831 C17.9078386,3.68945831 18.4066023,3.1890082 18.4066023,2.57303718 C18.4066023,1.95580132 17.9078386,1.45661604 17.2893379,1.45661604 C16.6733669,1.45661604 16.1741816,1.95580132 16.1741816,2.57303718 C16.1741816,3.1890082 16.6733669,3.68945831 17.2893379,3.68945831" id="Fill-57"></path>
                    <path d="M19.9005323,12.56859 L19.4076711,13.1242709 L19.227644,13.7722842 L23.6882692,10.2889491 L21.0966376,13.6061702 L22.3791727,12.6676682 L23.5912991,11.8383629 L24.7161525,11.052905 L25.9008743,10.3555634 L31.5457997,7.80651421 C31.5457997,7.80651421 26.5994807,9.5540843 25.0117005,9.05742867 C24.8675102,9.01400292 24.6335171,8.77157764 24.5892481,8.62696569 C24.0955437,7.02695881 25.7735483,2.03384119 25.7735483,2.03384119 L23.4643948,7.62943835 L22.6641805,9.0038843 L21.9166674,10.0060493 L20.9916569,11.2805739 L19.9005323,12.56859 Z" id="Fill-59"></path>
                    <path d="M15.7795554,7.470576 L15.9570529,8.70757737 L16.2058023,10.2624721 L16.3440901,11.9446927 L16.403537,12.9455929 L16.5730239,13.2440922 L17.2640414,7.62783623 L17.8526078,12.4219543 L17.9183788,11.8624789 L18.1679715,10.2624721 L18.4373798,8.81888219 L18.6768538,7.46678152 L19.0234165,6.13618292 L21.210725,0.342851048 C21.210725,0.342851048 18.9504781,5.07583581 17.4761108,5.84822384 C17.3433039,5.91863258 17.0060166,5.91273005 16.8736313,5.84274292 C15.3920966,5.05939305 13.0479495,0.342851048 13.0479495,0.342851048 L15.3714377,5.9333889 L15.7795554,7.470576 Z" id="Fill-61"></path>
                    <path d="M24.7161103,22.3742922 L23.591257,21.5888343 L22.3791306,20.759529 L21.0965954,19.821027 L23.6882271,23.1390913 L19.2276019,19.6549129 L19.4080506,20.3041911 L19.9004901,20.8594504 L20.9916147,22.1474665 L21.9166253,23.421991 L22.6641384,24.4224696 L23.4643526,25.798602 L25.7735061,31.393356 C25.7735061,31.393356 24.0955016,26.4010816 24.5892059,24.7998099 C24.6334749,24.6551979 24.867468,24.4136159 25.0116583,24.3685037 C26.5994385,23.8743777 31.5457576,25.6223694 31.5457576,25.6223694 L25.9012537,23.0712122 L24.7161103,22.3742922 Z" id="Fill-65"></path>
                    <path d="M30.5675821,16.8808088 C30.5675821,17.497623 31.0697186,17.9972299 31.6856896,17.9972299 C32.3020823,17.9972299 32.8016892,17.497623 32.8016892,16.8808088 C32.8016892,16.2644162 32.3020823,15.7648093 31.6856896,15.7648093 C31.0697186,15.7648093 30.5675821,16.2644162 30.5675821,16.8808088" id="Fill-67"></path>
                    <path d="M26.4074799,26.0275358 C25.9719576,26.4630581 25.9728008,27.17094 26.4074799,27.6060406 C26.8438454,28.0428278 27.5504624,28.0428278 27.9859847,27.6068839 C28.4223502,27.17094 28.421507,26.4639013 27.9851415,26.0275358 C27.5504624,25.5920135 26.8430022,25.5903271 26.4074799,26.0275358" id="Fill-69"></path>
                    <path d="M17.2893379,29.7388772 C16.6733669,29.7388772 16.1741816,30.2380625 16.1741816,30.8540335 C16.1741816,31.4721126 16.6733669,31.9712979 17.2893379,31.9712979 C17.9078386,31.9712979 18.4066023,31.4721126 18.4066023,30.8540335 C18.4066023,30.2380625 17.9078386,29.7388772 17.2893379,29.7388772" id="Fill-71"></path>
                    <path d="M14.3422054,20.9978647 L15.2398113,19.8624711 L15.2975718,19.655461 L10.8390546,23.1392178 L13.7367746,19.4277921 L13.2873392,19.827056 L11.9984799,20.9190238 L10.7247985,21.8427695 L9.72179028,22.5911258 L8.34818754,23.3900752 L2.75216877,25.7004936 C2.75216877,25.7004936 7.74486479,24.022489 9.34529327,24.5149285 C9.48948361,24.5591975 9.73233051,24.7936122 9.77702108,24.9382242 C10.2719903,26.526426 8.52442018,31.4723234 8.52442018,31.4723234 L11.0738909,25.8282412 L11.7703893,24.6430977 L12.5571121,23.5178228 L13.3851525,22.306118 L14.3422054,20.9978647 Z" id="Fill-73"></path>
                    <path d="M18.6768538,25.9600362 L18.4373798,24.6087787 L18.1679715,23.1651889 L17.9183788,21.565182 L17.8526078,21.005285 L17.2636198,25.7998247 L16.5730239,20.1827255 L16.403537,20.4816464 L16.3440901,21.4825466 L16.2058023,23.1651889 L15.9570529,24.7209268 L15.7795554,25.9570849 L15.3714377,27.494272 L13.0475279,33.0843883 C13.0475279,33.0843883 15.3920966,28.3682679 16.8736313,27.584918 C17.0060166,27.5140877 17.3433039,27.5077635 17.4761108,27.5785939 C18.9500565,28.3522467 21.210725,33.0843883 21.210725,33.0843883 L19.0234165,27.2906348 L18.6768538,25.9600362 Z" id="Fill-75"></path>
                    <path d="M6.53994789,26.3338771 C6.10358237,26.7702426 6.10358237,27.4777028 6.53826145,27.9132251 C6.97462696,28.3495906 7.68208718,28.3479042 8.11845269,27.9115387 C8.55313177,27.4760164 8.55397498,26.7693994 8.11845269,26.3330338 C7.68208718,25.8975116 6.97462696,25.8975116 6.53994789,26.3338771" id="Fill-77"></path>
                    <path d="M28.4092803,17.0666963 C28.33845,16.9326246 28.3443525,16.5957588 28.4160261,16.4633735 C29.1981111,14.9822604 33.9150747,12.638535 33.9150747,12.638535 L28.3245369,14.96118 L26.7869281,15.3684545 L25.5503484,15.5472168 L23.9967185,15.7955446 L22.3144979,15.934254 L20.7617112,16.027008 L26.3497194,16.7133878 L21.1078524,17.3576066 L22.3946036,17.5089643 L23.9967185,17.7568705 L25.4390436,18.0275436 L26.7911442,18.2674393 L28.1208996,18.6131588 L33.9150747,20.8000457 C33.9150747,20.8000457 29.1808251,18.5402204 28.4092803,17.0666963" id="Fill-63"></path>
                </g>
            </g>
        </g>
    </g>
</svg>