<?xml version="1.0" encoding="UTF-8"?>
<svg width="189px" height="50px" viewBox="0 0 189 50" version="1.1" xmlns="http://www.w3.org/2000/svg" xmlns:xlink="http://www.w3.org/1999/xlink">
    <!-- Generator: Sketch 47.1 (45422) - http://www.bohemiancoding.com/sketch -->
    <title>dpa-logo</title>
    <desc>Created with Sketch.</desc>
    <defs></defs>
    <g id="Client-Logos" stroke="none" stroke-width="1" fill="none" fill-rule="evenodd">
        <g id="dpa-logo" fill="#818181">
            <g id="Page-1" transform="translate(69.959038, 0.005127)">
                <path d="M7.38422448,29.4736421 C7.20738507,29.5013723 7.02268612,29.5152374 6.83012765,29.5152374 L5.5313404,29.5152374 L5.5313404,27.2156119 L6.83012765,27.2156119 C7.02268612,27.2156119 7.20738507,27.229477 7.38422448,27.259188 C7.56302878,27.2869182 7.71825449,27.3443593 7.85383137,27.4255691 C7.98940826,27.5087597 8.09747679,27.6236419 8.18000185,27.776158 C8.26056203,27.9266934 8.30182456,28.1227855 8.30182456,28.3644343 C8.30182456,28.6080639 8.26056203,28.8061367 8.18000185,28.956672 C8.09747679,29.1072074 7.98940826,29.2240703 7.85383137,29.3052802 C7.71825449,29.3884708 7.56302878,29.4439312 7.38422448,29.4736421 Z" id="Fill-1"></path>
                <path d="M40.3046499,39.7641194 C40.0629693,39.7641194 39.8625513,39.8057146 39.701431,39.8869245 C39.5422755,39.9701151 39.416523,40.073113 39.3182789,40.1959181 C39.2239646,40.3147618 39.1551937,40.4454899 39.1178609,40.5801794 C39.0785633,40.7168496 39.0530198,40.8396548 39.0471252,40.9466141 L41.5091228,40.9466141 C41.438387,40.5583914 41.3126345,40.2652436 41.1318654,40.06519 C40.9491313,39.8651365 40.6740478,39.7641194 40.3046499,39.7641194" id="Fill-3"></path>
                <polygon id="Fill-5" points="6.7674479 38.5398312 5.7751823 41.354446 7.74792421 41.354446 6.78906161 38.5398312"></polygon>
                <path d="M14.0080395,29.5800072 C13.9058656,29.4156068 13.766359,29.2809172 13.5934493,29.1779194 C13.4185748,29.0729408 13.2044026,29.0214418 12.947003,29.0214418 C12.6935332,29.0214418 12.479361,29.0729408 12.3084162,29.1779194 C12.1374715,29.2809172 12.0018946,29.4156068 11.8977558,29.5800072 C11.7955819,29.7444076 11.7209164,29.9345575 11.6796539,30.1484762 C11.6364264,30.3643756 11.6167776,30.5822557 11.6167776,30.8040972 C11.6167776,31.0259388 11.6364264,31.2438189 11.6796539,31.4537761 C11.7209164,31.665714 11.7955819,31.8558639 11.8977558,32.0242258 C12.0018946,32.190607 12.1374715,32.3272772 12.3084162,32.4263136 C12.479361,32.5273308 12.6935332,32.5788297 12.947003,32.5788297 C13.2044026,32.5788297 13.4185748,32.5273308 13.5934493,32.4263136 C13.766359,32.3272772 13.9058656,32.190607 14.0080395,32.0242258 C14.1102134,31.8558639 14.182914,31.665714 14.2261414,31.4537761 C14.2693688,31.2438189 14.2909825,31.0259388 14.2909825,30.8040972 C14.2909825,30.5822557 14.2693688,30.3643756 14.2261414,30.1484762 C14.182914,29.9345575 14.1102134,29.7444076 14.0080395,29.5800072" id="Fill-7"></path>
                <path d="M22.1823432,41.8165499 C22.0723098,41.8383379 21.9563817,41.8561645 21.8365239,41.8700296 C21.7147012,41.8838947 21.5948433,41.9017212 21.4730206,41.92549 C21.3610223,41.9452973 21.249024,41.9750082 21.1389906,42.0106613 C21.0289572,42.0443337 20.932678,42.0958326 20.8501529,42.1552544 C20.7695927,42.216657 20.7027867,42.2919247 20.6536647,42.3869996 C20.6025777,42.4800939 20.5789991,42.5989376 20.5789991,42.74155 C20.5789991,42.8762395 20.6025777,42.9911218 20.6536647,43.084216 C20.7027867,43.1773102 20.7695927,43.2525779 20.8560476,43.3040768 C20.9405375,43.3575565 21.0407465,43.3951903 21.1547097,43.418959 C21.266708,43.4387663 21.3846009,43.44867 21.5064236,43.44867 C21.8050858,43.44867 22.034977,43.3991518 22.1980622,43.3001154 C22.3611475,43.1990982 22.4829702,43.0802545 22.5615655,42.9396228 C22.6381959,42.7989911 22.6873179,42.6583594 22.7050019,42.515747 C22.7226858,42.3711538 22.7325102,42.2582523 22.7325102,42.173081 L22.7325102,41.6026313 C22.6676691,41.6600724 22.5871089,41.7036484 22.4908297,41.7353401 C22.3945505,41.7690124 22.2923766,41.7947619 22.1823432,41.8165499" id="Fill-9"></path>
                <path d="M26.2050469,20.9046157 C26.3838512,20.7223887 26.5253227,20.4847013 26.6314264,20.1915536 C26.73753,19.8964251 26.7925467,19.539894 26.7925467,19.1160181 C26.7925467,18.7297761 26.7532491,18.381168 26.6805484,18.0682129 C26.603918,17.7572386 26.4820953,17.4898403 26.3111505,17.2679987 C26.1421706,17.0461572 25.9162092,16.8758145 25.635231,16.7569708 C25.3542528,16.6401079 25.0084335,16.580686 24.5958082,16.580686 L23.4031246,16.580686 L23.4031246,21.4156436 L24.8944703,21.4156436 C25.1361509,21.4156436 25.3699719,21.376029 25.5978982,21.2967999 C25.8258246,21.2175708 26.0282075,21.0868427 26.2050469,20.9046157" id="Fill-11"></path>
                <path d="M43.3517895,18.7933575 C43.2535454,18.63688 43.1218982,18.5101134 42.958813,18.4170192 C42.7957278,18.3259057 42.5874502,18.2783682 42.339875,18.2783682 C42.1276678,18.2783682 41.9429688,18.3219442 41.7916729,18.4071155 C41.638412,18.4942676 41.5106947,18.6091498 41.4085208,18.7557237 C41.304382,18.9042783 41.2297165,19.0706595 41.1825593,19.2608094 C41.137367,19.4509593 41.1137884,19.6490321 41.1137884,19.8570086 C41.1137884,20.0570621 41.1354021,20.2571157 41.1746998,20.4532078 C41.2120326,20.6512806 41.2788386,20.8275654 41.3751178,20.9860236 C41.471397,21.1425012 41.5971495,21.2712485 41.756305,21.3722656 C41.9115307,21.4732828 42.106054,21.522801 42.339875,21.522801 C42.5540472,21.522801 42.7407111,21.479225 42.9037963,21.3940537 C43.0668815,21.3069016 43.2044233,21.1920194 43.3105269,21.0494069 C43.4166306,20.9067945 43.4971908,20.7423941 43.5502426,20.5621478 C43.6032944,20.3779401 43.6308028,20.1877902 43.6308028,19.9877366 C43.6308028,19.7559914 43.6091891,19.5400921 43.5659617,19.336077 C43.5227342,19.132062 43.4519985,18.9518158 43.3517895,18.7933575" id="Fill-13"></path>
                <path d="M23.7864732,11.0744597 C23.8709631,11.1279394 23.9711721,11.1655732 24.0851353,11.1873612 C24.1971336,11.2091492 24.3169914,11.2190528 24.4368492,11.2190528 C24.7355113,11.2190528 24.9654026,11.1695346 25.1284878,11.0685175 C25.2935379,10.9694811 25.4133958,10.8486567 25.4919911,10.708025 C25.5705864,10.569374 25.6177435,10.4287423 25.6354275,10.2861299 C25.6531114,10.1415367 25.6629358,10.0266545 25.6629358,9.94148316 L25.6629358,9.37301416 C25.5980947,9.42847455 25.5175345,9.4740313 25.4232202,9.50572295 C25.3269409,9.53939533 25.2228022,9.5651448 25.1127688,9.58693281 C25.0027353,9.60872082 24.8887722,9.62654737 24.7669495,9.64041247 C24.6451268,9.65427757 24.5252689,9.67210412 24.4034462,9.69389213 C24.289483,9.71568014 24.1794496,9.74539106 24.0694162,9.78104417 C23.9574179,9.81471655 23.8631036,9.86423476 23.7805785,9.9236566 C23.7000183,9.9870399 23.6332123,10.0623076 23.5840903,10.1573825 C23.5349682,10.248496 23.5094247,10.3673397 23.5094247,10.5099522 C23.5094247,10.6466224 23.5349682,10.7615046 23.5840903,10.8545989 C23.6332123,10.9476931 23.7019832,11.02098 23.7864732,11.0744597" id="Fill-15"></path>
                <path d="M43.7127384,44.3188039 L45.3868182,44.3188039 L45.3868182,42.6648958 L43.7127384,42.6648958 L43.7127384,44.3188039 Z M39.4194704,42.9877545 C39.6493616,43.2095961 39.9755321,43.3205169 40.3999467,43.3205169 C40.7064683,43.3205169 40.9677977,43.2432685 41.1898294,43.0887717 C41.4098962,42.9362556 41.5435082,42.7718551 41.5945952,42.6015125 L42.9248205,42.6015125 C42.7145781,43.2670372 42.3864428,43.742412 41.9463091,44.0296176 C41.5061755,44.3148424 40.9717274,44.4614163 40.3468948,44.4614163 C39.9126558,44.4614163 39.5236091,44.3881294 39.1758249,44.2494784 C38.8280408,44.1108274 38.5313435,43.9107739 38.289663,43.6532792 C38.0499473,43.3957845 37.8613186,43.0867909 37.7316364,42.7302598 C37.5999893,42.371748 37.5331833,41.9795639 37.5331833,41.5477651 C37.5331833,41.1318122 37.6019542,40.7475509 37.737531,40.3870584 C37.871143,40.0285466 38.0637015,39.719553 38.3132416,39.4580968 C38.5608168,39.1966407 38.857514,38.990645 39.2013684,38.8420904 C39.5471877,38.691555 39.9283749,38.6143066 40.3468948,38.6143066 C40.8165017,38.6143066 41.2251973,38.7054201 41.5729815,38.8896278 C41.9207656,39.0718548 42.2076385,39.3174651 42.4316351,39.624478 C42.6556316,39.9314909 42.816752,40.2840605 42.916961,40.6762447 C43.0152051,41.0723903 43.050573,41.4843818 43.0210998,41.9122191 L39.0481076,41.9122191 C39.0697213,42.4074011 39.191544,42.765913 39.4194704,42.9877545 L39.4194704,42.9877545 Z M37.3111516,22.0593803 C37.1166282,22.382239 36.869053,22.6139842 36.5644963,22.7585773 C36.2599395,22.9011898 35.9455583,22.972496 35.6272474,22.972496 C35.2224816,22.972496 34.8904165,22.9190163 34.631052,22.812057 C34.3697226,22.7050977 34.1653749,22.5525816 34.0160438,22.3545088 C33.8686776,22.1584167 33.762574,21.9187486 33.7036275,21.6355044 C33.6427162,21.3522603 33.611278,21.0393052 33.611278,20.6946585 L33.611278,17.2779024 L35.1262024,17.2779024 L35.1262024,20.4153758 C35.1262024,20.8749048 35.1969381,21.21559 35.3384097,21.4433738 C35.4798812,21.6671961 35.7313861,21.7800976 36.0948894,21.7800976 C36.5075147,21.7800976 36.8042119,21.6572924 36.9908757,21.4097014 C37.1755747,21.1621104 37.2679242,20.7560611 37.2679242,20.1895728 L37.2679242,17.2779024 L38.7808836,17.2779024 L38.7808836,22.833845 L37.3425897,22.833845 L37.3425897,22.0593803 L37.3111516,22.0593803 Z M36.0438024,43.8790822 C35.5722307,44.2653242 34.9729415,44.4594356 34.2420053,44.4594356 C33.82938,44.4594356 33.4501577,44.3881294 33.1043384,44.2494784 C32.7624489,44.1108274 32.4677165,43.9147353 32.226036,43.6651636 C31.9843554,43.4136111 31.7957267,43.1145211 31.6621147,42.7678937 C31.5285027,42.4192855 31.4597318,42.0389857 31.4597318,41.6230328 C31.4597318,41.1932148 31.5226081,40.7950884 31.6463957,40.4266729 C31.7701832,40.0562768 31.9548822,39.7373795 32.1965627,39.4699812 C32.4362784,39.2006022 32.7310107,38.990645 33.0787949,38.8420904 C33.428544,38.691555 33.8254502,38.6143066 34.2714785,38.6143066 C34.5996139,38.6143066 34.9139951,38.6578826 35.2165869,38.7450347 C35.517214,38.830206 35.7883677,38.9609341 36.0261185,39.1352381 C36.2638693,39.311523 36.4583926,39.5294031 36.6077237,39.7908592 C36.7570547,40.0523153 36.8415447,40.3613089 36.8631584,40.7218014 L35.3816371,40.7218014 C35.2814281,40.084007 34.9081004,39.7651097 34.2616541,39.7651097 C34.0199736,39.7651097 33.8175907,39.8205701 33.6545055,39.9314909 C33.4914202,40.0424117 33.3578082,40.1850241 33.2556343,40.3613089 C33.1514956,40.535613 33.0787949,40.7297244 33.0355675,40.9396815 C32.994305,41.1516195 32.9726913,41.3615767 32.9726913,41.5695531 C32.9726913,41.7696067 32.994305,41.9756024 33.0355675,42.1815981 C33.0787949,42.3895746 33.1475658,42.5777438 33.2458099,42.7441249 C33.3401243,42.9144676 33.4698065,43.0531185 33.6328917,43.1580971 C33.795977,43.2670372 33.996395,43.3205169 34.230216,43.3205169 C34.5917543,43.3205169 34.8707676,43.2194997 35.065291,43.013504 C35.2617792,42.8114697 35.3855668,42.5361485 35.4346889,42.1915018 L36.8945965,42.1915018 C36.7943875,42.9303134 36.5114444,43.4928402 36.0438024,43.8790822 L36.0438024,43.8790822 Z M30.2238208,35.2312228 C29.9310533,35.4253342 29.5262876,35.5204092 29.0075586,35.5204092 C28.850368,35.5204092 28.6971072,35.5164477 28.5438464,35.5045633 C28.3925504,35.4946597 28.2373247,35.4807946 28.082099,35.4689102 L28.082099,34.2111478 C28.2235705,34.2250129 28.3689718,34.238878 28.516338,34.2527431 C28.667634,34.2666082 28.816965,34.2705697 28.9662961,34.2646275 C29.1647492,34.2428395 29.3121154,34.1636103 29.4083946,34.0269401 C29.502709,33.8922506 29.551831,33.7417152 29.551831,33.5753341 C29.551831,33.4545096 29.5302173,33.3396274 29.4889548,33.2326681 L27.5594403,28.0233529 L29.168679,28.0233529 L30.4144144,31.8263511 L30.4360281,31.8263511 L31.640501,28.0233529 L33.2065123,28.0233529 L30.9036701,34.2646275 C30.7405849,34.7162335 30.5146234,35.0371115 30.2238208,35.2312228 L30.2238208,35.2312228 Z M30.5853592,44.3188039 L29.0723997,44.3188039 L29.0723997,41.1813304 C29.0723997,40.7237822 29.001664,40.3830969 28.8582276,40.1572939 C28.716756,39.9314909 28.4652511,39.8185894 28.1037127,39.8185894 C27.6910874,39.8185894 27.3924253,39.9413945 27.2057615,40.1889856 C27.0230274,40.4365766 26.9306779,40.8426259 26.9306779,41.4091141 L26.9306779,44.3188039 L25.4157536,44.3188039 L25.4157536,38.7668227 L26.8560124,38.7668227 L26.8560124,39.5393067 L26.8854856,39.5393067 C27.080009,39.216448 27.3275842,38.9827221 27.6321409,38.8361482 C27.9406275,38.6895743 28.2510789,38.6143066 28.5713547,38.6143066 C28.9761205,38.6143066 29.3081856,38.6717477 29.569515,38.7806878 C29.8269146,38.8935893 30.0312623,39.0461054 30.1805934,39.2441782 C30.3299245,39.4402703 30.4340632,39.6819191 30.4949746,39.9631825 C30.5558859,40.2464267 30.5853592,40.5593817 30.5853592,40.9040284 L30.5853592,44.3188039 Z M23.5471505,33.5060086 C23.2013312,33.3673576 22.9085637,33.1712655 22.6668832,32.919713 C22.4252026,32.6701413 22.2365739,32.3710513 22.1029619,32.0244239 C21.967385,31.6777964 21.900579,31.2955159 21.900579,30.879563 C21.900579,30.449745 21.9634553,30.0516186 22.0872429,29.6832031 C22.2110305,29.312807 22.3937645,28.9939097 22.6354451,28.7265114 C22.8771256,28.4591131 23.1718579,28.2471752 23.5196421,28.0986206 C23.8674263,27.9480852 24.2643325,27.8728176 24.7123257,27.8728176 C25.0404611,27.8728176 25.3548423,27.9144128 25.6554693,28.0015649 C25.9580612,28.0867362 26.22725,28.2174643 26.4669657,28.3917683 C26.7047165,28.5680532 26.8972749,28.787914 27.046606,29.0473894 C27.1979019,29.3088455 27.2823919,29.6178391 27.3020407,29.9783316 L25.8205194,29.9783316 C25.7222753,29.3405372 25.3489476,29.0216399 24.7025013,29.0216399 C24.4608208,29.0216399 24.2584379,29.0771003 24.0953527,29.1880211 C23.9322674,29.2989419 23.7986554,29.443535 23.6945167,29.6178391 C23.5923428,29.7921432 23.5196421,29.9862546 23.4783796,30.1962117 C23.4351522,30.4081497 23.4135385,30.6181069 23.4135385,30.8260833 C23.4135385,31.0261369 23.4351522,31.2321326 23.4783796,31.4381283 C23.5196421,31.6461048 23.5903779,31.8362547 23.6866571,32.0026359 C23.7809715,32.1729785 23.9106537,32.3096487 24.073739,32.4166081 C24.2368242,32.5235674 24.4352773,32.5790278 24.6710632,32.5790278 C25.0326016,32.5790278 25.3116149,32.4760299 25.5081031,32.2700342 C25.7026264,32.0679999 25.8244492,31.7926787 25.8755361,31.448032 L27.3354437,31.448032 C27.2352347,32.1868436 26.9522916,32.7513511 26.4826848,33.1356124 C26.0130779,33.5218544 25.4118239,33.7159658 24.6808876,33.7159658 C24.2682623,33.7159658 23.8910049,33.6466403 23.5471505,33.5060086 L23.5471505,33.5060086 Z M22.9026691,44.3188039 C22.8731958,44.2336326 22.8496172,44.1444998 22.8319333,44.0573477 C22.8142493,43.968215 22.8024601,43.8771015 22.7946005,43.7840073 C22.55292,44.033579 22.2699769,44.2098638 21.9418416,44.3089002 C21.6156711,44.4079366 21.2816411,44.4594356 20.9417164,44.4594356 C20.6784222,44.4594356 20.4328119,44.4277439 20.2068504,44.3623799 C19.9769592,44.2989966 19.7785061,44.1979794 19.6075613,44.0613092 C19.4385814,43.9266197 19.3049694,43.7542963 19.2086902,43.5463199 C19.1124109,43.3383434 19.0652538,43.0907524 19.0652538,42.8055275 C19.0652538,42.488611 19.1202705,42.2311163 19.2303039,42.0271013 C19.3403373,41.8230863 19.4818088,41.6606666 19.6566834,41.5378615 C19.8315579,41.417037 20.030011,41.3239428 20.2540076,41.2625402 C20.4780042,41.2031184 20.7020008,41.1555809 20.9299271,41.1179471 C21.1578535,41.0842747 21.3818501,41.0545638 21.6019169,41.0327758 C21.8219837,41.0109878 22.0165071,40.9792961 22.1874519,40.9357201 C22.3583966,40.8941248 22.4939735,40.8307415 22.5922176,40.7495316 C22.6924266,40.6663411 22.7376189,40.5455166 22.7317243,40.3870584 C22.7317243,40.2226579 22.7042159,40.0939106 22.6511641,39.9968549 C22.5981123,39.8997992 22.5273765,39.8245316 22.4389568,39.7690712 C22.3485722,39.7155915 22.2463983,39.6819191 22.1285054,39.6621119 C22.0125773,39.6442853 21.88486,39.6363624 21.751248,39.6363624 C21.4525859,39.6363624 21.2187649,39.6997457 21.0478201,39.8304737 C20.8768753,39.9572404 20.7786312,40.1731397 20.749158,40.4742104 L19.2361985,40.4742104 C19.2578122,40.1156986 19.3462319,39.8185894 19.5034225,39.5828827 C19.6586482,39.3471761 19.8571014,39.1550454 20.0987819,39.012433 C20.3404624,38.8698206 20.6135811,38.7688034 20.9142081,38.7054201 C21.2168,38.6459983 21.5193919,38.6143066 21.8259135,38.6143066 C22.1029619,38.6143066 22.3819752,38.6341139 22.6668832,38.6757092 C22.9498262,38.713343 23.2111556,38.7905914 23.4449766,38.9054737 C23.6807625,39.0203559 23.8713561,39.1807949 24.0206871,39.3828292 C24.1700182,39.5888249 24.2446837,39.8582039 24.2446837,40.192947 L24.2446837,43.0828295 C24.2446837,43.3343819 24.2584379,43.5740501 24.2879111,43.8057953 C24.3154195,44.033579 24.3665064,44.2059024 24.4352773,44.3188039 L22.9026691,44.3188039 Z M15.3889588,21.5008149 C15.6149203,21.7226565 15.9430557,21.8335772 16.3694351,21.8335772 C16.6739919,21.8335772 16.9372861,21.7583096 17.157353,21.6038128 C17.3774198,21.449316 17.5129967,21.2868963 17.5621187,21.1145729 L18.894309,21.1145729 C18.6821017,21.7800976 18.3539663,22.2574531 17.9138327,22.5426779 C17.473699,22.8298835 16.9412159,22.972496 16.3163833,22.972496 C15.8821443,22.972496 15.4911327,22.9031705 15.1433485,22.7645195 C14.7955643,22.6238878 14.500832,22.425815 14.2591515,22.1683203 C14.0174709,21.9088449 13.8308071,21.601832 13.69916,21.2433202 C13.5675129,20.8848084 13.5026717,20.4906435 13.5026717,20.0608255 C13.5026717,19.6468533 13.5694777,19.2586306 13.7050546,18.9001188 C13.8386666,18.5435877 14.0312251,18.2326134 14.2788003,17.973138 C14.5283403,17.7097011 14.8250376,17.5037054 15.1708569,17.3551508 C15.5147113,17.2046154 15.8958985,17.127367 16.3163833,17.127367 C16.7840253,17.127367 17.1927208,17.2204612 17.5424699,17.4026882 C17.8882892,17.5849152 18.175162,17.8305255 18.3991586,18.1395191 C18.6231552,18.446532 18.7842756,18.7971209 18.8844846,19.1912858 C18.9827287,19.5854507 19.0200615,19.9974422 18.9905882,20.4272602 L15.0156312,20.4272602 C15.0372449,20.9204615 15.1610325,21.2789733 15.3889588,21.5008149 L15.3889588,21.5008149 Z M16.6995354,33.5753341 L18.2124948,33.5753341 L18.2124948,25.9039737 L16.6995354,25.9039737 L16.6995354,33.5753341 Z M16.5934317,37.9052059 L18.1063912,37.9052059 L18.1063912,36.6494242 L16.5934317,36.6494242 L16.5934317,37.9052059 Z M16.5934317,44.3188039 L18.1063912,44.3188039 L18.1063912,38.764842 L16.5934317,38.764842 L16.5934317,44.3188039 Z M15.6011661,32.0085781 C15.4655892,32.3651091 15.2749956,32.672122 15.0254556,32.9256552 C14.7778804,33.1811692 14.4772534,33.3752805 14.1255395,33.5119508 C13.7738255,33.648621 13.380849,33.7159658 12.9485749,33.7159658 C12.5143359,33.7159658 12.1233243,33.648621 11.7755401,33.5119508 C11.4277559,33.3752805 11.1290938,33.1811692 10.8795538,32.9256552 C10.6319786,32.672122 10.4394201,32.3651091 10.3038432,32.0085781 C10.1702312,31.6500662 10.1014603,31.2499591 10.1014603,30.8042953 C10.1014603,30.3606122 10.1702312,29.9585244 10.3038432,29.5960511 C10.4394201,29.2355586 10.6319786,28.926565 10.8795538,28.6730318 C11.1290938,28.4175178 11.4277559,28.219445 11.7755401,28.080794 C12.1233243,27.942143 12.5143359,27.8728176 12.9485749,27.8728176 C13.380849,27.8728176 13.7738255,27.942143 14.1255395,28.080794 C14.4772534,28.219445 14.7778804,28.4175178 15.0254556,28.6730318 C15.2749956,28.926565 15.4655892,29.2355586 15.6011661,29.5960511 C15.736743,29.9585244 15.803549,30.3606122 15.803549,30.8042953 C15.803549,31.2499591 15.736743,31.6500662 15.6011661,32.0085781 L15.6011661,32.0085781 Z M13.8976131,44.3188039 L15.4105725,44.3188039 L15.4105725,36.6494242 L13.8976131,36.6494242 L13.8976131,44.3188039 Z M11.1448129,44.3188039 L12.6597372,44.3188039 L12.6597372,36.6494242 L11.1448129,36.6494242 L11.1448129,44.3188039 Z M8.75944566,44.3188039 L8.18373512,42.6114162 L5.33858543,42.6114162 L4.74126119,44.3188039 L3.05735699,44.3188039 L5.93590968,36.6494242 L7.651252,36.6494242 L10.4964017,44.3188039 L8.75944566,44.3188039 Z M3.85706412,25.9059544 L7.28971364,25.9059544 C7.76521518,25.9059544 8.16998095,25.9752799 8.50401095,26.1159116 C8.83804096,26.2545626 9.11115961,26.4387703 9.31943714,26.6685348 C9.52771467,26.8982993 9.68294038,27.1597554 9.77725474,27.4529032 C9.87353397,27.7460509 9.92265603,28.0491024 9.92265603,28.3660189 C9.92265603,28.6750125 9.87353397,28.9760832 9.77725474,29.2751731 C9.68294038,29.5703016 9.52771467,29.8357192 9.31943714,30.063503 C9.11115961,30.2932674 8.83804096,30.4774751 8.50401095,30.6161261 C8.16998095,30.7567578 7.76521518,30.8260833 7.28971364,30.8260833 L5.53114391,30.8260833 L5.53114391,33.5753341 L3.85706412,33.5753341 L3.85706412,25.9059544 Z M6.72382751,17.2779024 L6.72382751,18.2999581 L5.61563385,18.2999581 L5.61563385,21.0492089 C5.61563385,21.3086843 5.65886126,21.4810076 5.74335121,21.5661789 C5.82980603,21.6513503 6.0007508,21.6949263 6.25422062,21.6949263 C6.34067545,21.6949263 6.42123563,21.6909648 6.49983092,21.6850226 C6.57842622,21.6770997 6.65309175,21.6652153 6.72382751,21.6513503 L6.72382751,22.833845 C6.59611016,22.8536523 6.45267375,22.8694981 6.29744804,22.877421 C6.14222233,22.8833632 5.9889615,22.8873247 5.83963044,22.8873247 C5.60580944,22.8873247 5.38377773,22.8714788 5.17353531,22.8397872 C4.9632929,22.8061148 4.77859396,22.7427315 4.61943848,22.6496373 C4.45831813,22.5585238 4.33256565,22.425815 4.24021618,22.2534916 C4.14786671,22.0811683 4.10267442,21.8553653 4.10267442,21.5760826 L4.10267442,18.2999581 L3.18507434,18.2999581 L3.18507434,17.2779024 L4.10267442,17.2779024 L4.10267442,15.6140907 L5.61563385,15.6140907 L5.61563385,17.2779024 L6.72382751,17.2779024 Z M11.0504985,18.6703543 C10.909027,18.4445513 10.657522,18.3316498 10.2940188,18.3316498 C9.8813935,18.3316498 9.58273138,18.4544549 9.39999732,18.7020459 C9.21333349,18.949637 9.12098402,19.3556863 9.12098402,19.9221745 L9.12098402,22.833845 L7.60802459,22.833845 L7.60802459,15.1624846 L9.12098402,15.1624846 L9.12098402,18.0523671 L9.15438702,18.0523671 C9.3469455,17.7295084 9.59059091,17.4957825 9.88925303,17.3492086 C10.1879152,17.200654 10.4787177,17.1293478 10.7636257,17.1293478 C11.1683915,17.1293478 11.5004566,17.1848081 11.7598211,17.2957289 C12.0191855,17.404669 12.2235333,17.5611465 12.3728644,17.7572386 C12.5221954,17.9553114 12.6263342,18.1929988 12.6872455,18.4762429 C12.7481569,18.7594871 12.7776301,19.0724421 12.7776301,19.4170888 L12.7776301,22.833845 L11.2646707,22.833845 L11.2646707,19.6963715 C11.2646707,19.2388233 11.1939349,18.8961573 11.0504985,18.6703543 L11.0504985,18.6703543 Z M4.82771601,4.41901484 L6.03218892,9.64021439 L6.05380262,9.64021439 L7.37420358,4.41901484 L8.94021484,4.41901484 L10.240967,9.70557843 L10.2625807,9.70557843 L11.5083161,4.41901484 L13.1509578,4.41901484 L11.1035503,12.0903752 L9.44125985,12.0903752 L8.15229701,6.86917563 L8.1306833,6.86917563 L6.86333416,12.0903752 L5.16764067,12.0903752 L3.15363622,4.41901484 L4.82771601,4.41901484 Z M14.5519189,6.61168096 C14.8957733,6.46114562 15.2789254,6.38389722 15.6974454,6.38389722 C16.1670522,6.38389722 16.5737829,6.47699145 16.923532,6.65921844 C17.2713161,6.84144544 17.5562241,7.08705573 17.7821856,7.39604933 C18.0042173,7.70306221 18.1673025,8.0536511 18.2655466,8.44781601 C18.3657556,8.84198093 18.4011235,9.25397239 18.3716503,9.68379042 L14.3966932,9.68379042 C14.4183069,10.1789725 14.5420945,10.5355035 14.7700209,10.7573451 C14.9979472,10.9791867 15.3241177,11.0901074 15.7504972,11.0901074 C16.0570188,11.0901074 16.3183482,11.012859 16.538415,10.860343 C16.7604467,10.7058462 16.8940587,10.5434265 16.9451457,10.3711031 L18.2773359,10.3711031 C18.0631637,11.0366278 17.7369933,11.5139833 17.2968596,11.7992081 C16.8547611,12.0864137 16.322278,12.2290262 15.6974454,12.2290262 C15.2632063,12.2290262 14.8741596,12.1597007 14.5244106,12.0210497 C14.1766264,11.880418 13.881894,11.6823452 13.6402135,11.4228698 C13.398533,11.1673558 13.2118691,10.8583622 13.0821869,10.4998504 C12.9505398,10.1413386 12.8837338,9.74717372 12.8837338,9.3173557 C12.8837338,8.90140277 12.9525047,8.5171415 13.0861167,8.15862969 C13.2216936,7.80011789 13.4122871,7.49112429 13.6618272,7.22966817 C13.9113673,6.96623131 14.2080645,6.76023558 14.5519189,6.61168096 L14.5519189,6.61168096 Z M19.4484058,33.5773148 L20.9613653,33.5773148 L20.9613653,28.0233529 L19.4484058,28.0233529 L19.4484058,33.5773148 Z M19.4484058,27.1617361 L20.9633301,27.1617361 L20.9633301,25.9059544 L19.4484058,25.9059544 L19.4484058,27.1617361 Z M21.7296343,15.1624846 L25.0109879,15.1624846 C25.5022084,15.1624846 25.9580612,15.2417138 26.3824758,15.3981913 C26.8029606,15.5566496 27.1703936,15.7923562 27.4788801,16.107292 C27.7873667,16.4222278 28.0290472,16.8183734 28.2039217,17.2897867 C28.3768314,17.7631808 28.4652511,18.3177847 28.4652511,18.9555792 C28.4652511,19.5141445 28.3925504,20.0291338 28.2530438,20.5025279 C28.1096074,20.9739412 27.8934703,21.3819712 27.6065975,21.7266179 C27.3197247,22.0692839 26.9601512,22.3406437 26.5298419,22.5387165 C26.1014976,22.7348086 25.5945579,22.833845 25.0109879,22.833845 L21.7296343,22.833845 L21.7296343,15.1624846 Z M22.1619084,9.79669192 C22.2719418,9.59267692 22.4134133,9.4302572 22.5882879,9.30745206 C22.7611975,9.18662764 22.9596506,9.09353341 23.1836472,9.03411156 C23.4076438,8.97270899 23.6336053,8.92517151 23.8615317,8.8895184 C24.089458,8.8538653 24.3114897,8.82415437 24.5335214,8.80236636 C24.7516234,8.78057835 24.9481116,8.7488867 25.1190564,8.70531068 C25.2880363,8.66371539 25.4236132,8.60033209 25.5238222,8.5171415 C25.6220663,8.43593164 25.6692234,8.31510722 25.6613639,8.15664897 C25.6613639,7.99224853 25.6358204,7.86350119 25.5827686,7.76644551 C25.5277519,7.66938983 25.4570162,7.59412216 25.3685964,7.54064249 C25.2801767,7.48716283 25.1780029,7.45150972 25.0601099,7.43170244 C24.942217,7.41387589 24.8164645,7.40595298 24.6808876,7.40595298 C24.3822255,7.40595298 24.1484045,7.47131701 23.9774597,7.59808361 C23.8084798,7.72881167 23.7082708,7.94273032 23.6807625,8.24380101 L22.1658382,8.24380101 C22.1874519,7.8852892 22.2758716,7.58817997 22.4330622,7.35247331 C22.5882879,7.11676666 22.7887059,6.92463602 23.0303864,6.78202359 C23.2720669,6.63941116 23.5432207,6.53839402 23.8458126,6.47699145 C24.1464396,6.41558887 24.4509964,6.38587795 24.7555531,6.38587795 C25.0345664,6.38587795 25.3135797,6.40568523 25.5984877,6.44529979 C25.8814307,6.48293363 26.1427601,6.56018203 26.3765811,6.67506427 C26.6104021,6.7899465 26.8009957,6.95038549 26.9522916,7.15440049 C27.1016227,7.3584155 27.1762882,7.62779454 27.1762882,7.96451833 L27.1762882,10.8544008 C27.1762882,11.1059533 27.1900424,11.3456214 27.2175508,11.5734051 C27.247024,11.8031696 27.2941812,11.975493 27.3688467,12.0903752 L25.8323087,12.0903752 C25.8048003,12.0032231 25.7812217,11.9160711 25.7635378,11.8269383 C25.7458539,11.7378056 25.7320997,11.6466921 25.726205,11.5535978 C25.4845245,11.8031696 25.2015814,11.9794544 24.8734461,12.0784908 C24.5453107,12.179508 24.2132456,12.2290262 23.8713561,12.2290262 C23.6080618,12.2290262 23.3624515,12.1973345 23.1364901,12.1319705 C22.9085637,12.0685872 22.7101106,11.96757 22.5391658,11.8308998 C22.368221,11.6962103 22.2365739,11.5238869 22.1383298,11.3159105 C22.0440155,11.107934 21.9948934,10.8623237 21.9948934,10.5751181 C21.9948934,10.2601823 22.0499101,10.0007069 22.1619084,9.79669192 L22.1619084,9.79669192 Z M28.1882027,6.53641329 L29.6264966,6.53641329 L29.6264966,7.56639196 L29.6481103,7.56639196 C29.718846,7.39406861 29.8151253,7.23561035 29.9349831,7.08903646 C30.0568058,6.94246257 30.1943476,6.8176767 30.3515382,6.7126981 C30.5067639,6.60970024 30.6737789,6.52849038 30.8525832,6.47104926 C31.0294226,6.41360814 31.2160864,6.38587795 31.40668,6.38587795 C31.5049241,6.38587795 31.6169224,6.4037045 31.7367802,6.43935761 L31.7367802,7.85755901 C31.6660445,7.84171318 31.5795897,7.82982881 31.4813455,7.81992517 C31.3811365,7.8080408 31.2868222,7.80407935 31.1944727,7.80407935 C30.9154594,7.80407935 30.6816384,7.84963609 30.4890799,7.94273032 C30.2984863,8.03582455 30.1432606,8.16259115 30.0273326,8.32303014 C29.9074747,8.48544985 29.8269146,8.67361903 29.7758276,8.8895184 C29.7267056,9.10343705 29.7011621,9.33716298 29.7011621,9.58673473 L29.7011621,12.0903752 L28.1882027,12.0903752 L28.1882027,6.53641329 Z M30.7680932,18.3098618 C30.8368641,18.1395191 30.9331434,17.9790802 31.0549661,17.8325063 C31.1748239,17.6859324 31.3143305,17.5611465 31.4695562,17.4561679 C31.6267468,17.35317 31.791797,17.2719602 31.9706013,17.2145191 C32.1494055,17.1570779 32.3341045,17.1293478 32.526663,17.1293478 C32.6249071,17.1293478 32.7349405,17.1471743 32.8547983,17.1828274 L32.8547983,18.6010288 C32.7840626,18.5871637 32.6995726,18.5732986 32.6013285,18.5614142 C32.5011195,18.5534913 32.4048403,18.5475491 32.3124908,18.5475491 C32.0354424,18.5475491 31.7996565,18.5931059 31.6090629,18.6862001 C31.4165044,18.7792943 31.2632436,18.906061 31.1433858,19.0664999 C31.0294226,19.2289197 30.9449326,19.4170888 30.8938457,19.6310075 C30.8447236,19.8469069 30.8191802,20.0806328 30.8191802,20.3302045 L30.8191802,22.833845 L29.3062207,22.833845 L29.3062207,17.2779024 L30.7445146,17.2779024 L30.7445146,18.3098618 L30.7680932,18.3098618 Z M32.1631597,8.15862969 C32.2967717,7.80011789 32.4893302,7.49112429 32.7388703,7.22966817 C32.9864454,6.96623131 33.2831427,6.76023558 33.628962,6.61168096 C33.9728164,6.46114562 34.3540036,6.38389722 34.7744884,6.38389722 C35.2421304,6.38389722 35.650826,6.47699145 35.9986101,6.65921844 C36.3483592,6.84144544 36.6332671,7.08705573 36.8592286,7.39604933 C37.0812603,7.70306221 37.2423807,8.0536511 37.3425897,8.44781601 C37.4408338,8.84198093 37.4781666,9.25397239 37.4486933,9.68379042 L33.4737363,9.68379042 C33.49535,10.1789725 33.6191376,10.5355035 33.845099,10.7573451 C34.0749903,10.9791867 34.4011608,11.0901074 34.8255754,11.0901074 C35.1340619,11.0901074 35.3953912,11.012859 35.6154581,10.860343 C35.8355249,10.7058462 35.9711018,10.5434265 36.0221887,10.3711031 L37.354379,10.3711031 C37.1402068,11.0366278 36.8120714,11.5139833 36.3739027,11.7992081 C35.9318041,12.0864137 35.3973561,12.2290262 34.7744884,12.2290262 C34.3402494,12.2290262 33.9492378,12.1597007 33.6014536,12.0210497 C33.2536694,11.880418 32.9589371,11.6823452 32.7172566,11.4228698 C32.475576,11.1673558 32.2889122,10.8583622 32.1572651,10.4998504 C32.0275828,10.1413386 31.958812,9.74717372 31.958812,9.3173557 C31.958812,8.90140277 32.0295477,8.5171415 32.1631597,8.15862969 L32.1631597,8.15862969 Z M39.7554653,18.8426777 C39.859604,18.5099153 40.0089351,18.2167675 40.2093531,17.9612536 C40.4078062,17.7077204 40.6534165,17.5056861 40.9501137,17.3551508 C41.2448461,17.2046154 41.5847708,17.127367 41.9659579,17.127367 C42.3294612,17.127367 42.6477721,17.1966925 42.9228557,17.331382 C43.1940094,17.470033 43.4219358,17.6978167 43.6085996,18.0206754 L43.6302133,18.0206754 L43.6302133,17.2779024 L45.0685072,17.2779024 L45.0685072,22.4792946 C45.0685072,22.7011362 45.039034,22.9546694 44.9781226,23.241875 C44.9172113,23.5270999 44.787529,23.7944982 44.5890759,24.0420892 C44.3906228,24.2896802 44.1017851,24.4976567 43.7264925,24.66998 C43.3492351,24.8423034 42.8442604,24.9274747 42.2115682,24.9274747 C41.9423793,24.9274747 41.6672958,24.8938023 41.3863176,24.8264576 C41.1053394,24.7571321 40.8499047,24.6521535 40.6200135,24.5095411 C40.3881574,24.3669286 40.1955989,24.1807402 40.044303,23.9569179 C39.8910421,23.7291341 39.8045873,23.4597551 39.7829736,23.1448193 L41.2861086,23.1448193 C41.3568444,23.4300442 41.4943862,23.6300977 41.7006988,23.7410185 C41.9070115,23.8519393 42.1447622,23.9073997 42.415916,23.9073997 C42.8422955,23.9073997 43.1527469,23.7786523 43.3472702,23.5211577 C43.5437585,23.2616823 43.6380728,22.9368429 43.6302133,22.5426779 L43.6302133,21.81377 L43.6085996,21.81377 C43.4455144,22.1069177 43.2116934,22.3228171 42.9110664,22.4634488 C42.6084745,22.6020998 42.2901635,22.673406 41.9561335,22.673406 C41.5435082,22.673406 41.1898294,22.6001191 40.8911673,22.4515644 C40.5925051,22.3049906 40.3468948,22.104937 40.1543364,21.8514038 C39.9637428,21.5958899 39.8222713,21.2987806 39.7338515,20.9580954 C39.6473967,20.6193909 39.6022044,20.2588983 39.6022044,19.8785985 C39.6022044,19.5200867 39.6513265,19.17544 39.7554653,18.8426777 L39.7554653,18.8426777 Z M0,49.7776908 L49.1888656,49.7776908 L49.1888656,0.19214084 L0,0.19214084 L0,49.7776908 Z" id="Fill-17"></path>
                <path d="M35.557494,7.83557292 C35.3767249,7.63551938 35.1016413,7.53450224 34.7302786,7.53450224 C34.4905629,7.53450224 34.28818,7.57609753 34.1290245,7.65928811 C33.9679042,7.74049797 33.8421517,7.84349584 33.7458725,7.96432026 C33.6495932,8.08514468 33.5827872,8.21587274 33.5434896,8.35056226 C33.504192,8.4872325 33.4806134,8.61003765 33.4727538,8.71699698 L35.9347515,8.71699698 C35.8640157,8.33075498 35.7382632,8.03562647 35.557494,7.83557292" id="Fill-19"></path>
                <path d="M16.2731559,18.277972 C16.0314754,18.277972 15.8290925,18.3195673 15.669937,18.4007772 C15.5107815,18.4839678 15.3830642,18.5869656 15.2867849,18.7077901 C15.1905057,18.8286145 15.1236997,18.9593425 15.0844021,19.0940321 C15.0451044,19.2307023 15.0215258,19.3515267 15.0156312,19.4604668 L17.4776288,19.4604668 C17.406893,19.0722441 17.2791757,18.7790963 17.0984065,18.5790427 C16.9176373,18.3789892 16.6405889,18.277972 16.2731559,18.277972" id="Fill-20"></path>
                <path d="M16.480451,7.83557292 C16.2996818,7.63551938 16.0245983,7.53450224 15.6552004,7.53450224 C15.4135199,7.53450224 15.211137,7.57609753 15.0519815,7.65928811 C14.892826,7.74049797 14.7651087,7.84349584 14.6688294,7.96432026 C14.5725502,8.08514468 14.5057442,8.21587274 14.4664465,8.35056226 C14.4271489,8.4872325 14.4035703,8.61003765 14.3976757,8.71699698 L16.8596733,8.71699698 C16.7869726,8.33075498 16.6612202,8.03562647 16.480451,7.83557292" id="Fill-21"></path>
                <path d="M41.1316689,40.0659823 C40.9489348,39.8639481 40.6758162,39.7649116 40.3044534,39.7649116 C40.0627729,39.7649116 39.8623549,39.8065069 39.7012345,39.8877168 C39.542079,39.9709074 39.4163266,40.0739052 39.3180824,40.1927489 C39.2237681,40.3155541 39.1549972,40.4443014 39.1176644,40.5809717 C39.0783668,40.7176419 39.0528233,40.8404471 39.0469287,40.9454257 L41.5089263,40.9454257 C41.4381905,40.5591837 41.3124381,40.2660359 41.1316689,40.0659823 L41.1316689,40.0659823 Z M39.4202563,42.9875564 C39.6481827,43.209398 39.9743531,43.3222995 40.4007326,43.3222995 C40.7052894,43.3222995 40.9685836,43.2430704 41.1886505,43.0885736 C41.4106822,42.9360575 41.5442942,42.7736378 41.5934162,42.6013144 L42.9256065,42.6013144 C42.7153641,43.2668391 42.3872287,43.7422139 41.9470951,44.0294195 C41.5049965,44.3166251 40.9725134,44.4612182 40.3476808,44.4612182 C39.9134418,44.4612182 39.5243951,44.389912 39.1766109,44.2492803 C38.8268618,44.1106293 38.5321295,43.9105758 38.2904489,43.6550618 C38.0507333,43.3975672 37.8621046,43.0865929 37.7324224,42.7300618 C37.5988103,42.37155 37.5339692,41.9793658 37.5339692,41.547567 C37.5339692,41.1316141 37.6007752,40.7473528 37.7363521,40.3868603 C37.871929,40.0283485 38.0625226,39.7193549 38.3120627,39.4578988 C38.5596378,39.1984234 38.8583,38.9904469 39.2021544,38.8418923 C39.5460088,38.691357 39.9291609,38.6160893 40.3476808,38.6160893 C40.8172877,38.6160893 41.2259832,38.7052221 41.5737674,38.8894298 C41.9195867,39.0716568 42.2084244,39.3172671 42.4304561,39.6242799 C42.6544527,39.9332735 42.8155731,40.2838624 42.9157821,40.6780273 C43.0159911,41.0721923 43.051359,41.4841837 43.0238506,41.9140018 L39.0469287,41.9140018 C39.0685424,42.4091838 39.1942948,42.7657149 39.4202563,42.9875564 L39.4202563,42.9875564 Z M34.2624401,39.7649116 C34.9088864,39.7649116 35.2802491,40.0838089 35.3804581,40.7216034 L36.8619795,40.7216034 C36.8403657,40.3630916 36.7558758,40.0521172 36.6065447,39.7906611 C36.4572137,39.529205 36.2626903,39.3113249 36.0249396,39.1350401 C35.7871888,38.960736 35.5179999,38.8300079 35.215408,38.7448366 C34.914781,38.6576846 34.6003998,38.6160893 34.2722645,38.6160893 C33.8242713,38.6160893 33.427365,38.691357 33.077616,38.8418923 C32.7317967,38.9904469 32.4350994,39.2004041 32.1953838,39.4697831 C31.9537033,39.7371815 31.7690043,40.0560787 31.6452167,40.4264749 C31.5214291,40.7948903 31.4585529,41.1930167 31.4585529,41.6228347 C31.4585529,42.0387876 31.5273238,42.4190874 31.6629007,42.7676956 C31.7965127,43.114323 31.9851414,43.413413 32.2268219,43.6649655 C32.4685024,43.9145372 32.7612699,44.1106293 33.1051243,44.2492803 C33.4509436,44.389912 33.8282011,44.4592375 34.2408264,44.4592375 C34.9717626,44.4592375 35.5730166,44.2651261 36.0426235,43.8808649 C36.5102655,43.4926421 36.7951735,42.9301153 36.8953825,42.1913037 L35.4354748,42.1913037 C35.3843879,42.5359504 35.2625652,42.8112716 35.066077,43.0133059 C34.8715536,43.2193016 34.5925403,43.3222995 34.2290371,43.3222995 C33.9952161,43.3222995 33.7967629,43.2668391 33.6336777,43.1598798 C33.4705925,43.0529205 33.3389453,42.9142695 33.244631,42.7478883 C33.1483518,42.5795264 33.077616,42.3893765 33.0363535,42.1814001 C32.993126,41.9754043 32.9734772,41.7694086 32.9734772,41.569355 C32.9734772,41.3613786 32.993126,41.1534021 33.0363535,40.9394835 C33.077616,40.7295263 33.1503166,40.5354149 33.2544554,40.3611108 C33.3585942,40.1868068 33.4902413,40.0422136 33.6533265,39.9312928 C33.8164118,39.820372 34.0207595,39.7649116 34.2624401,39.7649116 L34.2624401,39.7649116 Z M25.4165396,38.7666246 L25.4165396,44.3186058 L26.929499,44.3186058 L26.929499,41.4089161 C26.929499,40.8444085 27.0218485,40.4363785 27.2065474,40.1887875 C27.3932113,39.9431772 27.6899085,39.8183913 28.1025338,39.8183913 C28.466037,39.8183913 28.717542,39.9312928 28.8590135,40.1570958 C29.000485,40.3828988 29.0712208,40.7235841 29.0712208,41.1811323 L29.0712208,44.3186058 L30.5861451,44.3186058 L30.5861451,40.9038304 C30.5861451,40.5591837 30.554707,40.2462286 30.4957605,39.9629845 C30.4348492,39.6817211 30.3307104,39.4420529 30.1813794,39.2439801 C30.0320483,39.0459073 29.8277005,38.8933912 29.568336,38.7824705 C29.3070067,38.6715497 28.9749416,38.6160893 28.5701758,38.6160893 C28.2518649,38.6160893 27.9394486,38.6893762 27.6348918,38.8359501 C27.3283701,38.982524 27.080795,39.2162499 26.8862716,39.5391086 L26.8548335,39.5391086 L26.8548335,38.7666246 L25.4165396,38.7666246 Z M22.4908297,41.7357362 C22.3945505,41.7674279 22.2923766,41.7951581 22.1823432,41.8169461 C22.0723098,41.8387341 21.9563817,41.8545799 21.8365239,41.8704257 C21.7147012,41.8842908 21.5948433,41.9021174 21.4730206,41.9239054 C21.3590575,41.9456934 21.2470592,41.9754043 21.1389906,42.0090767 C21.0289572,42.0447298 20.932678,42.094248 20.8501529,42.1556506 C20.7695927,42.2170532 20.7027867,42.2923208 20.6536647,42.3873958 C20.6025777,42.48049 20.5789991,42.597353 20.5789991,42.7419461 C20.5789991,42.8766357 20.6025777,42.9915179 20.6536647,43.0826314 C20.7027867,43.1777063 20.7695927,43.2509933 20.8560476,43.304473 C20.9405375,43.3579526 21.0407465,43.3955865 21.1547097,43.4173745 C21.266708,43.4391625 21.3846009,43.4490661 21.5064236,43.4490661 C21.8050858,43.4490661 22.034977,43.3995479 22.1980622,43.3005115 C22.3611475,43.1994944 22.4829702,43.0786699 22.5615655,42.940019 C22.6381959,42.801368 22.6873179,42.6587556 22.7050019,42.5141624 C22.7226858,42.37155 22.7305454,42.2566677 22.7305454,42.1714964 L22.7305454,41.6010467 C22.6676691,41.6604685 22.5871089,41.7040446 22.4908297,41.7357362 L22.4908297,41.7357362 Z M19.5022436,39.5826846 C19.6574693,39.346978 19.8578873,39.1548474 20.0995678,39.0122349 C20.3392835,38.8696225 20.6124021,38.7686054 20.9130292,38.7052221 C21.215621,38.6458002 21.5201778,38.6160893 21.8247346,38.6160893 C22.101783,38.6160893 22.3827612,38.6339158 22.6676691,38.6755111 C22.9506122,38.713145 23.2099767,38.7903934 23.4457625,38.9052756 C23.6795835,39.0201578 23.8701771,39.1805968 24.0214731,39.3826311 C24.1708041,39.5886268 24.2435048,39.8599866 24.2435048,40.1927489 L24.2435048,43.0826314 C24.2435048,43.3341839 24.2592239,43.573852 24.2867322,43.8055972 C24.3162054,44.0333809 24.3653275,44.2057043 24.4360633,44.3186058 L22.9014901,44.3186058 C22.8739818,44.2334345 22.8504032,44.1482632 22.8327192,44.0571497 C22.8150353,43.9680169 22.8012811,43.8769034 22.7953865,43.7838092 C22.5537059,44.0333809 22.268798,44.2096657 21.9426275,44.3106829 C21.6144922,44.4097193 21.282427,44.4612182 20.9405375,44.4612182 C20.6772433,44.4612182 20.431633,44.4275458 20.2056715,44.3621818 C19.9777451,44.2987985 19.779292,44.1977814 19.6083473,44.0630919 C19.4374025,43.9264216 19.3057554,43.7540983 19.2094761,43.5461218 C19.1131969,43.3381453 19.0660397,43.0905543 19.0660397,42.8053294 C19.0660397,42.4903937 19.1190915,42.2309183 19.2310898,42.0269033 C19.3411232,41.8228883 19.4825948,41.6604685 19.6574693,41.5376634 C19.830379,41.416839 20.0288321,41.3237447 20.2547936,41.2623422 C20.4768253,41.2029203 20.7027867,41.1553828 20.9307131,41.117749 C21.1566746,41.0840766 21.3806712,41.0543657 21.6027029,41.0325777 C21.8208048,41.0107897 22.0172931,40.979098 22.1862729,40.935522 C22.3591826,40.8939267 22.4927946,40.8305434 22.5930036,40.7473528 C22.6912477,40.666143 22.7384049,40.5453186 22.7305454,40.3868603 C22.7305454,40.2224599 22.7050019,40.0937125 22.6519501,39.9966568 C22.5969334,39.8996012 22.5261976,39.8243335 22.4377779,39.7708538 C22.3493582,39.7153934 22.2471843,39.6817211 22.1292913,39.6638945 C22.0133633,39.6440872 21.8856459,39.6361643 21.7520339,39.6361643 C21.4514069,39.6361643 21.2175859,39.6995476 21.0466412,39.8302757 C20.8776613,39.9570423 20.7774523,40.1729417 20.747979,40.4740123 L19.2350196,40.4740123 C19.2566333,40.1155005 19.3470179,39.8183913 19.5022436,39.5826846 L19.5022436,39.5826846 Z M16.5922528,44.3186058 L18.1052122,44.3186058 L18.1052122,38.7646439 L16.5922528,38.7646439 L16.5922528,44.3186058 Z M16.5922528,37.9050079 L18.1052122,37.9050079 L18.1052122,36.6492262 L16.5922528,36.6492262 L16.5922528,37.9050079 Z M13.8964342,44.3186058 L15.4093936,44.3186058 L15.4093936,36.6492262 L13.8964342,36.6492262 L13.8964342,44.3186058 Z M11.1455988,44.3186058 L12.6605231,44.3186058 L12.6605231,36.6492262 L11.1455988,36.6492262 L11.1455988,44.3186058 Z M7.74635231,41.3534557 L6.7874897,38.5388409 L6.765876,38.5388409 L5.77557528,41.3534557 L7.74635231,41.3534557 Z M7.65007307,36.6492262 L10.4971876,44.3186058 L8.76023162,44.3186058 L8.18452108,42.6112181 L5.33937139,42.6112181 L4.74204714,44.3186058 L3.05814294,44.3186058 L5.93473075,36.6492262 L7.65007307,36.6492262 Z M30.2226419,35.2330055 C30.5154094,35.0369134 30.7413708,34.7160354 30.9044561,34.2644294 L33.2072982,28.0231548 L31.641287,28.0231548 L30.4368141,31.826153 L30.4152004,31.826153 L29.1675,28.0231548 L27.5602263,28.0231548 L29.4877759,33.23247 C29.5310033,33.3394293 29.5506521,33.4543116 29.5506521,33.5771167 C29.5506521,33.7415172 29.5034949,33.8920525 29.4072157,34.026742 C29.3109365,34.165393 29.1635703,34.2446221 28.967082,34.2644294 C28.8157861,34.2703716 28.666455,34.2664101 28.517124,34.252545 C28.3697578,34.2406607 28.2243565,34.2248148 28.0809201,34.2109497 L28.0809201,35.4687122 C28.2381107,35.4825773 28.3913715,35.4944616 28.5446323,35.5043653 C28.6978932,35.5162496 28.851154,35.5202111 29.0083446,35.5202111 C29.5270735,35.5202111 29.9318393,35.4251361 30.2226419,35.2330055 L30.2226419,35.2330055 Z M24.7032873,29.0214418 C25.3497336,29.0214418 25.7230612,29.3403391 25.8213053,29.9781336 L27.3028267,29.9781336 C27.281213,29.6196218 27.196723,29.3086474 27.047392,29.049172 C26.8980609,28.7877159 26.7035375,28.5678551 26.4677516,28.3915703 C26.228036,28.2192469 25.9588471,28.0865381 25.6562552,28.0013668 C25.3536633,27.9142148 25.041247,27.8726195 24.7131117,27.8726195 C24.2670834,27.8726195 23.8682123,27.9478872 23.5204281,28.0984225 C23.170679,28.2469771 22.8759467,28.458915 22.6342661,28.7263133 C22.3925856,28.9937116 22.2118164,29.3126089 22.0860639,29.6830051 C21.9622763,30.0514205 21.8994001,30.4515276 21.8994001,30.8793649 C21.8994001,31.2953178 21.968171,31.6775984 22.101783,32.0242258 C22.2373599,32.3708532 22.4259886,32.6719239 22.6676691,32.9214957 C22.9093497,33.1730482 23.2021171,33.3671595 23.5459715,33.5058105 C23.8917908,33.6464422 24.2690483,33.7157677 24.6816736,33.7157677 C25.4126098,33.7157677 26.0138638,33.5216563 26.4815058,33.1354143 C26.9511127,32.7511531 27.2360207,32.1866455 27.3362297,31.4478339 L25.8743572,31.4478339 C25.8252351,31.7924806 25.7014475,32.0678018 25.5069242,32.2698361 C25.3124008,32.4758318 25.0333875,32.5788297 24.6718492,32.5788297 C24.4360633,32.5788297 24.2376101,32.5233693 24.07256,32.41641 C23.9094748,32.3094507 23.7797925,32.1727804 23.6854782,32.0024378 C23.589199,31.8360566 23.5204281,31.6459067 23.4772007,31.439911 C23.4359381,31.2319345 23.4123595,31.0279195 23.4123595,30.8258852 C23.4123595,30.6179088 23.4359381,30.4079516 23.4772007,30.1979944 C23.5204281,29.9860565 23.5931287,29.7919451 23.6953026,29.6196218 C23.7994414,29.443337 23.9310885,29.2987438 24.0961386,29.187823 C24.2592239,29.0769022 24.4616067,29.0214418 24.7032873,29.0214418 L24.7032873,29.0214418 Z M19.4491918,33.5771167 L20.9621512,33.5771167 L20.9621512,28.0231548 L19.4491918,28.0231548 L19.4491918,33.5771167 Z M19.4491918,27.1615381 L20.9641161,27.1615381 L20.9641161,25.9057564 L19.4491918,25.9057564 L19.4491918,27.1615381 Z M16.6983564,33.5771167 L18.2113159,33.5771167 L18.2113159,25.9057564 L16.6983564,25.9057564 L16.6983564,33.5771167 Z M11.6800468,31.4537761 C11.7232742,31.6676947 11.79401,31.8558639 11.8981488,32.0242258 C12.0003227,32.1925877 12.1378644,32.3272772 12.3088092,32.4282944 C12.479754,32.5273308 12.6919613,32.5788297 12.947396,32.5788297 C13.2047956,32.5788297 13.4189677,32.5273308 13.5918774,32.4282944 C13.7667519,32.3272772 13.9062586,32.1925877 14.0084325,32.0242258 C14.1106063,31.8558639 14.183307,31.6676947 14.2265344,31.4537761 C14.2697618,31.2438189 14.2894106,31.0279195 14.2894106,30.8040972 C14.2894106,30.5842364 14.2697618,30.3663563 14.2265344,30.1484762 C14.183307,29.9345575 14.1106063,29.7444076 14.0084325,29.5800072 C13.9062586,29.4156068 13.7667519,29.2809172 13.5918774,29.1779194 C13.4189677,29.0729408 13.2047956,29.0214418 12.947396,29.0214418 C12.6919613,29.0214418 12.479754,29.0729408 12.3088092,29.1779194 C12.1378644,29.2809172 12.0003227,29.4156068 11.8981488,29.5800072 C11.79401,29.7444076 11.7232742,29.9345575 11.6800468,30.1484762 C11.6368194,30.3663563 11.6171706,30.5842364 11.6171706,30.8040972 C11.6171706,31.0279195 11.6368194,31.2438189 11.6800468,31.4537761 L11.6800468,31.4537761 Z M10.3046292,29.595853 C10.4402061,29.2353605 10.6327645,28.9263669 10.8803397,28.6728337 C11.1279149,28.4173197 11.426577,28.2212276 11.7763261,28.0805959 C12.1241103,27.941945 12.5151218,27.8726195 12.947396,27.8726195 C13.381635,27.8726195 13.7746115,27.941945 14.1263254,28.0805959 C14.4780393,28.2212276 14.7767015,28.4173197 15.0262415,28.6728337 C15.2738167,28.9263669 15.4663752,29.2353605 15.6019521,29.595853 C15.737529,29.9583263 15.804335,30.3623948 15.804335,30.8040972 C15.804335,31.2497611 15.737529,31.6498682 15.6019521,32.00838 C15.4663752,32.3649111 15.2738167,32.6739047 15.0262415,32.9274379 C14.7767015,33.1789904 14.4780393,33.3770632 14.1263254,33.5117527 C13.7746115,33.6484229 13.381635,33.7157677 12.947396,33.7157677 C12.5151218,33.7157677 12.1241103,33.6484229 11.7763261,33.5117527 C11.426577,33.3770632 11.1279149,33.1789904 10.8803397,32.9274379 C10.6327645,32.6739047 10.4402061,32.3649111 10.3046292,32.00838 C10.1710172,31.6498682 10.1022463,31.2497611 10.1022463,30.8040972 C10.1022463,30.3623948 10.1710172,29.9583263 10.3046292,29.595853 L10.3046292,29.595853 Z M6.83071712,29.5166239 C7.02327559,29.5166239 7.20797453,29.5007781 7.38481395,29.4730479 C7.56361824,29.4453177 7.71884395,29.3878766 7.85245595,29.304686 C7.98803284,29.2234761 8.09806625,29.1085939 8.17862643,28.9580585 C8.26115149,28.8055425 8.30241402,28.6094504 8.30241402,28.3658208 C8.30241402,28.124172 8.26115149,27.9260991 8.17862643,27.7755638 C8.09806625,27.6250285 7.98803284,27.5081655 7.85245595,27.4249749 C7.71884395,27.343765 7.56361824,27.2883047 7.38481395,27.2585937 C7.20797453,27.2308635 7.02327559,27.2169984 6.83071712,27.2169984 L5.52996498,27.2169984 L5.52996498,29.5166239 L6.83071712,29.5166239 Z M7.28853471,25.9057564 C7.76600113,25.9057564 8.1707669,25.9750819 8.50479691,26.1157136 C8.83686203,26.2543645 9.10998068,26.440553 9.32022309,26.6683367 C9.52850063,26.8981012 9.68176145,27.1595573 9.77804069,27.4527051 C9.87431993,27.7458529 9.9214771,28.050885 9.9214771,28.3658208 C9.9214771,28.6748144 9.87431993,28.9758851 9.77804069,29.2749751 C9.68176145,29.5701036 9.52850063,29.8355211 9.32022309,30.0633049 C9.10998068,30.2930694 8.83686203,30.4772771 8.50479691,30.6159281 C8.1707669,30.7565598 7.76600113,30.8258852 7.28853471,30.8258852 L5.52996498,30.8258852 L5.52996498,33.5771167 L3.85785007,33.5771167 L3.85785007,25.9057564 L7.28853471,25.9057564 Z M42.9039928,21.3936575 C43.067078,21.3065055 43.2046198,21.193604 43.3087586,21.0490108 C43.4168271,20.9063984 43.4973873,20.7439787 43.5484742,20.5617517 C43.6034909,20.3795247 43.6290344,20.187394 43.6290344,19.9873405 C43.6290344,19.757576 43.6093856,19.5396959 43.5661581,19.3356809 C43.5229307,19.1316659 43.452195,18.9514196 43.3539508,18.7929614 C43.2537418,18.6364838 43.1220947,18.511698 42.9590095,18.416623 C42.7959243,18.3255095 42.5876467,18.277972 42.3400715,18.277972 C42.1278642,18.277972 41.9431653,18.3215481 41.7918694,18.4067194 C41.6386085,18.4938714 41.5108912,18.6087537 41.4087173,18.7573083 C41.3045785,18.9038822 41.229913,19.0702633 41.1827558,19.262394 C41.1375635,19.4505631 41.1139849,19.648636 41.1139849,19.8566124 C41.1139849,20.056666 41.1355986,20.2567195 41.1729314,20.4547923 C41.2122291,20.6508844 41.2790351,20.82915 41.3753143,20.9856275 C41.4715935,21.142105 41.597346,21.2728331 41.7545366,21.3718695 C41.9097623,21.4728866 42.1062505,21.5224048 42.3400715,21.5224048 C42.5542437,21.5224048 42.7409075,21.4808096 42.9039928,21.3936575 L42.9039928,21.3936575 Z M44.9789086,23.2416769 C44.9179972,23.5269018 44.7863501,23.7943001 44.5898619,24.0418911 C44.3894439,24.2894822 44.102571,24.4994393 43.7253136,24.669782 C43.3500211,24.8421053 42.8450463,24.9272766 42.2123542,24.9272766 C41.9431653,24.9272766 41.6661169,24.8936043 41.3871036,24.8262595 C41.1041605,24.756934 40.8487258,24.6519554 40.6188346,24.509343 C40.3869784,24.3667306 40.19442,24.1805421 40.043124,23.9567198 C39.8898632,23.7289361 39.8034084,23.459557 39.7817947,23.146602 L41.2849297,23.146602 C41.3556655,23.4318268 41.4951721,23.6298997 41.7014848,23.7408204 C41.9077974,23.8517412 42.1455482,23.9072016 42.4147371,23.9072016 C42.8411165,23.9072016 43.151568,23.7784543 43.3480562,23.5209596 C43.5445444,23.2634649 43.6368939,22.9386255 43.6290344,22.5424799 L43.6290344,21.8135719 L43.6093856,21.8135719 C43.4463003,22.1067197 43.2124793,22.322619 42.9098874,22.4632507 C42.6092604,22.6019017 42.2909495,22.6732079 41.9569195,22.6732079 C41.5442942,22.6732079 41.1886505,22.599921 40.8919532,22.4513664 C40.5932911,22.3047925 40.3476808,22.1047389 40.1551223,21.8512057 C39.9625639,21.5956918 39.8230572,21.2985826 39.7346375,20.959878 C39.6462178,20.6191928 39.6029904,20.2587002 39.6029904,19.8784004 C39.6029904,19.5198886 39.6540773,19.1752419 39.7562512,18.8424796 C39.86039,18.5097172 40.009721,18.2165695 40.2081742,17.9610555 C40.4085922,17.7075223 40.6542025,17.505488 40.9489348,17.3549527 C41.2456321,17.2044174 41.5835918,17.127169 41.9687088,17.127169 C42.3282822,17.127169 42.6465932,17.1964944 42.9216767,17.331184 C43.1947954,17.4698349 43.4227217,17.6976187 43.6093856,18.0204774 L43.6290344,18.0204774 L43.6290344,17.279685 L45.0692932,17.279685 L45.0692932,22.4790966 C45.0692932,22.7009381 45.037855,22.9544713 44.9789086,23.2416769 L44.9789086,23.2416769 Z M38.7816695,22.8336469 L38.7816695,17.279685 L37.2667452,17.279685 L37.2667452,20.1893748 C37.2667452,20.755863 37.1743958,21.163893 36.9916617,21.4095033 C36.8049979,21.6570944 36.5063357,21.7798995 36.0956753,21.7798995 C35.7321721,21.7798995 35.4806671,21.666998 35.3391956,21.4431757 C35.1957592,21.215392 35.1250234,20.8747067 35.1250234,20.4171585 L35.1250234,17.279685 L33.612064,17.279685 L33.612064,20.6944605 C33.612064,21.0391072 33.6415372,21.3520622 33.7044135,21.6353064 C33.7633599,21.9185505 33.8694636,22.1582186 34.0168298,22.3543107 C34.1661608,22.5523835 34.3705086,22.7048996 34.6298731,22.8118589 C34.8892375,22.9188182 35.2213027,22.9722979 35.6260684,22.9722979 C35.9443794,22.9722979 36.2607254,22.9009917 36.5652822,22.7583792 C36.869839,22.6137861 37.1174142,22.3820409 37.3099726,22.0591822 L37.3414108,22.0591822 L37.3414108,22.8336469 L38.7816695,22.8336469 Z M29.3050418,17.279685 L29.3050418,22.8336469 L30.8199661,22.8336469 L30.8199661,20.3300065 C30.8199661,20.0804347 30.8455096,19.8467088 30.8946317,19.6327901 C30.9437537,19.4168908 31.0262788,19.2287216 31.1441717,19.0682826 C31.2640295,18.9058629 31.4172904,18.7790963 31.607884,18.6860021 C31.8004424,18.5929078 32.0342634,18.5473511 32.3132767,18.5473511 C32.4056262,18.5473511 32.4999406,18.5513125 32.6001496,18.5631969 C32.7003586,18.5731005 32.7848485,18.5869656 32.8555843,18.6008307 L32.8555843,17.1826293 C32.7357265,17.1469762 32.6237282,17.1291497 32.525484,17.1291497 C32.3329256,17.1291497 32.1501915,17.1568799 31.9713872,17.214321 C31.7925829,17.2717621 31.6255679,17.352972 31.4703422,17.4559698 C31.3151165,17.5609484 31.1756098,17.6857343 31.0537871,17.8323082 C30.9339293,17.9788821 30.8376501,18.1393211 30.7669143,18.3096637 L30.7453006,18.3096637 L30.7453006,17.279685 L29.3050418,17.279685 Z M24.8938809,21.4154455 C25.1355614,21.4154455 25.3713473,21.375831 25.5973088,21.2966018 C25.8252351,21.2173727 26.027618,21.0866446 26.2044574,20.9044176 C26.3832617,20.7221906 26.5247332,20.4845033 26.6308369,20.1893748 C26.7389054,19.896227 26.7919572,19.5396959 26.7919572,19.1158201 C26.7919572,18.7295781 26.7546245,18.3809699 26.6799589,18.0699956 C26.6033285,17.7570405 26.4815058,17.4916229 26.3125259,17.2678007 C26.1415812,17.0459591 25.9156197,16.8756165 25.6346415,16.7567728 C25.3536633,16.6399098 25.007844,16.580488 24.5952187,16.580488 L23.4025351,16.580488 L23.4025351,21.4154455 L24.8938809,21.4154455 Z M25.0117738,15.1622866 C25.5010295,15.1622866 25.9588471,15.2415157 26.3812968,15.3979932 C26.8037465,15.5564515 27.1711795,15.7941389 27.4796661,16.1070939 C27.7881526,16.4220297 28.0298331,16.8181753 28.2047077,17.2895887 C28.3776173,17.7629827 28.466037,18.3175866 28.466037,18.9553811 C28.466037,19.5139464 28.3933364,20.0289358 28.2518649,20.5023298 C28.1103933,20.9737431 27.8942563,21.3817731 27.6073834,21.7264199 C27.3205106,22.0710666 26.9589722,22.3404456 26.5306279,22.5385184 C26.1003186,22.7346105 25.593379,22.8336469 25.0117738,22.8336469 L21.7284553,22.8336469 L21.7284553,15.1622866 L25.0117738,15.1622866 Z" id="Fill-22" fill-opacity="0.5"></path>
            </g>
        </g>
    </g>
</svg>