<?xml version="1.0" encoding="UTF-8"?>
<svg width="188px" height="50px" viewBox="0 0 188 50" version="1.1" xmlns="http://www.w3.org/2000/svg" xmlns:xlink="http://www.w3.org/1999/xlink">
    <!-- Generator: Sketch 47.1 (45422) - http://www.bohemiancoding.com/sketch -->
    <title>harvard-logo</title>
    <desc>Created with Sketch.</desc>
    <defs></defs>
    <g id="Client-Logos" stroke="none" stroke-width="1" fill="none" fill-rule="evenodd">
        <g id="harvard-logo" fill="#818181">
            <g id="Page-1" transform="translate(20.601544, 7.366568)">
                <path d="M59.0964078,25.3950394 C59.0964078,25.0854666 58.8941012,24.8563827 58.4805411,24.7671529 L58.4805411,24.5668411 C58.7095055,24.5668411 59.4719898,24.5974342 59.6865298,24.5974342 C59.8720385,24.5974342 60.6104213,24.5668411 60.8401161,24.5668411 L60.8401161,24.7671529 C60.4563177,24.8418146 60.2547413,25.0678027 60.2547413,25.3950394 L60.2547413,29.3249749 C60.2547413,30.5694576 60.9399913,31.2729162 62.3733012,31.2729162 C63.6083213,31.2729162 64.569278,30.7198735 64.569278,29.4174826 L64.569278,25.3797428 C64.569278,25.0878339 64.3854127,24.8563827 63.9227366,24.7671529 L63.9227366,24.5668411 C64.091082,24.5668411 64.7215558,24.5974342 64.9368261,24.5974342 C65.1206915,24.5974342 65.7823877,24.5668411 65.9516461,24.5668411 L65.9516461,24.7671529 C65.5052202,24.8733182 65.3067479,25.0725374 65.3067479,25.3797428 L65.3067479,29.2009637 C65.3067479,30.915997 64.3063524,31.9009848 62.1476233,31.9009848 C60.1378855,31.9009848 59.0964078,30.9899303 59.0964078,29.3786949 L59.0964078,25.3950394 Z" id="Fill-1"></path>
                <path d="M67.7171369,31.5929052 C68.1847429,31.5060427 68.3693386,31.2698569 68.3693386,30.9803153 L68.3693386,25.5485875 C68.3693386,25.0878703 68.1233936,24.8806386 67.7041733,24.7664609 L67.7041733,24.5661491 C67.9413541,24.583813 68.3393943,24.5941928 68.5426139,24.5941928 C68.7272096,24.5941928 69.0142368,24.591097 69.2075967,24.5661491 L73.9314939,30.1056811 L73.9314939,25.3797792 C73.9314939,25.0885987 73.7461679,24.8571475 73.2851351,24.7664609 L73.2851351,24.5661491 C73.4543935,24.5661491 74.0622264,24.5974706 74.2782271,24.5974706 C74.4661094,24.5974706 75.1173981,24.5661491 75.2890301,24.5661491 L75.2890301,24.7664609 C74.8384048,24.8724441 74.6209434,25.0734843 74.6209434,25.3797792 L74.6209434,31.9008391 L74.3362899,31.9008391 C74.1571718,31.8598662 73.818655,31.667749 73.302846,31.103416 L69.0763164,26.1934094 L69.0763164,30.9803153 C69.0763164,31.2713137 69.2446619,31.5020365 69.7058773,31.5929052 L69.7058773,31.7939454 C69.5366189,31.7939454 68.9287859,31.7618956 68.7127852,31.7618956 C68.5265462,31.7618956 67.888769,31.7939454 67.7171369,31.7939454 L67.7171369,31.5929052 Z" id="Fill-3"></path>
                <path d="M104.992397,30.1280796 L105.19233,30.1280796 C105.298048,30.5339842 105.530846,30.9040147 105.857312,31.117802 C106.196925,31.3565373 106.729714,31.470715 107.160073,31.470715 C108.110439,31.470715 108.712794,31.001257 108.712794,30.2582823 C108.712794,29.4889028 107.941181,29.0893718 107.016742,28.6286547 C106.328935,28.2853931 104.977972,27.7186928 104.977972,26.4161197 C104.977972,25.2027764 105.905881,24.4479651 107.38995,24.4479651 C108.369348,24.4479651 108.82892,24.6867004 109.489886,24.6561073 L109.477105,26.128217 L109.275346,26.128217 C109.010959,25.2606848 108.221087,24.958396 107.355989,24.958396 C106.388641,24.958396 106.026753,25.510164 106.026753,26.0712192 C106.026753,26.8744695 106.814983,27.2794636 107.708199,27.6768094 C108.712794,28.1229584 109.802658,28.686563 109.802658,29.9416075 C109.802658,31.1298207 108.870732,31.990251 107.167376,31.990251 C106.154017,31.990251 105.546184,31.7016199 105.013394,31.6362454 L104.992397,30.1280796 Z" id="Fill-5"></path>
                <path d="M126.394142,28.6751816 L126.394324,30.9658382 C126.394324,31.2094902 126.580563,31.5157852 127.001244,31.5928142 L127.001244,31.7940365 C126.766802,31.7940365 126.001032,31.7618045 125.779371,31.7618045 C125.592949,31.7618045 124.858583,31.7940365 124.593466,31.7940365 L124.593466,31.5928142 C125.015791,31.5157852 125.21828,31.2094902 125.21828,30.9658382 L125.219193,28.6859256 L123.369767,25.7264097 C123.041657,25.1861141 122.790235,24.9013072 122.424147,24.7663699 L122.424147,24.5667865 C122.687803,24.5667865 123.399711,24.59829 123.601835,24.59829 C123.784788,24.59829 124.553115,24.5667865 124.830465,24.5667865 L124.830465,24.7663699 C124.58452,24.80971 124.469307,24.9326287 124.469307,25.1176439 C124.469307,25.280807 124.580503,25.4907702 124.692611,25.673236 C124.802164,25.854063 126.110584,28.0185231 126.110584,28.0185231 L127.476884,25.6741466 C127.61492,25.4392354 127.712422,25.2061453 127.712422,25.0524515 C127.712422,24.9125975 127.613094,24.7967808 127.380113,24.7663699 L127.380113,24.5667865 C127.611634,24.5667865 128.097681,24.59829 128.252515,24.59829 C128.407166,24.59829 128.965883,24.5667865 129.195578,24.5667865 L129.195578,24.7527122 C128.670092,24.9674101 128.341983,25.4272167 128.02355,25.9602282 L126.394142,28.6751816 Z" id="Fill-7"></path>
                <path d="M89.5534398,24.5668775 L94.06371,24.5668775 C94.2032066,24.5668775 94.4475084,24.5508526 94.5868225,24.4905769 L94.7885814,24.4905769 L94.7569938,25.9521247 L94.5570607,25.9521247 C94.3854287,25.4923181 94.2072236,25.1241085 93.3342739,25.1241085 L91.3760257,25.1241085 L91.3760257,27.6711642 L92.8852919,27.6711642 C93.1053095,27.6711642 93.3720695,27.6525899 93.4874646,27.6252746 C93.8267117,27.5513413 93.9760681,27.3630482 94.0445383,27.0745992 L94.2459321,27.0745992 C94.2315077,27.2947601 94.2315077,27.7973607 94.2315077,27.9461377 C94.2315077,28.0956432 94.2459321,28.6246484 94.2459321,28.8642942 L94.0445383,28.8642942 C93.9475845,28.5763915 93.8155739,28.3576874 93.4874646,28.2773806 C93.3720695,28.2467875 93.1005623,28.2218396 92.8852919,28.2218396 L91.3760257,28.2218396 L91.3760257,31.2095813 L93.5059059,31.2095813 C94.436188,31.2095813 94.7064171,30.8227974 94.9375726,30.2761282 L95.1367752,30.3225642 L94.9375726,31.8238101 C94.2459321,31.762624 93.8309112,31.762624 93.0456035,31.762624 L90.7950331,31.762624 C90.5781194,31.762624 89.7824042,31.7941275 89.5510662,31.7941275 L89.5510662,31.5938157 C89.9573228,31.5166046 90.1945036,31.3162928 90.1945036,30.9280521 L90.1945036,25.4023598 C90.1945036,25.0598267 90.0097253,24.8458572 89.5534398,24.7695566 L89.5534398,24.5668775 Z" id="Fill-9"></path>
                <path d="M78.033846,25.4416392 C78.033846,25.0710623 77.8121851,24.8669264 77.3776274,24.7735082 L77.3776274,24.5750174 C77.6195555,24.5750174 78.4024896,24.6054284 78.6305411,24.6054284 C78.8215274,24.6054284 79.6261894,24.5750174 79.8712215,24.5750174 L79.8712215,24.7735082 C79.4390374,24.8669264 79.2124467,25.0515775 79.2124467,25.4416392 L79.2124467,30.928908 C79.2124467,31.2994848 79.4350205,31.5012535 79.8712215,31.5928506 L79.8712215,31.7940729 C79.6269197,31.7940729 78.855306,31.7625693 78.6305411,31.7625693 C78.4360857,31.7625693 77.6195555,31.7940729 77.3768971,31.7940729 L77.3768971,31.5928506 C77.8211318,31.5101765 78.033846,31.3164203 78.033846,30.928908 L78.033846,25.4416392 Z" id="Fill-11"></path>
                <path d="M112.24845,25.4416392 C112.24845,25.0710623 112.024233,24.8669264 111.590589,24.7735082 L111.590589,24.5750174 C111.832517,24.5750174 112.615999,24.6054284 112.842407,24.6054284 C113.035219,24.6054284 113.839698,24.5750174 114.084,24.5750174 L114.084,24.7735082 C113.651999,24.8669264 113.426138,25.0515775 113.426138,25.4416392 L113.426138,30.928908 C113.426138,31.2994848 113.648712,31.5012535 114.084,31.5928506 L114.084,31.7940729 C113.841342,31.7940729 113.070641,31.7625693 112.842407,31.7625693 C112.651421,31.7625693 111.832517,31.7940729 111.590589,31.7940729 L111.590589,31.5928506 C112.03391,31.5101765 112.24845,31.3164203 112.24845,30.928908 L112.24845,25.4416392 Z" id="Fill-13"></path>
                <path d="M118.517584,24.5974524 C116.04517,24.5974524 115.649503,24.5515628 115.143919,24.5202413 L115.148119,26.0092864 L115.349512,26.0092864 C115.534108,25.349168 115.902569,25.1956563 116.379852,25.1956563 L117.930748,25.1956563 L117.930748,30.9289444 C117.930748,31.3162746 117.718034,31.5102129 117.273069,31.592887 L117.273069,31.7941093 C117.517188,31.7941093 118.341022,31.7626057 118.531278,31.7626057 C118.757868,31.7626057 119.531856,31.7941093 119.772871,31.7941093 L119.772871,31.592887 C119.335757,31.5012899 119.114279,31.2995213 119.114279,30.9289444 L119.114279,25.1956563 L120.652941,25.1956563 C121.147936,25.1956563 121.501972,25.3637361 121.686385,26.0092864 L121.885588,26.0092864 L121.888875,24.5202413 C121.386577,24.5515628 120.99091,24.5974524 118.517584,24.5974524" id="Fill-15"></path>
                <path d="M98.7885202,30.9288716 C98.7885202,31.2994484 99.0246055,31.5004886 99.4608065,31.5928142 L99.4608065,31.7940365 C99.2188784,31.7940365 98.428093,31.7625329 98.2024151,31.7625329 C98.0088727,31.7625329 97.2367112,31.7940365 96.9933224,31.7940365 L96.9933224,31.5928142 C97.3979357,31.5157852 97.6363947,31.3163839 97.6363947,30.9288716 L97.6363947,25.3855154 C97.6363947,25.0446212 97.4503383,24.8299233 96.9949657,24.7527122 L96.9949657,24.5533109 C97.2367112,24.5533109 98.0015692,24.5837219 98.2177525,24.5837219 C98.5717891,24.5837219 99.5776623,24.5243568 99.9735115,24.5243568 C101.70663,24.5243568 102.671603,25.2391057 102.671603,26.4642856 C102.671603,27.4274212 101.953305,28.0787988 100.847191,28.3448493 C100.847191,28.3448493 101.09971,28.4910769 101.351132,28.7829858 C101.656783,29.1422724 102.482078,30.3235657 102.824611,30.7365722 C103.166597,31.1508535 103.604259,31.6130275 104.073326,31.6339691 L104.073326,31.7954933 C103.848561,31.8444786 103.488133,31.8872725 103.212427,31.8872725 C102.623948,31.8872725 102.154151,31.6798588 101.697865,31.1291834 C101.302929,30.6498919 100.633017,29.6554348 100.238628,29.1528343 C99.9864751,28.8328817 99.6808241,28.5828561 99.1213768,28.4910769 C99.0132851,28.4726846 98.9110363,28.4573881 98.7885202,28.443002 L98.7885202,30.9288716 Z M98.7885202,27.9830133 C99.0191279,28.0143348 99.358375,28.0289029 99.6937878,28.0289029 C101.050594,28.0289029 101.477848,27.2506005 101.477848,26.56171 C101.477848,25.5872841 100.825464,24.983435 99.6380987,24.983435 C99.3923362,24.983435 99.0359259,25.0140281 98.7885202,25.060464 L98.7885202,27.9830133 Z" id="Fill-17"></path>
                <path d="M81.6091051,25.46493 C81.4511672,25.1160232 81.2085087,24.8603525 80.7949486,24.7696659 L80.7949486,24.5660763 C81.0520314,24.5660763 81.9428746,24.5983082 82.1386082,24.5983082 C82.3186392,24.5983082 83.0971912,24.5660763 83.3617601,24.5660763 L83.3617601,24.7638386 C83.1269529,24.8088177 82.8594626,24.938292 82.8594626,25.1779378 C82.8594626,25.3491133 82.9633548,25.5823855 83.1625574,26.0214326 L85.0295121,30.2582094 L86.7965914,26.0141485 C86.9360881,25.6716153 87.0368763,25.4062932 87.0368763,25.2036141 C87.0368763,24.979447 86.8296397,24.8241143 86.5360394,24.7638386 L86.5360394,24.5660763 C86.7708466,24.5660763 87.3463616,24.5983082 87.5252972,24.5983082 C87.6888953,24.5983082 88.3644681,24.5660763 88.6224639,24.5660763 L88.6224639,24.7696659 C88.1815157,24.8885783 87.9129299,25.1305914 87.6655242,25.7038473 L85.064934,31.8195489 L84.4764553,31.8195489 L81.6091051,25.46493 Z" id="Fill-19"></path>
                <path d="M88.2765706,6.17745227 C87.976032,5.5156949 87.5148166,5.03330764 86.7337084,4.86049318 L86.7337084,4.47534821 C87.2197557,4.47534821 88.8336443,4.53325653 89.204479,4.53325653 C89.5462824,4.53325653 91.1094118,4.47534821 91.6075098,4.47534821 L91.6075098,4.8508418 C91.1656487,4.93697587 90.6578735,5.18299519 90.6578735,5.63715669 C90.6578735,5.95783769 90.8578066,6.40107309 91.2286413,7.23145659 L94.7699209,15.2608644 L98.1209447,7.21779896 C98.3822271,6.56660348 98.5772302,6.06891969 98.5772302,5.68377472 C98.5772302,5.25601795 98.1806507,4.96593004 97.6252203,4.8508418 L97.6252203,4.47534821 C98.0685422,4.47534821 99.1463547,4.53325653 99.4888884,4.53325653 C99.8001996,4.53325653 101.080319,4.47534821 101.567279,4.47534821 L101.567279,4.83882309 C100.732125,5.06481123 100.221063,5.54319225 99.7558309,6.62924645 L94.829627,18.2220192 L93.7147492,18.2220192 L88.2765706,6.17745227 Z" id="Fill-21"></path>
                <path d="M40.5917928,17.7805684 C41.2350477,17.6341587 41.6873163,17.3424318 41.6873163,16.6156642 L41.6873163,5.98766594 C41.6873163,5.28985244 41.2664527,5.00031083 40.5917928,4.82512904 L40.5917928,4.44799654 C40.9295792,4.44799654 42.384617,4.50517646 42.7384711,4.50517646 C43.146371,4.50517646 44.6715223,4.44799654 45.006935,4.44799654 L45.006935,4.82512904 C44.3644105,4.97062826 43.8880404,5.26162668 43.8880404,5.98766594 L43.8880404,10.427304 L51.8267513,10.427304 L51.8267513,5.98766594 C51.8267513,5.26162668 51.4035141,4.97062826 50.7328711,4.82512904 L50.7328711,4.44799654 C51.0681013,4.44799654 52.5660471,4.50517646 52.9730341,4.50517646 C53.3245145,4.50517646 54.8135135,4.44799654 55.1456397,4.44799654 L55.1456397,4.82512904 C54.5023849,4.97062826 54.0258321,5.26162668 54.0258321,5.98766594 L54.0258321,16.6156642 C54.0258321,17.3134777 54.4731709,17.606115 55.1456397,17.7805684 L55.1456397,18.1285646 C54.8135135,18.1285646 53.3245145,18.0997926 52.9730341,18.0997926 C52.5660471,18.0997926 51.0681013,18.1285646 50.7328711,18.1285646 L50.7328711,17.7805684 C51.3713787,17.6341587 51.8267513,17.3424318 51.8267513,16.6156642 L51.8267513,11.5929366 L43.8880404,11.5929366 L43.8880404,16.6156642 C43.8880404,17.3424318 44.3346488,17.606115 45.006935,17.7805684 L45.006935,18.1285646 C44.6715223,18.1285646 43.146371,18.0997926 42.7384711,18.0997926 C42.384617,18.0997926 40.9295792,18.1285646 40.5917928,18.1285646 L40.5917928,17.7805684 Z" id="Fill-23"></path>
                <path d="M132.41775,17.7805684 C133.241584,17.6341587 133.695496,17.3078325 133.695496,16.5577559 L133.695496,5.98766594 C133.695496,5.25925936 133.247974,4.97062826 132.451711,4.82512904 L132.451711,4.44799654 C132.910188,4.44799654 134.403204,4.50517646 134.816764,4.50517646 C135.484303,4.50517646 137.346328,4.35967724 138.795888,4.35967724 C143.679366,4.35967724 146.644218,7.07954739 146.644218,11.2152578 C146.644218,15.2351516 143.559224,18.2139703 138.524015,18.2139703 C137.072264,18.2139703 135.350466,18.0997926 134.676537,18.0997926 C134.266994,18.0997926 132.874766,18.1575188 132.41775,18.1575188 L132.41775,17.7805684 Z M135.894576,17.0802055 C136.391944,17.1703458 137.310906,17.2266152 138.035594,17.2266152 C142.137965,17.2266152 144.273505,14.7640547 144.273505,11.3294356 C144.273505,7.76862001 142.020379,5.2632656 138.184768,5.2632656 C137.401104,5.2632656 136.421888,5.32190233 135.894576,5.407308 L135.894576,17.0802055 Z" id="Fill-25"></path>
                <path d="M77.1407022,16.5190957 C77.1407022,17.2234648 77.5880409,17.6060604 78.4111443,17.7805138 L78.4111443,18.1576463 C77.9524851,18.1576463 76.4587388,18.0997379 76.029111,18.0997379 C75.6663102,18.0997379 74.2006823,18.1576463 73.7429361,18.1576463 L73.7429361,17.7805138 C74.5070637,17.6342861 74.9576891,17.2547863 74.9576891,16.5190957 L74.9576891,6.02476004 C74.9576891,5.37902761 74.6078519,4.97075573 73.7443968,4.82507441 L73.7443968,4.44794191 C74.2032385,4.44794191 75.6509728,4.50512183 76.0572295,4.50512183 C76.7287854,4.50512183 78.6329878,4.39349352 79.3841517,4.39349352 C82.6683485,4.39349352 84.4965947,5.74814765 84.4965947,8.06520896 C84.4965947,9.89187055 83.1326679,11.1210566 81.0393051,11.6283918 C81.0393051,11.6283918 81.514032,11.9042758 81.9918628,12.4596858 C82.5715773,13.1391071 84.1710416,15.4224796 84.817583,16.2046061 C85.4639419,16.9878253 86.2934358,17.8624595 87.180262,17.902704 L87.180262,18.2108199 C86.7553815,18.302235 86.0750614,18.3803566 85.5550529,18.3803566 C84.4354279,18.3803566 83.546228,17.9895664 82.6813122,16.944303 C81.9356259,16.0374368 80.6312226,14.1095267 79.883893,13.1576814 C79.4067925,12.551283 78.8312775,12.0787292 77.7744625,11.9042758 C77.5663131,11.868766 77.3705795,11.8414507 77.1407022,11.8157744 L77.1407022,16.5190957 Z M77.1407022,10.9451465 C77.5752598,11.0021443 78.2176018,11.0310984 78.8546487,11.0310984 C81.4229209,11.0310984 82.229774,9.55662142 82.229774,8.25404837 C82.229774,6.40425987 80.9947538,5.26321097 78.7449138,5.26321097 C78.2813247,5.26321097 77.6059345,5.3220298 77.1407022,5.40725337 L77.1407022,10.9451465 Z" id="Fill-27"></path>
                <path d="M120.426552,16.5190957 C120.426552,17.2234648 120.875534,17.6060604 121.69955,17.7805138 L121.69955,18.1576463 C121.241621,18.1576463 119.749335,18.0997379 119.319708,18.0997379 C118.950516,18.0997379 117.489818,18.1576463 117.030246,18.1576463 L117.030246,17.7805138 C117.792913,17.6342861 118.244451,17.2547863 118.244451,16.5190957 L118.244451,6.02476004 C118.244451,5.37902761 117.891328,4.97075573 117.032802,4.82507441 L117.032802,4.44794191 C117.493105,4.44794191 118.936092,4.50512183 119.345635,4.50512183 C120.018652,4.50512183 121.921759,4.39349352 122.668358,4.39349352 C125.958215,4.39349352 127.780801,5.74814765 127.780801,8.06520896 C127.780801,9.89187055 126.420161,11.1210566 124.325154,11.6283918 C124.325154,11.6283918 124.802255,11.9042758 125.276251,12.4596858 C125.861444,13.1391071 127.460725,15.4224796 128.104893,16.2046061 C128.753808,16.9878253 129.583302,17.8624595 130.465198,17.902704 L130.465198,18.2108199 C130.046161,18.302235 129.361824,18.3803566 128.847293,18.3803566 C127.725294,18.3803566 126.832077,17.9895664 125.969353,16.944303 C125.223666,16.0374368 123.923463,14.1095267 123.169742,13.1576814 C122.692459,12.551283 122.11877,12.0787292 121.064146,11.9042758 C120.853075,11.868766 120.65935,11.8414507 120.426552,11.8157744 L120.426552,16.5190957 Z M120.426552,10.9451465 C120.866587,11.0021443 121.505094,11.0310984 122.142689,11.0310984 C124.712057,11.0310984 125.516536,9.55662142 125.516536,8.25404837 C125.516536,6.40425987 124.280603,5.26321097 122.034963,5.26321097 C121.567174,5.26321097 120.894888,5.3220298 120.426552,5.40725337 L120.426552,10.9451465 Z" id="Fill-29"></path>
                <path d="M57.234237,17.7780736 C58.1031697,17.5755766 58.5804528,17.0143393 58.8972417,16.2633521 L63.2939426,5.71274709 C63.4809119,5.27624945 63.6985559,4.37885255 63.6985559,4.37885255 L64.9288288,4.37885255 C64.9288288,4.37885255 65.1488465,5.27861677 65.3317989,5.71602492 L69.9782792,16.2923063 C70.309675,17.0207129 70.6682764,17.5466224 71.5921679,17.7780736 L71.5897942,18.1295298 C71.0867664,18.1295298 69.5229066,18.1005756 69.1672266,18.1005756 C68.8133725,18.1005756 67.3196263,18.1295298 66.8175113,18.1295298 L66.8191546,17.7780736 C67.4954578,17.6125432 67.7090849,17.2692816 67.7090849,16.9371282 C67.7090849,16.6550528 67.592229,16.336557 67.4503587,16.0062246 L66.4514239,13.7339603 L61.3316774,13.7339603 L60.4169153,16.0189717 C60.3144839,16.2779203 60.1926982,16.6437625 60.1926982,16.8905102 C60.1926982,17.2716489 60.3926312,17.5755766 61.1600454,17.7780736 L61.1584021,18.1295298 C60.7037599,18.1295298 59.5034313,18.1005756 59.222247,18.1005756 L57.2335067,18.1295298 L57.234237,17.7780736 Z M65.9880175,12.656647 L63.8017177,7.57637531 L61.7655047,12.656647 L65.9880175,12.656647 Z" id="Fill-31"></path>
                <path d="M100.79163,17.7780736 C101.660015,17.5755766 102.138759,17.0143393 102.453904,16.2633521 L106.852066,5.71274709 C107.039218,5.27624945 107.259236,4.37885255 107.259236,4.37885255 L108.489326,4.37885255 C108.489326,4.37885255 108.707153,5.27861677 108.889375,5.71602492 L113.537498,16.2923063 C113.866155,17.0207129 114.228226,17.5466224 115.1481,17.7780736 L115.146457,18.1295298 C114.645072,18.1295298 113.079569,18.1005756 112.721516,18.1005756 C112.370948,18.1005756 110.877932,18.1295298 110.374904,18.1295298 L110.374904,17.7780736 C111.055407,17.6125432 111.265748,17.2692816 111.265748,16.9371282 C111.265748,16.6550528 111.150352,16.336557 111.011038,16.0062246 L110.008269,13.7339603 L104.88834,13.7339603 L103.972665,16.0189717 C103.870234,16.2779203 103.749361,16.6437625 103.749361,16.8905102 C103.749361,17.2716489 103.949294,17.5755766 104.716708,17.7780736 L104.716708,18.1295298 C104.260423,18.1295298 103.06192,18.1005756 102.77891,18.1005756 L100.789987,18.1295298 L100.79163,17.7780736 Z M109.545411,12.656647 L107.35765,7.57637531 L105.322898,12.656647 L109.545411,12.656647 Z" id="Fill-33"></path>
                <path d="M-2.84217094e-14,0.182138064 L30.655486,0.182138064 L30.655486,11.7313885 C30.655486,17.0230802 28.6804398,28.245094 15.4421339,36.5970038 C15.4421339,36.5970038 1.09789712,30.6224309 -2.84217094e-14,11.7313885 L-2.84217094e-14,0.182138064 Z M3.75172648,4.81791782 C3.26270644,4.76802197 3.21185743,5.68545005 3.21185743,5.68545005 L3.15930715,13.1173823 C3.18596035,13.4639218 3.31374448,13.4132975 3.31374448,13.4132975 C3.80352064,13.1423303 3.72507328,12.5956611 3.72507328,12.5956611 C3.72507328,12.5956611 3.80352064,5.55998202 3.80352064,5.4361529 C3.80352064,5.31232378 3.75172648,4.81791782 3.75172648,4.81791782 Z M2.91177362,13.4873036 C2.91177362,13.4873036 2.96015924,6.50152036 2.93678808,6.37678073 C2.91177362,6.25459053 2.96015924,6.47730084 2.96015924,6.47730084 C2.96015924,6.47730084 2.88767211,5.26486809 3.2099386,4.76809481 C3.2099386,4.76809481 3.11006337,4.34671161 2.53856529,4.86606549 L2.51592447,5.88237477 C2.51592447,5.88237477 2.51592447,6.45235291 1.992812,6.42740499 C1.992812,6.42740499 1.39629946,6.40172866 1.122236,6.67597373 C1.122236,6.67597373 0.973792571,7.22009344 1.54382996,7.12212276 C1.54382996,7.12212276 2.43942041,7.12212276 2.48853638,7.49106069 L2.43942041,11.2328853 C2.43942041,11.2328853 2.63844051,11.8520309 1.94205275,11.8520309 C1.94205275,11.8520309 1.0979519,11.8045023 1.122236,12.3247667 C1.122236,12.3247667 1.29624165,12.7709157 2.01782646,12.6214103 C2.01782646,12.6214103 2.53856529,12.7210199 2.51592447,13.213969 L2.51592447,14.1578019 C2.51592447,14.1578019 2.46352193,14.5300176 2.96015924,14.5525982 L6.83593876,14.5525982 C6.83593876,14.5525982 7.0344111,14.5773641 7.0344111,14.3289774 C7.0344111,14.3289774 7.00921406,14.1335823 6.71269237,14.1335823 L3.48491499,14.0822297 C3.48491499,14.0822297 2.96015924,14.2559547 2.91177362,13.4873036 Z M3.58247136,13.5378915 C3.58247136,13.5378915 3.48405683,13.8860698 3.85489154,13.8095871 L6.41348664,13.8095871 L7.10914406,13.9576357 C7.10914406,13.9576357 7.83145921,13.7846392 7.10914406,13.3874755 C7.10914406,13.3874755 4.82388206,13.4140623 4.62467937,13.3641665 C4.62467937,13.3641665 4.15396945,13.2405195 4.05409422,13.2153894 C4.05409422,13.2153894 3.80504522,13.1174188 3.58247136,13.5378915 Z M7.83074712,13.885997 C7.83074712,13.885997 7.35766356,13.885997 7.38249543,14.5018647 C7.38249543,14.5018647 7.43252433,14.975329 7.92824871,14.975329 C7.92824871,14.975329 8.37577006,14.8983 8.32738444,14.4053508 C8.32738444,14.4053508 8.05313839,13.7847484 7.83074712,13.885997 Z M8.17737075,13.6359714 C8.1023274,14.0821204 8.87302817,13.909306 8.87302817,13.909306 C9.02055867,13.909306 11.8298461,13.885997 11.8298461,13.885997 C12.2757241,14.0098261 12.3000082,13.7847484 12.3000082,13.7847484 C12.3000082,13.611934 11.9275302,13.3151083 11.9275302,13.3151083 C11.8298461,13.241175 11.4559074,13.3151083 11.4559074,13.3151083 C11.0335831,13.611934 8.55057909,13.3883132 8.55057909,13.3883132 C8.39994461,13.3883132 8.17737075,13.6359714 8.17737075,13.6359714 Z M8.57482668,14.3796745 C8.62394265,14.6522807 8.97304946,14.552489 8.97304946,14.552489 C9.29458561,14.6256938 12.7473105,14.5774369 12.7473105,14.5774369 C13.2687797,14.6522807 13.2196637,13.9584734 13.2196637,13.9584734 C13.294707,12.7957544 13.392939,12.669558 13.392939,12.669558 C13.5170983,12.5706768 14.088779,12.5965352 14.088779,12.5965352 C15.008471,12.646249 14.5845034,12.026375 14.5845034,12.026375 C14.4619873,11.8286126 13.8411907,11.8542889 13.8411907,11.8542889 C13.2430348,11.8768695 13.294707,11.2577239 13.294707,11.2577239 L13.3688375,7.66649741 C13.294707,7.36821492 13.543756,7.22016628 13.543756,7.22016628 L14.1145238,7.22016628 C14.9085957,7.27079054 14.7077498,6.77401726 14.7077498,6.77401726 C14.6836482,6.52635902 14.0137356,6.42747783 14.0137356,6.42747783 C13.3430927,6.52635902 13.4172231,6.15487167 13.4172231,6.15487167 L13.392939,5.28733944 C13.4913535,4.7182718 13.1214317,4.69478069 13.1214317,4.69478069 C12.6974642,4.54454683 12.6974642,4.94080001 12.6974642,4.94080001 C12.796609,5.0172827 12.8707395,5.38785954 12.8707395,5.38785954 C12.9045181,6.24828981 12.8658096,7.17682609 12.8610623,8.06111167 C12.8497419,11.0342852 12.722296,13.735581 12.722296,13.735581 C12.722296,14.3281397 12.4007599,14.1569642 12.4007599,14.1569642 L8.92064692,14.1826405 C8.57482668,14.1826405 8.57482668,14.3796745 8.57482668,14.3796745 Z M4.10242507,4.59276735 L4.02993793,12.5456924 C4.02993793,12.5456924 4.00492348,12.9148125 4.62553753,12.9894741 C4.62553753,12.9894741 5.34712234,13.0643179 5.51966729,12.9894741 C5.51966729,12.9894741 5.99037721,12.9654367 7.20841675,13.0153326 C7.20841675,13.0153326 7.50676431,13.3110656 7.53086583,12.9413993 C7.53086583,12.9413993 7.73006851,6.49900735 7.63074105,5.16201709 C7.63074105,5.16201709 7.60663953,4.59276735 7.18267194,4.56781942 C7.18267194,4.56781942 5.29636308,4.71586806 5.12217485,4.56781942 L4.37813181,4.36914653 C4.37813181,4.36914653 4.07832355,4.39263764 4.10242507,4.59276735 Z M11.9766827,4.89028501 L11.9523986,12.719381 C11.9523986,12.719381 12.1516013,13.4150093 12.4756937,13.3408939 C12.4756937,13.3408939 12.5248096,13.1913884 12.5490938,12.9420913 L12.6498819,5.48448268 C12.6498819,5.48448268 12.4006503,4.29517684 11.9766827,4.89028501 Z M8.029822,4.95697063 C8.029822,4.95697063 7.95496123,8.6971563 7.97833239,8.82262433 L7.93140747,11.9693407 L7.8308019,13.0563054 C7.8308019,13.0563054 7.97833239,13.2822936 8.10322207,13.132606 C8.10322207,13.132606 8.8989373,12.9355721 9.39539203,13.008959 C9.39539203,13.008959 10.9859095,13.1584645 11.3076283,12.9098957 C11.3076283,12.9098957 11.5559469,13.0329964 11.6308077,12.6365612 C11.6308077,12.6365612 11.7292222,5.70140215 11.6799237,5.57684463 C11.6799237,5.57684463 11.7799815,4.5871222 11.7292222,4.48915151 C11.7292222,4.48915151 11.7042078,4.26389178 11.2842571,4.46092576 C11.2842571,4.46092576 11.3324601,4.66105546 8.97379807,4.5871222 C8.97379807,4.5871222 8.07912056,4.56144586 8.029822,4.95697063 Z M18.5317954,4.81631533 C18.0410837,4.76714788 17.9892199,5.68621488 17.9892199,5.68621488 L17.9386859,13.1157798 C17.963003,13.4623193 18.0938975,13.4140623 18.0938975,13.4140623 C18.5828994,13.1407278 18.5067184,12.5956975 18.5067184,12.5956975 C18.5067184,12.5956975 18.5828994,5.56074684 18.5828994,5.43782824 C18.5828994,5.3123602 18.5317954,4.81631533 18.5317954,4.81631533 Z M17.6896551,13.4873036 C17.6896551,13.4873036 17.7389537,6.50152036 17.7155825,6.37769124 C17.6896551,6.25550104 17.7389537,6.47893975 17.7389537,6.47893975 C17.7389537,6.47893975 17.6646407,5.26322918 17.9880027,4.76645589 C17.9880027,4.76645589 17.8872145,4.34762211 17.3164468,4.866976 L17.2914323,5.88146426 C17.2914323,5.88146426 17.2914323,6.45235291 16.7706935,6.42740499 C16.7706935,6.42740499 16.174181,6.40172866 15.9008479,6.67433482 C15.9008479,6.67433482 15.7518567,7.22009344 16.3224418,7.12212276 C16.3224418,7.12212276 17.2173019,7.12212276 17.2673308,7.49106069 L17.2173019,11.2328853 C17.2173019,11.2328853 17.416322,11.8551266 16.7215775,11.8551266 C16.7215775,11.8551266 15.8743727,11.802135 15.9008479,12.3223994 C15.9008479,12.3223994 16.0757665,12.7676379 16.795708,12.6204998 C16.795708,12.6204998 17.3164468,12.7177421 17.2914323,13.2154259 L17.2914323,14.156163 C17.2914323,14.156163 17.2414034,14.5300176 17.7389537,14.5533266 L21.6138203,14.5533266 C21.6138203,14.5533266 21.8113797,14.5773641 21.8113797,14.3297058 C21.8113797,14.3297058 21.7872782,14.1321255 21.4896609,14.1321255 L18.2611532,14.0822297 C18.2611532,14.0822297 17.7389537,14.2566831 17.6896551,13.4873036 Z M18.4353415,13.4760133 C18.4353415,13.4760133 18.3354662,13.8225527 18.7077616,13.7500763 L21.2665393,13.7500763 L21.9605535,13.9004922 C21.9605535,13.9004922 22.680495,13.7253105 21.9605535,13.3296036 C21.9605535,13.3296036 19.6760218,13.3521842 19.4777321,13.3039273 C19.4777321,13.3039273 19.0053788,13.1808265 18.9036778,13.1560607 C18.9036778,13.1560607 18.6579153,13.0571795 18.4353415,13.4760133 Z M22.6812071,13.8233176 C22.6812071,13.8233176 22.2095842,13.8233176 22.2338683,14.44392 C22.2338683,14.44392 22.2837146,14.9126496 22.7803519,14.9126496 C22.7803519,14.9126496 23.2260474,14.8396268 23.1785747,14.3443104 C23.1785747,14.3443104 22.9045113,13.7251648 22.6812071,13.8233176 Z M23.0294375,13.5764788 C22.9529334,14.0218994 23.7243645,13.8498134 23.7243645,13.8498134 C23.8735383,13.8498134 26.6804521,13.8224981 26.6804521,13.8224981 C27.1277908,13.949423 27.1520749,13.7252558 27.1520749,13.7252558 C27.1520749,13.5515309 26.7803273,13.2548873 26.7803273,13.2548873 C26.6804521,13.180954 26.3056005,13.2548873 26.3056005,13.2548873 C25.8863801,13.5515309 23.4026458,13.3297311 23.4026458,13.3297311 C23.2527417,13.3297311 23.0294375,13.5764788 23.0294375,13.5764788 Z M23.3519048,14.3796745 C23.4019337,14.6537375 23.7493972,14.5533995 23.7493972,14.5533995 C24.0718463,14.6264222 27.525119,14.5774369 27.525119,14.5774369 C28.0475011,14.6537375 27.9967418,13.9599302 27.9967418,13.9599302 C28.0710548,12.7941155 28.17093,12.6711969 28.17093,12.6711969 C28.2950894,12.5706768 28.8665875,12.5965352 28.8665875,12.5965352 C29.7871924,12.646249 29.3623118,12.0272855 29.3623118,12.0272855 C29.2374222,11.8286126 28.6175385,11.8542889 28.6175385,11.8542889 C28.0210259,11.8775979 28.0710548,11.2593628 28.0710548,11.2593628 L28.1451852,7.66649741 C28.0710548,7.36821492 28.3184605,7.22016628 28.3184605,7.22016628 L28.8923323,7.22016628 C29.6856739,7.27079054 29.4873841,6.77310675 29.4873841,6.77310675 C29.4607264,6.52708743 28.7908138,6.42674942 28.7908138,6.42674942 C28.1218141,6.52708743 28.1966749,6.15323275 28.1966749,6.15323275 L28.17093,5.28988886 C28.2700749,4.7182718 27.8975969,4.69332387 27.8975969,4.69332387 C27.4745423,4.54454683 27.4745423,4.9400716 27.4745423,4.9400716 C27.5744175,5.01564378 27.6518345,5.38785954 27.6518345,5.38785954 C27.6832395,6.24828981 27.6428877,7.17682609 27.6388708,8.06202218 C27.6275504,11.0351957 27.5002871,13.735581 27.5002871,13.735581 C27.5002871,14.3290503 27.1761947,14.1553253 27.1761947,14.1553253 L23.7000987,14.1793627 C23.3519048,14.1793627 23.3519048,14.3796745 23.3519048,14.3796745 Z M18.8819134,4.59116485 L18.80687,12.5457289 C18.80687,12.5457289 18.7827685,12.9148489 19.4035651,12.9895106 C19.4035651,12.9895106 20.1233241,13.0634438 20.295869,12.9895106 C20.295869,12.9895106 20.7707784,12.9638342 21.9855314,13.0144585 C21.9855314,13.0144585 22.2853397,13.3143799 22.3103541,12.9397968 C22.3103541,12.9397968 22.5070006,6.5014111 22.4104119,5.16041459 C22.4104119,5.16041459 22.3830238,4.59116485 21.9621602,4.56621693 C21.9621602,4.56621693 20.0742081,4.7182718 19.9002024,4.56621693 L19.1545161,4.37009346 C19.1545161,4.37009346 18.8561685,4.39413087 18.8819134,4.59116485 Z M22.8054029,4.98916621 C22.8054029,4.98916621 22.7312725,8.73008027 22.7561044,8.85390939 L22.7069884,11.999169 L22.6062002,13.0901399 C22.6062002,13.0901399 22.7561044,13.3126681 22.8804463,13.1648016 C22.8804463,13.1648016 23.6752486,12.9637614 24.1717033,13.041883 C24.1717033,13.041883 25.7631337,13.1890211 26.0846699,12.939724 C26.0846699,12.939724 26.3337189,13.0635531 26.4063886,12.6671178 C26.4063886,12.6671178 26.5046206,5.73286932 26.4587912,5.6090402 C26.4587912,5.6090402 26.5546495,4.61531153 26.5046206,4.51879766 C26.5046206,4.51879766 26.4828927,4.29608735 26.0596554,4.49312133 C26.0596554,4.49312133 26.1080411,4.69252263 23.7501093,4.61531153 C23.7501093,4.61531153 22.8561622,4.59109201 22.8054029,4.98916621 Z M26.756171,4.89108626 L26.7320695,12.7178149 C26.7320695,12.7178149 26.9303592,13.4139895 27.2528083,13.3409667 C27.2528083,13.3409667 27.301194,13.1905508 27.3252955,12.9428925 L27.4260836,5.48528392 C27.4260836,5.48528392 27.1761217,4.29852751 26.756171,4.89108626 Z M15.8250924,28.8996037 C15.7259475,29.2468715 16.1241703,29.296039 16.1241703,29.296039 C16.7957262,29.2468715 21.0673549,29.2710911 21.0673549,29.2710911 C21.7372675,29.3200764 21.8106676,28.9993954 21.8106676,28.9993954 C21.9372006,28.8996037 21.8354995,28.3287151 21.8354995,28.3287151 C21.8855284,28.2065248 21.9613021,27.5110787 21.9613021,27.5110787 C21.8855284,27.2144351 22.9295622,27.2402935 22.9295622,27.2402935 C23.4751329,27.2144351 23.2770258,26.7191186 23.2770258,26.7191186 C23.2770258,26.4973188 22.5079683,26.5229952 22.5079683,26.5229952 C21.8855284,26.5479431 21.8855284,26.1498689 21.8855284,26.1498689 C21.8855284,26.1498689 21.9613021,22.7804422 21.9105428,22.3095273 C21.8597836,21.8406156 22.257276,21.7641329 22.257276,21.7641329 L22.8545189,21.7160581 C23.3018576,21.7907197 23.3018576,21.3429318 23.3018576,21.3429318 C23.3018576,21.1468083 22.6562291,21.0712361 22.6562291,21.0712361 C22.3578816,21.1468083 22.211264,20.9971208 22.211264,20.9971208 C21.8354995,20.9971208 21.8855284,20.2776372 21.8855284,20.2776372 C22.0604469,19.9294588 21.8597836,19.3369001 21.8597836,19.3369001 C21.7863835,19.1633572 21.3397751,19.2897358 21.3397751,19.2897358 C21.3397751,19.2897358 21.389804,19.2897358 21.2890158,19.2631489 C21.1898709,19.2396578 21.1898709,19.4359634 21.1898709,19.4359634 C21.5130504,19.7599222 21.4155488,20.2776372 21.4155488,20.2776372 C21.389804,26.893572 21.4155488,27.1414123 21.4155488,27.1414123 L21.3397751,27.3872496 C21.3397751,27.3872496 21.3147606,28.056291 21.3147606,28.2564207 C21.3147606,28.4534547 21.1898709,28.6013212 21.1898709,28.6013212 L20.8940796,28.6992919 C20.6941466,28.8746558 19.4277214,28.776503 19.4277214,28.776503 C19.4277214,28.776503 16.5223931,28.84989 16.323373,28.8007225 C16.1241703,28.7491877 15.8250924,28.8996037 15.8250924,28.8996037 Z M15.0568566,28.4292352 C14.7077498,28.50244 14.583773,28.8996037 14.6602771,29.222652 C14.7336771,29.5444256 15.0060973,29.6174484 15.2536856,29.5677346 C15.503465,29.5185672 15.4784505,29.2951285 15.4784505,28.8996037 C15.4784505,28.50244 15.0568566,28.4292352 15.0568566,28.4292352 Z M15.5526357,28.231491 C15.4785053,28.6503248 16.2482931,28.5281346 16.2482931,28.5281346 C16.3708092,28.5031866 20.4207769,28.5031866 20.4207769,28.5031866 C20.8447445,28.5281346 20.8166261,28.2828436 20.8166261,28.2828436 L20.4457914,27.8849516 C20.3466465,27.711955 20.1717279,27.7594835 20.1717279,27.7594835 C19.9993656,27.9840149 19.4026704,27.9840149 19.4026704,27.9840149 C19.4026704,27.9840149 19.8249947,27.8849516 19.1302503,28.0095091 C18.4329496,28.1309709 16.1732498,27.9840149 16.1732498,27.9840149 C15.9992441,27.932298 15.5526357,28.231491 15.5526357,28.231491 Z M9.68107795,19.4367282 C9.32203602,19.6842043 9.29774844,20.2543646 9.29774844,20.2543646 L9.1930671,27.8849698 C9.1930671,28.304532 9.42502287,28.0328363 9.42502287,28.0328363 C9.86069306,27.7119732 9.7825586,27.2151999 9.7825586,27.2151999 L9.834711,19.7342823 C9.86069306,19.4367282 9.68107795,19.4367282 9.68107795,19.4367282 Z M9.26889558,19.4865148 C9.44308382,19.3120614 8.82064389,19.2896629 8.82064389,19.2896629 C8.52320926,19.3379199 8.54822371,20.6024337 8.54822371,20.6024337 C8.52320926,21.2201224 7.97745598,21.1217876 7.97745598,21.1217876 C7.25678411,21.022178 7.00846545,21.4692375 7.00846545,21.4692375 C6.95861913,21.8873429 7.67837806,21.8873429 7.67837806,21.8873429 C7.80491103,21.8414533 8.20076018,21.8614844 8.20076018,21.8614844 C8.62472777,21.8873429 8.54822371,22.53435 8.54822371,22.53435 L8.47482364,26.1982351 C8.59825262,26.6950084 7.97745598,26.5953988 7.97745598,26.5953988 C7.13189443,26.5471418 7.00846545,26.9186292 7.00846545,26.9186292 C7.0334799,27.4387115 7.9025952,27.289206 7.9025952,27.289206 C8.52320926,27.360772 8.47482364,27.712046 8.47482364,27.712046 C8.52320926,27.8360573 8.52320926,28.5032777 8.52320926,28.5032777 C8.52320926,29.2227613 8.72076866,29.2478913 8.72076866,29.2478913 C8.79654237,29.3939368 10.0386834,29.3209141 10.0386834,29.3209141 C11.9008908,29.3939368 13.9621182,29.197085 13.9621182,29.197085 C14.237825,29.2478913 14.237825,29.0732558 14.237825,29.0732558 C14.3846251,28.874765 13.9887759,28.8013781 13.9887759,28.8013781 C13.7147125,28.725988 9.34229566,28.8239587 9.34229566,28.8239587 C8.89568725,28.975103 8.94553357,28.3794486 8.94553357,28.3794486 L8.94553357,27.0422762 C8.9207017,26.8428749 8.94553357,26.2497698 8.94553357,26.2497698 C8.94553357,26.2497698 8.99556247,23.1278193 8.97054802,23.0047186 C8.94553357,22.880161 8.97054802,21.8148664 8.97054802,21.8148664 L8.99556247,20.1571952 C8.97054802,20.0324555 9.26889558,19.4865148 9.26889558,19.4865148 Z M10.0129751,27.685532 L9.81541573,27.8599854 C9.34141924,28.4292352 9.6397668,28.4805878 9.6397668,28.4805878 L10.0878359,28.4534547 L14.1620878,28.50244 C14.6070529,28.6013212 14.6601858,28.3044955 14.6601858,28.3044955 C14.6837395,28.1083721 14.3087053,28.0819673 14.3087053,28.0819673 L10.93358,28.0337104 C10.361169,28.0553805 10.0129751,27.685532 10.0129751,27.685532 Z M20.4458462,27.3615186 C20.4458462,27.3615186 20.7440111,27.9324072 20.8931849,28.0103467 C20.8931849,28.0103467 21.166518,28.3295709 21.0923876,27.7603212 L21.1415036,20.6250325 C21.1415036,20.6250325 21.0664602,20.3766458 21.1415036,19.9818495 L20.844069,19.4366372 C20.844069,19.4366372 20.5199766,19.189161 20.5199766,19.5846858 L20.4708606,27.1910715 L20.4458462,27.3615186 Z M14.9319486,23.9695295 L15.1561658,23.9423963 L15.2043688,25.2052712 C15.3027833,26.3470485 15.2043688,27.5103138 15.2043688,27.5103138 C15.2043688,27.8319053 15.3285281,27.8561249 15.3285281,27.8561249 C15.9243103,27.5844292 16.4700636,27.6099234 16.4700636,27.6099234 C19.9001477,27.7088046 19.3534814,27.634143 19.3534814,27.634143 C20.2209535,27.5844292 20.1716549,27.0390348 20.1716549,27.0390348 L20.1208956,25.8003794 C20.1983126,25.5277732 20.1983126,21.6637585 20.1983126,21.6637585 C20.0967941,21.2698726 20.1983126,19.1609535 20.1983126,19.1609535 C20.1983126,18.96483 19.9001477,18.9398821 19.9001477,18.9398821 C18.7803401,19.5082213 18.70694,19.1866298 18.3353749,19.2607452 C17.9605233,19.3346784 16.621611,19.2607452 16.5224662,19.2132167 C16.421678,19.1609535 15.8008813,19.2365257 15.8008813,19.2365257 C15.4019282,19.285511 15.3027833,19.5837935 15.3027833,19.5837935 L15.2777689,21.2190663 L15.2043688,21.591282 L15.0294502,21.7143827 L14.8811894,21.2190663 L14.9060212,19.6843136 C14.7594037,19.1376445 14.262036,19.2365257 14.262036,19.2365257 C13.9379437,19.1376445 12.6724314,19.2365257 12.6724314,19.2365257 C12.1007508,19.3113694 11.5035079,19.2132167 11.5035079,19.2132167 C10.6829608,19.3346784 10.5361606,19.0613439 10.5361606,19.0613439 C10.1129234,18.9132952 10.1129234,19.1609535 10.1129234,19.1609535 C10.1879668,19.3601727 10.1629523,19.756608 10.1629523,19.756608 C10.2120683,19.9545524 10.1379378,21.6637585 10.1379378,21.6637585 C10.0879089,21.8365729 10.1379378,23.6938276 10.1379378,23.6938276 C10.2120683,23.820024 10.0879089,27.2136703 10.0879089,27.2136703 C10.1629523,27.6607298 11.031885,27.634143 11.031885,27.634143 C11.1310299,27.7337526 14.3095087,27.6607298 14.3095087,27.6607298 C14.8335341,27.8825296 14.8561749,27.634143 14.8561749,27.634143 C14.981795,26.8920788 14.8408376,25.444917 14.8811894,25.1306096 C14.9569631,24.5620882 14.9319486,23.9695295 14.9319486,23.9695295 Z" id="Combined-Shape" fill-opacity="0.5"></path>
                <path d="M23.2027675,15.0228939 C23.2027675,15.0228939 22.9294344,15.891883 21.7139511,14.9986744 L17.5405544,14.8981543 C17.5405544,14.8981543 16.9940708,15.0735182 16.9197577,14.5033579 C16.9197577,14.5033579 17.0198156,13.3643122 16.9690563,13.2645205 C16.9690563,13.2645205 16.9940708,12.942929 16.4457613,12.942929 C16.4457613,12.942929 15.6025733,13.0418102 15.5775589,12.2973786 C15.5775589,12.2973786 15.430211,11.5046902 16.5965783,11.5310949 C16.5965783,11.5310949 16.9690563,11.7039094 16.9940708,11.232084 C16.9940708,11.232084 16.9449548,8.01052384 16.9690563,7.76450452 C16.9690563,7.76450452 17.0689315,7.46858935 16.4965205,7.41796509 C16.4965205,7.41796509 15.6776167,7.59077955 15.5775589,7.04738824 C15.5775589,7.04738824 15.5284429,6.22975186 16.0758395,6.17912761 C16.0758395,6.17912761 16.7457521,6.22975186 16.8697288,6.05529849 C16.8697288,6.05529849 17.0198156,6.15326917 16.9940708,5.56162093 L17.0198156,4.54367274 C17.0198156,4.54367274 17.0915723,4.27197709 17.5148096,4.29856393 C17.5148096,4.29856393 18.2853278,4.34754927 18.3861159,4.27197709 C18.3861159,4.27197709 18.5579305,4.05017729 18.6086898,3.94947508 C18.6086898,3.94947508 19.0069126,3.92543766 19.0803127,4.02504726 C19.0803127,4.02504726 19.6768252,4.42148254 21.9370727,4.27197709 C21.9370727,4.27197709 22.2854492,4.27197709 22.3579363,4.37176879 C22.3579363,4.37176879 22.7819039,4.69317819 23.0294922,4.34754927 C23.0294922,4.34754927 23.4019702,4.27197709 24.5192216,4.29856393 C24.5192216,4.29856393 25.7379915,4.61924493 26.580449,3.92543766 L26.8545125,3.97533351 C26.8545125,3.97533351 27.201976,4.54367274 27.4502947,4.37176879 C27.4502947,4.37176879 28.195981,4.29856393 28.3192274,4.44643047 C28.3192274,4.44643047 28.5668157,4.8155505 28.4433867,5.78505965 C28.4433867,5.78505965 28.2960388,6.20480394 29.0157978,6.20480394 C29.0157978,6.20480394 29.8365274,6.05529849 29.7355567,6.82303902 C29.7355567,6.82303902 29.9588609,7.69057125 28.5942038,7.56747054 C28.5942038,7.56747054 28.4192852,7.81512877 28.4433867,7.98885374 C28.4433867,7.98885374 28.4192852,10.8116113 28.3942708,11.1355701 C28.3942708,11.1355701 28.3699867,11.5819013 28.9650385,11.5560428 C28.9650385,11.5560428 29.7607537,11.5046902 29.7872289,12.2241738 C29.7872289,12.2241738 29.8856434,13.1656393 28.7417343,12.9911859 C28.7417343,12.9911859 28.3942708,13.0418102 28.3425986,13.2645205 L28.2960388,14.5033579 C28.2960388,14.5033579 28.3192274,15.1225035 27.6252133,14.9729981 C27.5260684,14.9729981 23.7508945,15.0494808 23.4269847,14.9505996 C23.4269847,14.9505996 23.2511532,14.9256517 23.2027675,15.0228939 Z M18.5317954,4.81631533 C18.0410837,4.76714788 17.9892199,5.68621488 17.9892199,5.68621488 L17.9386859,13.1157798 C17.963003,13.4623193 18.0938975,13.4140623 18.0938975,13.4140623 C18.5828994,13.1407278 18.5067184,12.5956975 18.5067184,12.5956975 C18.5067184,12.5956975 18.5828994,5.56074684 18.5828994,5.43782824 C18.5828994,5.3123602 18.5317954,4.81631533 18.5317954,4.81631533 Z M17.6896551,13.4873036 C17.6896551,13.4873036 17.7389537,6.50152036 17.7155825,6.37769124 C17.6896551,6.25550104 17.7389537,6.47893975 17.7389537,6.47893975 C17.7389537,6.47893975 17.6646407,5.26322918 17.9880027,4.76645589 C17.9880027,4.76645589 17.8872145,4.34762211 17.3164468,4.866976 L17.2914323,5.88146426 C17.2914323,5.88146426 17.2914323,6.45235291 16.7706935,6.42740499 C16.7706935,6.42740499 16.174181,6.40172866 15.9008479,6.67433482 C15.9008479,6.67433482 15.7518567,7.22009344 16.3224418,7.12212276 C16.3224418,7.12212276 17.2173019,7.12212276 17.2673308,7.49106069 L17.2173019,11.2328853 C17.2173019,11.2328853 17.416322,11.8551266 16.7215775,11.8551266 C16.7215775,11.8551266 15.8743727,11.802135 15.9008479,12.3223994 C15.9008479,12.3223994 16.0757665,12.7676379 16.795708,12.6204998 C16.795708,12.6204998 17.3164468,12.7177421 17.2914323,13.2154259 L17.2914323,14.156163 C17.2914323,14.156163 17.2414034,14.5300176 17.7389537,14.5533266 L21.6138203,14.5533266 C21.6138203,14.5533266 21.8113797,14.5773641 21.8113797,14.3297058 C21.8113797,14.3297058 21.7872782,14.1321255 21.4896609,14.1321255 L18.2611532,14.0822297 C18.2611532,14.0822297 17.7389537,14.2566831 17.6896551,13.4873036 Z M18.4353415,13.4760133 C18.4353415,13.4760133 18.3354662,13.8225527 18.7077616,13.7500763 L21.2665393,13.7500763 L21.9605535,13.9004922 C21.9605535,13.9004922 22.680495,13.7253105 21.9605535,13.3296036 C21.9605535,13.3296036 19.6760218,13.3521842 19.4777321,13.3039273 C19.4777321,13.3039273 19.0053788,13.1808265 18.9036778,13.1560607 C18.9036778,13.1560607 18.6579153,13.0571795 18.4353415,13.4760133 Z M22.6812071,13.8233176 C22.6812071,13.8233176 22.2095842,13.8233176 22.2338683,14.44392 C22.2338683,14.44392 22.2837146,14.9126496 22.7803519,14.9126496 C22.7803519,14.9126496 23.2260474,14.8396268 23.1785747,14.3443104 C23.1785747,14.3443104 22.9045113,13.7251648 22.6812071,13.8233176 Z M23.0294375,13.5764788 C22.9529334,14.0218994 23.7243645,13.8498134 23.7243645,13.8498134 C23.8735383,13.8498134 26.6804521,13.8224981 26.6804521,13.8224981 C27.1277908,13.949423 27.1520749,13.7252558 27.1520749,13.7252558 C27.1520749,13.5515309 26.7803273,13.2548873 26.7803273,13.2548873 C26.6804521,13.180954 26.3056005,13.2548873 26.3056005,13.2548873 C25.8863801,13.5515309 23.4026458,13.3297311 23.4026458,13.3297311 C23.2527417,13.3297311 23.0294375,13.5764788 23.0294375,13.5764788 Z M23.3519048,14.3796745 C23.4019337,14.6537375 23.7493972,14.5533995 23.7493972,14.5533995 C24.0718463,14.6264222 27.525119,14.5774369 27.525119,14.5774369 C28.0475011,14.6537375 27.9967418,13.9599302 27.9967418,13.9599302 C28.0710548,12.7941155 28.17093,12.6711969 28.17093,12.6711969 C28.2950894,12.5706768 28.8665875,12.5965352 28.8665875,12.5965352 C29.7871924,12.646249 29.3623118,12.0272855 29.3623118,12.0272855 C29.2374222,11.8286126 28.6175385,11.8542889 28.6175385,11.8542889 C28.0210259,11.8775979 28.0710548,11.2593628 28.0710548,11.2593628 L28.1451852,7.66649741 C28.0710548,7.36821492 28.3184605,7.22016628 28.3184605,7.22016628 L28.8923323,7.22016628 C29.6856739,7.27079054 29.4873841,6.77310675 29.4873841,6.77310675 C29.4607264,6.52708743 28.7908138,6.42674942 28.7908138,6.42674942 C28.1218141,6.52708743 28.1966749,6.15323275 28.1966749,6.15323275 L28.17093,5.28988886 C28.2700749,4.7182718 27.8975969,4.69332387 27.8975969,4.69332387 C27.4745423,4.54454683 27.4745423,4.9400716 27.4745423,4.9400716 C27.5744175,5.01564378 27.6518345,5.38785954 27.6518345,5.38785954 C27.6832395,6.24828981 27.6428877,7.17682609 27.6388708,8.06202218 C27.6275504,11.0351957 27.5002871,13.735581 27.5002871,13.735581 C27.5002871,14.3290503 27.1761947,14.1553253 27.1761947,14.1553253 L23.7000987,14.1793627 C23.3519048,14.1793627 23.3519048,14.3796745 23.3519048,14.3796745 Z M18.8819134,4.59116485 L18.80687,12.5457289 C18.80687,12.5457289 18.7827685,12.9148489 19.4035651,12.9895106 C19.4035651,12.9895106 20.1233241,13.0634438 20.295869,12.9895106 C20.295869,12.9895106 20.7707784,12.9638342 21.9855314,13.0144585 C21.9855314,13.0144585 22.2853397,13.3143799 22.3103541,12.9397968 C22.3103541,12.9397968 22.5070006,6.5014111 22.4104119,5.16041459 C22.4104119,5.16041459 22.3830238,4.59116485 21.9621602,4.56621693 C21.9621602,4.56621693 20.0742081,4.7182718 19.9002024,4.56621693 L19.1545161,4.37009346 C19.1545161,4.37009346 18.8561685,4.39413087 18.8819134,4.59116485 Z M22.8054029,4.98916621 C22.8054029,4.98916621 22.7312725,8.73008027 22.7561044,8.85390939 L22.7069884,11.999169 L22.6062002,13.0901399 C22.6062002,13.0901399 22.7561044,13.3126681 22.8804463,13.1648016 C22.8804463,13.1648016 23.6752486,12.9637614 24.1717033,13.041883 C24.1717033,13.041883 25.7631337,13.1890211 26.0846699,12.939724 C26.0846699,12.939724 26.3337189,13.0635531 26.4063886,12.6671178 C26.4063886,12.6671178 26.5046206,5.73286932 26.4587912,5.6090402 C26.4587912,5.6090402 26.5546495,4.61531153 26.5046206,4.51879766 C26.5046206,4.51879766 26.4828927,4.29608735 26.0596554,4.49312133 C26.0596554,4.49312133 26.1080411,4.69252263 23.7501093,4.61531153 C23.7501093,4.61531153 22.8561622,4.59109201 22.8054029,4.98916621 Z M26.756171,4.89108626 L26.7320695,12.7178149 C26.7320695,12.7178149 26.9303592,13.4139895 27.2528083,13.3409667 C27.2528083,13.3409667 27.301194,13.1905508 27.3252955,12.9428925 L27.4260836,5.48528392 C27.4260836,5.48528392 27.1761217,4.29852751 26.756171,4.89108626 Z" id="Combined-Shape"></path>
                <path d="M23.7057589,7.23466157 C23.6316285,7.03689919 24.1280832,7.01195126 24.1280832,7.01195126 L24.3773148,7.06093661 C24.551503,7.03689919 24.7255087,7.11156086 24.7255087,7.11156086 C24.8989666,7.38343862 24.600619,7.53130515 24.600619,7.53130515 L24.5014741,7.85453557 C24.4757293,8.12787014 24.5014741,10.4811697 24.5014741,10.4811697 C24.551503,10.6033599 24.7497928,10.8253418 24.7497928,10.8253418 C24.7497928,11.0495089 24.4757293,11.0005236 24.4757293,11.0005236 L23.7565181,11.0254715 C23.5324836,11.0005236 23.606614,10.7519548 23.606614,10.7519548 C23.8549327,10.6283078 23.929976,10.1812483 23.929976,10.1812483 L23.929976,7.72997805 L23.7057589,7.23466157 Z" id="Fill-74"></path>
                <path d="M20.3531284,9.53886651 L20.3040124,10.306607 L20.5256733,10.677366 C20.6764904,10.8751284 20.4272588,11.0255443 20.4272588,11.0255443 L19.6324565,10.951429 C19.484926,10.8751284 19.6324565,10.6281985 19.6324565,10.6281985 C19.8316592,10.5061904 19.856491,10.1820495 19.856491,10.1820495 L19.8316592,8.74544965 L19.856491,7.70510296 C19.856491,7.58036334 19.6582013,7.35929194 19.6582013,7.35929194 C19.484926,7.33434401 19.534042,7.1116337 19.534042,7.1116337 C19.5833405,6.98707618 20.0040215,7.06100945 20.0040215,7.06100945 L21.0487858,7.06100945 C22.0427908,7.38351146 21.893617,8.10208454 21.893617,8.10208454 C21.9686603,8.81938292 21.1986899,9.11839382 21.1986899,9.11839382 L21.1472003,9.5148291 L21.8686025,10.6524181 C21.9927619,10.7520277 21.9686603,10.8525478 21.9686603,10.8525478 C21.8686025,11.1251539 21.4703797,10.8525478 21.4703797,10.8525478 L20.5773455,9.46420484 C20.5023021,9.36441314 20.3531284,9.53886651 20.3531284,9.53886651 L20.3531284,9.53886651 Z M20.3781428,7.58036334 C20.4022443,8.12703247 20.4022443,8.87000718 20.4022443,8.87000718 C20.8755105,9.24222294 21.1472003,8.72050173 21.1472003,8.72050173 C21.767084,8.12703247 21.1472003,7.58036334 21.0487858,7.43322521 C20.9479976,7.28371976 20.4515429,7.40754888 20.4515429,7.40754888 L20.3781428,7.58036334 Z" id="Fill-76"></path>
                <path d="M15.1794457,19.1633936 C15.1794457,19.1633936 15.3536339,19.0901888 15.4027499,18.9679986 C15.4027499,18.9679986 15.925132,18.9171922 15.9983495,18.8434411 L17.6388959,18.9679986 C17.6388959,18.9679986 19.2527846,19.0901888 19.948442,18.592505 C19.948442,18.592505 20.1984039,18.592505 20.3724096,18.6680772 C20.3724096,18.6680772 20.7182298,18.7436494 20.8173747,18.8900591 L21.7622637,18.8651111 C21.7622637,18.8651111 22.3087473,19.0402929 22.2579881,19.3875608 L22.2579881,19.832253 C22.2579881,19.832253 22.1581129,20.7247331 22.4064315,20.7753574 L23.1285641,20.7753574 C23.1285641,20.7753574 23.7252592,21.0472351 23.6502159,21.3935925 C23.6502159,21.3935925 23.6752303,21.88727 23.1544915,21.9877901 C23.1544915,21.9877901 22.6304661,22.1356567 22.4586515,22.1123477 C22.4586515,22.1123477 22.2837329,22.3343296 22.2579881,22.6067536 L22.1855009,25.8525333 C22.1855009,25.8525333 22.1347417,26.1990727 22.6571238,26.1499053 C22.6571238,26.1499053 23.4252684,26.0752436 23.6502159,26.4980836 C23.6502159,26.4980836 23.849236,27.2151999 23.4519261,27.339029 L23.1544915,27.4861672 L22.5070371,27.5892367 C22.5070371,27.5892367 22.2355299,27.6116352 22.2096025,28.0820037 L22.2096025,28.947715 C22.2096025,28.947715 22.2355299,29.544462 21.7622637,29.544462 L21.0666063,29.5941758 C21.0666063,29.5941758 20.8931484,29.7405855 20.5458675,29.6417043 C20.5458675,29.6417043 16.3224418,29.7180049 16.173268,29.6675628 L15.676083,29.7679008 C15.676083,29.7679008 15.1301471,30.2632172 14.6828083,29.890091 L14.3353448,29.6174848 C14.3353448,29.6174848 14.0862958,29.6675628 13.9887942,29.6417043 C13.888919,29.6174848 9.31802981,29.6923286 9.31802981,29.6923286 C9.31802981,29.6923286 8.34903928,29.7928487 8.27563921,29.4688899 C8.27563921,29.4688899 8.15166247,28.2065613 8.20077844,28.0554169 C8.20077844,28.0554169 8.20077844,27.6855685 7.97747423,27.661531 C7.97747423,27.661531 7.00848371,27.6116352 6.98346926,27.5111151 C6.98346926,27.5111151 6.46108714,27.1414488 6.61026092,26.7705077 C6.61026092,26.7705077 6.7851795,26.273006 7.30591834,26.2238386 C7.30591834,26.2238386 8.10072063,26.3493066 8.10072063,26.1258679 C8.10072063,26.1258679 8.15166247,25.9770908 8.15166247,25.7303431 C8.15166247,25.7303431 8.20077844,22.7804786 8.17576399,22.5827162 C8.17576399,22.5827162 8.24989441,22.2112289 7.92671498,22.2112289 C7.92671498,22.2112289 7.57925145,22.3093816 7.35667759,22.1615151 C7.35667759,22.1615151 6.76016505,22.186463 6.63600572,21.715184 C6.63600572,21.715184 6.5361305,21.4185404 6.68439134,21.1685148 C6.68439134,21.1685148 6.95863739,20.624213 7.75343968,20.7984843 C7.75343968,20.7984843 8.20077844,20.9232239 8.24989441,20.6023608 L8.22652324,19.4108698 C8.22652324,19.4108698 8.12573508,19.0901888 8.74726207,18.9171922 C8.74726207,18.9171922 9.54206436,19.1391741 9.78965267,18.7436494 C9.78965267,18.7436494 10.0637161,18.1967981 10.2846467,18.5684676 C10.2846467,18.5684676 10.7586432,19.0155271 12.0500828,18.9679986 C12.0500828,18.9679986 14.2862288,18.7928168 14.3353448,18.8900591 C14.3353448,18.8900591 14.882011,18.9679986 15.0302719,19.1391741 L15.1794457,19.1633936 Z M15.8250924,28.8996037 C15.7259475,29.2468715 16.1241703,29.296039 16.1241703,29.296039 C16.7957262,29.2468715 21.0673549,29.2710911 21.0673549,29.2710911 C21.7372675,29.3200764 21.8106676,28.9993954 21.8106676,28.9993954 C21.9372006,28.8996037 21.8354995,28.3287151 21.8354995,28.3287151 C21.8855284,28.2065248 21.9613021,27.5110787 21.9613021,27.5110787 C21.8855284,27.2144351 22.9295622,27.2402935 22.9295622,27.2402935 C23.4751329,27.2144351 23.2770258,26.7191186 23.2770258,26.7191186 C23.2770258,26.4973188 22.5079683,26.5229952 22.5079683,26.5229952 C21.8855284,26.5479431 21.8855284,26.1498689 21.8855284,26.1498689 C21.8855284,26.1498689 21.9613021,22.7804422 21.9105428,22.3095273 C21.8597836,21.8406156 22.257276,21.7641329 22.257276,21.7641329 L22.8545189,21.7160581 C23.3018576,21.7907197 23.3018576,21.3429318 23.3018576,21.3429318 C23.3018576,21.1468083 22.6562291,21.0712361 22.6562291,21.0712361 C22.3578816,21.1468083 22.211264,20.9971208 22.211264,20.9971208 C21.8354995,20.9971208 21.8855284,20.2776372 21.8855284,20.2776372 C22.0604469,19.9294588 21.8597836,19.3369001 21.8597836,19.3369001 C21.7863835,19.1633572 21.3397751,19.2897358 21.3397751,19.2897358 C21.3397751,19.2897358 21.389804,19.2897358 21.2890158,19.2631489 C21.1898709,19.2396578 21.1898709,19.4359634 21.1898709,19.4359634 C21.5130504,19.7599222 21.4155488,20.2776372 21.4155488,20.2776372 C21.389804,26.893572 21.4155488,27.1414123 21.4155488,27.1414123 L21.3397751,27.3872496 C21.3397751,27.3872496 21.3147606,28.056291 21.3147606,28.2564207 C21.3147606,28.4534547 21.1898709,28.6013212 21.1898709,28.6013212 L20.8940796,28.6992919 C20.6941466,28.8746558 19.4277214,28.776503 19.4277214,28.776503 C19.4277214,28.776503 16.5223931,28.84989 16.323373,28.8007225 C16.1241703,28.7491877 15.8250924,28.8996037 15.8250924,28.8996037 Z M15.0568566,28.4292352 C14.7077498,28.50244 14.583773,28.8996037 14.6602771,29.222652 C14.7336771,29.5444256 15.0060973,29.6174484 15.2536856,29.5677346 C15.503465,29.5185672 15.4784505,29.2951285 15.4784505,28.8996037 C15.4784505,28.50244 15.0568566,28.4292352 15.0568566,28.4292352 Z M15.5526357,28.231491 C15.4785053,28.6503248 16.2482931,28.5281346 16.2482931,28.5281346 C16.3708092,28.5031866 20.4207769,28.5031866 20.4207769,28.5031866 C20.8447445,28.5281346 20.8166261,28.2828436 20.8166261,28.2828436 L20.4457914,27.8849516 C20.3466465,27.711955 20.1717279,27.7594835 20.1717279,27.7594835 C19.9993656,27.9840149 19.4026704,27.9840149 19.4026704,27.9840149 C19.4026704,27.9840149 19.8249947,27.8849516 19.1302503,28.0095091 C18.4329496,28.1309709 16.1732498,27.9840149 16.1732498,27.9840149 C15.9992441,27.932298 15.5526357,28.231491 15.5526357,28.231491 Z M9.68107795,19.4367282 C9.32203602,19.6842043 9.29774844,20.2543646 9.29774844,20.2543646 L9.1930671,27.8849698 C9.1930671,28.304532 9.42502287,28.0328363 9.42502287,28.0328363 C9.86069306,27.7119732 9.7825586,27.2151999 9.7825586,27.2151999 L9.834711,19.7342823 C9.86069306,19.4367282 9.68107795,19.4367282 9.68107795,19.4367282 Z M9.26889558,19.4865148 C9.44308382,19.3120614 8.82064389,19.2896629 8.82064389,19.2896629 C8.52320926,19.3379199 8.54822371,20.6024337 8.54822371,20.6024337 C8.52320926,21.2201224 7.97745598,21.1217876 7.97745598,21.1217876 C7.25678411,21.022178 7.00846545,21.4692375 7.00846545,21.4692375 C6.95861913,21.8873429 7.67837806,21.8873429 7.67837806,21.8873429 C7.80491103,21.8414533 8.20076018,21.8614844 8.20076018,21.8614844 C8.62472777,21.8873429 8.54822371,22.53435 8.54822371,22.53435 L8.47482364,26.1982351 C8.59825262,26.6950084 7.97745598,26.5953988 7.97745598,26.5953988 C7.13189443,26.5471418 7.00846545,26.9186292 7.00846545,26.9186292 C7.0334799,27.4387115 7.9025952,27.289206 7.9025952,27.289206 C8.52320926,27.360772 8.47482364,27.712046 8.47482364,27.712046 C8.52320926,27.8360573 8.52320926,28.5032777 8.52320926,28.5032777 C8.52320926,29.2227613 8.72076866,29.2478913 8.72076866,29.2478913 C8.79654237,29.3939368 10.0386834,29.3209141 10.0386834,29.3209141 C11.9008908,29.3939368 13.9621182,29.197085 13.9621182,29.197085 C14.237825,29.2478913 14.237825,29.0732558 14.237825,29.0732558 C14.3846251,28.874765 13.9887759,28.8013781 13.9887759,28.8013781 C13.7147125,28.725988 9.34229566,28.8239587 9.34229566,28.8239587 C8.89568725,28.975103 8.94553357,28.3794486 8.94553357,28.3794486 L8.94553357,27.0422762 C8.9207017,26.8428749 8.94553357,26.2497698 8.94553357,26.2497698 C8.94553357,26.2497698 8.99556247,23.1278193 8.97054802,23.0047186 C8.94553357,22.880161 8.97054802,21.8148664 8.97054802,21.8148664 L8.99556247,20.1571952 C8.97054802,20.0324555 9.26889558,19.4865148 9.26889558,19.4865148 Z M10.0129751,27.685532 L9.81541573,27.8599854 C9.34141924,28.4292352 9.6397668,28.4805878 9.6397668,28.4805878 L10.0878359,28.4534547 L14.1620878,28.50244 C14.6070529,28.6013212 14.6601858,28.3044955 14.6601858,28.3044955 C14.6837395,28.1083721 14.3087053,28.0819673 14.3087053,28.0819673 L10.93358,28.0337104 C10.361169,28.0553805 10.0129751,27.685532 10.0129751,27.685532 Z M20.4458462,27.3615186 C20.4458462,27.3615186 20.7440111,27.9324072 20.8931849,28.0103467 C20.8931849,28.0103467 21.166518,28.3295709 21.0923876,27.7603212 L21.1415036,20.6250325 C21.1415036,20.6250325 21.0664602,20.3766458 21.1415036,19.9818495 L20.844069,19.4366372 C20.844069,19.4366372 20.5199766,19.189161 20.5199766,19.5846858 L20.4708606,27.1910715 L20.4458462,27.3615186 Z M14.9319486,23.9695295 L15.1561658,23.9423963 L15.2043688,25.2052712 C15.3027833,26.3470485 15.2043688,27.5103138 15.2043688,27.5103138 C15.2043688,27.8319053 15.3285281,27.8561249 15.3285281,27.8561249 C15.9243103,27.5844292 16.4700636,27.6099234 16.4700636,27.6099234 C19.9001477,27.7088046 19.3534814,27.634143 19.3534814,27.634143 C20.2209535,27.5844292 20.1716549,27.0390348 20.1716549,27.0390348 L20.1208956,25.8003794 C20.1983126,25.5277732 20.1983126,21.6637585 20.1983126,21.6637585 C20.0967941,21.2698726 20.1983126,19.1609535 20.1983126,19.1609535 C20.1983126,18.96483 19.9001477,18.9398821 19.9001477,18.9398821 C18.7803401,19.5082213 18.70694,19.1866298 18.3353749,19.2607452 C17.9605233,19.3346784 16.621611,19.2607452 16.5224662,19.2132167 C16.421678,19.1609535 15.8008813,19.2365257 15.8008813,19.2365257 C15.4019282,19.285511 15.3027833,19.5837935 15.3027833,19.5837935 L15.2777689,21.2190663 L15.2043688,21.591282 L15.0294502,21.7143827 L14.8811894,21.2190663 L14.9060212,19.6843136 C14.7594037,19.1376445 14.262036,19.2365257 14.262036,19.2365257 C13.9379437,19.1376445 12.6724314,19.2365257 12.6724314,19.2365257 C12.1007508,19.3113694 11.5035079,19.2132167 11.5035079,19.2132167 C10.6829608,19.3346784 10.5361606,19.0613439 10.5361606,19.0613439 C10.1129234,18.9132952 10.1129234,19.1609535 10.1129234,19.1609535 C10.1879668,19.3601727 10.1629523,19.756608 10.1629523,19.756608 C10.2120683,19.9545524 10.1379378,21.6637585 10.1379378,21.6637585 C10.0879089,21.8365729 10.1379378,23.6938276 10.1379378,23.6938276 C10.2120683,23.820024 10.0879089,27.2136703 10.0879089,27.2136703 C10.1629523,27.6607298 11.031885,27.634143 11.031885,27.634143 C11.1310299,27.7337526 14.3095087,27.6607298 14.3095087,27.6607298 C14.8335341,27.8825296 14.8561749,27.634143 14.8561749,27.634143 C14.981795,26.8920788 14.8408376,25.444917 14.8811894,25.1306096 C14.9569631,24.5620882 14.9319486,23.9695295 14.9319486,23.9695295 Z" id="Combined-Shape"></path>
                <path d="M12.6956931,22.2119937 C12.6956931,22.2119937 12.7707364,24.0444825 12.6956931,24.2919587 L12.6723219,24.6893044 C12.6723219,24.6893044 12.7707364,24.9600896 12.9199102,25.0606097 C12.9199102,25.0606097 13.0447999,25.4062386 12.745722,25.3822012 C12.745722,25.3822012 12.1258383,25.3323053 11.9766645,25.3557965 C11.9766645,25.3557965 11.6275577,25.3557965 11.9766645,24.9125611 C11.9766645,24.9125611 12.1008238,24.7364688 12.075079,24.2919587 C12.075079,24.2919587 12.075079,22.2119937 12.1258383,22.0890751 C12.1258383,22.0890751 12.1749542,21.81483 12.000766,21.7401683 L11.7016881,21.7658447 L11.3308534,22.1123841 C11.3308534,22.1123841 11.2550797,22.4855103 11.081074,22.0890751 L11.081074,21.8889454 L11.3060215,21.2947477 L11.4551953,21.2688893 C11.4551953,21.2688893 11.6775866,21.4178484 11.8758763,21.4692011 L13.0447999,21.4692011 L13.4663938,21.2688893 C13.4663938,21.2688893 13.6396691,21.2947477 13.5921964,21.517458 C13.5921964,21.517458 13.6646836,22.0890751 13.3422345,22.1615515 C13.3422345,22.1615515 13.1432144,22.0890751 13.0447999,21.81483 C13.0447999,21.81483 12.7216204,21.642926 12.6956931,22.2119937" id="Fill-106"></path>
                <path d="M18.1846492,21.5431708 C18.1846492,21.5431708 17.2423164,21.468327 17.2189452,22.4837258 C17.2189452,22.4837258 17.1165138,23.1791719 18.161278,23.6255031 C18.161278,23.6255031 18.9319788,23.9953515 18.8803066,24.46572 C18.8803066,24.46572 18.7811617,25.3083043 17.961345,24.8876496 C17.961345,24.8876496 17.5647655,24.6882483 17.5912406,24.46572 C17.5912406,24.46572 17.4648902,24.1923855 17.3164468,24.2428276 C17.3164468,24.2428276 17.1415282,24.2912667 17.2189452,25.1096315 C17.2189452,25.1096315 17.2189452,25.4319514 17.5912406,25.1096315 L17.7871567,25.1602557 C17.7871567,25.1602557 18.4587126,25.7052859 19.02875,25.0349698 C19.02875,25.0349698 19.6510074,24.46572 19.2027557,23.7726412 C19.2027557,23.7726412 18.8803066,23.2789636 18.3097214,23.030577 C18.3097214,23.030577 17.7630552,22.7805514 17.6398088,22.3598966 C17.6398088,22.3598966 17.8138145,21.6154651 18.4829967,22.0119004 C18.4829967,22.0119004 18.7320457,22.3094545 18.8803066,22.3598966 C18.8803066,22.3598966 19.0795093,22.3598966 19.02875,21.9121087 L18.9818251,21.5431708 C18.9818251,21.5431708 18.9319788,21.2672868 18.582872,21.5431708 C18.582872,21.5431708 18.2596925,21.665361 18.1846492,21.5431708" id="Fill-108"></path>
                <path d="M15.1551981,21.0213949 C15.3284734,21.1475914 15.3534878,21.3945212 15.3534878,21.3945212 C15.8501251,22.7065635 16.2733624,24.6158993 16.2733624,24.6158993 C16.3966088,24.8611902 16.6208259,25.0605915 16.6208259,25.0605915 C17.0431502,25.208458 16.6208259,25.3315587 16.6208259,25.3315587 C16.4466377,25.4071309 15.8767829,25.3089781 15.8767829,25.3089781 C15.576792,25.2559865 15.700221,25.1594727 15.700221,25.1594727 C15.825841,25.0356436 15.7259658,24.5386882 15.7259658,24.5386882 C15.700221,24.3425647 15.4785601,24.0195164 15.4785601,24.0195164 C15.3794152,23.9694384 15.205227,24.1923308 15.205227,24.1923308 C15.205227,24.1923308 14.9328068,24.2919404 14.9061491,24.1923308 C14.8811346,24.0916286 14.7078593,23.9978463 14.7078593,23.9978463 C14.4095117,23.9978463 14.2862654,24.7364506 14.2862654,24.7364506 C14.4595406,25.3565067 14.2862654,25.2559865 14.2862654,25.2559865 C14.1380045,25.4562984 13.6647384,25.3089781 13.6647384,25.3089781 C13.4414342,25.2559865 13.5920686,25.0831721 13.5920686,25.0831721 C13.8637585,25.0356436 13.9378889,24.7364506 13.9378889,24.7364506 C14.0629611,24.5636361 14.8561202,21.3438969 14.8561202,21.3438969 C14.9328068,21.1942094 14.9810098,20.8975658 15.1551981,21.0213949 L15.1551981,21.0213949 Z M14.7595315,22.6559393 C14.7336041,22.7804968 14.5586855,23.4743041 14.5586855,23.4743041 L14.7078593,23.7243296 C14.7078593,23.7243296 15.1060821,23.7469102 15.2543429,23.7469102 C15.4018734,23.7469102 15.4285312,23.6254484 15.4285312,23.4990699 C15.4285312,23.3763334 15.1551981,22.6333587 15.1551981,22.6333587 L15.029578,22.4845816 L14.7595315,22.6559393 Z" id="Fill-110"></path>
                <path d="M8.42647454,15.0228939 C8.42647454,15.0228939 8.15241108,15.891883 6.93528448,14.997946 L2.7626181,14.8981543 C2.7626181,14.8981543 2.21613447,15.0735182 2.14109111,14.5028116 C2.14109111,14.5028116 2.24114892,13.3643122 2.18947673,13.2645205 C2.18947673,13.2645205 2.21613447,12.94129 1.6687379,12.94129 C1.6687379,12.94129 0.825549984,13.0425386 0.80126588,12.2990175 C0.80126588,12.2990175 0.651361749,11.5037797 1.81864203,11.5310949 C1.81864203,11.5310949 2.18947673,11.7039094 2.21613447,11.2329945 C2.21613447,11.2329945 2.16610556,8.01289116 2.18947673,7.76377611 C2.18947673,7.76377611 2.29099524,7.46949985 1.71949715,7.4186935 C1.71949715,7.4186935 0.89876747,7.59077955 0.80126588,7.04574933 C0.80126588,7.04574933 0.750506625,6.22975186 1.29625991,6.17912761 C1.29625991,6.17912761 1.96708546,6.22975186 2.09197514,6.05839422 C2.09197514,6.05839422 2.24114892,6.15417968 2.21613447,5.55907151 L2.24114892,4.54458325 C2.24114892,4.54458325 2.31600969,4.27197709 2.73596036,4.29692502 C2.73596036,4.29692502 3.50830442,4.34591036 3.60817965,4.27197709 C3.60817965,4.27197709 3.78163753,4.05017729 3.82911022,3.94947508 C3.82911022,3.94947508 4.22897629,3.92616607 4.30310671,4.02267994 C4.30310671,4.02267994 4.89797597,4.42148254 7.16077973,4.27197709 C7.16077973,4.27197709 7.50659998,4.27197709 7.58164334,4.37176879 C7.58164334,4.37176879 8.0032373,4.69317819 8.25155595,4.34591036 C8.25155595,4.34591036 8.62403394,4.27197709 9.74274601,4.29692502 C9.74274601,4.29692502 10.9576816,4.61851652 11.8034257,3.92616607 L12.0758459,3.97697243 C12.0758459,3.97697243 12.4233094,4.54458325 12.6740017,4.37176879 C12.6740017,4.37176879 13.4180447,4.29692502 13.5429344,4.44643047 C13.5429344,4.44643047 13.7919834,4.81791782 13.6654504,5.78505965 C13.6654504,5.78505965 13.51792,6.20553234 14.2378615,6.20553234 C14.2378615,6.20553234 15.0567653,6.05839422 14.9585333,6.82303902 C14.9585333,6.82303902 15.1825679,7.69057125 13.8162675,7.56747054 C13.8162675,7.56747054 13.6413489,7.81585718 13.6654504,7.98885374 C13.6654504,7.98885374 13.6413489,10.8116113 13.6170648,11.1355701 C13.6170648,11.1355701 13.5929633,11.5786234 14.1887455,11.5560428 C14.1887455,11.5560428 14.9835478,11.5037797 15.0076493,12.2250843 C15.0076493,12.2250843 15.1067942,13.1656393 13.9652587,12.9911859 C13.9652587,12.9911859 13.6170648,13.0425386 13.5663056,13.2645205 L13.51792,14.5028116 C13.51792,14.5028116 13.5429344,15.1225035 12.8456337,14.974637 C12.7464888,14.974637 8.97314076,15.0478419 8.6488658,14.9505996 C8.6488658,14.9505996 8.47559051,14.9256517 8.42647454,15.0228939 Z M3.75172648,4.81791782 C3.26270644,4.76802197 3.21185743,5.68545005 3.21185743,5.68545005 L3.15930715,13.1173823 C3.18596035,13.4639218 3.31374448,13.4132975 3.31374448,13.4132975 C3.80352064,13.1423303 3.72507328,12.5956611 3.72507328,12.5956611 C3.72507328,12.5956611 3.80352064,5.55998202 3.80352064,5.4361529 C3.80352064,5.31232378 3.75172648,4.81791782 3.75172648,4.81791782 Z M2.91177362,13.4873036 C2.91177362,13.4873036 2.96015924,6.50152036 2.93678808,6.37678073 C2.91177362,6.25459053 2.96015924,6.47730084 2.96015924,6.47730084 C2.96015924,6.47730084 2.88767211,5.26486809 3.2099386,4.76809481 C3.2099386,4.76809481 3.11006337,4.34671161 2.53856529,4.86606549 L2.51592447,5.88237477 C2.51592447,5.88237477 2.51592447,6.45235291 1.992812,6.42740499 C1.992812,6.42740499 1.39629946,6.40172866 1.122236,6.67597373 C1.122236,6.67597373 0.973792571,7.22009344 1.54382996,7.12212276 C1.54382996,7.12212276 2.43942041,7.12212276 2.48853638,7.49106069 L2.43942041,11.2328853 C2.43942041,11.2328853 2.63844051,11.8520309 1.94205275,11.8520309 C1.94205275,11.8520309 1.0979519,11.8045023 1.122236,12.3247667 C1.122236,12.3247667 1.29624165,12.7709157 2.01782646,12.6214103 C2.01782646,12.6214103 2.53856529,12.7210199 2.51592447,13.213969 L2.51592447,14.1578019 C2.51592447,14.1578019 2.46352193,14.5300176 2.96015924,14.5525982 L6.83593876,14.5525982 C6.83593876,14.5525982 7.0344111,14.5773641 7.0344111,14.3289774 C7.0344111,14.3289774 7.00921406,14.1335823 6.71269237,14.1335823 L3.48491499,14.0822297 C3.48491499,14.0822297 2.96015924,14.2559547 2.91177362,13.4873036 Z M3.58247136,13.5378915 C3.58247136,13.5378915 3.48405683,13.8860698 3.85489154,13.8095871 L6.41348664,13.8095871 L7.10914406,13.9576357 C7.10914406,13.9576357 7.83145921,13.7846392 7.10914406,13.3874755 C7.10914406,13.3874755 4.82388206,13.4140623 4.62467937,13.3641665 C4.62467937,13.3641665 4.15396945,13.2405195 4.05409422,13.2153894 C4.05409422,13.2153894 3.80504522,13.1174188 3.58247136,13.5378915 Z M7.83074712,13.885997 C7.83074712,13.885997 7.35766356,13.885997 7.38249543,14.5018647 C7.38249543,14.5018647 7.43252433,14.975329 7.92824871,14.975329 C7.92824871,14.975329 8.37577006,14.8983 8.32738444,14.4053508 C8.32738444,14.4053508 8.05313839,13.7847484 7.83074712,13.885997 Z M8.17737075,13.6359714 C8.1023274,14.0821204 8.87302817,13.909306 8.87302817,13.909306 C9.02055867,13.909306 11.8298461,13.885997 11.8298461,13.885997 C12.2757241,14.0098261 12.3000082,13.7847484 12.3000082,13.7847484 C12.3000082,13.611934 11.9275302,13.3151083 11.9275302,13.3151083 C11.8298461,13.241175 11.4559074,13.3151083 11.4559074,13.3151083 C11.0335831,13.611934 8.55057909,13.3883132 8.55057909,13.3883132 C8.39994461,13.3883132 8.17737075,13.6359714 8.17737075,13.6359714 Z M8.57482668,14.3796745 C8.62394265,14.6522807 8.97304946,14.552489 8.97304946,14.552489 C9.29458561,14.6256938 12.7473105,14.5774369 12.7473105,14.5774369 C13.2687797,14.6522807 13.2196637,13.9584734 13.2196637,13.9584734 C13.294707,12.7957544 13.392939,12.669558 13.392939,12.669558 C13.5170983,12.5706768 14.088779,12.5965352 14.088779,12.5965352 C15.008471,12.646249 14.5845034,12.026375 14.5845034,12.026375 C14.4619873,11.8286126 13.8411907,11.8542889 13.8411907,11.8542889 C13.2430348,11.8768695 13.294707,11.2577239 13.294707,11.2577239 L13.3688375,7.66649741 C13.294707,7.36821492 13.543756,7.22016628 13.543756,7.22016628 L14.1145238,7.22016628 C14.9085957,7.27079054 14.7077498,6.77401726 14.7077498,6.77401726 C14.6836482,6.52635902 14.0137356,6.42747783 14.0137356,6.42747783 C13.3430927,6.52635902 13.4172231,6.15487167 13.4172231,6.15487167 L13.392939,5.28733944 C13.4913535,4.7182718 13.1214317,4.69478069 13.1214317,4.69478069 C12.6974642,4.54454683 12.6974642,4.94080001 12.6974642,4.94080001 C12.796609,5.0172827 12.8707395,5.38785954 12.8707395,5.38785954 C12.9045181,6.24828981 12.8658096,7.17682609 12.8610623,8.06111167 C12.8497419,11.0342852 12.722296,13.735581 12.722296,13.735581 C12.722296,14.3281397 12.4007599,14.1569642 12.4007599,14.1569642 L8.92064692,14.1826405 C8.57482668,14.1826405 8.57482668,14.3796745 8.57482668,14.3796745 Z M4.10242507,4.59276735 L4.02993793,12.5456924 C4.02993793,12.5456924 4.00492348,12.9148125 4.62553753,12.9894741 C4.62553753,12.9894741 5.34712234,13.0643179 5.51966729,12.9894741 C5.51966729,12.9894741 5.99037721,12.9654367 7.20841675,13.0153326 C7.20841675,13.0153326 7.50676431,13.3110656 7.53086583,12.9413993 C7.53086583,12.9413993 7.73006851,6.49900735 7.63074105,5.16201709 C7.63074105,5.16201709 7.60663953,4.59276735 7.18267194,4.56781942 C7.18267194,4.56781942 5.29636308,4.71586806 5.12217485,4.56781942 L4.37813181,4.36914653 C4.37813181,4.36914653 4.07832355,4.39263764 4.10242507,4.59276735 Z M11.9766827,4.89028501 L11.9523986,12.719381 C11.9523986,12.719381 12.1516013,13.4150093 12.4756937,13.3408939 C12.4756937,13.3408939 12.5248096,13.1913884 12.5490938,12.9420913 L12.6498819,5.48448268 C12.6498819,5.48448268 12.4006503,4.29517684 11.9766827,4.89028501 Z M8.029822,4.95697063 C8.029822,4.95697063 7.95496123,8.6971563 7.97833239,8.82262433 L7.93140747,11.9693407 L7.8308019,13.0563054 C7.8308019,13.0563054 7.97833239,13.2822936 8.10322207,13.132606 C8.10322207,13.132606 8.8989373,12.9355721 9.39539203,13.008959 C9.39539203,13.008959 10.9859095,13.1584645 11.3076283,12.9098957 C11.3076283,12.9098957 11.5559469,13.0329964 11.6308077,12.6365612 C11.6308077,12.6365612 11.7292222,5.70140215 11.6799237,5.57684463 C11.6799237,5.57684463 11.7799815,4.5871222 11.7292222,4.48915151 C11.7292222,4.48915151 11.7042078,4.26389178 11.2842571,4.46092576 C11.2842571,4.46092576 11.3324601,4.66105546 8.97379807,4.5871222 C8.97379807,4.5871222 8.07912056,4.56144586 8.029822,4.95697063 Z" id="Combined-Shape"></path>
                <path d="M7.26238954,7.24835562 L7.03762463,7.72109149 C7.03762463,7.72109149 6.49333205,10.122648 6.19589742,10.6170539 C6.19589742,10.6170539 6.14586851,11.1140093 5.72354421,10.7166635 C5.72354421,10.7166635 4.75382333,7.67046723 4.70452478,7.57085763 L4.38134535,7.34796522 C4.38134535,7.34796522 4.18542923,7.07554116 4.53124948,7.05132164 L5.4502111,7.07554116 C5.4502111,7.07554116 5.74764573,7.32228889 5.35106622,7.59799077 C5.35106622,7.59799077 5.40036478,7.99369765 5.92183396,9.50277397 C5.92183396,9.50277397 6.07009481,10.0727521 6.24428304,9.65136891 L6.7416507,7.89226703 L6.59247692,7.37218474 C6.59247692,7.37218474 6.44257279,7.1245265 6.66752028,7.10048908 C6.66752028,7.10048908 7.18917205,7.05132164 7.26238954,7.24835562" id="Fill-144"></path>
                <path d="M8.70455492,7.64546467 L8.67789718,10.2713704 L8.60541004,10.4691328 C8.60541004,10.4691328 8.35636103,10.7899959 8.52963633,10.8156722 C8.52963633,10.8156722 8.30797541,10.9651776 10.1185106,10.9892151 C10.1185106,10.9892151 10.8158113,11.1123158 10.6408927,10.2207461 C10.6408927,10.2207461 10.5667623,9.89897251 10.3168003,10.3702516 C10.3168003,10.3702516 10.2426699,10.7648658 9.35036601,10.6419472 C9.35036601,10.6419472 9.15116332,10.4691328 9.15116332,10.2713704 L9.15116332,9.18039943 C9.15116332,9.18039943 9.12468817,8.90688276 9.54774283,8.93510851 C9.54774283,8.93510851 10.0193657,9.23102368 10.094409,9.10555565 C10.094409,9.10555565 10.2676843,8.71075929 10.094409,8.46237265 C10.094409,8.46237265 9.87019191,8.43906364 9.84609039,8.53794483 C9.84609039,8.53794483 9.69691661,8.8336779 9.2745923,8.66013503 C9.2745923,8.66013503 9.07630255,8.26461026 9.20027929,7.94210825 C9.20027929,7.94210825 9.15116332,7.32241636 9.57367022,7.37285851 C9.57367022,7.37285851 10.0701249,7.4710113 10.1185106,7.62142726 C10.1185106,7.62142726 10.2426699,7.91970975 10.3684725,7.57244191 L10.2426699,7.1494198 C10.2426699,7.1494198 10.1701828,6.97569483 10.0451105,7.02559068 C10.0451105,7.02559068 9.20027929,7.1494198 9.09967372,7.04889969 L8.42884817,7.12447187 C8.42884817,7.12447187 8.33061623,7.37285851 8.62969414,7.49523082 C8.62969414,7.49523082 8.70455492,7.54585507 8.70455492,7.64546467" id="Fill-146"></path>
            </g>
        </g>
    </g>
</svg>