<?xml version="1.0" encoding="UTF-8"?>
<svg width="188px" height="50px" viewBox="0 0 188 50" version="1.1" xmlns="http://www.w3.org/2000/svg" xmlns:xlink="http://www.w3.org/1999/xlink">
    <!-- Generator: Sketch 47.1 (45422) - http://www.bohemiancoding.com/sketch -->
    <title>northern-arizona-logo</title>
    <desc>Created with Sketch.</desc>
    <defs></defs>
    <g id="Client-Logos" stroke="none" stroke-width="1" fill="none" fill-rule="evenodd">
        <g id="northern-arizona-logo" fill="#818181">
            <g id="Page-1" transform="translate(0.951391, 11.438293)">
                <path d="M49.3332163,25.3806277 L49.3332163,24.9662081 C49.9195704,24.9662081 50.4781346,24.8945786 50.4781346,24.1674847 L50.4781346,16.7540067 C50.4781346,16.0265529 49.87566,15.9551633 49.3320132,15.9551633 L49.3320132,15.5411038 L53.3756189,15.5411038 L53.3756189,15.9551633 C52.5319379,15.9551633 52.1930459,16.0265529 52.1930459,16.7540067 L52.1930459,24.1674847 C52.1930459,24.8945786 52.4924787,24.9662081 53.3499945,24.9662081 L53.3468666,25.3806277 L49.3332163,25.3806277 Z" id="Fill-1"></path>
                <path d="M78.0197185,20.575461 C78.220022,20.6040168 78.3916936,20.6328126 78.5633652,20.6328126 C80.7936522,20.6328126 81.2511623,18.8171176 81.2511623,18.1651328 C81.2511623,17.5118281 80.9793991,16.7984122 80.6227024,16.4719399 C80.107447,16.0182861 79.4498739,15.8986636 78.7349165,15.8986636 C78.5063418,15.8986636 78.3346702,15.9128215 78.220022,15.9834912 C78.1052535,16.0545208 78.0483504,16.224656 78.0483504,16.3949111 L78.0197185,20.575461 Z M75.3392598,25.3967173 L75.3328837,25.0212921 C75.3328837,25.0212921 75.6461513,25.0096538 75.7034152,25.0096538 C76.0176452,25.0096538 76.2467011,24.8623153 76.2467011,24.4788513 C76.2753331,23.0596984 76.2753331,21.7972427 76.2753331,20.4632774 L76.2753331,16.6681113 C76.2753331,16.1854217 76.0753904,15.9585348 75.8180635,15.9585348 L75.3820874,15.9344184 L75.3820874,15.5376363 C75.3820874,15.5376363 75.8180635,15.5351166 77.2195869,15.5351166 L79.7641039,15.5351166 C80.9083004,15.5351166 81.7948091,15.8378324 82.3667269,16.3485979 C82.8816213,16.8021317 83.1389483,17.3984447 83.1389483,17.937766 C83.1389483,19.725745 82.052136,20.4632774 80.478941,20.7187201 L80.478941,20.7758317 C80.8795481,20.9174111 81.136875,21.1728538 81.3371786,21.4280565 C81.5084893,21.6553034 82.3953589,22.9886688 82.5096462,23.1595238 C82.5953015,23.3014631 83.5518262,24.5377627 83.7592276,24.7437726 C83.9313804,24.9141477 84.3073256,25.0077341 84.6506687,25.0077341 C84.6524733,25.0077341 84.653556,25.3875986 84.6506687,25.385199 C84.6476612,25.3817195 84.2540316,25.3847191 83.3388909,25.3847191 C82.9386447,25.3847191 81.8868404,25.3896383 81.8826299,25.385199 C81.7441617,25.2301816 81.5751368,24.9749789 81.4514659,24.7767678 C81.1942593,24.3793858 80.6364169,23.3578549 80.5080542,23.130968 C80.3646536,22.8750454 79.9644074,22.2230605 79.7358328,21.9107461 C79.377933,21.4138986 79.0492668,21.0310345 78.4485967,21.0310345 C78.3916936,21.0310345 78.1485624,21.0448325 77.9914474,21.0592304 L77.9914474,21.8253186 C77.9914474,22.6768343 78.0197185,24.1948527 78.0483504,24.4081816 C78.091539,24.6914602 78.1578257,24.9728192 78.4203256,24.9902166 C78.6824646,25.0079741 79.0510713,25.0212921 79.0510713,25.0212921 L79.0480637,25.392278 C79.0480637,25.392278 78.6202682,25.3891584 77.1332098,25.3891584 L75.3392598,25.3967173 Z" id="Fill-3"></path>
                <path d="M27.4268394,16.669935 C27.4268394,16.1849658 27.3121912,15.9566391 26.940216,15.9566391 L26.1560847,15.9566391 L26.1560847,15.5480987 L30.6866746,15.5520582 L30.6914867,15.9566391 L29.9713563,15.9566391 C29.542839,15.9566391 29.2856324,16.2126817 29.2710758,16.5128779 C29.2568801,16.683973 29.2282481,17.5396881 29.2282481,18.3667274 L29.2282481,19.9050228 C29.2282481,20.6181987 29.2426844,21.630731 29.2710758,22.0866644 C29.3142644,22.7434486 29.4285517,23.5895651 29.7718949,24.0459785 C30.2577964,24.7016828 31.0961842,24.9302494 31.9968885,24.9302494 C32.6549429,24.9302494 33.55673,24.6732469 34.013759,24.2455093 C34.5571651,23.7035484 34.9643889,22.6450629 34.9643889,21.6040949 L34.9837576,19.266716 C34.9837576,18.1259225 34.9960284,16.8713856 34.9528398,16.5434735 C34.9100122,16.1720077 34.4144864,15.9566391 34.0994143,15.9566391 L33.4940524,15.9566391 L33.4940524,15.5387401 L36.9876353,15.5387401 L36.9817405,15.957119 L36.4142739,15.9566391 C35.8997404,15.9566391 35.6759778,16.3314644 35.6473458,16.4884015 C35.6189545,16.6596165 35.6260523,19.1374949 35.6260523,19.3231078 C35.6260523,19.5229986 35.6479473,21.2923803 35.5910443,21.8630171 C35.505028,23.0321264 35.1867078,23.9408738 34.4144864,24.6256139 C33.8139366,25.1673348 32.896029,25.5097648 31.8092167,25.5097648 C31.1226507,25.5097648 29.9144533,25.3959014 29.3712877,25.1673348 C28.542043,24.8255047 27.9701252,24.1693205 27.6838054,23.2564937 C27.4838627,22.6292252 27.4268394,21.6876027 27.4268394,19.8197153 L27.4268394,16.669935 Z" id="Fill-5"></path>
                <path d="M59.1460939,25.4392031 L55.7451439,16.669923 C55.5846605,16.2908983 55.3999962,15.9566271 55.028382,15.9566271 L54.4743892,15.9566271 L54.4743892,15.5480867 L59.0049792,15.5520462 L59.0097913,15.9566271 L58.2901421,15.9566271 C57.8615045,15.9566271 57.5498009,16.1267623 57.6429149,16.5129859 C57.718104,16.8241005 60.0125121,23.4809689 60.0125121,23.4809689 C60.0125121,23.4809689 62.6192254,17.1270563 62.6761285,16.5841355 C62.7450618,16.1496789 62.3508307,15.9566271 62.0364804,15.9566271 L61.2657027,15.9566271 L61.2657027,15.5411278 L64.7713158,15.5411278 L64.7713158,15.957107 L64.2671283,15.9566271 C63.878792,15.9566271 63.7602941,16.2919782 63.6665785,16.5129859 C63.5720208,16.7330338 59.8550362,25.4392031 59.8550362,25.4392031 L59.1460939,25.4392031 Z" id="Fill-7"></path>
                <path d="M93.0400197,25.3806277 L93.0400197,24.9662081 C93.6260129,24.9662081 94.1842162,24.8945786 94.1842162,24.1674847 L94.1842162,16.7540067 C94.1842162,16.0265529 93.5825837,15.9551633 93.0392978,15.9551633 L93.0392978,15.5411038 L97.0821817,15.5411038 L97.0821817,15.9551633 C96.2383804,15.9551633 95.8998493,16.0265529 95.8998493,16.7540067 L95.8998493,24.1674847 C95.8998493,24.8945786 96.1994024,24.9662081 97.0567979,24.9662081 L97.0534294,25.3806277 L93.0400197,25.3806277 Z" id="Fill-9"></path>
                <path d="M65.5982507,25.4181222 L65.5982507,24.9732271 C66.2844559,24.9732271 66.7140559,24.9018375 66.7140559,24.1748636 L66.7140559,16.7779432 C66.7140559,16.0501295 66.1984396,15.9789798 65.5550622,15.9789798 L65.5550622,15.5779984 L73.0780551,15.5779984 L73.7788168,17.8742232 L73.3693073,17.9878467 C73.1946281,17.6252596 72.86921,17.3293828 72.6406354,17.0447843 C71.9116026,16.1029218 71.3764973,15.9789798 70.5614483,15.9789798 L68.5419312,15.9789798 L68.5419312,20.1978041 L69.0047347,20.1978041 C70.4493264,20.1832862 70.9185059,20.0703827 71.2476534,18.4591379 L71.5786054,18.4591379 L71.5786054,22.5657785 L71.2476534,22.5657785 C71.1046138,20.9688116 70.5770876,20.7134888 69.1904817,20.7134888 L68.5419312,20.7134888 L68.5419312,24.274929 C68.5419312,24.9163554 68.9987196,24.9732271 69.5285315,24.9732271 L70.7462328,24.9732271 C71.4461524,24.9732271 71.9599642,24.9900247 72.5315211,24.4341458 C73.0323401,23.9495365 73.4335488,23.3463846 73.8052833,22.747432 L74.1794239,22.8656147 L73.6071452,25.4181222 L65.5982507,25.4181222 Z" id="Fill-11"></path>
                <path d="M45.7907545,15.5770865 L45.7907545,15.9676295 C46.6628269,16.053537 47.0488774,16.1536024 47.0488774,16.8803363 L47.0718552,21.3028908 L47.0718552,23.1316639 L40.6738104,15.5770865 L37.7964166,15.5770865 L37.7964166,15.9935457 C38.3045741,16.0079436 38.9088533,16.1214471 39.296949,16.7994681 L39.296949,24.1978283 C39.2897308,24.2159457 39.2875654,24.227464 39.2875654,24.227464 C39.2306623,24.9546778 38.7302042,24.9546778 38.0436381,25.0263074 L38.0436381,25.4169704 L41.088132,25.4169704 L41.088132,25.0263074 C40.1305246,24.9977515 39.7727451,24.7126732 39.7727451,24.227464 L39.7727451,17.457572 L46.8459272,25.5311937 L47.2763693,25.5311937 L47.5459671,25.5236348 L47.5459671,16.8586195 C47.5496965,16.3929674 47.4048523,16.1237267 48.3859187,15.9676295 L48.3859187,15.5770865 L45.7907545,15.5770865 Z" id="Fill-13"></path>
                <path d="M115.987001,15.5224945 L115.987001,15.9381138 L116.405533,15.9381138 C116.720485,15.9381138 117.093903,16.1584017 117.025451,16.5930982 C116.968428,17.1352991 114.580785,20.650786 114.580785,20.650786 C114.580785,20.650786 112.4945,16.8053472 112.419311,16.4944726 C112.326197,16.108009 112.460695,15.9381138 112.889574,15.9381138 L113.342994,15.9381138 L113.338181,15.5331729 L109.150213,15.5296934 L109.150213,15.9381138 L109.703845,15.9381138 C110.075459,15.9381138 110.236303,16.2729849 110.475344,16.6516497 L113.178781,21.3352861 L113.180826,24.2123462 C113.180826,24.8256967 112.866115,24.9679959 111.879274,25.0111896 L111.879274,25.4175703 L116.24529,25.4175703 L116.24529,25.0111896 C115.201787,24.9679959 114.915467,24.8256967 114.915467,24.2123462 L114.915828,21.123277 C115.964504,19.5206709 117.850125,16.6480502 117.968743,16.4944726 C118.115993,16.3041804 118.479066,15.9381138 118.867041,15.9381138 L119.290746,15.9384738 L119.290746,15.5221345 C119.176098,15.5224945 116.129679,15.5224945 115.987001,15.5224945" id="Fill-15"></path>
                <path d="M86.0327513,22.3243497 C86.0616239,22.7667252 86.161114,23.3529596 86.5611196,23.9613908 C86.9903587,24.6256139 87.7339481,24.9568855 88.4487852,24.9568855 C89.2206457,24.9568855 90.307458,24.4867941 90.307458,23.3389217 C90.307458,22.0663874 89.7072691,21.650888 88.1909771,21.0977688 C87.7339481,20.931953 86.7900552,20.5445295 86.1034891,19.9359783 C85.6175876,19.4936029 85.388652,18.8020238 85.388652,17.957707 C85.388652,17.18358 85.7034835,16.5475529 86.389809,16.0215496 C86.9613659,15.5515782 87.5904273,15.3573266 88.420033,15.3573266 C89.3639259,15.3573266 89.9358437,15.5785743 90.2218026,15.6891981 C90.3644813,15.74511 90.4504976,15.7171541 90.5218369,15.6476842 L90.7077042,15.4679504 C90.7650885,15.4126385 90.8221118,15.3855225 90.9080078,15.3855225 C90.994024,15.3855225 91.0224154,15.4679504 91.0224154,15.6066502 C91.0224154,15.8277779 91.2472606,17.8184074 91.2472606,17.9567472 L90.8808194,18.0298165 C90.7379001,17.6425131 90.4217453,17.0448803 89.9072117,16.519357 C89.5352366,16.1320535 89.0776061,15.9384018 88.420033,15.9384018 C87.2763177,15.9384018 86.818206,16.8237526 86.818206,17.3358378 C86.818206,17.8058092 86.8755902,18.2211886 87.2189334,18.5806561 C87.5904273,18.9404836 88.391401,19.2722352 88.9633188,19.438051 C89.7925635,19.6868947 90.4791296,19.9640542 91.0224154,20.5168135 C91.4802865,20.9876248 91.7372525,21.5683401 91.7372525,22.4956847 C91.7372525,24.1826385 90.5937778,25.5662766 88.7061122,25.5662766 C87.5331634,25.5662766 86.8473191,25.3171929 86.2755216,24.9018135 C86.1034891,24.7913097 86.0181947,24.7359977 85.9320582,24.7359977 C85.8461622,24.7359977 85.7888983,24.8466216 85.7034835,24.9852014 C85.6175876,25.1231812 85.5605642,25.1510172 85.4462769,25.1510172 C85.3316287,25.1510172 85.2741241,25.0677493 85.2741241,24.9302494 C85.3029967,24.7638337 85.5356616,22.4172162 85.5646545,22.2512804 L86.0327513,22.3243497 Z" id="Fill-17"></path>
                <path d="M102.265352,15.9680854 L100.266287,15.9680854 C99.7375573,15.9680854 99.6679022,16.1351011 99.339236,16.519525 C98.9101172,17.019132 98.5863833,17.5922884 98.2174157,18.1592056 L97.9218326,18.0011887 L98.5227433,15.3483759 C98.9226286,15.4627192 99.3373111,15.5767026 99.7663096,15.5767026 L106.590466,15.5767026 C107.018863,15.5767026 107.433786,15.4627192 107.834032,15.3483759 L108.363363,18.0152267 L108.090156,18.1592056 C107.783024,17.5771706 107.475892,17.0254911 107.090322,16.4754914 C106.800393,16.060232 106.618376,15.9680854 106.088804,15.9680854 L103.999753,15.9680854 L103.999753,24.2107624 C103.999753,24.8247128 104.286433,24.9666521 105.330057,25.0096058 L105.330057,25.4162265 L100.964041,25.4162265 L100.964041,25.0096058 C101.950761,24.9666521 102.265352,24.8247128 102.265352,24.2107624 L102.265352,15.9680854 Z" id="Fill-19"></path>
                <path d="M158.640207,2.19354385 C156.924093,2.19354385 155.559141,3.5114315 155.559141,6.97676573 C155.559141,9.44408562 156.908213,11.3836025 159.023972,11.3836025 C161.483315,11.3836025 162.132226,8.95911641 162.132226,6.84838447 C162.132226,3.31202061 159.89833,2.19354385 158.640207,2.19354385 M164.110119,6.86278237 C164.110119,8.50270302 162.873891,11.8678519 158.727066,11.8678519 C154.895553,11.8678519 153.581249,8.67391803 153.581249,6.91965407 C153.581249,2.6269206 157.383167,1.70005587 158.798405,1.70005587 C161.186529,1.70005587 164.110119,3.31202061 164.110119,6.86278237" id="Fill-21"></path>
                <path d="M43.0260359,2.23220221 C41.3099216,2.23220221 39.9446092,3.55008986 39.9446092,7.01542409 C39.9446092,9.48274398 41.2931996,11.4225009 43.409921,11.4225009 C45.8691435,11.4225009 46.5180549,8.99765478 46.5180549,6.88692284 C46.5180549,3.35067896 44.2841589,2.23220221 43.0260359,2.23220221 M48.4955865,6.90144073 C48.4955865,8.54136138 47.2598398,11.9068702 43.1131349,11.9068702 C39.2811412,11.9068702 37.9670777,8.71257639 37.9670777,6.95831243 C37.9670777,2.6659389 41.7689957,1.73871423 43.1845946,1.73871423 C45.5724777,1.73871423 48.4955865,3.35067896 48.4955865,6.90144073" id="Fill-23"></path>
                <path d="M69.7499241,11.7363631 L69.7499241,11.3219435 C70.3360376,11.3219435 70.8505711,11.2506739 70.8505711,10.5232201 L70.8505711,3.10974213 C70.8505711,2.38216832 70.3360376,2.31089872 69.7927518,2.31089872 L69.7927518,1.89647921 L73.9242985,1.89647921 L73.9242985,2.31089872 C73.0804972,2.31089872 72.5656027,2.38216832 72.5656027,3.10974213 L72.5656027,6.44501534 L77.9155726,6.44501534 L77.9155726,3.10974213 C77.9155726,2.38216832 77.4006782,2.31089872 76.6572091,2.31089872 L76.6572091,1.89647921 L80.7316122,1.89647921 L80.7316122,2.31089872 C80.1452581,2.31089872 79.6309651,2.38216832 79.6309651,3.10974213 L79.6309651,10.5232201 C79.6309651,11.2506739 80.0162939,11.3219435 80.7022584,11.3219435 L80.7022584,11.7363631 L76.6572091,11.7363631 L76.6572091,11.3219435 C77.4006782,11.3219435 77.9155726,11.2506739 77.9155726,10.5232201 L77.9155726,7.06028554 L72.5656027,7.06028554 L72.5656027,10.5232201 C72.5656027,11.2506739 72.9088256,11.3219435 73.7667023,11.3219435 L73.7633339,11.7363631 L69.7499241,11.7363631 Z" id="Fill-25"></path>
                <path d="M62.7899466,2.30865505 L60.7912419,2.30865505 C60.2621517,2.30865505 60.1928575,2.47543071 59.864071,2.86009457 C59.4350724,3.35994161 59.1112183,3.93297798 58.7422507,4.49953529 L58.4465473,4.34175831 L59.0472174,1.68882551 C59.4474636,1.80364876 59.8622664,1.91727217 60.2911446,1.91727217 L67.1145788,1.91727217 C67.543457,1.91727217 67.9582598,1.80364876 68.3585061,1.68882551 L68.8879571,4.35591625 L68.6147503,4.49953529 C68.3074978,3.9177402 68.0003657,3.36594074 67.6149167,2.81594101 C67.3249878,2.40116155 67.1433311,2.30865505 66.6137597,2.30865505 L64.5245875,2.30865505 L64.5245875,10.5518119 C64.5245875,11.1651624 64.8110277,11.3078216 65.8546513,11.3508953 L65.8546513,11.757516 L61.4886351,11.757516 L61.4886351,11.3508953 C62.4752354,11.3078216 62.7899466,11.1651624 62.7899466,10.5518119 L62.7899466,2.30865505 Z" id="Fill-27"></path>
                <path d="M55.4013316,4.4802901 C55.3882186,3.01122451 54.5203568,2.1843052 53.0186214,2.19762325 C52.289348,2.20398233 52.1697674,2.25893431 52.1765043,3.00018612 L52.2115123,6.84430506 C52.6405108,6.84010568 52.8321526,6.80795037 53.2604293,6.7755551 C54.7322094,6.64861363 55.4143242,5.9348378 55.4013316,4.4802901 L55.4013316,4.4802901 Z M49.4844966,1.9239432 C50.7571761,1.91242488 52.0718412,1.84367491 53.3873484,1.83179665 C55.1034627,1.81667885 57.4103824,2.30908699 57.314381,4.55863866 C57.2438838,6.19927921 56.1611618,6.65641249 54.8356695,7.11054621 C55.7449153,8.05780795 56.9893238,9.61038135 57.7682821,10.6698267 C58.0619404,11.0693684 58.4358404,11.3360895 58.8648389,11.3408888 L58.8677261,11.7701861 L56.2453735,11.7682664 C55.6359213,10.7470954 54.4387917,8.73858859 53.5727345,7.86211651 C53.1255703,7.39526465 52.8303481,7.41734143 52.2152417,7.39430479 L52.2442346,10.5134895 C52.2513324,11.2409434 52.4717265,11.3389691 53.3441598,11.3311702 L53.3468065,11.7608275 L49.5150534,11.764187 L49.5125271,11.3341698 C50.3133804,11.3270908 50.6130538,11.2531816 50.5636095,10.5257278 L50.4950371,3.12460796 C50.4886611,2.3973941 50.1450773,2.32912406 49.4871432,2.3350032 L49.4844966,1.9239432 Z" id="Fill-29"></path>
                <path d="M82.0782777,11.7738576 L82.0782777,11.3294425 C82.7644828,11.3294425 83.1942032,11.2576929 83.1942032,10.530599 L83.1942032,3.13343867 C83.1942032,2.40586486 82.6784666,2.33471525 82.0347282,2.33471525 L82.0347282,1.93361379 L89.5573602,1.93361379 L90.2584828,4.22959868 L89.8486124,4.34358205 C89.6744145,3.98087499 89.3488761,3.68559808 89.1203014,3.40039971 C88.3912686,2.4590171 87.8561634,2.33471525 87.0419565,2.33471525 L85.0215973,2.33471525 L85.0215973,6.55341952 L85.4847617,6.55341952 C86.9294737,6.53938157 87.3982923,6.4261181 87.7276804,4.81451332 L88.0583918,4.81451332 L88.0583918,8.92163388 L87.7276804,8.92163388 C87.5846408,7.32442699 87.056874,7.06934422 85.6705086,7.06934422 L85.0215973,7.06934422 L85.0215973,10.6305445 C85.0215973,11.2720908 85.4788668,11.3294425 86.0086788,11.3294425 L87.2257786,11.3294425 C87.9261794,11.3294425 88.4399911,11.3457601 89.0111871,10.7897612 C89.5123671,10.304792 89.9133351,9.70211996 90.2854306,9.10316738 L90.65909,9.22123015 L90.0868113,11.7738576 L82.0782777,11.7738576 Z" id="Fill-31"></path>
                <path d="M34.3158625,1.9328339 L34.3158625,2.32349688 C35.1881755,2.40892441 35.574226,2.50922977 35.574226,3.23620367 L35.5969632,7.65899816 L35.5969632,9.48705135 L29.199159,1.9328339 L26.3217652,1.9328339 L26.3217652,2.34917314 C26.8304039,2.36321109 27.4343222,2.47767438 27.8222976,3.15569542 L27.8222976,10.5535757 C27.8148388,10.571813 27.812914,10.5833313 27.812914,10.5833313 C27.75565,11.3107852 27.2553122,11.3107852 26.5689867,11.3820548 L26.5689867,11.7727178 L29.61324,11.7727178 L29.61324,11.3820548 C28.6555123,11.3534989 28.2980937,11.0679406 28.2980937,10.5833313 L28.2980937,3.81331944 L35.3713961,11.8867011 L35.8018382,11.8867011 L36.071436,11.8789023 L36.071436,3.21436686 C36.0746842,2.74871482 36.390839,2.47947412 37.3722663,2.32349688 L37.3722663,1.9328339 L34.3158625,1.9328339 Z" id="Fill-33"></path>
                <path d="M109.282016,1.9328339 L109.282016,2.32349688 C110.153968,2.40892441 110.5405,2.50922977 110.5405,3.23620367 L110.563237,7.65899816 L110.563237,9.48705135 L104.165433,1.9328339 L101.288039,1.9328339 L101.288039,2.34917314 C101.796197,2.36321109 102.400476,2.47767438 102.788451,3.15569542 L102.788451,10.5535757 C102.781474,10.571813 102.779188,10.5833313 102.779188,10.5833313 C102.722285,11.3107852 102.221707,11.3107852 101.53514,11.3820548 L101.53514,11.7727178 L104.579755,11.7727178 L104.579755,11.3820548 C103.621786,11.353139 103.264368,11.0683006 103.264368,10.5833313 L103.264368,3.81331944 L110.327926,11.8771025 L111.037229,11.8789023 L111.03759,11.8789023 L111.03759,3.21436686 C111.03759,2.50107097 111.416663,2.42452214 112.275261,2.32349688 L112.275261,1.9328339 L109.282016,1.9328339 Z" id="Fill-35"></path>
                <path d="M97.5555838,4.45317405 C97.5424709,2.9845884 96.6742482,2.15718916 95.172994,2.17050721 C94.4436003,2.17722623 94.3240197,2.23133833 94.3302754,2.97307008 L94.3652834,6.81682907 C94.793921,6.81346957 94.9856831,6.78119428 95.4145613,6.748799 C96.8864617,6.62149758 97.5684562,5.90736181 97.5555838,4.45317405 L97.5555838,4.45317405 Z M91.6386285,1.89682716 C92.9114284,1.88530884 94.2260935,1.81667885 95.5407585,1.80516053 C97.2573541,1.78992276 99.5645143,2.28185096 99.468513,4.53152262 C99.3975345,6.17216316 98.315775,6.62929645 96.9899218,7.08343016 C97.8990473,8.03069191 99.1430949,9.58374524 99.9216923,10.6428307 C100.215832,11.0422524 100.590093,11.3089734 101.01849,11.3137727 L101.021257,11.74343 L98.3996258,11.7411504 C97.7898127,10.7199794 96.5926831,8.71135257 95.7269867,7.83536042 C95.2789804,7.36826859 94.9841192,7.39046535 94.3691331,7.36706877 L94.3988478,10.4863735 C94.4047426,11.2134674 94.6259788,11.311973 95.4979309,11.3041741 L95.5005775,11.7341914 L91.6691854,11.736711 L91.6667793,11.3071737 C92.4675124,11.2999748 92.7664639,11.2261855 92.7173805,10.4990916 L92.6492894,3.09737193 C92.6425524,2.37039804 92.2986077,2.30200802 91.6413955,2.30788716 L91.6386285,1.89682716 Z" id="Fill-37"></path>
                <path d="M143.833491,11.702204 C143.718843,11.702204 143.561848,11.702204 143.561848,11.5882207 C143.561848,11.5024332 143.575803,11.3879699 143.647383,11.3168203 C144.391333,10.4470672 150.200137,2.47723044 150.299868,2.30577547 L146.898918,2.30577547 C146.698975,2.30577547 146.527063,2.37740501 146.326639,2.53446209 C146.026605,2.77658675 144.854378,4.21709651 144.582735,4.65923198 C144.539907,4.7159837 144.497079,4.7015858 144.454252,4.67338991 L144.267663,4.58760243 C144.225196,4.5590466 144.210759,4.54488867 144.239391,4.45946114 L145.140336,1.8924358 C145.183284,1.7642945 145.240187,1.73525874 145.311767,1.73525874 C145.369031,1.73525874 145.4838,1.74977662 145.598087,1.7642945 C146.269615,1.84960205 148.175447,1.84960205 149.361509,1.84960205 C149.876523,1.84960205 152.030538,1.85416138 152.530876,1.85416138 C152.759571,1.85416138 152.699901,2.05945142 152.542546,2.24482436 C152.270662,2.55857857 146.21163,10.7463036 145.940227,11.188559 L150.720325,11.188559 C151.249415,10.8602869 152.53617,9.32031169 152.721917,9.07818703 C152.764744,9.03559324 152.793737,9.02107536 152.850761,9.04975118 L153.050583,9.16373454 C153.093771,9.19229037 153.107967,9.23464419 153.079696,9.29175586 C152.90622,9.62410735 152.270542,11.1778806 152.092855,11.6951251 C152.079862,11.7329196 148.572325,11.702204 147.213749,11.702204 L143.833491,11.702204 Z" id="Fill-39"></path>
                <path d="M130.897923,6.89288597 C131.098106,6.92108186 131.269898,6.94975767 131.44157,6.94975767 C133.671736,6.94975767 134.129848,5.13418266 134.129848,4.48171789 C134.129848,3.82889317 133.857844,3.11523733 133.500546,2.78924491 C132.985892,2.3349912 132.328078,2.21548865 131.61276,2.21548865 C131.384546,2.21548865 131.212875,2.22964658 131.098106,2.30055623 C130.983939,2.37170585 130.926435,2.54184101 130.926435,2.71197618 L130.897923,6.89288597 Z M128.217103,11.7136624 L128.211449,11.3382372 C128.211449,11.3382372 128.524596,11.3267189 128.58162,11.3267189 C128.896211,11.3267189 129.125266,11.1793804 129.125266,10.7956764 C129.153537,9.37724338 129.153537,8.11430771 129.153537,6.78046238 L129.153537,2.98493634 C129.153537,2.50248676 128.953956,2.27523993 128.696268,2.27523993 L128.260172,2.25148339 L128.260172,1.85494127 C128.260172,1.85494127 128.696268,1.85230165 130.09743,1.85230165 L132.642549,1.85230165 C133.786384,1.85230165 134.673134,2.15453754 135.245292,2.66554296 C135.759826,3.11967668 136.017153,3.71574968 136.017153,4.25495098 C136.017153,6.04257008 134.930581,6.78046238 133.357145,7.0359051 L133.357145,7.0927768 C133.757753,7.2345961 134.01544,7.49003882 134.215744,7.74524157 C134.387055,7.9724884 135.274044,9.3058538 135.387851,9.47634891 C135.473506,9.61816822 136.42991,10.8544678 136.637432,11.0604777 C136.809465,11.2313328 137.185169,11.3249191 137.528392,11.3249191 C137.530317,11.3249191 137.531039,11.7047837 137.528392,11.7021441 C137.525384,11.6989045 137.132597,11.7019041 136.217577,11.7019041 C135.816849,11.7019041 134.764925,11.7065834 134.760714,11.7021441 C134.622366,11.5470067 134.453462,11.2922839 134.32967,11.0935929 C134.072343,10.6965708 133.514982,9.67491993 133.386259,9.44815303 C133.243339,9.19259033 132.842612,8.53988559 132.614398,8.22781114 C132.256498,7.73096366 131.927471,7.34809954 131.327162,7.34809954 C131.269898,7.34809954 131.026646,7.36225747 130.869531,7.3764154 L130.869531,8.14250359 C130.869531,8.99401931 130.897923,10.5120378 130.926435,10.7251267 C130.969864,11.0088852 131.03591,11.2900042 131.29853,11.3074017 C131.560669,11.3252791 131.929155,11.3382372 131.929155,11.3382372 L131.926268,11.709343 C131.926268,11.709343 131.498473,11.7062235 130.011775,11.7062235 L128.217103,11.7136624 Z" id="Fill-41"></path>
                <path d="M181.678005,7.21821849 C181.549161,6.79048092 180.39125,3.22556123 180.319429,3.0112725 C180.276842,2.91132709 180.247849,2.81138168 180.205021,2.81138168 C180.148118,2.81138168 180.146915,2.91132709 180.104449,3.0256704 C180.032508,3.21104334 178.674293,6.86175052 178.574202,7.21821849 L181.678005,7.21821849 Z M178.420455,7.73138359 C178.277415,8.08797155 177.491359,10.4180315 177.4199,10.7173878 C177.405463,10.8169732 177.376711,10.9598724 177.376711,11.030782 C177.376711,11.2305529 177.548383,11.3450162 177.863094,11.3450162 L178.582743,11.3450162 C178.582743,11.3450162 178.582142,11.7385587 178.587796,11.7385587 L175.125251,11.7385587 L175.130063,11.3450162 L175.889653,11.3450162 C176.319012,11.3450162 176.519316,11.1447654 176.719499,10.688472 C176.81935,10.4608652 177.863094,7.660114 178.277415,6.49076466 C178.377868,6.20556629 179.437612,3.4546078 179.566456,3.06994394 C179.609284,2.92692481 179.779151,2.61689006 179.6793,2.45983298 C179.63563,2.40296128 179.578847,2.33169169 179.578847,2.27493997 C179.578847,2.23174627 179.60784,2.17499456 179.707571,2.14643872 C180.108178,2.06101119 180.967258,1.63279369 181.125095,1.43350278 C181.196554,1.36175325 181.239141,1.30488155 181.310481,1.30488155 C181.396858,1.30488155 181.424888,1.39030908 181.468438,1.54736616 C181.73984,2.44615498 182.854923,5.44991658 183.126807,6.36262337 C183.455473,7.47486103 184.384449,10.2896502 184.584752,10.7028699 C184.828004,11.1738012 184.96972,11.3450162 185.326778,11.3450162 L185.967268,11.3450162 L185.967268,11.7385587 L181.912594,11.7385587 L181.910669,11.3450162 L182.409925,11.3450162 C182.810291,11.3450162 182.882954,11.2019971 182.783103,10.8031753 C182.668334,10.2896502 182.082341,8.30178034 181.882398,7.73138359 L178.420455,7.73138359 Z" id="Fill-43"></path>
                <path d="M138.277263,11.6974047 L138.277263,11.2833452 C138.863617,11.2833452 139.422181,11.2115957 139.422181,10.4846218 L139.422181,3.07102378 C139.422181,2.34356995 138.819827,2.27230035 138.27642,2.27230035 L138.27642,1.85788084 L142.319665,1.85788084 L142.319665,2.27230035 C141.475864,2.27230035 141.136972,2.34356995 141.136972,3.07102378 L141.136972,10.4846218 C141.136972,11.2115957 141.436525,11.2833452 142.293921,11.2833452 L142.290913,11.6974047 L138.277263,11.6974047 Z" id="Fill-45"></path>
                <path d="M172.305578,1.89428353 L172.305578,2.28494651 C173.177651,2.37037404 173.56322,2.47055942 173.56322,3.1976533 L173.586318,7.62008784 L173.586318,9.44850098 L167.188634,1.89428353 L164.310879,1.89428353 L164.310879,2.31050278 C164.819398,2.32466071 165.423797,2.43900402 165.811773,3.11714505 L165.811773,10.5150253 C165.804555,10.5329027 165.802028,10.544781 165.802028,10.544781 C165.745125,11.2721148 165.244667,11.2721148 164.558462,11.3435044 L164.558462,11.7341674 L167.602956,11.7341674 L167.602956,11.3435044 C166.644867,11.3145886 166.287328,11.0289103 166.287328,10.544781 L166.287328,3.77476907 L173.354856,11.8380722 L174.059949,11.8407118 L174.06043,11.8407118 L174.06043,3.1756965 C174.064159,2.71004447 174.380194,2.44092374 175.36126,2.28494651 L175.36126,1.89428353 L172.305578,1.89428353 Z" id="Fill-47"></path>
                <path d="M123.074042,7.22378568 C122.944837,6.79640806 121.786805,3.23112841 121.714985,3.01683969 C121.672518,2.91689428 121.643886,2.81742879 121.601058,2.81742879 C121.543794,2.81742879 121.542952,2.91689428 121.500245,3.03135757 C121.428665,3.21661053 120.07033,6.86767765 119.969878,7.22378568 L123.074042,7.22378568 Z M119.816492,7.73743071 C119.673452,8.09389868 118.887396,10.4235987 118.815696,10.722955 C118.8015,10.8229004 118.772507,10.9655596 118.772507,11.0367092 C118.772507,11.2361201 118.94454,11.3505834 119.259131,11.3505834 L119.978539,11.3505834 C119.978539,11.3505834 119.978178,11.7444859 119.983352,11.7444859 L116.521288,11.7444859 L116.525739,11.3505834 L117.285449,11.3505834 C117.714688,11.3505834 117.914871,11.1506925 118.115295,10.6942792 C118.215026,10.4666724 119.259131,7.66568118 119.673452,6.4966918 C119.773664,6.21113348 120.833769,3.46065491 120.962012,3.07551113 C121.005441,2.93285195 121.175067,2.62245725 121.074976,2.46576012 C121.031787,2.40852847 120.974884,2.33725887 120.974884,2.28038717 C120.974884,2.23731346 121.003396,2.18056174 121.103608,2.15200591 C121.503854,2.06657838 122.363295,1.63872083 122.52065,1.43894998 C122.59223,1.36768039 122.635058,1.31044874 122.706518,1.31044874 C122.792534,1.31044874 122.820805,1.39623622 122.863993,1.55293335 C123.135516,2.45172217 124.250599,5.45548376 124.522844,6.36819055 C124.85151,7.48042822 125.780486,10.2955773 125.980789,10.7084371 C126.224041,11.1793684 126.365396,11.3505834 126.722815,11.3505834 L127.363305,11.3505834 L127.363305,11.7444859 L123.30815,11.7444859 L123.306466,11.3505834 L123.805601,11.3505834 C124.206208,11.3505834 124.27863,11.2080442 124.17914,10.8091024 C124.06401,10.2955773 123.478378,8.30770748 123.278074,7.73743071 L119.816492,7.73743071 Z" id="Fill-49"></path>
                <path d="M1.41355369,15.0814028 C1.41355369,16.6283371 1.48970514,17.9461047 2.12730808,19.3635779 L4.58653059,16.9110158 L1.41355369,13.7463577 L1.41355369,15.0814028 Z M16.9782836,1.88332913 C15.2032211,1.61264863 13.5165808,1.4963856 12.4366258,1.44671285 L12.4366258,5.01859153 L14.2263652,3.23373203 L15.9278027,4.93052438 L12.4366258,8.41229621 L12.4366258,11.8975475 L17.6744738,6.67267012 L19.3759113,8.36934248 L14.3466677,13.3862903 L16.1795957,15.2142235 L21.0530476,10.3536129 L21.0530476,2.73436492 C20.2210359,2.50711808 18.7988204,2.16108859 16.9782836,1.88332913 L16.9782836,1.88332913 Z M20.3390526,19.362498 C20.9761743,17.9455048 21.0530476,16.6278571 21.0530476,15.0814028 L21.0530476,13.7471976 L17.8809128,16.9110158 L20.3390526,19.362498 Z M1.41355369,2.73436492 L1.41355369,10.352653 L6.28784772,15.2142235 L8.12149754,13.3855704 L3.09165245,8.36946247 L4.79284928,6.67255013 L10.030577,11.8959878 L10.030577,8.41229621 L6.53964073,4.93052438 L8.24107816,3.23373203 L10.0306973,5.01859153 L10.0306973,1.4470728 C8.94869713,1.49662557 7.26422234,1.61252865 5.48831769,1.88332913 C3.66778084,2.16108859 2.24556538,2.50711808 1.41355369,2.73436492 L1.41355369,2.73436492 Z" id="Fill-51"></path>
                <path d="M16.1796799,18.6078202 L12.43671,22.3410753 L12.43671,26.2947382 C13.815376,25.741259 15.9240372,24.6822936 17.7426492,22.8686383 C18.2428668,22.3696311 18.6670532,21.8991798 19.0282011,21.4487655 L16.1796799,18.6078202 Z M3.43880921,21.4492455 C3.79983683,21.8992998 4.22390294,22.3697511 4.72400019,22.8686383 C6.5426122,24.6822936 8.65163431,25.741259 10.0305409,26.2947382 L10.0305409,22.3407153 L6.28781163,18.6077002 L3.43880921,21.4492455 Z M10.0306612,18.9471306 L10.0306612,14.875045 L7.98912876,16.9109078 L10.0306612,18.9471306 Z M12.43671,14.874925 L12.43671,18.9472506 L14.4782425,16.9109078 L12.43671,14.874925 Z" id="Fill-53"></path>
                <path d="M22.0455909,15.0814028 C22.0455909,17.9479045 21.7871812,20.2348907 18.4444576,23.5686041 C15.732239,26.2736093 12.418388,27.4042043 11.4592166,27.6888028 L11.4592166,21.9372022 L21.0530957,12.3685988 L21.0530957,11.7323317 L11.4592166,21.3008151 L11.4592166,14.8861913 L18.6847016,7.68004309 L18.3656595,7.36184953 L11.4592166,14.2499242 L11.4592166,8.00855514 L15.2364727,4.24122499 L14.9175509,3.92303143 L11.4592166,7.37216802 L11.4592166,0.423382207 C12.1835576,0.437780105 14.5633805,0.513609038 17.1282286,0.904871933 C19.7302501,1.301774 21.5458545,1.83569608 22.0455909,1.99143335 L22.0455909,15.0814028 Z M4.02223996,23.5686041 C0.679396009,20.2345307 0.421106667,17.9477845 0.421106667,15.0814028 L0.421106667,1.99143335 C0.920722707,1.83569608 2.73632716,1.301774 5.33834867,0.904871933 C7.90295612,0.513729021 10.2824181,0.437780105 11.0080824,0.423382207 L11.0080824,7.37204804 L7.54986845,3.92303143 L7.23082638,4.24122499 L11.0080824,8.00843516 L11.0080824,14.2499242 L4.10175987,7.36184953 L3.7827178,7.68004309 L11.0080824,14.8861913 L11.0079621,21.3006951 L1.41360181,11.7313718 L1.41360181,12.3676389 L11.0079621,21.9369623 L11.0079621,27.6888028 C10.0483096,27.4039644 6.7340976,26.2734893 4.02223996,23.5686041 L4.02223996,23.5686041 Z M22.3233692,1.63904478 C22.303399,1.63232576 20.2921828,0.962703492 17.1918686,0.489732523 C14.0945619,0.0172414836 11.2625221,0.00020397023 11.234251,8.39877419e-05 C11.2041754,0.00020397023 8.37213564,0.0172414836 5.27458837,0.489732523 C2.17451475,0.962703492 0.163178232,1.63232576 0.143208027,1.63904478 L4.81209767e-05,1.68727774 L4.81209767e-05,15.0814028 C4.81209767e-05,17.9537836 0.274217386,20.424463 3.72449141,23.8654408 C7.00225174,27.1347237 11.1427009,28.1636935 11.1840849,28.173532 L11.2336495,28.1856503 L11.2832141,28.173532 C11.3247185,28.1636935 15.4644458,27.1347237 18.7422061,23.8654408 C22.1923598,20.424583 22.4666494,17.9537836 22.4666494,15.0814028 L22.4666494,1.68727774 L22.3233692,1.63904478 Z" id="Fill-57"></path>
            </g>
        </g>
    </g>
</svg>