<?xml version="1.0" encoding="UTF-8"?>
<svg width="189px" height="50px" viewBox="0 0 189 50" version="1.1" xmlns="http://www.w3.org/2000/svg" xmlns:xlink="http://www.w3.org/1999/xlink">
    <!-- Generator: Sketch 47.1 (45422) - http://www.bohemiancoding.com/sketch -->
    <title>pir-logo</title>
    <desc>Created with Sketch.</desc>
    <defs></defs>
    <g id="Client-Logos" stroke="none" stroke-width="1" fill="none" fill-rule="evenodd">
        <g id="pir-logo" fill="#818181">
            <path d="M45.0601166,12.3124987 L45.0701542,12.3124987 L39.9288536,12.3111142 C38.6838517,12.3022881 38.0009524,12.3329199 36.7156272,12.9630355 L40.1406804,9.18805269 C41.4947108,7.81965819 43.2921239,7.10872299 45.0663468,7.10803074 L45.063924,7.10803074 C46.8381469,7.10872299 48.63556,7.81965819 49.9895904,9.18805269 L53.4146436,12.9630355 C52.1293184,12.3329199 51.4464191,12.3022881 50.2012442,12.3111142 L45.0601166,12.3124987 Z M55.5326871,24.5368806 C55.6185254,25.0448151 55.6206021,25.562441 55.5337254,26.0721061 C55.3840276,26.9368926 54.9835641,27.7641249 54.3259317,28.4304103 L48.1543981,34.6876092 C47.4962465,35.3526832 46.6771481,35.7597231 45.8243027,35.9127091 C45.3238099,36.0027009 44.808953,36.000105 44.3065565,35.9101132 C43.4552687,35.7597231 42.6413621,35.3526832 41.9802685,34.6850133 L35.8097732,28.4278144 C35.1543907,27.7641249 34.7496006,26.9382771 34.5992105,26.0740097 C34.5097379,25.562441 34.5097379,25.0429114 34.6004219,24.532381 C34.7496006,23.6670753 35.1521409,22.8431311 35.8076965,22.174942 L41.9802685,15.9177431 C42.6377278,15.2552651 43.4524997,14.8471869 44.3048259,14.6938547 C44.8073954,14.6016131 45.3238099,14.6026515 45.8281101,14.6922972 C46.6783595,14.8466677 47.4962465,15.252323 48.1543981,15.9206852 L54.3259317,22.174942 C54.9825257,22.8401891 55.3831622,23.6700173 55.5326871,24.5368806 Z M45.088689,38.414983 L45.0786515,38.414983 L50.2199521,38.4163675 C51.464954,38.4251936 52.1478533,38.3947348 53.4331784,37.7644461 L50.0081252,41.539429 C48.6540948,42.9078235 46.8566817,43.6180664 45.0824588,43.6194509 L45.0848817,43.6194509 C43.3106588,43.6180664 41.5132457,42.9078235 40.1592153,41.539429 L36.7341621,37.7644461 C38.0194872,38.3947348 38.7023865,38.4251936 39.9475615,38.4163675 L45.088689,38.414983 Z M32.0822265,25.193042 L32.0822265,25.1828314 L32.081015,30.3872993 C32.0721889,31.6477036 32.1023015,32.3389099 32.7248025,33.6399836 L28.9956809,30.1732226 C27.6439002,28.8022322 26.9423103,26.9826673 26.9410989,25.1868118 L26.9410989,25.1892346 C26.9423103,23.393206 27.6439002,21.5736411 28.9956809,20.2033429 L32.7248025,16.7358897 C32.1023015,18.0369634 32.0721889,18.7281697 32.081015,19.988574 L32.0822265,25.193042 Z M57.9912803,25.1829006 L57.9912803,25.1931112 L57.9924917,19.9886432 C58.0013178,18.7282389 57.9712052,18.0370327 57.3487042,16.735959 L61.0776528,20.2027199 C62.4296065,21.5737103 63.1311964,23.3932752 63.1324078,25.1893038 L63.1324078,25.1867079 C63.1311964,26.9827365 62.4296065,28.8023014 61.0776528,30.1725996 L57.3487042,33.6400528 C57.9712052,32.3389791 58.0013178,31.6477729 57.9924917,30.3873685 L57.9912803,25.1829006 Z M72.6914231,13.457004 L72.6914231,17.5248063 L70.5001228,17.5248063 L70.5001228,13.4706758 L67.0075758,7.74563994 L69.5413641,7.74563994 L71.6094448,11.4162669 L73.6775255,7.74563994 L76.197642,7.74563994 L72.6914231,13.457004 Z M89.112036,10.2109998 L89.112036,17.5247371 L87.0166116,17.5247371 L87.0166116,16.7303864 C86.5782477,17.3056416 85.8112407,17.6891451 84.9073423,17.6891451 C83.3596565,17.6891451 82.4967736,16.5386346 82.4967736,15.0731528 L82.4967736,10.2109998 L84.6060429,10.2109998 L84.6060429,14.5801016 C84.6060429,15.2100442 84.8114665,15.826488 85.6606775,15.826488 C86.4276845,15.826488 87.0166116,15.319765 87.0166116,14.374505 L87.0166116,10.2109998 L89.112036,10.2109998 Z M94.5077019,12.2928909 C94.3434669,12.2243586 94.1243715,12.1833431 93.905103,12.1833431 C93.0422201,12.1833431 92.3437453,12.8269576 92.3437453,14.3061112 L92.3437453,17.5248755 L90.234476,17.5248755 L90.234476,10.2109652 L92.3437453,10.2109652 L92.3437453,11.1150367 C92.7409206,10.4712492 93.3573645,10.0877457 94.1105266,10.0877457 C94.329622,10.0877457 94.6857818,10.1426061 94.8226732,10.2109652 L94.5077019,12.2928909 Z M83.5382556,22.4662386 L83.5382556,29.7799758 L81.4428312,29.7799758 L81.4428312,28.9856251 C81.0044673,29.5607073 80.2374603,29.9443839 79.3335619,29.9443839 C77.7858761,29.9443839 76.9229932,28.7938734 76.9229932,27.3282185 L76.9229932,22.4662386 L79.0322625,22.4662386 L79.0322625,26.8353403 C79.0322625,27.465456 79.237686,28.0817267 80.0868971,28.0817267 C80.8539041,28.0817267 81.4428312,27.5750037 81.4428312,26.6297437 L81.4428312,22.4662386 L83.5382556,22.4662386 Z M93.0148764,20.0008787 L95.1104739,20.0008787 L95.1104739,27.7254631 C95.1104739,28.1364833 95.2747089,28.2597028 95.5760084,28.2597028 C95.7679332,28.2597028 95.9184964,28.2048424 96.0143723,28.1364833 L96.2883281,29.6839961 C96.0007004,29.8347323 95.5623366,29.9169364 95.1378176,29.9169364 C94.3297951,29.9169364 93.7133512,29.6839961 93.3436926,29.1637743 C93.0695638,28.7800977 93.0148764,28.3555787 93.0148764,27.6022435 L93.0148764,20.0008787 Z M96.8219448,21.7539708 L96.8219448,20.0008614 L98.9312141,20.0008614 L98.9312141,21.7539708 L96.8219448,21.7539708 Z M96.8219448,29.7798547 L96.8219448,22.4661174 L98.9312141,22.4661174 L98.9312141,29.7798547 L96.8219448,29.7798547 Z M105.149094,25.0548007 C104.820277,24.4520287 104.313554,24.1097138 103.656095,24.1097138 C102.615305,24.1097138 102.012706,24.945253 102.012706,26.1094354 C102.012706,27.328305 102.642649,28.1365006 103.697284,28.1365006 C104.423102,28.1365006 104.916153,27.752824 105.299657,27.2187573 L106.682934,28.3692678 C106.066664,29.204634 105.080561,29.9442974 103.532875,29.9442974 C101.259371,29.9442974 99.7938893,28.3145805 99.7938893,26.136779 C99.7938893,23.9453057 101.273043,22.301744 103.49186,22.301744 C105.12175,22.301744 106.135196,23.2056423 106.655591,24.1097138 L105.149094,25.0548007 Z M110.859454,29.7800277 L110.859454,20.0008614 L113.050754,20.0008614 L113.050754,29.7800277 L110.859454,29.7800277 Z M114.173886,29.7800104 L114.173886,22.4662732 L116.283156,22.4662732 L116.283156,23.2604508 C116.721346,22.6990404 117.474682,22.3018651 118.37858,22.3018651 C119.939938,22.3018651 120.789149,23.4523756 120.789149,24.9178574 L120.789149,29.7800104 L118.679879,29.7800104 L118.679879,25.3972368 C118.679879,24.7671212 118.474456,24.1645222 117.625245,24.1645222 C116.872083,24.1645222 116.283156,24.6712453 116.283156,25.6163322 L116.283156,29.7800104 L114.173886,29.7800104 Z M126.801016,29.3142336 C126.376497,29.6703935 125.719038,29.9443493 124.842483,29.9443493 C123.952257,29.9443493 123.253782,29.6703935 122.815591,29.026606 C122.514118,28.5884152 122.404571,28.0816921 122.404571,27.3420288 L122.404571,24.0549053 L121.295249,24.0549053 L121.295249,22.466204 L122.404571,22.466204 L122.404571,20.0009479 L124.500168,20.0009479 L124.500168,22.466204 L126.527233,22.466204 L126.527233,24.0549053 L124.500168,24.0549053 L124.500168,27.410561 C124.500168,27.9721444 124.801468,28.1638962 125.225987,28.1638962 C125.55463,28.1638962 125.951805,28.0543485 126.225761,27.8352531 L126.801016,29.3142336 Z M139.332236,24.5480431 C139.167654,24.4795108 138.948559,24.4384953 138.729464,24.4384953 C137.866754,24.4384953 137.168106,25.0821098 137.168106,26.5614365 L137.168106,29.7800277 L135.05901,29.7800277 L135.05901,22.4661174 L137.168106,22.4661174 L137.168106,23.3701889 C137.565281,22.7264014 138.181552,22.3428979 138.93506,22.3428979 C139.154156,22.3428979 139.510142,22.3977583 139.647207,22.4661174 L139.332236,24.5480431 Z M150.890817,29.94428 C149.452678,29.94428 148.233809,29.4649007 147.425786,28.5883459 L148.740532,27.3831481 C149.384146,28.0816229 150.274546,28.328062 151.04138,28.328062 C151.657997,28.328062 152.178218,28.1638269 152.178218,27.6844476 C152.178218,27.21874 151.68534,27.136536 150.520985,26.9586291 C149.110363,26.7393606 147.754429,26.2873249 147.754429,24.6711068 C147.754429,23.0140463 149.192568,22.3017266 150.863646,22.3017266 C152.424658,22.3017266 153.493137,22.9318423 154.12308,23.5207694 L152.958897,24.7396391 C152.534378,24.2741046 151.657997,23.9042729 150.767424,23.9042729 C150.178843,23.9042729 149.712789,24.068681 149.712789,24.4520114 C149.712789,24.9452357 150.50714,24.999923 151.288165,25.1231426 C153.205509,25.4246151 154.191612,25.9996973 154.191612,27.3968199 C154.191612,28.9991931 152.890538,29.94428 150.890817,29.94428 Z M160.135397,29.3142336 C159.710878,29.6703935 159.053419,29.9443493 158.176864,29.9443493 C157.286464,29.9443493 156.58799,29.6703935 156.149799,29.026606 C155.848326,28.5884152 155.738779,28.0816921 155.738779,27.3420288 L155.738779,24.0549053 L154.629457,24.0549053 L154.629457,22.466204 L155.738779,22.466204 L155.738779,20.0009479 L157.834376,20.0009479 L157.834376,22.466204 L159.861268,22.466204 L159.861268,24.0549053 L157.834376,24.0549053 L157.834376,27.410561 C157.834376,27.9721444 158.135502,28.1638962 158.560021,28.1638962 C158.889011,28.1638962 159.286186,28.0543485 159.560142,27.8352531 L160.135397,29.3142336 Z M73.9926007,42.0351626 L72.1984757,38.5562874 L70.4453663,38.5562874 L70.4453663,42.0351626 L68.253893,42.0351626 L68.253893,32.2561693 L72.7325424,32.2561693 C75.0472353,32.2561693 76.2799499,33.5160545 76.2799499,35.3240243 C76.2799499,36.7758343 75.4580825,37.6934045 74.3624323,38.1727839 L76.3894976,42.0351626 L73.9926007,42.0351626 Z M92.8640363,34.0092961 L92.8640363,32.2561866 L94.9731326,32.2561866 L94.9731326,34.0092961 L92.8640363,34.0092961 Z M92.8640363,42.0351799 L92.8640363,34.7212696 L94.9731326,34.7212696 L94.9731326,42.0351799 L92.8640363,42.0351799 Z M99.0682093,42.1995188 C97.6300712,42.1995188 96.4112015,41.7201394 95.6030059,40.8435847 L96.9179245,39.6383868 C97.561712,40.3368616 98.4519386,40.5833007 99.2187725,40.5833007 C99.8352163,40.5833007 100.355611,40.4190657 100.355611,39.9396863 C100.355611,39.4739787 99.86256,39.3917747 98.6983776,39.2138678 C97.2877562,38.9945994 95.9318221,38.5425636 95.9318221,36.9263456 C95.9318221,35.2692851 97.3697872,34.5569654 99.0408657,34.5569654 C100.60205,34.5569654 101.67053,35.187081 102.300472,35.7760081 L101.13629,36.9950509 C100.711771,36.5291702 99.8352163,36.1596847 98.9449898,36.1596847 C98.3558896,36.1596847 97.8903551,36.3239197 97.8903551,36.7072502 C97.8903551,37.2004744 98.6847058,37.2551618 99.4653847,37.3783813 C101.382902,37.6798538 102.369005,38.254936 102.369005,39.6520587 C102.369005,41.2544319 101.067931,42.1995188 99.0682093,42.1995188 Z M108.312703,41.5693858 C107.888184,41.9255457 107.230725,42.1995015 106.35417,42.1995015 C105.463771,42.1995015 104.765469,41.9255457 104.327105,41.2817582 C104.025806,40.8435674 103.916258,40.3368443 103.916258,39.597181 L103.916258,36.3100575 L102.806763,36.3100575 L102.806763,34.7213562 L103.916258,34.7213562 L103.916258,32.2561001 L106.011682,32.2561001 L106.011682,34.7213562 L108.038747,34.7213562 L108.038747,36.3100575 L106.011682,36.3100575 L106.011682,39.6657132 C106.011682,40.2272966 106.312982,40.4190484 106.737674,40.4190484 C107.066317,40.4190484 107.463492,40.3095007 107.737448,40.0904053 L108.312703,41.5693858 Z M113.215456,36.8032645 C113.051221,36.7347323 112.831953,36.6937168 112.612684,36.6937168 C111.749975,36.6937168 111.0515,37.3373312 111.0515,38.8166579 L111.0515,42.0352491 L108.94223,42.0352491 L108.94223,34.7213389 L111.0515,34.7213389 L111.0515,35.6252372 C111.448675,34.9816228 112.064946,34.5981193 112.818281,34.5981193 C113.037376,34.5981193 113.393536,34.6529797 113.530428,34.7213389 L113.215456,36.8032645 Z M118.556608,42.2542753 C117.995025,43.7744445 117.29655,44.5552964 115.803724,44.5552964 C115.023045,44.5552964 114.44779,44.3360279 113.927395,43.9526974 L114.694229,42.5692466 C114.92717,42.7474996 115.214797,42.8570473 115.516097,42.8570473 C115.967959,42.8570473 116.214571,42.5829185 116.406323,42.1583995 L116.557059,41.8159114 L113.680783,34.7212696 L116.063835,34.7212696 L117.639038,39.2959681 L119.077003,34.7212696 L121.336835,34.7212696 L118.556608,42.2542753 Z M72.6776821,34.2283742 L70.4453663,34.2283742 L70.4453663,36.803178 L72.6640102,36.803178 C73.4722058,36.803178 74.047288,36.3101267 74.047288,35.5021042 C74.047288,34.6802368 73.4722058,34.2283742 72.6776821,34.2283742 Z M78.0049542,17.6891451 C75.7041062,17.6891451 74.2111077,16.1551311 74.2111077,13.8816268 C74.2111077,11.5942776 75.7041062,10.0467648 78.0049542,10.0467648 C80.319647,10.0467648 81.7988007,11.5942776 81.7988007,13.8816268 C81.7988007,16.1551311 80.319647,17.6891451 78.0049542,17.6891451 Z M70.4452625,26.5202479 L70.4452625,29.7800277 L68.2539622,29.7800277 L68.2539622,20.0008614 L72.6092191,20.0008614 C74.8553797,20.0008614 76.2249856,21.2882633 76.2249856,23.2604681 C76.2249856,25.232846 74.8690515,26.5202479 72.6092191,26.5202479 L70.4452625,26.5202479 Z M86.7699649,20.0008787 L86.7699649,23.2743303 C87.2356724,22.6305428 88.0163513,22.3017266 88.8792342,22.3017266 C90.851439,22.3017266 92.1525127,23.9452884 92.1525127,26.109418 C92.1525127,28.2872195 90.8651109,29.94428 88.8792342,29.94428 C88.0026794,29.94428 87.2356724,29.6019651 86.7699649,28.9718495 L86.7699649,29.780045 L84.6606956,29.780045 L84.6606956,20.0008787 L86.7699649,20.0008787 Z M130.594499,22.3017959 C132.881675,22.3017959 134.210266,23.8358099 134.210266,25.958751 C134.210266,26.2600505 134.182922,26.4928177 134.16925,26.6708976 L129.101674,26.6708976 C129.129017,27.6433282 129.854836,28.0951909 130.895972,28.0951909 C131.717666,28.0951909 132.388797,27.8075633 132.868177,27.2461529 L134.16925,28.5062111 C133.306367,29.4784687 132.197045,29.9443493 130.786424,29.9443493 C128.15676,29.9443493 126.841841,28.3146324 126.841841,26.1641746 C126.841841,23.9590294 128.225119,22.3017959 130.594499,22.3017959 Z M143.372123,22.3017959 C145.659299,22.3017959 146.988063,23.8358099 146.988063,25.958751 C146.988063,26.2600505 146.960546,26.4928177 146.946874,26.6708976 L141.879298,26.6708976 C141.906641,27.6433282 142.63246,28.0951909 143.673596,28.0951909 C144.49529,28.0951909 145.166421,27.8075633 145.6458,27.2461529 L146.946874,28.5062111 C146.083991,29.4784687 144.974669,29.9443493 143.564048,29.9443493 C140.934384,29.9443493 139.619465,28.3146324 139.619465,26.1641746 C139.619465,23.9590294 141.002916,22.3017959 143.372123,22.3017959 Z M80.1003613,34.5570173 C82.3877105,34.5570173 83.7161278,36.0910313 83.7161278,38.2139724 C83.7161278,38.5152719 83.6887842,38.7480391 83.6751124,38.9261191 L78.6075358,38.9261191 C78.6348795,39.8985497 79.360871,40.3504123 80.4016607,40.3504123 C81.2233551,40.3504123 81.8944862,40.0627847 82.3738656,39.5013743 L83.6751124,40.7614326 C82.8122295,41.7336901 81.7029075,42.1995707 80.292113,42.1995707 C77.6624489,42.1995707 76.3475302,40.5696808 76.3475302,38.419396 C76.3475302,36.2144239 77.7309811,34.5570173 80.1003613,34.5570173 Z M89.6597919,40.6928311 C89.2077561,41.3091019 88.4134055,41.6515899 87.5095071,41.6515899 C85.5783177,41.6515899 84.2633991,40.103904 84.2633991,38.1178543 C84.2633991,36.1321507 85.5919896,34.5569481 87.5231789,34.5569481 C88.4270773,34.5569481 89.2077561,34.8994361 89.6597919,35.5430505 L89.6597919,34.7211831 L91.7688881,34.7211831 L91.7688881,40.624472 C91.7688881,41.7474658 91.5909812,42.665036 90.9471938,43.3910275 C90.1391713,44.2949259 88.879113,44.5552098 87.687587,44.5552098 C86.4001851,44.5552098 85.3180338,44.2537373 84.4141354,43.6649833 L85.2770183,42.0899538 C85.7837413,42.5006279 86.6876397,42.8021004 87.6190548,42.8021004 C88.796909,42.8021004 89.6597919,42.3502377 89.6597919,41.1448668 L89.6597919,40.6928311 Z M78.0049542,11.7997012 C76.9915081,11.7997012 76.4435965,12.6627571 76.4435965,13.867955 C76.4435965,15.0731528 76.9915081,15.9360357 78.0049542,15.9360357 C79.0322452,15.9360357 79.5799837,15.0731528 79.5799837,13.867955 C79.5799837,12.6627571 79.0322452,11.7997012 78.0049542,11.7997012 Z M72.5818754,24.5480431 C73.4721019,24.5480431 74.0063417,24.1096792 74.0063417,23.2469693 C74.0063417,22.3977583 73.4584301,21.9732393 72.5818754,21.9732393 L70.4452625,21.9732393 L70.4452625,24.5480431 L72.5818754,24.5480431 Z M88.3723381,28.1364833 C89.4406445,28.1364833 89.9473676,27.2324118 89.9473676,26.1369348 C89.9473676,25.0409385 89.4406445,24.1096965 88.3723381,24.1096965 C87.3177034,24.1096965 86.7699649,25.0409385 86.7699649,26.1369348 C86.7699649,27.2460837 87.3040316,28.1364833 88.3723381,28.1364833 Z M132.142358,25.2466044 C132.073826,24.3425329 131.457382,23.8631536 130.635688,23.8631536 C129.772632,23.8631536 129.183878,24.4110652 129.101674,25.2466044 L132.142358,25.2466044 Z M144.919982,25.2466044 C144.85145,24.3425329 144.235006,23.8631536 143.413312,23.8631536 C142.550256,23.8631536 141.961502,24.4110652 141.879298,25.2466044 L144.919982,25.2466044 Z M81.6480471,37.5016528 C81.5795149,36.5977544 80.9632442,36.118375 80.1413768,36.118375 C79.2784939,36.118375 78.6897398,36.6662866 78.6075358,37.5016528 L81.6480471,37.5016528 Z M88.0435738,36.2827139 C87.0164559,36.2827139 86.4822161,37.0635658 86.4822161,38.0905106 C86.4822161,39.1314734 87.0164559,39.939669 88.0435738,39.939669 C89.0708648,39.939669 89.6597919,39.1314734 89.6597919,38.0905106 C89.6597919,37.0909094 89.0982084,36.2827139 88.0435738,36.2827139 Z" id="Combined-Shape"></path>
        </g>
    </g>
</svg>