<?xml version="1.0" encoding="UTF-8"?>
<svg width="189px" height="50px" viewBox="0 0 189 50" version="1.1" xmlns="http://www.w3.org/2000/svg" xmlns:xlink="http://www.w3.org/1999/xlink">
    <!-- Generator: Sketch 47.1 (45422) - http://www.bohemiancoding.com/sketch -->
    <title>pir-logo</title>
    <desc>Created with Sketch.</desc>
    <defs></defs>
    <g id="Client-Logos" stroke="none" stroke-width="1" fill="none" fill-rule="evenodd">
        <g id="pir-logo" fill="#818181">
            <path d="M42.1912684,11.5124589 L42.2019,11.5124589 L36.7563465,11.5109925 C35.4376676,11.5016441 34.7143556,11.5340886 33.3529672,12.2014934 L36.9807089,8.20311389 C38.4148684,6.75374027 40.3186491,6.00073321 42.1978673,6 L42.1953011,6 C44.0745193,6.00073321 45.9783001,6.75374027 47.4124596,8.20311389 L51.0402012,12.2014934 C49.6788128,11.5340886 48.9555008,11.5016441 47.6366386,11.5109925 L42.1912684,11.5124589 Z M53.2835867,24.4602577 C53.3745048,24.9982508 53.3767044,25.5465089 53.2846865,26.086335 C53.1261298,27.0022981 52.7019676,27.8784845 52.0054177,28.5841995 L45.4686639,35.2116881 C44.7715641,35.91612 43.9039929,36.3472477 43.0006777,36.5092872 C42.4705666,36.6046045 41.9252414,36.601855 41.393114,36.5065376 C40.4914485,36.3472477 39.6293764,35.91612 38.9291605,35.2089386 L32.3935065,28.5814499 C31.6993395,27.8784845 31.2705948,27.0037645 31.1113048,26.0883513 C31.0165374,25.5465089 31.0165374,24.9962345 31.1125879,24.4554918 C31.2705948,23.5389789 31.6969566,22.6662752 32.3913068,21.9585439 L38.9291605,15.3310553 C39.625527,14.6293729 40.4885157,14.1971454 41.3912809,14.0347393 C41.9235917,13.937039 42.4705666,13.9381388 43.0047104,14.0330896 C43.905276,14.1965955 44.7715641,14.6262568 45.4686639,15.3341714 L52.0054177,21.9585439 C52.7008677,22.6631591 53.1252132,23.542095 53.2835867,24.4602577 Z M42.2215317,39.1596411 L42.2109002,39.1596411 L47.6564536,39.1611075 C48.9751325,39.1704559 49.6984446,39.1381947 51.0598329,38.4706066 L47.4320913,42.4689861 C45.9979318,43.9183597 44.094151,44.6706336 42.2149328,44.6721 L42.217499,44.6721 C40.3382808,44.6706336 38.4345001,43.9183597 37.0003406,42.4689861 L33.3725989,38.4706066 C34.7339873,39.1381947 35.4572993,39.1704559 36.7761615,39.1611075 L42.2215317,39.1596411 Z M28.4453702,25.1552495 L28.4453702,25.1444346 L28.4440871,30.6568936 C28.4347386,31.9918864 28.4666333,32.7239969 29.1259727,34.1020658 L25.1761684,30.4301483 C23.7443918,28.9780251 23.0012831,27.0507816 23,25.1486506 L23,25.1512168 C23.0012831,23.2489025 23.7443918,21.321659 25.1761684,19.8702691 L29.1259727,16.1976183 C28.4666333,17.5756872 28.4347386,18.3077977 28.4440871,19.6427905 L28.4453702,25.1552495 Z M55.887675,25.144508 L55.887675,25.1553228 L55.8889581,19.6428639 C55.8983066,18.3078711 55.8664119,17.5757605 55.2070725,16.1976916 L59.1566935,19.8696092 C60.5886534,21.3217323 61.3317621,23.2489758 61.3330452,25.1512902 L61.3330452,25.1485406 C61.3317621,27.0508549 60.5886534,28.9780984 59.1566935,30.4294884 L55.2070725,34.1021392 C55.8664119,32.7240703 55.8983066,31.9919597 55.8889581,30.6569669 L55.887675,25.144508 Z M71.4577457,12.724694 L71.4577457,17.0332215 L69.1367682,17.0332215 L69.1367682,12.7391749 L65.4375386,6.67534175 L68.1212719,6.67534175 L70.3117379,10.5631898 L72.5022039,6.67534175 L75.1714563,6.67534175 L71.4577457,12.724694 Z M88.8501008,9.2865972 L88.8501008,17.0331482 L86.630673,17.0331482 L86.630673,16.1917893 C86.1663675,16.8010871 85.3539704,17.2072856 84.396581,17.2072856 C82.7573058,17.2072856 81.8433591,15.98869 81.8433591,14.4364836 L81.8433591,9.2865972 L84.0774511,9.2865972 L84.0774511,13.9142545 C84.0774511,14.581476 84.2950313,15.2343998 85.1944972,15.2343998 C86.0068943,15.2343998 86.630673,14.6976898 86.630673,13.696491 L86.630673,9.2865972 L88.8501008,9.2865972 Z M94.5650724,11.4916908 C94.3911183,11.4191029 94.1590572,11.3756602 93.9268128,11.3756602 C93.0128661,11.3756602 92.2730568,12.0573626 92.2730568,13.6240498 L92.2730568,17.0332948 L90.0389648,17.0332948 L90.0389648,9.28656054 L92.2730568,9.28656054 L92.2730568,10.2441333 C92.6937363,9.56224764 93.3466601,9.15604909 94.144393,9.15604909 C94.3764541,9.15604909 94.7536908,9.21415601 94.8986832,9.28656054 L94.5650724,11.4916908 Z M82.9464741,22.2670788 L82.9464741,30.0136298 L80.7270463,30.0136298 L80.7270463,29.1722709 C80.2627408,29.7813854 79.4503437,30.1877672 78.4929543,30.1877672 C76.8536792,30.1877672 75.9397324,28.9691716 75.9397324,27.4167819 L75.9397324,22.2670788 L78.1738245,22.2670788 L78.1738245,26.8947361 C78.1738245,27.5621409 78.3914046,28.2148814 79.2908705,28.2148814 C80.1032676,28.2148814 80.7270463,27.6781714 80.7270463,26.6769726 L80.7270463,22.2670788 L82.9464741,22.2670788 Z M92.9839043,19.6558234 L95.2035154,19.6558234 L95.2035154,27.8375347 C95.2035154,28.2728784 95.3774695,28.4033898 95.6965994,28.4033898 C95.8998819,28.4033898 96.0593552,28.3452829 96.1609048,28.2728784 L96.4510728,29.9119702 C96.1464239,30.0716267 95.6821185,30.1586954 95.2324772,30.1586954 C94.3766374,30.1586954 93.7237135,29.9119702 93.3321792,29.3609626 C93.0418279,28.9545807 92.9839043,28.5049394 92.9839043,27.7070232 L92.9839043,19.6558234 Z M97.0162681,21.5126603 L97.0162681,19.655805 L99.2503601,19.655805 L99.2503601,21.5126603 L97.0162681,21.5126603 Z M97.0162681,30.0135015 L97.0162681,22.2669505 L99.2503601,22.2669505 L99.2503601,30.0135015 L97.0162681,30.0135015 Z M105.836202,25.0088274 C105.487927,24.3703844 104.951217,24.0078119 104.254851,24.0078119 C103.152469,24.0078119 102.514209,24.8927968 102.514209,26.1258734 C102.514209,27.4168736 103.181431,28.2728967 104.298477,28.2728967 C105.067248,28.2728967 105.589477,27.8665148 105.995676,27.300843 L107.460813,28.5194387 C106.808073,29.4042403 105.763615,30.1876756 104.124339,30.1876756 C101.716293,30.1876756 100.164087,28.4615151 100.164087,26.1548352 C100.164087,23.8336744 101.730774,22.0928497 104.080897,22.0928497 C105.807241,22.0928497 106.880661,23.0502391 107.431851,24.0078119 L105.836202,25.0088274 Z M111.884491,30.0136848 L111.884491,19.655805 L114.205469,19.655805 L114.205469,30.0136848 L111.884491,30.0136848 Z M115.395066,30.0136664 L115.395066,22.2671155 L117.629158,22.2671155 L117.629158,23.1082911 C118.09328,22.5136575 118.891196,22.092978 119.848586,22.092978 C121.502342,22.092978 122.401808,23.3115737 122.401808,24.86378 L122.401808,30.0136664 L120.167716,30.0136664 L120.167716,25.3715282 C120.167716,24.7041235 119.950136,24.0658638 119.05067,24.0658638 C118.252937,24.0658638 117.629158,24.6025738 117.629158,25.6035893 L117.629158,30.0136664 L115.395066,30.0136664 Z M128.769447,29.5203258 C128.319805,29.8975626 127.623439,30.1877306 126.695011,30.1877306 C125.752103,30.1877306 125.012293,29.8975626 124.548171,29.2156769 C124.228858,28.7515547 124.112828,28.2148447 124.112828,27.4314095 L124.112828,23.94976 L122.937858,23.94976 L122.937858,22.2670421 L124.112828,22.2670421 L124.112828,19.6558967 L126.332439,19.6558967 L126.332439,22.2670421 L128.479462,22.2670421 L128.479462,23.94976 L126.332439,23.94976 L126.332439,27.5039973 C126.332439,28.0988142 126.651568,28.3019135 127.10121,28.3019135 C127.449301,28.3019135 127.869981,28.1858829 128.160149,27.9538219 L128.769447,29.5203258 Z M142.042241,24.4720807 C141.86792,24.3994929 141.635859,24.3560502 141.403798,24.3560502 C140.490035,24.3560502 139.750042,25.0377525 139.750042,26.6046231 L139.750042,30.0136848 L137.516133,30.0136848 L137.516133,22.2669505 L139.750042,22.2669505 L139.750042,23.2245233 C140.170721,22.5426376 140.823462,22.136439 141.621561,22.136439 C141.853623,22.136439 142.230676,22.194546 142.375852,22.2669505 L142.042241,24.4720807 Z M154.284838,30.1876573 C152.761593,30.1876573 151.470593,29.6799091 150.614753,28.7514814 L152.007303,27.4749622 C152.689006,28.2147714 153.632097,28.4757943 154.444311,28.4757943 C155.097418,28.4757943 155.648426,28.3018402 155.648426,27.794092 C155.648426,27.3008247 155.12638,27.213756 153.89312,27.0253209 C152.399021,26.7930765 150.962845,26.3142901 150.962845,24.6024272 C150.962845,22.8473048 152.48609,22.0928314 154.256059,22.0928314 C155.909449,22.0928314 157.041159,22.7602361 157.70838,23.3840148 L156.475304,24.675015 C156.025663,24.181931 155.097418,23.7902134 154.154143,23.7902134 C153.530731,23.7902134 153.037097,23.9643509 153.037097,24.3703661 C153.037097,24.8927785 153.878456,24.9507021 154.705701,25.0812136 C156.73651,25.4005267 157.780968,26.0096412 157.780968,27.4894431 C157.780968,29.1866418 156.402899,30.1876573 154.284838,30.1876573 Z M164.076496,29.5203258 C163.626855,29.8975626 162.930488,30.1877306 162.00206,30.1877306 C161.058969,30.1877306 160.319159,29.8975626 159.855037,29.2156769 C159.535724,28.7515547 159.419694,28.2148447 159.419694,27.4314095 L159.419694,23.94976 L158.244724,23.94976 L158.244724,22.2670421 L159.419694,22.2670421 L159.419694,19.6558967 L161.639305,19.6558967 L161.639305,22.2670421 L163.786145,22.2670421 L163.786145,23.94976 L161.639305,23.94976 L161.639305,27.5039973 C161.639305,28.0988142 161.958251,28.3019135 162.407892,28.3019135 C162.756351,28.3019135 163.17703,28.1858829 163.467198,27.9538219 L164.076496,29.5203258 Z M72.8359246,42.9940564 L70.9356266,39.3093076 L69.0787713,39.3093076 L69.0787713,42.9940564 L66.7576105,42.9940564 L66.7576105,32.63636 L71.5012984,32.63636 C73.9529706,32.63636 75.258635,33.9708029 75.258635,35.8857651 C75.258635,37.4234905 74.388131,38.3953609 73.2276422,38.9031091 L75.3746655,42.9940564 L72.8359246,42.9940564 Z M92.8241377,34.4932336 L92.8241377,32.6363783 L95.0580464,32.6363783 L95.0580464,34.4932336 L92.8241377,34.4932336 Z M92.8241377,42.9940747 L92.8241377,35.2473405 L95.0580464,35.2473405 L95.0580464,42.9940747 L92.8241377,42.9940747 Z M99.3954624,43.1681389 C97.8722179,43.1681389 96.5812177,42.6603907 95.7251946,41.731963 L97.1179277,40.4554438 C97.7998133,41.195253 98.7427219,41.4562759 99.5549357,41.4562759 C100.20786,41.4562759 100.75905,41.2823218 100.75905,40.7745736 C100.75905,40.2813063 100.236821,40.1942376 99.0037448,40.0058025 C97.5096453,39.7735581 96.0734695,39.2947717 96.0734695,37.5829088 C96.0734695,35.8277865 97.5965308,35.073313 99.3665006,35.073313 C101.020073,35.073313 102.151784,35.7407177 102.819005,36.3644965 L101.585928,37.6556799 C101.136287,37.1622293 100.20786,36.7708783 99.264951,36.7708783 C98.640989,36.7708783 98.147905,36.9448325 98.147905,37.3508477 C98.147905,37.8732601 98.9892639,37.9311837 99.8161419,38.0616952 C101.847135,38.3810083 102.891593,38.9901228 102.891593,40.4699247 C102.891593,42.1671234 101.513524,43.1681389 99.3954624,43.1681389 Z M109.187029,42.5007158 C108.737388,42.8779525 108.041021,43.1681205 107.112593,43.1681205 C106.169501,43.1681205 105.429876,42.8779525 104.96557,42.1960669 C104.64644,41.7319447 104.53041,41.1952347 104.53041,40.4117994 L104.53041,36.9301499 L103.355257,36.9301499 L103.355257,35.2474321 L104.53041,35.2474321 L104.53041,32.6362866 L106.749837,32.6362866 L106.749837,35.2474321 L108.896861,35.2474321 L108.896861,36.9301499 L106.749837,36.9301499 L106.749837,40.4843872 C106.749837,41.0792042 107.068967,41.2823034 107.518792,41.2823034 C107.866884,41.2823034 108.287563,41.1662729 108.577731,40.9342118 L109.187029,42.5007158 Z M114.379918,37.452544 C114.205964,37.3799562 113.973719,37.3365135 113.741475,37.3365135 C112.827712,37.3365135 112.087902,38.0182158 112.087902,39.5850864 L112.087902,42.994148 L109.85381,42.994148 L109.85381,35.2474138 L112.087902,35.2474138 L112.087902,36.2048032 C112.508582,35.5231009 113.161322,35.1169023 113.959239,35.1169023 C114.1913,35.1169023 114.568536,35.1750093 114.713529,35.2474138 L114.379918,37.452544 Z M120.037149,43.2261358 C119.442332,44.8362658 118.702523,45.6633271 117.121355,45.6633271 C116.294477,45.6633271 115.685179,45.4310827 115.133988,45.0250675 L115.946202,43.5597465 C116.192927,43.7485482 116.497576,43.8645787 116.816706,43.8645787 C117.295309,43.8645787 117.556515,43.5742274 117.759615,43.1245862 L117.919271,42.7618303 L114.872782,35.2473405 L117.396859,35.2473405 L119.065279,40.0927613 L120.58834,35.2473405 L122.981906,35.2473405 L120.037149,43.2261358 Z M71.4431915,34.7252763 L69.0787713,34.7252763 L69.0787713,37.4524523 L71.4287106,37.4524523 C72.2847337,37.4524523 72.8938482,36.9302233 72.8938482,36.0743834 C72.8938482,35.2038794 72.2847337,34.7252763 71.4431915,34.7252763 Z M77.0857219,17.2072856 C74.6487139,17.2072856 73.0673624,15.5824914 73.0673624,13.1744452 C73.0673624,10.7517348 74.6487139,9.11264303 77.0857219,9.11264303 C79.5373941,9.11264303 81.1040814,10.7517348 81.1040814,13.1744452 C81.1040814,15.5824914 79.5373941,17.2072856 77.0857219,17.2072856 Z M69.0786613,26.5609971 L69.0786613,30.0136848 L66.7576839,30.0136848 L66.7576839,19.655805 L71.370677,19.655805 C73.7497613,19.655805 75.2004181,21.019393 75.2004181,23.1083094 C75.2004181,25.1974091 73.7642422,26.5609971 71.370677,26.5609971 L69.0786613,26.5609971 Z M86.3694301,19.6558234 L86.3694301,23.1229919 C86.8626974,22.4411063 87.6895754,22.0928314 88.6035222,22.0928314 C90.6924385,22.0928314 92.0705074,23.8336561 92.0705074,26.1258551 C92.0705074,28.4325349 90.7069194,30.1876573 88.6035222,30.1876573 C87.6750945,30.1876573 86.8626974,29.8250847 86.3694301,29.15768 L86.3694301,30.0137031 L84.1353381,30.0137031 L84.1353381,19.6558234 L86.3694301,19.6558234 Z M132.787421,22.0929047 C135.209948,22.0929047 136.617162,23.7176989 136.617162,25.9662718 C136.617162,26.2854016 136.588201,26.5319436 136.57372,26.720562 L131.206253,26.720562 C131.235215,27.7505393 132.003986,28.2291424 133.106734,28.2291424 C133.977055,28.2291424 134.687903,27.9244934 135.195651,27.3298598 L136.57372,28.664486 C135.659773,29.69428 134.484803,30.1877306 132.990704,30.1877306 C130.205421,30.1877306 128.812688,28.46157 128.812688,26.183852 C128.812688,23.8482103 130.277825,22.0929047 132.787421,22.0929047 Z M146.321202,22.0929047 C148.743729,22.0929047 150.151126,23.7176989 150.151126,25.9662718 C150.151126,26.2854016 150.121981,26.5319436 150.1075,26.720562 L144.740034,26.720562 C144.768995,27.7505393 145.537766,28.2291424 146.640515,28.2291424 C147.510836,28.2291424 148.221683,27.9244934 148.729431,27.3298598 L150.1075,28.664486 C149.193553,29.69428 148.018584,30.1877306 146.524484,30.1877306 C143.739201,30.1877306 142.346468,28.46157 142.346468,26.183852 C142.346468,23.8482103 143.811789,22.0929047 146.321202,22.0929047 Z M79.3051314,35.073368 C81.7278418,35.073368 83.1348725,36.6981622 83.1348725,38.9467351 C83.1348725,39.2658649 83.1059107,39.5124069 83.0914298,39.7010253 L77.7239632,39.7010253 C77.752925,40.7310026 78.5218794,41.2096056 79.6242612,41.2096056 C80.494582,41.2096056 81.2054294,40.9049567 81.7131776,40.3103231 L83.0914298,41.6449493 C82.1774831,42.6747433 81.0025134,43.1681939 79.5082307,43.1681939 C76.7229478,43.1681939 75.3302146,41.44185 75.3302146,39.1643153 C75.3302146,36.8288569 76.7955356,35.073368 79.3051314,35.073368 Z M89.4302718,41.5722881 C88.9514855,42.2250287 88.1101266,42.5877845 87.1527371,42.5877845 C85.1072634,42.5877845 83.7145303,40.9485094 83.7145303,38.8449288 C83.7145303,36.7417149 85.1217444,35.0732946 87.167218,35.0732946 C88.1246075,35.0732946 88.9514855,35.4360505 89.4302718,36.1177528 L89.4302718,35.2472488 L91.6641806,35.2472488 L91.6641806,41.4998836 C91.6641806,42.6893342 91.4757455,43.6612045 90.7938599,44.4301589 C89.93802,45.3875484 88.6033938,45.6632355 87.3413555,45.6632355 C85.9777675,45.6632355 84.8315763,45.3439223 83.8741869,44.7203269 L84.7881336,43.05209 C85.3248436,43.4870671 86.2822331,43.8063802 87.2687676,43.8063802 C88.5163251,43.8063802 89.4302718,43.3277771 89.4302718,42.0510745 L89.4302718,41.5722881 Z M77.0857219,10.969315 C76.0123019,10.969315 75.4319659,11.8834451 75.4319659,13.1599643 C75.4319659,14.4364836 76.0123019,15.3504303 77.0857219,15.3504303 C78.1738061,15.3504303 78.7539588,14.4364836 78.7539588,13.1599643 C78.7539588,11.8834451 78.1738061,10.969315 77.0857219,10.969315 Z M71.3417152,24.4720807 C72.2846237,24.4720807 72.8504788,24.0077752 72.8504788,23.0940118 C72.8504788,22.194546 72.2701428,21.7449047 71.3417152,21.7449047 L69.0786613,21.7449047 L69.0786613,24.4720807 L71.3417152,24.4720807 Z M88.0666289,28.2728784 C89.1981558,28.2728784 89.7348658,27.3153056 89.7348658,26.1550002 C89.7348658,24.9941448 89.1981558,24.0077936 88.0666289,24.0077936 C86.9495828,24.0077936 86.3694301,24.9941448 86.3694301,26.1550002 C86.3694301,27.3297865 86.9351019,28.2728784 88.0666289,28.2728784 Z M134.42688,25.2119816 C134.354292,24.2544089 133.701368,23.7466607 132.831047,23.7466607 C131.916917,23.7466607 131.293322,24.3269967 131.206253,25.2119816 L134.42688,25.2119816 Z M147.96066,25.2119816 C147.888072,24.2544089 147.235148,23.7466607 146.364828,23.7466607 C145.450698,23.7466607 144.827102,24.3269967 144.740034,25.2119816 L147.96066,25.2119816 Z M80.9444065,38.1922616 C80.8718187,37.2348722 80.2190782,36.727124 79.3485741,36.727124 C78.4346274,36.727124 77.811032,37.30746 77.7239632,38.1922616 L80.9444065,38.1922616 Z M87.7184089,36.9011881 C86.630508,36.9011881 86.0646529,37.7282494 86.0646529,38.815967 C86.0646529,39.9185321 86.630508,40.7745553 87.7184089,40.7745553 C88.8064931,40.7745553 89.4302718,39.9185321 89.4302718,38.815967 C89.4302718,37.7572112 88.8354549,36.9011881 87.7184089,36.9011881 Z" id="Combined-Shape"></path>
        </g>
    </g>
</svg>