<?xml version="1.0" encoding="UTF-8"?>
<svg width="189px" height="50px" viewBox="0 0 189 50" version="1.1" xmlns="http://www.w3.org/2000/svg" xmlns:xlink="http://www.w3.org/1999/xlink">
    <!-- Generator: Sketch 47.1 (45422) - http://www.bohemiancoding.com/sketch -->
    <title>sikh-logo</title>
    <desc>Created with Sketch.</desc>
    <defs></defs>
    <g id="Client-Logos" stroke="none" stroke-width="1" fill="none" fill-rule="evenodd">
        <g id="sikh-logo" fill="#818181">
            <g id="Logo" transform="translate(18.188091, 8.590332)">
                <path d="M42.8938345,15.5489303 C42.455184,14.8444085 41.67172,14.5308739 40.8733613,14.5308739 C39.7138048,14.5308739 38.5073298,15.0790008 38.5073298,16.3949523 C38.5073298,17.4130086 39.0718409,17.8672986 40.8420823,18.431065 C42.5646605,18.9799366 44.1628674,19.543703 44.1628674,21.7213158 C44.1628674,23.9294629 42.2675102,24.9639035 40.2619317,24.9639035 C38.9772593,24.9639035 37.5987499,24.5408925 36.8473096,23.4282545 L37.9748424,22.5040351 C38.4447719,23.3187781 39.3846308,23.741789 40.3401291,23.741789 C41.4684067,23.741789 42.7530791,23.083441 42.7530791,21.8151528 C42.7530791,20.4522829 41.8288597,20.2169458 39.8545602,19.5593425 C38.288377,19.0424946 37.0975415,18.3528675 37.0975415,16.5044287 C37.0975415,14.3737343 38.9303408,13.3087595 40.8733613,13.3087595 C42.1103705,13.3087595 43.1604506,13.653573 43.9744488,14.6090714 L42.8938345,15.5489303 L42.8938345,15.5489303 Z" id="Fill-1"></path>
                <polygon id="Fill-3" points="45.948078 24.681499 47.2640294 24.681499 47.2640294 13.5908661 45.948078 13.5908661"></polygon>
                <polygon id="Fill-5" points="49.6296141 13.5907916 50.9455655 13.5907916 50.9455655 18.3839231 51.1332394 18.3839231 56.1773474 13.5907916 58.0727047 13.5907916 52.5899462 18.6505391 58.3393207 24.6814245 56.4126845 24.6814245 51.1332394 19.0422711 50.9455655 19.0422711 50.9455655 24.6814245 49.6296141 24.6814245"></polygon>
                <polygon id="Fill-6" points="59.106475 13.5907916 60.4224264 13.5907916 60.4224264 18.2900861 66.3438353 18.2900861 66.3438353 13.5907916 67.6597868 13.5907916 67.6597868 24.6814245 66.3438353 24.6814245 66.3438353 19.5122006 60.4224264 19.5122006 60.4224264 24.6814245 59.106475 24.6814245"></polygon>
                <path d="M77.0266499,16.4731497 C76.541081,15.8937438 75.8358144,15.5645698 74.9272345,15.5645698 C73.0787957,15.5645698 71.7166706,17.0681951 71.7166706,19.1363315 C71.7166706,21.2037232 73.0787957,22.7080932 74.8490371,22.7080932 C75.8358144,22.7080932 76.6349179,22.2694427 77.1361263,21.5172577 L79.1729838,23.0365225 C78.2487644,24.3524739 76.6818364,24.9639035 75.1625716,24.9639035 C71.7002863,24.9639035 69.1786047,22.6924537 69.1786047,19.1363315 C69.1786047,15.5802093 71.7002863,13.3087595 75.1625716,13.3087595 C76.4003256,13.3087595 77.9665088,13.7317705 78.9063677,14.9382454 L77.0266499,16.4731497 Z" id="Fill-7"></path>
                <path d="M85.5012429,22.7077953 C87.5842741,22.7077953 88.947144,21.20417 88.947144,19.1360336 C88.947144,17.0686419 87.5842741,15.5642719 85.5012429,15.5642719 C83.417467,15.5642719 82.0545971,17.0686419 82.0545971,19.1360336 C82.0545971,21.20417 83.417467,22.7077953 85.5012429,22.7077953 M85.5012429,13.3092063 C88.9627835,13.3092063 91.4852098,15.5806561 91.4852098,19.1360336 C91.4852098,22.6921558 88.9627835,24.9636056 85.5012429,24.9636056 C82.0389576,24.9636056 79.517276,22.6921558 79.517276,19.1360336 C79.517276,15.5806561 82.0389576,13.3092063 85.5012429,13.3092063" id="Fill-8"></path>
                <path d="M97.343614,16.8178888 L95.9963836,20.2637898 L98.7064839,20.2637898 L97.343614,16.8178888 Z M96.4037551,13.5909406 L98.4242283,13.5909406 L103.249383,24.6815735 L100.492365,24.6815735 L99.5368663,22.3319262 L95.2285591,22.3319262 L94.3043397,24.6815735 L91.6106237,24.6815735 L96.4037551,13.5909406 Z" id="Fill-9"></path>
                <polygon id="Fill-10" points="104.06368 13.5907916 106.507164 13.5907916 106.507164 22.4256142 111.034424 22.4256142 111.034424 24.6814245 104.06368 24.6814245"></polygon>
                <polygon id="Fill-11" points="111.957899 24.681499 114.401383 24.681499 114.401383 13.5908661 111.957899 13.5908661"></polygon>
                <polygon id="Fill-12" points="118.380888 15.752616 115.216498 15.752616 115.216498 13.5906427 123.988763 13.5906427 123.988763 15.752616 120.824372 15.752616 120.824372 24.6812756 118.380888 24.6812756"></polygon>
                <polygon id="Fill-13" points="124.803133 24.681499 127.246618 24.681499 127.246618 13.5908661 124.803133 13.5908661"></polygon>
                <path d="M134.468264,22.7077953 C136.551295,22.7077953 137.914165,21.20417 137.914165,19.1360336 C137.914165,17.0686419 136.551295,15.5642719 134.468264,15.5642719 C132.384488,15.5642719 131.021618,17.0686419 131.021618,19.1360336 C131.021618,21.20417 132.384488,22.7077953 134.468264,22.7077953 M134.468264,13.3092063 C137.929804,13.3092063 140.452231,15.5806561 140.452231,19.1360336 C140.452231,22.6921558 137.929804,24.9636056 134.468264,24.9636056 C131.005979,24.9636056 128.484297,22.6921558 128.484297,19.1360336 C128.484297,15.5806561 131.005979,13.3092063 134.468264,13.3092063" id="Fill-14"></path>
                <polygon id="Fill-15" points="141.720593 13.5907916 145.041379 13.5907916 149.756313 21.2980814 149.788336 21.2980814 149.788336 13.5907916 152.231821 13.5907916 152.231821 24.6814245 149.036151 24.6814245 144.195357 16.7864608 144.164078 16.7864608 144.164078 24.6814245 141.720593 24.6814245"></polygon>
                <polygon id="Fill-34" points="39.3852265 10.8928306 38.7924154 10.8928306 38.7924154 5.60817231 36.8419475 5.60817231 36.8419475 5.06451383 41.3364392 5.06451383 41.3364392 5.60817231 39.3852265 5.60817231"></polygon>
                <polygon id="Fill-35" points="41.8302002 5.06481173 42.4230114 5.06481173 42.4230114 7.59170653 45.6000621 7.59170653 45.6000621 5.06481173 46.1928733 5.06481173 46.1928733 10.8931285 45.6000621 10.8931285 45.6000621 8.13536501 42.4230114 8.13536501 42.4230114 10.8931285 41.8302002 10.8931285"></polygon>
                <polygon id="Fill-36" points="47.9548481 10.349619 51.074554 10.349619 51.074554 10.8925327 47.3620369 10.8925327 47.3620369 5.06496067 50.9762487 5.06496067 50.9762487 5.60787441 47.9548481 5.60787441 47.9548481 7.59185548 50.7781485 7.59185548 50.7781485 8.13551395 47.9548481 8.13551395"></polygon>
                <path d="M6.43036266,12.0585684 C6.46611007,12.0771868 6.49887852,12.085379 6.55026542,12.0868684 L6.59420494,12.0287789 C6.53909435,12.0377158 6.48472851,12.0466526 6.43036266,12.0563342 L6.43036266,12.0585684 M16.2124915,0.456300751 C7.52363751,0.456300751 0.456077329,7.52386093 0.456077329,16.2119702 C0.456077329,24.8993348 7.52363751,31.9676397 16.2124915,31.9676397 C24.8998561,31.9676397 31.968161,24.8993348 31.968161,16.2119702 C31.968161,7.52386093 24.8998561,0.456300751 16.2124915,0.456300751 M16.2124915,32.4234191 C14.0237076,32.4234191 11.9004606,31.9944502 9.90084005,31.149173 C7.97122483,30.3329406 6.23747561,29.1637025 4.74874507,27.6749719 C3.2592698,26.1862414 2.09077644,24.4524922 1.27454399,22.5221322 C0.428522037,20.5232564 0.000297895053,18.4000094 0.000297895053,16.2119702 C0.000297895053,14.0231863 0.428522037,11.8999393 1.27454399,9.90106347 C2.09077644,7.97070351 3.2592698,6.23695429 4.74874507,4.74822376 C6.23747561,3.25949322 7.97122483,2.09099987 9.90084005,1.27402268 C11.9004606,0.428745458 14.0237076,-0.000223421291 16.2124915,-0.000223421291 C18.4005307,-0.000223421291 20.5237777,0.428745458 22.5226535,1.27402268 C24.4530135,2.09099987 26.1867627,3.25949322 27.6754932,4.74822376 C29.1642238,6.23695429 30.3327171,7.97070351 31.1496943,9.90106347 C31.9949715,11.8999393 32.4239404,14.0231863 32.4239404,16.2119702 C32.4239404,18.4000094 31.9949715,20.5232564 31.1496943,22.5221322 C30.3327171,24.4524922 29.1642238,26.1862414 27.6754932,27.6749719 C26.1867627,29.1637025 24.4530135,30.3329406 22.5226535,31.149173 C20.5237777,31.9944502 18.4005307,32.4234191 16.2124915,32.4234191" id="Fill-37"></path>
                <path d="M3.90964918,14.8946038 C4.26191008,14.4581876 3.88581757,14.9333302 4.47937347,16.3848238 C5.58456412,12.1778009 8.88970976,8.85403683 13.0848169,7.71905667 C12.8963983,6.04935488 12.7303218,4.98363532 12.7303218,4.98363532 L16.0250411,1.49230528 C8.1762511,1.63231595 1.8541733,8.03557016 1.8541733,15.9186181 C1.8541733,17.0603009 1.99120502,18.1699599 2.24143687,19.2349348 C2.22654212,16.5084503 3.90964918,14.8946038 3.90964918,14.8946038" id="Fill-38"></path>
                <path d="M19.4395887,7.71875877 C23.6600169,8.86044157 26.9793125,12.2162294 28.06514,16.4589997 C28.7011459,14.9494165 28.3071797,14.451187 28.6653985,14.8943059 C28.6653985,14.8943059 30.3462714,16.5051734 30.3351003,19.228679 C30.5845874,18.1651936 30.7208744,17.0577687 30.7208744,15.9183202 C30.7208744,8.0181433 24.3712413,1.60371803 16.497875,1.49051791 L19.7940838,4.98408217 C19.7940838,4.98408217 19.628752,6.04905699 19.4395887,7.71875877" id="Fill-39"></path>
                <path d="M21.414335,23.9780198 C23.8488823,22.0096782 25.4359182,20.3690212 26.4740825,19.0426435 C26.2886428,14.630073 23.2940528,10.9331954 19.2367221,9.69693089 C18.8293506,14.1258856 18.5478398,20.639361 19.8488965,24.5350836 C19.8488965,24.5350836 17.4024333,25.998493 17.3428543,26.3865013 C17.3212569,26.529491 17.3071069,27.6190421 17.2981701,28.939462 C17.9297076,27.4313683 19.1987405,25.7691138 21.414335,23.9780198" id="Fill-40"></path>
                <path d="M15.2251928,28.8257405 C15.216256,27.5581971 15.2028507,26.525246 15.1812533,26.3867248 C15.122419,25.9987165 12.6759559,24.5345623 12.6759559,24.5345623 C13.9762678,20.6395844 13.6955017,14.1268538 13.2881302,9.69715431 C9.2486733,10.9282056 6.26227537,14.5960385 6.05151462,18.9810537 C7.08967889,20.3178578 8.6886306,21.9793674 11.1604148,23.9782432 C13.320154,25.724653 14.5787606,27.3481811 15.2251928,28.8257405" id="Fill-41"></path>
            </g>
        </g>
    </g>
</svg>