<?xml version="1.0" encoding="UTF-8"?>
<svg width="188px" height="50px" viewBox="0 0 188 50" version="1.1" xmlns="http://www.w3.org/2000/svg" xmlns:xlink="http://www.w3.org/1999/xlink">
    <!-- Generator: Sketch 47.1 (45422) - http://www.bohemiancoding.com/sketch -->
    <title>stanford-logo</title>
    <desc>Created with Sketch.</desc>
    <defs></defs>
    <g id="Client-Logos" stroke="none" stroke-width="1" fill="none" fill-rule="evenodd">
        <g id="stanford-logo" fill="#818181">
            <g id="Page-1" transform="translate(33.559790, 10.891418)">
                <path d="M31.996117,26.115289 C27.6778606,26.115289 27.3431771,22.8442996 27.3431771,21.8382705 C27.3431771,20.6583712 27.6601475,18.576579 30.4140615,17.5659009 C33.2546762,16.5236101 33.8625136,16.4045974 35.8165433,15.7909382 L35.8165433,15.2869939 C35.8165433,14.3414009 35.8165433,14.1108138 35.6282256,13.525978 C35.2515901,12.4037255 34.1701614,11.6980175 32.7055715,11.6980175 C30.5483078,11.6980175 29.6654518,13.3390909 29.6579937,13.3548973 L29.487389,13.6756737 L28.6865725,13.2014825 L28.7658151,12.9569486 C29.1564346,11.7203324 30.720777,9.61715502 34.1421935,9.61715502 C36.3637835,9.61715502 37.8115927,10.2494099 38.7093649,11.6068984 C39.3768674,12.6826615 39.4300066,14.1721797 39.4300066,15.7286425 C39.4300066,17.0972884 39.3955127,18.6212087 39.3656802,19.853176 C39.3461026,20.6964925 39.3302541,21.4273048 39.3302541,21.8736024 C39.3302541,22.9967846 39.5101814,23.8661351 40.4471088,23.8661351 C40.6792431,23.8661351 40.8377283,23.8159266 40.9673133,23.7090012 L41.2246187,23.4914311 L41.7504168,24.0855648 L41.5751508,24.3124327 C40.7137369,25.3500746 39.8924105,26.0818166 38.425956,26.0818166 C37.1599387,26.0818166 36.2836086,25.4811745 35.9862157,24.4732858 C35.2804903,25.2050279 34.0014213,26.115289 31.996117,26.115289 L31.996117,26.115289 Z M35.8165433,17.7565072 C33.6937735,18.3906217 32.9731318,18.7448704 32.3158843,19.0768042 C31.4013312,19.5379784 30.9249433,20.4752033 30.9249433,21.5732813 C30.9249433,22.4324041 31.2335234,23.875433 33.303154,23.875433 C33.9874373,23.875433 34.9644521,23.7508416 35.8165433,23.1418313 L35.8165433,17.7565072 Z" id="Fill-1"></path>
                <path d="M5.60403774,26.0753081 C3.53720389,26.0753081 1.96167424,25.8475104 0.346989428,25.3231108 L0.112990646,25.2468683 L0.112990646,24.0911435 C0.112990646,22.555136 0.0794290683,21.9498449 0.0467997562,21.4607771 L0.000186453212,20.6583712 L0.941775174,20.66395 L0.961352761,20.994954 C1.0014402,21.7136791 1.24103258,22.4193871 1.68199443,22.9140336 C2.35881959,23.6783182 3.92036524,24.1394924 5.37097123,24.1394924 C8.40829405,24.1394924 9.82067713,22.9930655 9.82067713,20.5319203 C9.82067713,18.4222344 8.51457238,17.5454456 6.70970529,16.3283549 L6.42163507,16.1303104 L4.51328645,14.863941 C1.86192178,13.1112932 0.514797318,11.7110345 0.514797318,8.90958739 C0.514797318,7.53815212 1.03500178,3.06494864 7.7146881,3.06494864 C10.4546181,3.06494864 12.5689975,3.42570586 12.6575628,3.43779308 L12.945633,3.48614199 L12.935378,3.76972691 C12.935378,3.7771652 12.9130037,4.6465157 12.9130037,5.59024913 C12.9130037,6.33221886 12.8990197,6.97842057 12.9260554,7.64414779 L12.9530911,8.14065385 L12.1429519,8.14065385 L12.1233743,7.8310349 C12.0637093,6.98492907 11.8157265,6.37405926 11.3495935,5.91102552 C10.7063299,5.26575359 9.28555641,4.96729209 7.77994672,4.96729209 C4.24106476,4.96729209 3.82900316,6.78223559 3.82900316,8.14065385 C3.82900316,10.0169633 4.79110174,10.6492182 6.89522623,12.0364598 L9.30979533,13.6319737 C11.3663743,15.0006196 13.3045554,16.293023 13.3045554,19.6951123 C13.3045554,25.4514213 7.91885437,26.0753081 5.60403774,26.0753081" id="Fill-3"></path>
                <path d="M21.431678,26.1734006 C18.9658343,26.1734006 17.6009968,25.2984714 16.9940916,23.3347621 C16.743312,22.5546711 16.743312,21.0149444 16.743312,20.0963152 C16.743312,17.5533488 16.7666186,15.5161863 16.7927221,13.1573176 L16.8067061,12.0508715 L14.7035138,12.0508715 L14.7035138,11.4241953 L14.9076801,11.3414443 C15.8874917,10.9351276 16.2603982,10.6636299 16.6939019,10.3289067 C18.2265473,9.14249894 19.2902629,7.14252791 19.3061114,7.11184495 L19.6641016,6.50562406 L20.3586398,6.50562406 L20.3586398,10.0778643 L25.787225,10.0778643 L25.787225,12.0508715 L20.3586398,12.0508715 L20.3586398,20.3947767 C20.3586398,22.8866049 20.8257051,24.311038 23.1917963,24.311038 C24.290938,24.311038 25.1374356,23.8861255 25.1439615,23.8805468 L25.4711868,23.7113256 L25.7508667,24.3575273 L25.6128913,24.5128017 C25.5569553,24.5741676 24.3282287,26.1734006 21.431678,26.1734006" id="Fill-5"></path>
                <path d="M43.111432,25.9763788 L43.111432,25.2213921 L43.4172153,25.1990772 C43.6866402,25.173973 44.3606685,25.0689071 44.8314629,24.5398585 C45.3227671,23.9922142 45.3525996,22.6337959 45.3525996,19.927187 L45.3525996,15.3842496 C45.3525996,13.4326274 45.3227671,12.5939599 45.0393582,12.1681176 C44.7130651,11.7004349 43.9924234,11.6530158 43.6092621,11.6223329 C43.559852,11.6223329 43.5169677,11.6148946 43.4778126,11.613035 L43.1720293,11.5814223 L43.1720293,10.6711611 L43.5337485,10.698125 C43.5971426,10.7092824 43.675453,10.7092824 43.7789345,10.7092824 C44.2702387,10.7092824 45.4318422,10.6441973 46.6587044,10.406172 C47.5956318,10.2574061 48.1410074,9.93291056 48.3386478,9.84086168 L48.5204397,9.7562511 L48.8355456,9.94499778 L48.8355456,11.2057885 C49.639159,10.610725 51.2566406,9.67721924 53.4530594,9.67721924 C56.3263034,9.67721924 58.2020227,11.0189013 58.7380757,13.4465742 C58.8900351,14.0518653 58.9450388,15.5107005 58.9450388,16.2926511 L58.9450388,20.9285672 C58.9450388,23.5533549 59.0485203,24.2906757 59.5426213,24.7509201 C59.7906041,24.9768582 60.3154699,25.1665347 60.7741448,25.1934985 L61.0892507,25.2186027 L61.0892507,25.9587129 L60.2986891,25.9187321 C59.1538664,25.8601555 58.1693934,25.8071577 57.1373749,25.8071577 C55.9599228,25.8071577 54.9400238,25.8071577 53.518318,25.9391874 L53.1519375,25.9763788 L53.1519375,25.2399878 L53.4362786,25.2009368 C54.054371,25.1060986 54.4841457,24.9303689 54.7582319,24.6579414 C55.2756396,24.1437694 55.3008107,22.9201702 55.3408982,21.8648624 C55.347424,21.6919221 55.3548822,21.5068945 55.3660694,21.3153585 C55.3949696,20.7230844 55.3949696,19.4715916 55.3949696,18.5594709 C55.3949696,17.369344 55.3949696,16.1410959 55.2644524,14.9230754 C55.0257922,12.8719661 53.952754,11.9161454 51.8821911,11.9161454 C50.4595531,11.9161454 49.5701713,12.2387814 48.8970752,12.5837322 L48.8970752,20.9285672 C48.8970752,23.5533549 49.005218,24.2906757 49.4974545,24.7509201 C49.7482341,24.9768582 50.2675063,25.1665347 50.7299102,25.1934985 L51.0431516,25.2186027 L51.0431516,25.9587129 L50.1957218,25.9187321 C49.0900542,25.8582959 48.1354138,25.8071577 47.1294987,25.8071577 C45.9772179,25.8071577 44.8976538,25.8071577 43.4703544,25.9391874 L43.111432,25.9763788 Z" id="Fill-7"></path>
                <path d="M62.9848273,25.9763788 L62.9848273,25.2046559 L63.2952719,25.1823411 C63.565629,25.160956 64.2424542,25.0568199 64.711384,24.5249819 C65.2073496,23.9810567 65.2287917,22.6337959 65.2287917,19.927187 L65.2287917,12.0491049 L63.1526352,12.0491049 L63.1526352,11.1574395 L63.3605305,11.0718992 C64.2638963,10.698125 64.8195269,10.406172 65.2287917,10.0853956 C65.233453,8.6786284 65.275405,6.86182532 65.4674518,5.87346214 C66.0967314,2.59503448 68.2474692,0.929786629 71.8609324,0.929786629 C73.4122232,0.929786629 74.8917294,1.44209906 75.7503464,2.13943903 L75.8734056,2.2389262 L75.9228157,2.57736854 L74.3426247,4.76887562 L73.9603956,4.77166498 L73.8746271,4.57362043 C73.2705187,3.22728939 72.3923241,2.70010037 71.1906331,2.70010037 C70.6909385,2.70010037 70.0075875,2.84700666 69.585271,3.26912979 C68.8953941,3.95438253 68.7788608,4.98086697 68.7788608,7.00687204 L68.7788608,10.0779573 L72.3279977,10.0779573 L72.3279977,12.0491049 L68.7788608,12.0491049 L68.7788608,20.8634822 C68.7788608,22.960151 68.8487808,23.9810567 69.122867,24.393882 C69.5684902,25.0623986 70.9221405,25.1126071 71.3220827,25.1126071 L71.659563,25.1126071 L71.659563,25.9587129 L71.3062341,25.9391874 C69.5517094,25.8471385 68.2474692,25.8071577 67.3040159,25.8071577 C66.120038,25.8071577 64.7775749,25.8071577 63.3512078,25.9391874 L62.9848273,25.9763788 Z" id="Fill-9"></path>
                <path d="M81.3106609,26.2423908 C76.4498257,26.2423908 73.5439524,23.221514 73.5439524,18.1606854 C73.5439524,14.2314071 75.6648576,9.64291011 81.647209,9.64291011 C86.5117733,9.64291011 89.4176466,12.6665762 89.4176466,17.7227559 C89.4176466,21.6538938 87.2939445,26.2423908 81.3106609,26.2423908 M81.5138949,11.4801685 C80.5723062,11.4801685 79.8125093,11.7200534 79.257811,12.2016829 C77.9778097,13.269078 77.3289526,15.2207001 77.3289526,17.9886749 C77.3289526,19.0607189 77.5275252,24.4079218 81.4486363,24.4079218 C82.3855637,24.4079218 83.147225,24.1596687 83.7084492,23.6845478 C84.9856537,22.6143634 85.6335786,20.6655306 85.6335786,17.8947664 C85.6335786,16.8217927 85.435006,11.4801685 81.5138949,11.4801685" id="Fill-12"></path>
                <path d="M90.9546736,25.9763788 L90.9546736,25.1721134 L91.2651182,25.1460794 C91.5336108,25.1284134 92.2150973,25.0233475 92.6812304,24.4887202 C93.1762636,23.9420057 93.1958412,22.6337959 93.1958412,19.927187 L93.1958412,15.3842496 C93.1958412,13.4326274 93.17067,12.5939599 92.8891257,12.1681176 C92.5628326,11.7004349 91.84592,11.6530158 91.4580973,11.6223329 C91.411484,11.6223329 91.3658029,11.6148946 91.3322414,11.613035 L91.0245936,11.5814223 L91.0245936,10.6190931 L91.3658029,10.6256016 C91.425468,10.6302505 91.5280172,10.6321101 91.6277697,10.6321101 C92.122803,10.6321101 93.282542,10.5707442 94.5075396,10.3345784 C95.2813204,10.2044083 95.9460261,10.0063637 96.2145187,9.87991272 L96.3991074,9.79623192 L96.6797195,9.94499778 L96.6797195,11.3248011 C97.4441777,10.6060761 98.654259,9.84551061 100.364967,9.84551061 C101.478093,9.84551061 102.379594,10.1421125 103.034045,10.7306675 L103.142188,10.8301547 L103.142188,11.3303799 L101.800657,13.7840868 L101.154597,13.7840868 L101.055776,13.630672 C100.68287,13.0449064 99.9351926,12.3503558 98.4892479,12.3503558 C97.8282713,12.3503558 97.2558599,12.514928 96.7496394,12.8543001 L96.7496394,20.8634822 C96.7496394,22.960151 96.8186271,23.9522334 97.0936456,24.3613395 C97.5439301,25.0270667 98.8919869,25.0800645 99.2928613,25.0800645 L99.6256802,25.0800645 L99.6256802,25.9587129 L99.2751482,25.9391874 C97.522488,25.8471385 96.2145187,25.8071577 95.2747945,25.8071577 C94.0908166,25.8071577 92.7474213,25.8071577 91.3229187,25.9391874 L90.9546736,25.9763788 Z" id="Fill-14"></path>
                <path d="M116.003357,26.1960874 L115.577312,26.0566194 L115.577312,24.7177267 C114.78675,25.2997731 113.221476,26.2072449 111.125741,26.2072449 C106.751549,26.2072449 103.922122,23.1817192 103.922122,18.4946648 C103.922122,16.9391317 104.228837,15.4617008 104.792858,14.2157867 C106.127863,11.3306588 108.902287,9.67656838 112.394556,9.67656838 C113.676421,9.67656838 114.823109,9.83463211 115.508324,9.98432776 L115.508324,6.60455336 C115.508324,4.62503763 115.480356,3.5697298 115.196947,3.14109817 C114.872519,2.679924 114.175184,2.62692616 113.800413,2.5962432 C113.749138,2.5962432 113.707186,2.59438363 113.670828,2.58787512 L113.370638,2.55719217 L113.439626,1.84590539 L113.774309,1.84590539 C113.850755,1.84590539 115.691981,1.6924906 117.188268,1.40146739 C117.816615,1.29826107 118.439369,1.1569335 118.761933,1.0388506 L118.922283,0.979344256 L119.195436,1.14391649 L119.182385,1.29826107 C119.077039,2.60740064 119.060258,5.40884776 119.060258,7.50458682 L119.060258,20.4602337 C119.060258,22.3997686 119.088226,23.596404 119.367906,23.9813357 C119.697928,24.4555269 120.391534,24.5345587 120.768169,24.5652417 C120.819444,24.5652417 120.865125,24.568031 120.901483,24.5745395 L121.201673,24.585697 L121.201673,25.4383113 L120.868854,25.4383113 C120.511796,25.4383113 119.120855,25.5368687 117.774663,25.7674558 C117.000882,25.892977 116.429403,26.0054812 116.148791,26.1356513 L116.003357,26.1960874 Z M112.325568,11.5807714 C109.222986,11.5807714 107.70619,13.7016147 107.70619,18.0595246 C107.70619,19.8261192 108.209613,23.9348463 112.833653,23.9348463 L112.982815,23.9348463 C113.543107,23.9348463 114.591907,23.8530251 115.508324,23.2867851 L115.508324,12.6435175 C115.246357,12.3850368 114.28053,11.5807714 112.325568,11.5807714 L112.325568,11.5807714 Z" id="Fill-16"></path>
            </g>
        </g>
    </g>
</svg>