<?xml version="1.0" encoding="UTF-8"?>
<svg width="188px" height="50px" viewBox="0 0 188 50" version="1.1" xmlns="http://www.w3.org/2000/svg" xmlns:xlink="http://www.w3.org/1999/xlink">
    <!-- Generator: Sketch 47.1 (45422) - http://www.bohemiancoding.com/sketch -->
    <title>stanford-logo</title>
    <desc>Created with Sketch.</desc>
    <defs></defs>
    <g id="Client-Logos" stroke="none" stroke-width="1" fill="none" fill-rule="evenodd">
        <g id="stanford-logo" fill="#818181">
            <g id="Page-1" transform="translate(37.340948, 11.730660)">
                <path d="M30.0070448,24.4918046 C25.9572373,24.4918046 25.6433597,21.4241597 25.6433597,20.4806714 C25.6433597,19.3741219 25.9406254,17.4217464 28.5233394,16.4738982 C31.1873643,15.4964025 31.7574149,15.3847884 33.5899702,14.809278 L33.5899702,14.3366618 C33.5899702,13.4498526 33.5899702,13.2336002 33.4133595,12.6851214 C33.0601379,11.6326349 32.0459374,10.9707979 30.6723952,10.9707979 C28.6492401,10.9707979 27.8212679,12.5098523 27.8142734,12.524676 L27.6542745,12.825511 L26.9032416,12.3807984 L26.977558,12.1514663 C27.3438942,10.9917256 28.8109876,9.01929447 32.0197081,9.01929447 C34.1031907,9.01929447 35.4609953,9.61224459 36.3029565,10.8853434 C36.928963,11.8942306 36.9787988,13.2911513 36.9787988,14.7508549 C36.9787988,16.0344175 36.9464493,17.4636017 36.9184713,18.6189825 C36.9001108,19.4098733 36.8852475,20.0952539 36.8852475,20.5138069 C36.8852475,21.5671653 37.0539895,22.3824717 37.9326718,22.3824717 C38.1503752,22.3824717 38.299008,22.3353845 38.4205372,22.2351062 L38.661847,22.0310616 L39.1549582,22.5882603 L38.9905878,22.8010248 C38.1827247,23.7741605 37.4124569,24.4604131 36.0371661,24.4604131 C34.8498521,24.4604131 34.0279999,23.8971105 33.7490948,22.9518782 C33.0872416,23.6381308 31.8876872,24.4918046 30.0070448,24.4918046 L30.0070448,24.4918046 Z M33.5899702,16.6526552 C31.5991646,17.2473493 30.9233224,17.5795758 30.3069333,17.8908746 C29.4492345,18.3233794 29.0024617,19.2023407 29.0024617,20.2321556 C29.0024617,21.0378701 29.2918585,22.3911916 31.2328284,22.3911916 C31.8745725,22.3911916 32.7908502,22.2743455 33.5899702,21.7031951 L33.5899702,16.6526552 Z" id="Fill-1"></path>
                <path d="M5.25565684,24.4543092 C3.31730989,24.4543092 1.8397247,24.2406728 0.325418465,23.748873 L0.105966464,23.6773702 L0.105966464,22.5934922 C0.105966464,21.1529722 0.0744912768,20.5853097 0.0438904002,20.1266453 L0.000174862152,19.3741219 L0.88322873,19.3793538 L0.901589256,19.6897806 C0.939184619,20.3638254 1.16388248,21.0256624 1.57743147,21.4895586 C2.21218109,22.2063307 3.67665161,22.6388355 5.03707915,22.6388355 C7.88558361,22.6388355 9.21016441,21.5636774 9.21016441,19.2555319 C9.21016441,17.2769968 7.98525504,16.4547145 6.29258941,15.3132856 L6.02242738,15.1275527 L4.23271325,13.9399085 C1.74617345,12.2962159 0.482794402,10.9830057 0.482794402,8.35571353 C0.482794402,7.06953497 0.970659806,2.87441289 7.23509641,2.87441289 C9.80469573,2.87441289 11.7876325,3.21274325 11.8706921,3.22407906 L12.1408541,3.26942231 L12.1312367,3.53537787 C12.1312367,3.54235376 12.1102532,4.35766017 12.1102532,5.24272542 C12.1102532,5.93856982 12.0971385,6.54459972 12.1224936,7.16894131 L12.1478486,7.63458155 L11.3880725,7.63458155 L11.369712,7.34421039 C11.3137561,6.55070361 11.0811894,5.97780916 10.6440341,5.5435604 C10.0407596,4.93840249 8.70831004,4.65849515 7.29629816,4.65849515 C3.97741451,4.65849515 3.59096916,6.36061078 3.59096916,7.63458155 C3.59096916,9.39424822 4.49325786,9.98719834 6.46657725,11.2882007 L8.73104212,12.7845277 C10.6597717,14.0680903 12.4774637,15.2801501 12.4774637,18.4707449 C12.4774637,23.869207 7.42657046,24.4543092 5.25565684,24.4543092" id="Fill-3"></path>
                <path d="M20.0993552,24.5463037 C17.7868033,24.5463037 16.5068123,23.7257653 15.937636,21.884132 C15.7024464,21.1525362 15.7024464,19.7085283 15.7024464,18.8470067 C15.7024464,16.4621264 15.7243042,14.5516063 15.7487849,12.3393791 L15.7618995,11.3017164 L13.7894545,11.3017164 L13.7894545,10.7139982 L13.9809285,10.6363915 C14.8998291,10.2553339 15.2495534,10.0007141 15.6561079,9.68679934 C17.0934748,8.57414589 18.0910634,6.69850515 18.1059267,6.66972963 L18.441662,6.10119511 L19.0930235,6.10119511 L19.0930235,9.45136327 L24.1841351,9.45136327 L24.1841351,11.3017164 L19.0930235,11.3017164 L19.0930235,19.126914 C19.0930235,21.463835 19.5310532,22.7997168 21.7500539,22.7997168 C22.7808663,22.7997168 23.5747405,22.4012194 23.5808607,22.3959875 L23.8877437,22.2372862 L24.150037,22.8433161 L24.020639,22.9889376 C23.9681803,23.0464887 22.8158387,24.5463037 20.0993552,24.5463037" id="Fill-5"></path>
                <path d="M40.4313645,24.3615299 L40.4313645,23.6534778 L40.7181384,23.6325501 C40.9708143,23.6090065 41.6029409,23.5104721 42.0444679,23.0143124 C42.5052296,22.500713 42.5332076,21.2267422 42.5332076,18.6883925 L42.5332076,14.4278715 C42.5332076,12.597574 42.5052296,11.8110431 42.2394392,11.4116738 C41.9334304,10.9730651 41.2575882,10.9285938 40.8982465,10.8998183 C40.851908,10.8998183 40.8116897,10.8928424 40.7749686,10.8910985 L40.4881947,10.861451 L40.4881947,10.0077772 L40.8274273,10.0330648 C40.8868804,10.0435286 40.9603225,10.0435286 41.057371,10.0435286 C41.5181328,10.0435286 42.607524,9.98248961 43.758117,9.75926134 C44.6367993,9.61974366 45.1482711,9.31542073 45.333625,9.22909417 L45.5041156,9.14974349 L45.7996326,9.32675654 L45.7996326,10.5091688 C46.5532885,9.95109814 48.0702176,9.07562473 50.1300938,9.07562473 C52.8247196,9.07562473 54.5838328,10.3338998 55.0865615,12.6106538 C55.2290741,13.1783163 55.2806585,14.5464615 55.2806585,15.2798013 L55.2806585,19.6275209 C55.2806585,22.0891358 55.377707,22.7806203 55.8410917,23.2122531 C56.0736583,23.4241456 56.5658953,23.6020306 56.9960562,23.6273182 L57.2915732,23.6508618 L57.2915732,24.3449622 L56.5501577,24.3074669 C55.4765041,24.2525318 54.5532319,24.2028286 53.5853699,24.2028286 C52.4811154,24.2028286 51.5246194,24.2028286 50.1912955,24.3266505 L49.8476914,24.3615299 L49.8476914,23.6709175 L50.1143562,23.6342941 C50.6940242,23.5453516 51.0970815,23.3805463 51.3541289,23.1250546 C51.8393713,22.6428466 51.8629777,21.4953137 51.9005731,20.5056102 C51.9066933,20.3434209 51.9136877,20.1698958 51.9241795,19.9902668 C51.9512831,19.4348121 51.9512831,18.2611196 51.9512831,17.4057019 C51.9512831,16.2895605 51.9512831,15.1376677 51.8288796,13.9953667 C51.605056,12.0717668 50.5987244,11.1753657 48.6568802,11.1753657 C47.3226819,11.1753657 46.4885895,11.4779447 45.8573371,11.8014513 L45.8573371,19.6275209 C45.8573371,22.0891358 45.9587571,22.7806203 46.4203932,23.2122531 C46.6555828,23.4241456 47.1425739,23.6020306 47.5762321,23.6273182 L47.8700005,23.6508618 L47.8700005,24.3449622 L47.075252,24.3074669 C46.0383194,24.2507878 45.1430252,24.2028286 44.1996439,24.2028286 C43.1189958,24.2028286 42.1065439,24.2028286 40.7679742,24.3266505 L40.4313645,24.3615299 Z" id="Fill-7"></path>
                <path d="M59.0693093,24.3615299 L59.0693093,23.637782 L59.3604548,23.6168544 C59.6140049,23.5967987 60.2487545,23.4991363 60.6885328,23.0003606 C61.1536661,22.4902491 61.1737753,21.2267422 61.1737753,18.6883925 L61.1737753,11.3000597 L59.2266852,11.3000597 L59.2266852,10.4638256 L59.4216565,10.3836029 C60.2688637,10.0330648 60.7899529,9.75926134 61.1737753,9.45842635 C61.1781469,8.13911234 61.2174908,6.43525274 61.3975989,5.50833219 C61.9877586,2.43371144 64.0047935,0.871985466 67.393622,0.871985466 C68.8484752,0.871985466 70.2360063,1.35244946 71.0412465,2.00643856 L71.1566556,2.099741 L71.202994,2.41714371 L69.7210373,4.47241346 L69.3625699,4.47502941 L69.2821333,4.28929651 C68.7155799,3.02666155 67.8919792,2.53224579 66.7649926,2.53224579 C66.296362,2.53224579 65.6554923,2.6700195 65.2594295,3.0659009 C64.6124395,3.70855419 64.5031507,4.67122614 64.5031507,6.57128247 L64.5031507,9.45145047 L67.8316517,9.45145047 L67.8316517,11.3000597 L64.5031507,11.3000597 L64.5031507,19.5664819 C64.5031507,21.5328091 64.568724,22.4902491 64.8257713,22.8774107 C65.2436919,23.5043682 66.5131911,23.5514555 66.8882704,23.5514555 L67.2047709,23.5514555 L67.2047709,24.3449622 L66.8734071,24.3266505 C65.2279543,24.240324 64.0047935,24.2028286 63.119991,24.2028286 C62.0096164,24.2028286 60.7506089,24.2028286 59.4129134,24.3266505 L59.0693093,24.3615299 Z" id="Fill-9"></path>
                <path d="M76.2558982,24.611005 C71.6972419,24.611005 68.9720153,21.7779242 68.9720153,17.0317073 C68.9720153,13.3466967 70.9610722,9.04344847 76.5715244,9.04344847 C81.1336779,9.04344847 83.8589046,11.8791452 83.8589046,16.6210022 C83.8589046,20.3077567 81.8672247,24.611005 76.2558982,24.611005 M76.446498,10.7664917 C75.5634441,10.7664917 74.8508808,10.991464 74.3306659,11.4431525 C73.1302372,12.4441918 72.521717,14.2744893 72.521717,16.87039 C72.521717,17.8757893 72.7079451,22.8905777 76.3852962,22.8905777 C77.2639785,22.8905777 77.9782904,22.6577575 78.5046255,22.212173 C79.7024312,21.2085177 80.3100772,19.3808362 80.3100772,16.7823195 C80.3100772,15.7760482 80.123849,10.7664917 76.446498,10.7664917" id="Fill-12"></path>
                <path d="M85.3003807,24.3615299 L85.3003807,23.6072625 L85.5915262,23.5828469 C85.8433277,23.5662792 86.4824489,23.4677448 86.9196043,22.9663532 C87.3838633,22.4536257 87.4022238,21.2267422 87.4022238,18.6883925 L87.4022238,14.4278715 C87.4022238,12.597574 87.3786174,11.8110431 87.1145756,11.4116738 C86.8085668,10.9730651 86.1362218,10.9285938 85.7725085,10.8998183 C85.728793,10.8998183 85.6859518,10.8928424 85.6544766,10.8910985 L85.365954,10.861451 L85.365954,9.95894601 L85.6859518,9.96504991 C85.7419077,9.96940983 85.8380819,9.9711538 85.9316331,9.9711538 C86.3958921,9.9711538 87.4835347,9.91360276 88.632379,9.69211845 C89.358057,9.57004049 89.9814405,9.38430759 90.233242,9.26571756 L90.4063556,9.18723887 L90.6695231,9.32675654 L90.6695231,10.620783 C91.3864579,9.94673821 92.5213133,9.2334541 94.1256736,9.2334541 C95.1696006,9.2334541 96.0150591,9.51161746 96.6288253,10.0635843 L96.7302453,10.1568867 L96.7302453,10.6260149 L95.4721121,12.9271845 L94.8662148,12.9271845 L94.7735378,12.7833069 C94.4238135,12.2339561 93.7226163,11.5825829 92.3665603,11.5825829 C91.746674,11.5825829 91.2098472,11.7369244 90.7350964,12.0551991 L90.7350964,19.5664819 C90.7350964,21.5328091 90.7997954,22.4632176 91.0577171,22.8468912 C91.4800092,23.4712328 92.7442626,23.520936 93.1202162,23.520936 L93.4323451,23.520936 L93.4323451,24.3449622 L93.1036043,24.3266505 C91.4599,24.240324 90.233242,24.2028286 89.3519368,24.2028286 C88.2415621,24.2028286 86.9816803,24.2028286 85.6457335,24.3266505 L85.3003807,24.3615299 Z" id="Fill-14"></path>
                <path d="M108.791887,24.5675801 L108.392327,24.4367823 L108.392327,23.1811232 C107.650911,23.7269861 106.182944,24.5780439 104.217493,24.5780439 C100.115227,24.5780439 97.4616937,21.7406032 97.4616937,17.3449245 C97.4616937,15.8860928 97.7493419,14.5005079 98.2782999,13.3320474 C99.5303129,10.6262765 102.132262,9.07501434 105.40743,9.07501434 C106.609607,9.07501434 107.685009,9.22325187 108.327628,9.36364153 L108.327628,6.19397436 C108.327628,4.3375173 108.301398,3.3478138 108.035608,2.9458285 C107.731348,2.51332371 107.077363,2.46362054 106.725891,2.43484502 C106.677803,2.43484502 106.638459,2.43310105 106.604361,2.42699715 L106.322833,2.39822163 L106.387532,1.73115275 L106.70141,1.73115275 C106.773103,1.73115275 108.499867,1.58727514 109.903136,1.31434369 C110.492421,1.21755331 111.076461,1.08501152 111.378972,0.974269361 L111.529354,0.918462291 L111.785527,1.07280372 L111.773287,1.21755331 C111.674489,2.44530884 111.658752,5.07260105 111.658752,7.03805629 L111.658752,19.1883018 C111.658752,21.0072635 111.684981,22.1295088 111.947274,22.4905107 C112.25678,22.9352233 112.907268,23.0093421 113.260489,23.0381176 C113.308576,23.0381176 113.351417,23.0407336 113.385516,23.0468375 L113.667044,23.0573013 L113.667044,23.856912 L113.354915,23.856912 C113.020054,23.856912 111.715582,23.9493424 110.453077,24.1655948 C109.727399,24.2833129 109.191447,24.3888231 108.928279,24.5109011 L108.791887,24.5675801 Z M105.342731,10.8608406 C102.433025,10.8608406 101.010521,12.8498394 101.010521,16.9368353 C101.010521,18.5936077 101.482649,22.4469115 105.81923,22.4469115 L105.95912,22.4469115 C106.484581,22.4469115 107.46818,22.3701767 108.327628,21.8391376 L108.327628,11.85752 C108.081946,11.615108 107.176161,10.8608406 105.342731,10.8608406 L105.342731,10.8608406 Z" id="Fill-16"></path>
            </g>
        </g>
    </g>
</svg>