<?xml version="1.0" encoding="UTF-8"?>
<svg width="189px" height="50px" viewBox="0 0 189 50" version="1.1" xmlns="http://www.w3.org/2000/svg" xmlns:xlink="http://www.w3.org/1999/xlink">
    <!-- Generator: Sketch 47.1 (45422) - http://www.bohemiancoding.com/sketch -->
    <title>wcf-logo</title>
    <desc>Created with Sketch.</desc>
    <defs></defs>
    <g id="Client-Logos" stroke="none" stroke-width="1" fill="none" fill-rule="evenodd">
        <g id="wcf-logo" fill="#818181">
            <g id="Page-1" transform="translate(24.944328, 2.583645)">
                <polygon id="Fill-1" points="65.315815 7.75078015 65.315815 7.14499913 61.7776381 7.14499913 61.7776381 7.75078015 63.2911008 7.95864619 60.3968137 16.1332256 57.5955714 8.09128452 57.5955714 7.90222541 59.1659498 7.75078015 59.1659498 7.14499913 54.8141258 7.14499913 54.8141258 7.75078015 55.9687722 7.90222541 56.6868998 9.87002391 54.3983937 16.1332256 51.5031168 7.90222541 53.0739901 7.75078015 53.0739901 7.14499913 48.8162008 7.14499913 48.8162008 7.75078015 49.9327383 7.90222541 53.8871423 18.952285 54.2286365 18.952285 57.1417305 11.1187049 59.9231761 18.952285 60.2631855 18.952285 64.1987825 7.97794804"></polygon>
                <path d="M72.0871007,14.9785793 C72.0871007,12.556445 70.365277,10.9296458 68.1891176,10.9296458 C66.0139479,10.9296458 64.2916293,12.556445 64.2916293,14.9785793 C64.2916293,17.4007135 66.0139479,19.0275127 68.1891176,19.0275127 C70.365277,19.0275127 72.0871007,17.4007135 72.0871007,14.9785793 M70.573638,14.9785793 C70.573638,17.2111595 69.6085456,18.4222266 68.1891176,18.4222266 C66.7706793,18.4222266 65.805587,17.2111595 65.805587,14.9785793 C65.805587,12.745999 66.7706793,11.5349319 68.1891176,11.5349319 C69.6085456,11.5349319 70.573638,12.745999 70.573638,14.9785793" id="Fill-2"></path>
                <path d="M78.9227259,11.4024915 C78.677246,11.1565167 78.2041033,10.9293488 77.8259851,10.9293488 C76.9737343,10.9293488 76.179884,11.3643828 75.5745979,12.8031127 L75.4983803,12.7838108 L75.4983803,11.0238784 L73.0391271,11.4024915 L73.0391271,11.8944411 L74.2690012,12.1028021 L74.2690012,18.1195341 L73.0391271,18.2704844 L73.0391271,18.8005428 L77.3711544,18.8005428 L77.3711544,18.2704844 L75.6117168,18.1195341 L75.6117168,14.7709112 C75.6117168,13.3890969 76.179884,12.2730543 76.9544325,11.8944411 L78.4119693,12.6699794 L78.9227259,11.4024915 Z" id="Fill-4"></path>
                <polygon id="Fill-6" points="83.1589862 18.8006418 83.1589862 18.2710783 81.930102 18.1196331 81.930102 6.0856742 79.3372206 6.44548042 79.3372206 6.93743004 80.5670947 7.14529608 80.5670947 18.1196331 79.3372206 18.2710783 79.3372206 18.8006418"></polygon>
                <path d="M92.3715596,18.6302906 L92.3715596,18.138341 L91.1426753,17.930475 L91.1426753,6.08557522 L88.549794,6.44488651 L88.549794,6.93733106 L89.779668,7.14470218 L89.779668,11.724189 C89.4010549,11.3267689 88.7200461,10.9293488 87.7178349,10.9293488 C85.5976013,10.9293488 83.9901039,12.7080882 83.9901039,15.224752 C83.9901039,17.722114 85.7302396,19.0277107 87.3956425,19.0277107 C88.6448184,19.0277107 89.3070202,18.4600384 89.779668,17.8166436 L89.8553907,17.8359454 L89.8553907,18.9900968 L92.3715596,18.6302906 Z M89.779668,16.8139374 C89.5138964,17.513753 88.9848279,18.2328706 87.8494834,18.2328706 C86.4498521,18.2328706 85.4471459,16.9653826 85.4471459,15.0733068 C85.4471459,13.2945674 86.1845754,11.5915506 87.8875922,11.5915506 C88.6641203,11.5915506 89.4198618,12.0835003 89.779668,12.6892813 L89.779668,16.8139374 Z" id="Fill-8"></path>
                <path d="M108.340917,17.1924021 L107.887077,16.586621 C106.883875,17.627436 105.578279,18.2520239 104.063826,18.2520239 C101.264564,18.2520239 99.6941852,15.6408306 99.6941852,12.7648554 C99.6941852,9.54837596 101.586261,7.59888947 103.85695,7.59888947 C105.427328,7.59888947 106.279084,8.01561139 107.186766,8.77283767 L107.489162,10.2674935 L108.094943,10.2674935 L108.246388,6.84265303 L107.641102,6.84265303 L107.394632,7.40983036 C106.694816,7.10743477 105.749026,6.84265303 104.178647,6.84265303 C100.489025,6.84265303 98.0292772,9.35882193 98.0292772,13.0484441 C98.0292772,16.7380663 100.564253,19.1032848 103.932673,19.1032848 C105.654496,19.1032848 107.092731,18.45989 108.340917,17.1924021" id="Fill-10"></path>
                <path d="M117.119447,14.9785793 C117.119447,12.556445 115.398118,10.9296458 113.221464,10.9296458 C111.046294,10.9296458 109.324965,12.556445 109.324965,14.9785793 C109.324965,17.4007135 111.046294,19.0275127 113.221464,19.0275127 C115.398118,19.0275127 117.119447,17.4007135 117.119447,14.9785793 M115.606479,14.9785793 C115.606479,17.2111595 114.641387,18.4222266 113.221464,18.4222266 C111.80352,18.4222266 110.838923,17.2111595 110.838923,14.9785793 C110.838923,12.745999 111.80352,11.5349319 113.221464,11.5349319 C114.641387,11.5349319 115.606479,12.745999 115.606479,14.9785793" id="Fill-12"></path>
                <path d="M125.236813,17.5708667 L124.858695,17.2110605 C124.461275,17.7218171 123.647133,18.1954547 122.454873,18.1954547 C121.017628,18.1954547 119.825368,16.8710511 119.825368,14.8463369 C119.825368,12.7459 120.827579,11.5724468 122.285611,11.5724468 C123.495688,11.5724468 124.215795,12.2727573 124.423661,13.2942704 L124.916106,13.2942704 L125.028947,10.9295468 L124.575107,10.9295468 L124.366746,11.4026895 C123.647133,11.0240764 123.118065,10.9295468 122.209888,10.9295468 C120.242089,10.9295468 118.331207,12.5187322 118.331207,14.9408664 C118.331207,17.4006145 120.032739,19.0274137 122.209888,19.0274137 C123.894098,19.0274137 124.80178,18.0816233 125.236813,17.5708667" id="Fill-14"></path>
                <path d="M133.732595,14.9785793 C133.732595,12.556445 132.010772,10.9296458 129.833622,10.9296458 C127.659443,10.9296458 125.936629,12.556445 125.936629,14.9785793 C125.936629,17.4007135 127.659443,19.0275127 129.833622,19.0275127 C132.010772,19.0275127 133.732595,17.4007135 133.732595,14.9785793 M132.218143,14.9785793 C132.218143,17.2111595 131.253545,18.4222266 129.833622,18.4222266 C128.415679,18.4222266 127.450587,17.2111595 127.450587,14.9785793 C127.450587,12.745999 128.415679,11.5349319 129.833622,11.5349319 C131.253545,11.5349319 132.218143,12.745999 132.218143,14.9785793" id="Fill-16"></path>
                <path d="M142.428473,18.1762023 L142.219122,17.8356979 C142.087969,17.9871432 141.784583,18.1380935 141.482683,18.1380935 C141.10209,18.1380935 140.668541,17.9114206 140.668541,16.8894126 L140.668541,13.0107313 C140.668541,11.6487138 139.798473,10.9295963 138.094961,10.9295963 C136.922498,10.9295963 135.824272,11.629412 135.200674,12.5568904 L135.730732,13.04884 C136.260296,12.2728068 136.958627,11.7244364 137.831169,11.7244364 C138.909103,11.7244364 139.306028,12.1406634 139.306028,13.1621765 L139.306028,14.3544367 L137.469383,14.6944462 C136.070247,14.9592279 134.916095,15.5838159 134.916095,17.021556 C134.916095,18.2712268 135.881683,19.0279582 137.167978,19.0279582 C137.849481,19.0279582 138.890296,18.4028753 139.401053,17.8926137 C139.590112,18.4983947 140.137987,19.0279582 140.781382,19.0279582 C141.463876,19.0279582 142.162207,18.5360085 142.428473,18.1762023 L142.428473,18.1762023 Z M139.306028,17.3432534 C138.890296,17.7604702 138.265708,18.1004797 137.678239,18.1004797 C136.84628,18.1004797 136.222682,17.6278319 136.222682,16.7943881 C136.222682,15.7540681 137.016532,15.3190341 137.999442,15.1487819 L139.306028,14.9028071 L139.306028,17.3432534 Z" id="Fill-18"></path>
                <polygon id="Fill-21" points="58.2757882 27.2014487 58.2757882 24.5526415 50.1007139 24.5526415 50.1007139 25.1584225 51.5775526 25.3098678 51.5775526 35.4517508 50.1007139 35.6027011 50.1007139 36.2079872 54.9073686 36.2079872 54.9073686 35.6027011 53.0524116 35.4517508 53.0524116 30.7020118 56.1560496 30.7020118 56.3456036 32.0076085 56.9885035 32.0076085 56.9885035 28.6396838 56.3456036 28.6396838 56.1560496 29.9447855 53.0524116 29.9447855 53.0524116 25.3098678 57.3299978 25.3098678 57.5942846 27.2014487"></polygon>
                <path d="M66.5251004,32.3860237 C66.5251004,29.9633945 64.8027818,28.3365953 62.6266224,28.3365953 C60.4519477,28.3365953 58.7291342,29.9633945 58.7291342,32.3860237 C58.7291342,34.8081579 60.4519477,36.4349571 62.6266224,36.4349571 C64.8027818,36.4349571 66.5251004,34.8081579 66.5251004,32.3860237 M65.0111428,32.3860237 C65.0111428,34.6186039 64.0460505,35.829671 62.6266224,35.829671 C61.2081841,35.829671 60.2430918,34.6186039 60.2430918,32.3860237 C60.2430918,30.1534434 61.2081841,28.9423763 62.6266224,28.9423763 C64.0460505,28.9423763 65.0111428,30.1534434 65.0111428,32.3860237" id="Fill-23"></path>
                <path d="M76.2122517,36.0375371 L76.2122517,35.5455875 L74.9823777,35.3377214 L74.9823777,28.6399807 L72.2583427,28.6399807 L72.2583427,29.1695442 L73.6203602,29.3774102 L73.6203602,32.1786526 C73.6203602,33.9564021 72.7690993,35.6406119 71.2546467,35.6406119 C70.6874694,35.6406119 70.2138318,35.5079736 69.8733274,35.0353258 L69.8733274,28.6399807 L67.2814359,28.6399807 L67.2814359,29.1695442 L68.5113099,29.3774102 L68.5113099,33.8999813 C68.5113099,35.3946371 69.4382935,36.4349571 70.8953354,36.4349571 C72.1816302,36.4349571 73.1477124,35.6782258 73.6203602,34.5428813 L73.6960828,34.562678 L73.6960828,36.3973433 L76.2122517,36.0375371 Z" id="Fill-25"></path>
                <path d="M86.3363671,36.2081357 L86.3363671,35.6785722 L85.1074829,35.527127 L85.1074829,30.8729074 C85.1074829,29.3772618 84.1800044,28.3369417 82.7229625,28.3369417 C81.4366676,28.3369417 80.4710804,29.0936731 79.9984326,30.2290176 L79.92271,30.2102107 L79.92271,28.4126644 L77.4065411,28.8100844 L77.4065411,29.302529 L78.6354253,29.510395 L78.6354253,35.527127 L77.4065411,35.6785722 L77.4065411,36.2081357 L81.3604501,36.2081357 L81.3604501,35.6785722 L79.9984326,35.527127 L79.9984326,32.5942362 C79.9984326,30.8154968 80.8496935,29.1317819 82.3636512,29.1317819 C82.9308285,29.1317819 83.3653675,29.2451183 83.7439807,29.6994541 L83.7439807,35.527127 L82.3824581,35.6785722 L82.3824581,36.2081357 L86.3363671,36.2081357 Z" id="Fill-27"></path>
                <path d="M95.4865311,36.0375371 L95.4865311,35.5455875 L94.257152,35.3377214 L94.257152,23.4928217 L91.6642706,23.8526279 L91.6642706,24.3445775 L92.8941447,24.5524435 L92.8941447,29.1319303 C92.5160264,28.7340153 91.8345228,28.3365953 90.8323115,28.3365953 C88.7125729,28.3365953 87.1045806,30.1158296 87.1045806,32.6319985 C87.1045806,35.1298554 88.8447163,36.4349571 90.5101192,36.4349571 C91.75979,36.4349571 92.4214969,35.8672849 92.8941447,35.22389 L92.9698673,35.2431919 L92.9698673,36.3973433 L95.4865311,36.0375371 Z M92.8941447,34.2216788 C92.6283731,34.9214944 92.0983147,35.6406119 90.96396,35.6406119 C89.5643287,35.6406119 88.5616225,34.373124 88.5616225,32.4805532 C88.5616225,30.7028037 89.299052,28.9987971 91.0020688,28.9987971 C91.7785969,28.9987971 92.5343385,29.4907467 92.8941447,30.0965277 L92.8941447,34.2216788 Z" id="Fill-29"></path>
                <path d="M104.064965,35.5832013 L103.857099,35.2431919 C103.724955,35.3946371 103.42157,35.5455875 103.119669,35.5455875 C102.740561,35.5455875 102.306022,35.3189145 102.306022,34.2974014 L102.306022,30.4182252 C102.306022,29.0557128 101.435459,28.3365953 99.7329373,28.3365953 C98.5594841,28.3365953 97.4617534,29.0369059 96.8376604,29.9638894 L97.3677188,30.456334 C97.8972822,29.6807957 98.5970979,29.1319303 99.4676607,29.1319303 C100.546089,29.1319303 100.943015,29.5476624 100.943015,30.5691755 L100.943015,31.7619306 L99.1083494,32.102435 C97.7077282,32.3672167 96.5535768,32.9918047 96.5535768,34.4295448 C96.5535768,35.6782258 97.5186691,36.4349571 98.8054589,36.4349571 C99.4864676,36.4349571 100.527777,35.8108641 101.038534,35.3001076 C101.227593,35.9048987 101.775469,36.4349571 102.419358,36.4349571 C103.100862,36.4349571 103.800678,35.9430075 104.064965,35.5832013 L104.064965,35.5832013 Z M100.943015,34.7512422 C100.527777,35.1674692 99.9021997,35.5079736 99.3157205,35.5079736 C98.4837614,35.5079736 97.8596684,35.0353258 97.8596684,34.2028718 C97.8596684,33.161562 98.6540136,32.727023 99.6384078,32.5562759 L100.943015,32.310301 L100.943015,34.7512422 Z" id="Fill-31"></path>
                <path d="M109.500859,35.3376719 L109.237068,35.0159745 C109.06632,35.1862267 108.649598,35.5648398 107.930481,35.5648398 C107.211858,35.5648398 106.701102,35.0535883 106.701102,34.0132683 L106.701102,29.3966626 L109.028707,29.3966626 L109.028707,28.6399312 L106.701102,28.6399312 L106.701102,26.1237623 L106.246766,26.1237623 L105.319783,28.4320652 L104.108715,28.904713 L104.108715,29.3966626 L105.376698,29.3966626 L105.376698,34.2404362 C105.376698,35.735092 106.209152,36.3972938 107.249472,36.3972938 C108.290782,36.3972938 109.084632,35.8865372 109.500859,35.3376719" id="Fill-33"></path>
                <path d="M113.187166,25.6693276 C113.187166,25.1580761 112.79024,24.760656 112.278989,24.760656 C111.768232,24.760656 111.370317,25.1580761 111.370317,25.6693276 C111.370317,26.1795892 111.768232,26.5770093 112.278989,26.5770093 C112.79024,26.5770093 113.187166,26.1795892 113.187166,25.6693276 L113.187166,25.6693276 Z M114.323005,36.2081357 L114.323005,35.6785722 L113.092636,35.527127 L113.092636,28.3369417 L110.50025,28.8100844 L110.50025,29.302034 L111.730619,29.5099001 L111.730619,35.527127 L110.50025,35.6785722 L110.50025,36.2081357 L114.323005,36.2081357 Z" id="Fill-35"></path>
                <path d="M122.948258,32.3860237 C122.948258,29.9633945 121.226434,28.3365953 119.05077,28.3365953 C116.875105,28.3365953 115.152786,29.9633945 115.152786,32.3860237 C115.152786,34.8081579 116.875105,36.4349571 119.05077,36.4349571 C121.226434,36.4349571 122.948258,34.8081579 122.948258,32.3860237 M121.434795,32.3860237 C121.434795,34.6186039 120.470198,35.829671 119.05077,35.829671 C117.631342,35.829671 116.666744,34.6186039 116.666744,32.3860237 C116.666744,30.1534434 117.631342,28.9423763 119.05077,28.9423763 C120.470198,28.9423763 121.434795,30.1534434 121.434795,32.3860237" id="Fill-37"></path>
                <path d="M132.830704,36.2081357 L132.830704,35.6785722 L131.60083,35.527127 L131.60083,30.8729074 C131.60083,29.3772618 130.673352,28.3369417 129.216805,28.3369417 C127.93051,28.3369417 126.964428,29.0936731 126.491285,30.2290176 L126.416057,30.2102107 L126.416057,28.4126644 L123.899393,28.8100844 L123.899393,29.302529 L125.129267,29.510395 L125.129267,35.527127 L123.899393,35.6785722 L123.899393,36.2081357 L127.854787,36.2081357 L127.854787,35.6785722 L126.491285,35.527127 L126.491285,32.5942362 C126.491285,30.8154968 127.344031,29.1317819 128.857493,29.1317819 C129.425166,29.1317819 129.8602,29.2451183 130.238318,29.6994541 L130.238318,35.527127 L128.8763,35.6785722 L128.8763,36.2081357 L132.830704,36.2081357 Z" id="Fill-39"></path>
                <path d="M31.5810872,4.20488249 C29.4841148,11.5306756 29.7444423,18.1423004 29.7444423,18.1423004 C32.5288573,20.8168434 35.4850094,24.350566 38.3738524,28.3173429 C39.4013045,25.9095613 39.9704615,23.2597642 39.9704615,20.476339 C39.9704615,13.7632558 36.6589575,7.82818551 31.5810872,4.20488249" id="Fill-41"></path>
                <path d="M8.92210528,16.645071 C6.30249828,16.7702855 4.63412586,15.4681533 4.63412586,15.4681533 C4.63412586,15.4681533 5.14042814,15.1316083 5.75264312,14.5099898 C6.35891906,13.8858968 6.69942343,13.2934786 7.3581608,12.8574548 C8.01739309,12.4209361 9.64320246,11.7819955 10.7933945,11.7537851 C11.9371527,11.7260697 14.3008865,11.9819429 14.7057303,12.5921782 C14.9749663,13.0009814 11.5387428,16.5188666 8.92210528,16.645071 M21.6459814,15.6512733 C20.9684371,15.3661999 20.2438755,15.531008 19.9068356,15.9982117 C19.5386157,16.5134225 19.2500779,17.1399901 19.2500779,17.1399901 C18.9259058,18.0150072 17.5203355,17.9472032 17.608926,17.3552799 C17.7262218,16.5668738 18.135025,15.5953475 18.6061881,14.8707859 C18.9338245,14.3773515 19.3871705,13.9576601 19.3871705,13.9576601 C19.3871705,13.9576601 18.6245001,13.3944421 17.0610505,12.3095793 L16.3587603,11.8304976 C11.9920887,9.0272756 8.2193201,7.45095814 5.6462355,6.56455796 C2.15408606,10.1621252 0.000197967655,15.0662789 0.000197967655,20.47624 C0.000197967655,29.0051815 5.34285007,36.2790081 12.8601769,39.150034 C11.8015448,36.9842679 10.2865973,33.1273631 10.4410121,29.2942143 C10.57662,25.9158963 12.0643469,24.2841479 12.0643469,24.2841479 C11.8742979,25.550646 11.6936525,26.266299 11.8074839,28.3083354 C11.9247797,30.4369826 12.6463718,32.9105885 12.6463718,32.9105885 C12.5800526,31.523825 12.3622882,29.6748071 12.4068309,28.2548841 C12.6201411,21.2507885 14.8294601,19.4463133 16.2008811,19.4873916 C16.5740501,19.4992696 16.6057249,19.6383419 16.6057249,19.6383419 C16.5567279,19.7026814 16.5087208,19.7690006 16.4626933,19.8387842 C15.5317504,21.2408901 15.191246,23.7763608 15.1150285,26.2687736 C14.9630883,31.2936876 15.9652995,34.9353027 15.9652995,34.9353027 C15.9469875,32.5265312 15.8455291,29.5609757 15.9464926,26.2831263 C16.0806157,21.9070513 17.4723283,19.1399584 18.374071,19.1676738 C19.230776,19.1934096 20.1246,21.8625085 20.0617453,25.6431958 C20.032545,27.4432167 20.0112635,29.852978 20.0087889,31.3179387 C20.0087889,31.3179387 20.7655203,28.5993479 20.8551006,25.6575485 C20.9135011,23.7545844 20.7625508,21.0533157 20.0013651,19.7254477 C20.0013651,19.7254477 20.0795623,19.4769983 20.5264743,19.490856 C21.8147488,19.5314394 24.3893182,21.6610764 24.0948413,31.2798299 C24.5892655,29.3689471 24.769911,28.4389941 24.5699637,25.6367619 C24.5699637,25.6367619 25.382126,27.1388415 25.3167967,29.2912448 C25.1509988,34.6918024 23.2302176,38.5828567 21.4430646,40.8728476 C19.8909981,42.8624225 18.2849855,44.4832827 16.7858755,44.8406143 C16.9798838,44.9198014 17.1936888,44.970778 17.4337246,44.9782018 C17.7856121,44.98909 18.1523472,44.9351439 18.5235366,44.8168582 C19.8994118,44.3813293 21.4000066,43.0757327 23.2435804,40.711009 C23.380673,40.5367975 23.5281589,40.3363552 23.6786143,40.1205705 C28.9232724,39.1411255 33.442874,36.1127153 36.3821988,31.8999636 C31.5438693,24.8127215 26.2858483,19.4037503 21.6459814,15.6512733" id="Fill-43"></path>
                <path d="M23.2331871,11.188637 C22.6848167,11.0856938 21.8053454,9.50640681 21.4851327,8.6863258 C21.1659098,7.8741635 21.1327503,6.5477802 21.2455918,5.95387724 C21.3589283,5.36492346 21.6692426,4.95067614 21.9261056,4.33796625 C22.180989,3.72575128 22.2700744,3.27092059 22.2700744,3.27092059 C22.2700744,3.27092059 23.6796042,4.0548725 24.3645722,5.9296262 C25.0485505,7.80339006 23.5974476,11.2569358 23.2331871,11.188637 M19.9855277,0.494919139 C15.4030714,0.494919139 11.1828959,2.04104653 7.81200165,4.63392789 C11.990109,6.07315275 19.1847485,9.31586295 27.1964996,16.3318367 C27.6062926,10.6966873 28.5411949,6.44879638 29.7309805,3.0308848 C26.8485714,1.41794333 23.5261792,0.494919139 19.9855277,0.494919139" id="Fill-46"></path>
            </g>
        </g>
    </g>
</svg>