<?xml version="1.0" encoding="UTF-8"?>
<svg width="189px" height="50px" viewBox="0 0 189 50" version="1.1" xmlns="http://www.w3.org/2000/svg" xmlns:xlink="http://www.w3.org/1999/xlink">
    <!-- Generator: Sketch 47.1 (45422) - http://www.bohemiancoding.com/sketch -->
    <title>wcf-logo</title>
    <desc>Created with Sketch.</desc>
    <defs></defs>
    <g id="Client-Logos" stroke="none" stroke-width="1" fill="none" fill-rule="evenodd">
        <g id="wcf-logo" fill="#818181">
            <g id="Page-1" transform="translate(19.011504, 0.708107)">
                <polygon id="Fill-1" points="70.7304091 8.3933095 70.7304091 7.73731004 66.898922 7.73731004 66.898922 8.3933095 68.5378488 8.61840736 65.4036291 17.4706485 62.3701675 8.76204123 62.3701675 8.55730937 64.0707282 8.3933095 64.0707282 7.73731004 59.3581438 7.73731004 59.3581438 8.3933095 60.6085088 8.55730937 61.3861683 10.6882357 58.9079481 17.4706485 55.7726565 8.55730937 57.4737532 8.3933095 57.4737532 7.73731004 52.8629988 7.73731004 52.8629988 8.3933095 54.0720958 8.55730937 58.3543146 20.5234042 58.7241182 20.5234042 61.8787039 12.0404307 64.8907275 20.5234042 65.2589233 20.5234042 69.5207761 8.6393093"></polygon>
                <path d="M78.0630253,16.2202835 C78.0630253,13.5973576 76.1984647,11.8356989 73.8419046,11.8356989 C71.4864163,11.8356989 69.6213198,13.5973576 69.6213198,16.2202835 C69.6213198,18.8432095 71.4864163,20.6048682 73.8419046,20.6048682 C76.1984647,20.6048682 78.0630253,18.8432095 78.0630253,16.2202835 M76.4240985,16.2202835 C76.4240985,18.6379417 75.3790014,19.9494047 73.8419046,19.9494047 C72.3058797,19.9494047 71.2607825,18.6379417 71.2607825,16.2202835 C71.2607825,13.8026254 72.3058797,12.4911624 73.8419046,12.4911624 C75.3790014,12.4911624 76.4240985,13.8026254 76.4240985,16.2202835" id="Fill-2"></path>
                <path d="M85.4653147,12.3477429 C85.1994849,12.0813771 84.6871193,11.8353773 84.2776556,11.8353773 C83.3547543,11.8353773 82.4950949,12.3064749 81.8396314,13.8644737 L81.7570955,13.8435717 L81.7570955,11.9377432 L79.0939735,12.3477429 L79.0939735,12.8804745 L80.4258025,13.1061083 L80.4258025,19.6216193 L79.0939735,19.7850832 L79.0939735,20.3590828 L83.78512,20.3590828 L83.78512,19.7850832 L81.8798274,19.6216193 L81.8798274,15.9954 C81.8798274,14.4990353 82.4950949,13.2904741 83.3338524,12.8804745 L84.9122171,13.7203039 L85.4653147,12.3477429 Z" id="Fill-4"></path>
                <polygon id="Fill-6" points="90.0527554 20.35919 90.0527554 19.7857264 88.7219983 19.6217265 88.7219983 6.59016849 85.9141706 6.97980216 85.9141706 7.51253375 87.2459995 7.73763161 87.2459995 19.6217265 85.9141706 19.7857264 85.9141706 20.35919"></polygon>
                <path d="M100.029039,20.1747169 L100.029039,19.6419853 L98.6982817,19.4168875 L98.6982817,6.5900613 L95.8904539,6.97915902 L95.8904539,7.51242656 L97.2222829,7.73698847 L97.2222829,12.6961086 C96.8122833,12.265743 96.0748198,11.8353773 94.9895266,11.8353773 C92.6935284,11.8353773 90.9527717,13.7615718 90.9527717,16.4868637 C90.9527717,19.1912537 92.8371623,20.6050826 94.6406249,20.6050826 C95.9933558,20.6050826 96.7104533,19.990351 97.2222829,19.2936196 L97.3042829,19.3145215 L97.3042829,20.5643506 L100.029039,20.1747169 Z M97.2222829,18.2077904 C96.9344792,18.9656198 96.3615516,19.7443512 95.1320885,19.7443512 C93.6164296,19.7443512 92.5306005,18.3717903 92.5306005,16.3228638 C92.5306005,14.3966693 93.3291619,12.5524747 95.1733565,12.5524747 C96.0142578,12.5524747 96.8326493,13.0852063 97.2222829,13.7412058 L97.2222829,18.2077904 Z" id="Fill-8"></path>
                <path d="M117.322235,18.6176293 L116.830772,17.9616298 C115.744406,19.0887269 114.330577,19.7650924 112.690579,19.7650924 C109.659261,19.7650924 107.9587,16.9374346 107.9587,13.823045 C107.9587,10.3399236 110.007627,8.22882729 112.466553,8.22882729 C114.167114,8.22882729 115.089479,8.68009489 116.072406,9.50009422 L116.39987,11.118655 L117.055869,11.118655 L117.219869,7.40989985 L116.564406,7.40989985 L116.297504,8.02409543 C115.539675,7.69663164 114.515479,7.40989985 112.814919,7.40989985 C108.819432,7.40989985 106.155774,10.1346558 106.155774,14.1301427 C106.155774,18.1256297 108.900896,20.6869217 112.548553,20.6869217 C114.413113,20.6869217 115.970576,19.9901903 117.322235,18.6176293" id="Fill-10"></path>
                <path d="M126.828493,16.2202835 C126.828493,13.5973576 124.964468,11.8356989 122.607372,11.8356989 C120.251884,11.8356989 118.387859,13.5973576 118.387859,16.2202835 C118.387859,18.8432095 120.251884,20.6048682 122.607372,20.6048682 C124.964468,20.6048682 126.828493,18.8432095 126.828493,16.2202835 M125.190102,16.2202835 C125.190102,18.6379417 124.145005,19.9494047 122.607372,19.9494047 C121.071883,19.9494047 120.027322,18.6379417 120.027322,16.2202835 C120.027322,13.8026254 121.071883,12.4911624 122.607372,12.4911624 C124.145005,12.4911624 125.190102,13.8026254 125.190102,16.2202835" id="Fill-12"></path>
                <path d="M135.618778,19.0274682 L135.209315,18.6378345 C134.778949,19.1909321 133.897316,19.7038336 132.606219,19.7038336 C131.049828,19.7038336 129.758731,18.2696387 129.758731,16.0770784 C129.758731,13.8025182 130.844024,12.5317872 132.422925,12.5317872 C133.733316,12.5317872 134.513119,13.2901526 134.738217,14.3963478 L135.271485,14.3963478 L135.393681,11.8355917 L134.902217,11.8355917 L134.676583,12.3479573 C133.897316,11.9379576 133.324388,11.8355917 132.340925,11.8355917 C130.209999,11.8355917 128.140706,13.5565184 128.140706,16.1794443 C128.140706,18.8431023 129.983293,20.604761 132.340925,20.604761 C134.164753,20.604761 135.147681,19.5805658 135.618778,19.0274682" id="Fill-14"></path>
                <path d="M144.818849,16.2202835 C144.818849,13.5973576 142.954289,11.8356989 140.596657,11.8356989 C138.24224,11.8356989 136.376608,13.5973576 136.376608,16.2202835 C136.376608,18.8432095 138.24224,20.6048682 140.596657,20.6048682 C142.954289,20.6048682 144.818849,18.8432095 144.818849,16.2202835 M143.178851,16.2202835 C143.178851,18.6379417 142.134289,19.9494047 140.596657,19.9494047 C139.061168,19.9494047 138.016071,18.6379417 138.016071,16.2202835 C138.016071,13.8026254 139.061168,12.4911624 140.596657,12.4911624 C142.134289,12.4911624 143.178851,13.8026254 143.178851,16.2202835" id="Fill-16"></path>
                <path d="M154.235604,19.6829853 L154.008898,19.3142536 C153.866872,19.4782534 153.538336,19.6417173 153.211409,19.6417173 C152.799265,19.6417173 152.329775,19.3962535 152.329775,18.2895224 L152.329775,14.0893036 C152.329775,12.6143767 151.38758,11.8356453 149.542849,11.8356453 C148.27319,11.8356453 147.083923,12.5934747 146.40863,13.5978399 L146.982629,14.1305715 C147.556093,13.2902062 148.312315,12.6963766 149.25719,12.6963766 C150.424483,12.6963766 150.854312,13.1471082 150.854312,14.2533034 L150.854312,15.5444004 L148.865412,15.9125962 C147.350289,16.199328 146.10046,16.8756934 146.10046,18.4326203 C146.10046,19.7858872 147.146093,20.6053505 148.53902,20.6053505 C149.27702,20.6053505 150.404117,19.9284491 150.957214,19.3758875 C151.161946,20.031887 151.75524,20.6053505 152.451971,20.6053505 C153.191043,20.6053505 153.947264,20.0726189 154.235604,19.6829853 L154.235604,19.6829853 Z M150.854312,18.780986 C150.404117,19.2327896 149.727751,19.6009853 149.091582,19.6009853 C148.190654,19.6009853 147.515361,19.0891557 147.515361,18.1866205 C147.515361,17.0600593 148.37502,16.5889617 149.439412,16.4045958 L150.854312,16.13823 L150.854312,18.780986 Z" id="Fill-18"></path>
                <polygon id="Fill-21" points="63.1067734 29.4564126 63.1067734 26.5880228 54.2539963 26.5880228 54.2539963 27.2440223 55.853263 27.4080221 55.853263 38.3906537 54.2539963 38.5541176 54.2539963 39.2095811 59.4591163 39.2095811 59.4591163 38.5541176 57.4503859 38.3906537 57.4503859 33.2471677 60.8113113 33.2471677 61.0165791 34.6609966 61.7127746 34.6609966 61.7127746 31.0138754 61.0165791 31.0138754 60.8113113 32.4271684 57.4503859 32.4271684 57.4503859 27.4080221 62.0825782 27.4080221 62.368774 29.4564126"></polygon>
                <path d="M72.0399426,35.0707819 C72.0399426,32.44732 70.1748461,30.6856613 67.8182859,30.6856613 C65.4633336,30.6856613 63.5977012,32.44732 63.5977012,35.0707819 C63.5977012,37.6937079 65.4633336,39.4553666 67.8182859,39.4553666 C70.1748461,39.4553666 72.0399426,37.6937079 72.0399426,35.0707819 M70.4004799,35.0707819 C70.4004799,37.4884401 69.3553827,38.799903 67.8182859,38.799903 C66.2822611,38.799903 65.2371639,37.4884401 65.2371639,35.0707819 C65.2371639,32.6531237 66.2822611,31.3416608 67.8182859,31.3416608 C69.3553827,31.3416608 70.4004799,32.6531237 70.4004799,35.0707819" id="Fill-23"></path>
                <path d="M82.5301459,39.0250009 L82.5301459,38.4922693 L81.1983169,38.2671715 L81.1983169,31.014197 L78.2484631,31.014197 L78.2484631,31.5876606 L79.72339,31.8127584 L79.72339,34.84622 C79.72339,36.7713426 78.8015607,38.5951712 77.161562,38.5951712 C76.5473664,38.5951712 76.0344649,38.4515373 75.6657332,37.9397077 L75.6657332,31.014197 L72.8589773,31.014197 L72.8589773,31.5876606 L74.1908063,31.8127584 L74.1908063,36.7102446 C74.1908063,38.3288054 75.1946355,39.4553666 76.7724643,39.4553666 C78.1653912,39.4553666 79.2115603,38.6359032 79.72339,37.4064401 L79.8053899,37.427878 L79.8053899,39.4146346 L82.5301459,39.0250009 Z" id="Fill-25"></path>
                <path d="M93.4935369,39.2097419 L93.4935369,38.6362783 L92.1627799,38.4722785 L92.1627799,33.4322303 C92.1627799,31.8125976 91.1584147,30.6860364 89.5805859,30.6860364 C88.1876589,30.6860364 87.1420258,31.5054998 86.6301961,32.7349629 L86.5481962,32.7145969 L86.5481962,30.7680364 L83.8234402,31.198402 L83.8234402,31.7316696 L85.1541973,31.9567674 L85.1541973,38.4722785 L83.8234402,38.6362783 L83.8234402,39.2097419 L88.105123,39.2097419 L88.105123,38.6362783 L86.6301961,38.4722785 L86.6301961,35.2962549 C86.6301961,33.3700604 87.5520254,31.5467678 89.1914882,31.5467678 C89.8056837,31.5467678 90.2762454,31.6694997 90.6862451,32.1614993 L90.6862451,38.4722785 L89.2118541,38.6362783 L89.2118541,39.2097419 L93.4935369,39.2097419 Z" id="Fill-27"></path>
                <path d="M103.402237,39.0250009 L103.402237,38.4922693 L102.070944,38.2671715 L102.070944,25.4403453 L99.2631166,25.829979 L99.2631166,26.3627106 L100.594946,26.5878084 L100.594946,31.5469286 C100.185482,31.1160269 99.4474824,30.6856613 98.3621892,30.6856613 C96.066727,30.6856613 94.3254343,32.6123917 94.3254343,35.3371477 C94.3254343,38.0420736 96.2098249,39.4553666 98.0132875,39.4553666 C99.3665544,39.4553666 100.083116,38.840635 100.594946,38.1439036 L100.676945,38.1648055 L100.676945,39.4146346 L103.402237,39.0250009 Z M100.594946,37.0586103 C100.307142,37.8164398 99.7331423,38.5951712 98.5047512,38.5951712 C96.9890923,38.5951712 95.9032631,37.2226102 95.9032631,35.1731478 C95.9032631,33.2480252 96.7018245,31.4027587 98.5460191,31.4027587 C99.3869204,31.4027587 100.205312,31.9354903 100.594946,32.5914898 L100.594946,37.0586103 Z" id="Fill-29"></path>
                <path d="M112.691811,38.5330013 L112.466714,38.1648055 C112.323616,38.3288054 111.99508,38.4922693 111.668152,38.4922693 C111.257617,38.4922693 110.787055,38.2468055 110.787055,37.1406103 L110.787055,32.9398555 C110.787055,31.4643927 109.844324,30.6856613 108.000665,30.6856613 C106.729934,30.6856613 105.541203,31.4440267 104.865373,32.4478559 L105.439373,32.9811235 C106.012837,32.1412941 106.770666,31.5469286 107.713397,31.5469286 C108.881226,31.5469286 109.311056,31.9971243 109.311056,33.1033194 L109.311056,34.3949524 L107.3243,34.7636841 C105.807569,35.0504159 104.55774,35.7267814 104.55774,37.2837082 C104.55774,38.6359032 105.602837,39.4553666 106.9963,39.4553666 C107.733763,39.4553666 108.861396,38.779537 109.414494,38.2264395 C109.619226,38.881367 110.212519,39.4553666 110.909787,39.4553666 C111.647786,39.4553666 112.405616,38.922635 112.691811,38.5330013 L112.691811,38.5330013 Z M109.311056,37.6320739 C108.861396,38.0828056 108.183959,38.4515373 107.548861,38.4515373 C106.647934,38.4515373 105.972105,37.9397077 105.972105,37.0382443 C105.972105,35.9106113 106.8323,35.4400496 107.898299,35.2551478 L109.311056,34.988782 L109.311056,37.6320739 Z" id="Fill-31"></path>
                <path d="M118.578335,38.2671179 L118.292675,37.9187521 C118.107773,38.103118 117.656505,38.5131177 116.877774,38.5131177 C116.099579,38.5131177 115.546481,37.9594841 115.546481,36.8329229 L115.546481,31.8336068 L118.067041,31.8336068 L118.067041,31.0141434 L115.546481,31.0141434 L115.546481,28.2893874 L115.054481,28.2893874 L114.050652,30.7890455 L112.739189,31.3008752 L112.739189,31.8336068 L114.112286,31.8336068 L114.112286,37.0789227 C114.112286,38.6974835 115.013749,39.414581 116.140311,39.414581 C117.267944,39.414581 118.127603,38.8614834 118.578335,38.2671179" id="Fill-33"></path>
                <path d="M122.570231,27.7972806 C122.570231,27.2436471 122.140401,26.8132814 121.586768,26.8132814 C121.03367,26.8132814 120.602768,27.2436471 120.602768,27.7972806 C120.602768,28.3498423 121.03367,28.7802079 121.586768,28.7802079 C122.140401,28.7802079 122.570231,28.3498423 122.570231,27.7972806 L122.570231,27.7972806 Z M123.80023,39.2097419 L123.80023,38.6362783 L122.467865,38.4722785 L122.467865,30.6860364 L119.660573,31.198402 L119.660573,31.7311336 L120.992938,31.9562315 L120.992938,38.4722785 L119.660573,38.6362783 L119.660573,39.2097419 L123.80023,39.2097419 Z" id="Fill-35"></path>
                <path d="M133.140505,35.0707819 C133.140505,32.44732 131.275944,30.6856613 128.91992,30.6856613 C126.563896,30.6856613 124.698799,32.44732 124.698799,35.0707819 C124.698799,37.6937079 126.563896,39.4553666 128.91992,39.4553666 C131.275944,39.4553666 133.140505,37.6937079 133.140505,35.0707819 M131.501578,35.0707819 C131.501578,37.4884401 130.457017,38.799903 128.91992,38.799903 C127.382823,38.799903 126.338262,37.4884401 126.338262,35.0707819 C126.338262,32.6531237 127.382823,31.3416608 128.91992,31.3416608 C130.457017,31.3416608 131.501578,32.6531237 131.501578,35.0707819" id="Fill-37"></path>
                <path d="M143.842193,39.2097419 L143.842193,38.6362783 L142.510364,38.4722785 L142.510364,33.4322303 C142.510364,31.8125976 141.505998,30.6860364 139.928706,30.6860364 C138.535779,30.6860364 137.48961,31.5054998 136.977244,32.7349629 L136.89578,32.7145969 L136.89578,30.7680364 L134.170488,31.198402 L134.170488,31.7316696 L135.502317,31.9567674 L135.502317,38.4722785 L134.170488,38.6362783 L134.170488,39.2097419 L138.453779,39.2097419 L138.453779,38.6362783 L136.977244,38.4722785 L136.977244,35.2962549 C136.977244,33.3700604 137.900681,31.5467678 139.539608,31.5467678 C140.154339,31.5467678 140.625437,31.6694997 141.034901,32.1614993 L141.034901,38.4722785 L139.559974,38.6362783 L139.559974,39.2097419 L143.842193,39.2097419 Z" id="Fill-39"></path>
                <path d="M34.1991172,4.55346165 C31.9283086,12.4865532 32.2102169,19.6462729 32.2102169,19.6462729 C35.2254563,22.542532 38.4266694,26.3691955 41.5549936,30.6648129 C42.6676202,28.0574294 43.2839595,25.1879677 43.2839595,22.1738002 C43.2839595,14.9042114 39.6979363,8.47713166 34.1991172,4.55346165" id="Fill-41"></path>
                <path d="M9.66173592,18.0249252 C6.82496699,18.1605199 5.01828872,16.7504426 5.01828872,16.7504426 C5.01828872,16.7504426 5.56656279,16.3859984 6.22952957,15.7128486 C6.88606498,15.0370191 7.25479671,14.3954902 7.96814253,13.9233207 C8.6820243,13.4506152 10.4426111,12.7587073 11.6881526,12.7281583 C12.9267267,12.6981452 15.4864109,12.97523 15.9248158,13.6360529 C16.2163711,14.0787454 12.4952892,17.8882586 9.66173592,18.0249252 M23.4404044,16.9487431 C22.7066926,16.6400374 21.9220658,16.8185079 21.5570857,17.3244421 C21.1583409,17.8823632 20.8458837,18.5608725 20.8458837,18.5608725 C20.4948382,19.5084273 18.9727479,19.4350025 19.0686825,18.7940095 C19.195702,17.9402455 19.6383945,16.888181 20.1486163,16.1035542 C20.5034134,15.5692148 20.9943411,15.1147315 20.9943411,15.1147315 C20.9943411,15.1147315 20.1684463,14.5048235 18.4753889,13.3300271 L17.7148797,12.8112301 C12.9862169,9.77562472 8.90069079,8.06863265 6.1143009,7.10875107 C2.33265692,11.0045518 0.00021437891,16.3152534 0.00021437891,22.1736931 C0.00021437891,31.4096725 5.78576522,39.2864896 13.9262684,42.3955197 C12.7798772,40.0502144 11.1393426,35.8735773 11.3065581,31.7226657 C11.4534077,28.0642896 13.0644652,26.2972714 13.0644652,26.2972714 C12.8586614,27.6687605 12.6630407,28.4437402 12.7863085,30.6550587 C12.913328,32.9601679 13.6947392,35.6388324 13.6947392,35.6388324 C13.6229222,34.1371081 13.3871054,32.1348091 13.4353407,30.5971764 C13.666334,23.0124505 16.0588026,21.0583868 17.5439125,21.1028704 C17.9480168,21.1157331 17.9823174,21.2663343 17.9823174,21.2663343 C17.9292586,21.3360075 17.8772717,21.4078244 17.8274286,21.483393 C16.8193118,23.0017316 16.4505801,25.7473895 16.3680442,28.44642 C16.2035084,33.8878927 17.2888016,37.8313927 17.2888016,37.8313927 C17.2689716,35.2229373 17.1591024,32.0115413 17.2684356,28.4619624 C17.4136773,23.7231166 18.9207611,20.7266354 19.897257,20.7566485 C20.8249817,20.7845177 21.7929025,23.6748814 21.7248372,27.7689826 C21.6932163,29.7182229 21.6701706,32.3277501 21.6674909,33.9141541 C21.6674909,33.9141541 22.4869542,30.9701957 22.5839607,27.7845251 C22.6472025,25.7238078 22.4837386,22.7986076 21.6594516,21.360661 C21.6594516,21.360661 21.7441313,21.0916155 22.2280917,21.106622 C23.6231625,21.1505697 26.4111602,23.4567508 26.0922716,33.8728861 C26.6276829,31.8035937 26.8233036,30.7965488 26.6067809,27.7620153 C26.6067809,27.7620153 27.4862704,29.3886153 27.4155254,31.71945 C27.235983,37.5677067 25.1559717,41.7813241 23.2206661,44.2611522 C21.5399354,46.4156602 19.8007865,48.1708876 18.1774022,48.5578415 C18.3874935,48.6435931 18.6190227,48.6987956 18.8789572,48.7068348 C19.2600157,48.7186257 19.6571526,48.6602074 20.0591131,48.532116 C21.5490465,48.0604824 23.1740386,46.6466535 25.1704422,44.0858974 C25.3188996,43.897244 25.4786119,43.6801853 25.6415399,43.4465123 C31.3209732,42.3858727 36.2152437,39.1064113 39.3982346,34.5444281 C34.158814,26.8696631 28.4649102,21.0122953 23.4404044,16.9487431" id="Fill-43"></path>
                <path d="M25.1591874,12.1161601 C24.5653578,12.004683 23.6129795,10.2944753 23.2662216,9.40641064 C22.9205356,8.52692116 22.8846271,7.09058246 23.0068231,6.44744573 C23.129555,5.80966847 23.465594,5.3610806 23.7437506,4.69757787 C24.0197634,4.03461109 24.116234,3.54207555 24.116234,3.54207555 C24.116234,3.54207555 25.6426118,4.39101603 26.3843628,6.42118431 C27.125042,8.4502807 25.5536446,12.1901208 25.1591874,12.1161601 M21.6423013,0.535947276 C16.6799655,0.535947276 12.1099431,2.21024657 8.45960618,5.01807434 C12.9840731,6.57660902 20.7751386,10.0881356 29.4510531,17.6857242 C29.8948175,11.5834285 30.9072219,6.98339301 32.1956391,3.28214112 C29.0742822,1.53548895 25.4764681,0.535947276 21.6423013,0.535947276" id="Fill-46"></path>
            </g>
        </g>
    </g>
</svg>