<?xml version="1.0" encoding="UTF-8"?>
<svg width="188px" height="50px" viewBox="0 0 188 50" version="1.1" xmlns="http://www.w3.org/2000/svg" xmlns:xlink="http://www.w3.org/1999/xlink">
    <!-- Generator: Sketch 47.1 (45422) - http://www.bohemiancoding.com/sketch -->
    <title>yale-logo</title>
    <desc>Created with Sketch.</desc>
    <defs></defs>
    <g id="Client-Logos" stroke="none" stroke-width="1" fill="none" fill-rule="evenodd">
        <g id="yale-logo" fill="#818181">
            <g id="Page-1" transform="translate(58.453802, 11.870763)">
                <path d="M24.4478569,3.56357235 C22.3432528,3.67612492 21.3632161,4.35144034 20.2742864,6.15228147 L14.0297698,16.3925908 L14.0297698,23.6709903 C14.8197388,25.4343139 16.550147,25.6199269 18.2805552,25.694962 L18.2805552,26.5598396 L6.2825302,26.5598396 L6.2825302,25.694962 C8.01095855,25.6199269 10.0799249,25.3217613 10.6441885,24.1962356 L10.6441885,16.7302485 L4.17594627,6.11476394 C3.08503673,4.35144034 2.06936233,3.67612492 0.000395974423,3.56357235 L0.000395974423,2.74016144 L10.3808655,2.74016144 L10.3808655,3.56357235 C8.38713425,3.67612492 7.78525313,4.08881767 7.22098958,4.53902796 L13.1645657,14.5917496 L19.0329066,4.614063 C18.4290456,4.16385272 17.8667619,3.67612492 15.8730307,3.56357235 L15.8730307,2.74016144 L24.4478569,2.74016144 L24.4478569,3.56357235 Z" id="Fill-1"></path>
                <path d="M30.9954919,18.4937695 C30.0174351,18.9439798 27.1604796,20.031988 26.0695701,20.6322684 C25.9190998,21.2325487 25.8042672,22.0579343 25.8042672,22.8082847 C25.8042672,23.9338104 26.4457458,24.9843011 27.572293,24.9843011 C29.0769958,24.9843011 29.7917297,24.6091259 30.9578744,23.7837403 L30.9954919,18.4937695 Z M37.6914194,24.7947389 C36.7885977,25.7346516 34.9453368,26.8957202 33.7415745,26.8957202 C31.8230785,26.8957202 31.0331095,25.3594763 30.9954919,24.4965733 C29.678877,25.8472041 27.6118905,26.8957202 26.2180605,26.8957202 C24.3767794,26.8957202 22.4582834,25.6576419 22.4582834,23.4836002 C22.4582834,22.470627 22.6087536,21.1950312 23.2106348,20.3321282 L30.9954919,17.593349 L31.0331095,14.9671223 C31.0707271,13.2413163 29.6412594,11.3674147 27.9108512,11.3674147 C26.8595391,11.3674147 25.9567174,12.680528 25.8814822,14.5169121 L22.8344591,15.0796749 L22.8344591,14.6689568 C23.887751,11.5174848 27.9108512,9.94174879 29.5660243,9.94174879 C32.9892231,9.94174879 34.1177502,11.7425899 34.0801327,14.6294646 L33.9296624,22.7332497 C33.8920448,24.2714681 34.7196314,24.759196 35.5096003,24.759196 C36.3371869,24.759196 36.8262153,24.4195636 37.6914194,23.8212579 L37.6914194,24.7947389 Z" id="Fill-3"></path>
                <path d="M46.3810781,26.5588523 L38.1071926,26.5588523 L38.1071926,25.6959493 C39.9108561,25.5833967 40.3622669,25.2082215 40.6651873,24.5704236 L40.6651873,4.46498021 C40.6651873,3.18938442 40.7384426,2.66413909 38.1448101,2.40151642 L38.1448101,1.68868348 L43.7854658,0.0003949213 L44.3873469,0.0003949213 L44.3873469,0.52564025 L43.6726131,1.80123605 L43.6726131,24.5704236 C44.0487888,25.320774 44.5001996,25.5083617 46.3810781,25.6959493 L46.3810781,26.5588523 Z" id="Fill-5"></path>
                <path d="M58.5309593,15.0054297 C58.5309593,12.9794834 57.0262565,11.1036073 55.3334659,11.1036073 C53.3397347,11.1036073 51.8746293,12.6043082 51.460836,15.0804647 L58.5309593,15.0054297 Z M62.1046285,23.5199329 C59.8099567,25.6209142 58.0795485,26.8589925 54.9949077,26.8589925 C51.1222779,26.8589925 48.1504898,23.7450381 48.1504898,19.2054177 C48.1504898,13.6923164 51.460836,9.97808155 56.0105821,9.97808155 C59.8099567,9.97808155 61.5779825,11.9665103 61.5779825,15.530675 L61.5779825,16.1684729 L51.3103657,16.0934379 C51.2707683,16.4310956 51.2331507,17.2564811 51.2331507,18.1193841 C51.2331507,22.0567495 53.8683605,24.6829761 56.988639,24.6829761 C59.1328405,24.6829761 59.9228094,24.0451782 61.540365,22.6570299 L62.1046285,23.5199329 Z" id="Fill-7"></path>
            </g>
        </g>
    </g>
</svg>